<?xml version="1.0" encoding="UTF-8"?>
<svg width="461px" height="239px" viewBox="0 0 461 239" version="1.1" xmlns="http://www.w3.org/2000/svg" xmlns:xlink="http://www.w3.org/1999/xlink">
    <title>freshbooks</title>
    <g id="Tests" stroke="none" stroke-width="1" fill="none" fill-rule="evenodd">
        <g id="freshbooks" transform="translate(0.384615, 0.000000)" fill-rule="nonzero">
            <path d="M137.425,209.661218 C137.041987,206.290705 136.505769,203.533013 133.365064,203.533013 C129.534936,203.533013 128.76891,207.516346 128.76891,214.410577 C128.76891,216.938462 128.76891,223.909295 133.365064,223.909295 C136.888782,223.909295 137.271795,220.155769 137.425,217.78109 L142.863782,218.317308 C142.404167,221.841026 141.484936,228.811859 132.905449,228.811859 C124.325962,228.811859 122.564103,219.772756 122.564103,213.797756 C122.564103,207.746154 124.325962,198.783654 133.288462,198.783654 C141.408333,198.783654 142.480769,205.984295 142.863782,209.048397 L137.425,209.661218 L137.425,209.661218 Z" id="Path" fill="#000000"></path>
            <polygon id="Path" fill="#000000" points="146.847115 227.969231 152.515705 227.969231 152.515705 189.438141 146.847115 189.438141"></polygon>
            <path d="M162.014423,213.721154 C162.014423,221.151603 163.623077,224.139103 166.610577,224.139103 C169.598077,224.139103 171.206731,221.228205 171.206731,213.644551 C171.206731,206.060897 169.674679,203.226603 166.610577,203.226603 C163.546474,203.226603 162.014423,206.826923 162.014423,213.721154 M177.564744,213.414744 C177.564744,220.002564 176.032692,228.658654 166.763782,228.658654 C158.260897,228.658654 156.039423,221.151603 156.039423,213.721154 C156.039423,206.290705 157.877885,198.860256 166.840385,198.860256 C175.802885,198.860256 177.564744,206.520513 177.564744,213.414744" id="Shape" fill="#000000"></path>
            <path d="M186.603846,199.473077 L186.603846,217.551282 C186.603846,221.534615 186.603846,223.909295 189.744551,223.909295 C194.340705,223.909295 194.340705,218.470513 194.340705,213.184936 L194.340705,199.396474 L200.009295,199.396474 L200.009295,227.816026 L194.800321,227.816026 L194.800321,223.526282 C193.88109,226.590385 191.046795,228.582051 187.829487,228.505449 C180.935256,228.505449 180.935256,222.224038 180.935256,217.551282 L180.935256,199.166667 L186.603846,199.473077 Z" id="Path" fill="#000000"></path>
            <path d="M219.313141,211.193269 C219.466346,209.278205 219.083333,207.363141 218.164103,205.677885 C217.398077,204.299038 215.942628,203.379808 214.410577,203.303205 C210.197436,203.303205 209.814423,208.741987 209.814423,213.338141 C209.814423,217.857692 210.350641,223.985897 214.410577,223.985897 C215.942628,223.909295 217.321474,223.066667 218.164103,221.764423 C219.083333,220.079167 219.466346,218.164103 219.389744,216.325641 L219.389744,211.193269 L219.313141,211.193269 Z M224.905128,189.438141 L224.905128,227.892628 L219.696154,227.892628 L219.696154,223.602885 C218.776923,226.590385 215.942628,228.582051 212.801923,228.428846 C205.065064,228.428846 203.609615,219.236538 203.609615,213.797756 C203.609615,204.069231 207.592949,198.936859 212.801923,198.936859 C215.483013,198.707051 218.010897,200.239103 219.083333,202.766987 L219.083333,189.438141 L224.905128,189.438141 Z" id="Shape" fill="#000000"></path>
            <path d="M251.945833,214.027564 L250.260577,214.027564 C243.749359,214.027564 242.906731,217.398077 242.906731,220.079167 C242.906731,223.449679 244.66859,224.36891 246.583654,224.36891 C248.498718,224.36891 251.945833,221.841026 251.945833,215.559615 L251.945833,214.104167 L251.945833,214.027564 Z M238.080769,206.826923 C238.923397,202.000962 243.289744,198.553846 248.192308,198.860256 C251.026603,198.630449 253.860897,199.779487 255.699359,201.924359 C257.154808,204.528846 257.767628,207.516346 257.384615,210.427244 L257.384615,220.079167 C257.308013,222.760256 257.461218,225.364744 257.844231,227.969231 L252.788462,227.969231 C252.482051,226.437179 252.328846,224.905128 252.405449,223.373077 C251.179808,226.590385 248.115705,228.811859 244.66859,228.811859 C240.608654,228.965064 237.161538,225.824359 236.931731,221.764423 C236.931731,221.38141 236.931731,220.998397 236.931731,220.691987 C236.625321,216.785256 238.923397,213.184936 242.523718,211.80609 C245.511218,210.886859 248.575321,210.503846 251.716026,210.657051 L251.716026,209.508013 C251.716026,207.439744 251.716026,203.379808 247.65609,203.379808 C245.128205,203.379808 243.059936,205.448077 243.059936,207.975962 L237.621154,207.209936 L238.080769,206.826923 Z" id="Shape" fill="#000000"></path>
            <path d="M276.075641,209.661218 C275.692628,206.290705 275.079808,203.533013 272.015705,203.533013 C268.108974,203.533013 267.189744,207.516346 267.189744,214.410577 C267.189744,216.938462 267.189744,223.909295 272.015705,223.909295 C275.539423,223.909295 275.845833,220.155769 276.075641,217.78109 L281.514423,218.317308 C281.054808,221.841026 280.135577,228.811859 271.55609,228.811859 C262.976603,228.811859 261.214744,219.772756 261.214744,213.797756 C261.214744,207.746154 262.976603,198.783654 271.939103,198.783654 C280.135577,198.783654 281.13141,205.984295 281.514423,209.048397 L276.075641,209.661218 L276.075641,209.661218 Z" id="Path" fill="#000000"></path>
            <path d="M299.516026,209.661218 C299.133013,206.290705 298.520192,203.533013 295.45609,203.533013 C291.625962,203.533013 290.859936,207.516346 290.859936,214.410577 C290.859936,216.938462 290.859936,223.909295 295.45609,223.909295 C298.979808,223.909295 299.286218,220.155769 299.516026,217.78109 L304.954808,218.317308 C304.571795,221.841026 303.575962,228.811859 294.996474,228.811859 C286.416987,228.811859 284.731731,220.002564 284.731731,213.950962 C284.731731,207.899359 286.49359,198.936859 295.45609,198.936859 C303.652564,198.936859 304.648397,206.1375 305.03141,209.201603 L299.516026,209.661218 L299.516026,209.661218 Z" id="Path" fill="#000000"></path>
            <path d="M314.300321,213.721154 C314.300321,221.151603 315.908974,224.139103 318.896474,224.139103 C321.883974,224.139103 323.492628,221.228205 323.492628,213.644551 C323.492628,206.060897 321.960577,203.226603 318.896474,203.226603 C315.832372,203.226603 314.300321,206.826923 314.300321,213.721154 M329.850641,213.414744 C329.850641,220.002564 328.31859,228.658654 319.049679,228.658654 C310.546795,228.658654 308.325321,221.151603 308.325321,213.721154 C308.325321,206.290705 310.163782,198.860256 319.126282,198.860256 C328.088782,198.860256 329.850641,206.520513 329.850641,213.414744" id="Shape" fill="#000000"></path>
            <path d="M339.042949,199.473077 L339.042949,217.551282 C339.042949,221.534615 339.042949,223.909295 342.183654,223.909295 C346.779808,223.909295 346.779808,218.470513 346.779808,213.184936 L346.779808,199.396474 L352.448397,199.396474 L352.448397,227.816026 L347.239423,227.816026 L347.239423,223.526282 C346.320192,226.666987 343.409295,228.735256 340.191987,228.582051 C333.374359,228.582051 333.374359,222.300641 333.374359,217.627885 L333.374359,199.243269 L339.042949,199.473077 Z" id="Path" fill="#000000"></path>
            <path d="M356.814744,199.473077 L362.023718,199.473077 L362.023718,204.069231 C362.866346,201.005128 365.624038,198.936859 368.764744,198.936859 C371.369231,198.783654 373.74391,200.1625 374.892949,202.460577 C375.735577,204.758654 376.041987,207.286538 375.812179,209.737821 L375.812179,228.122436 L370.14359,228.122436 L370.14359,209.891026 C370.14359,206.214103 370.14359,203.533013 366.849679,203.533013 C362.253526,203.533013 362.253526,209.048397 362.253526,212.035897 L362.253526,227.969231 L356.738141,227.969231 L356.738141,199.473077 L356.814744,199.473077 Z" id="Path" fill="#000000"></path>
            <path d="M392.588141,204.222436 L387.379167,204.222436 L387.379167,216.785256 C387.379167,221.764423 387.379167,223.602885 391.132692,223.602885 C391.898718,223.679487 392.664744,223.679487 393.507372,223.602885 L393.507372,228.199038 C392.128526,228.505449 390.673077,228.658654 389.294231,228.735256 C381.863782,228.735256 381.863782,223.526282 381.863782,217.321474 L381.863782,204.222436 L378.340064,204.222436 L378.340064,199.626282 L382.09359,199.626282 L382.4,192.195833 L387.532372,191.736218 L387.532372,199.626282 L392.741346,199.626282 L392.588141,204.222436 L392.588141,204.222436 Z" id="Path" fill="#000000"></path>
            <path d="M397.720513,227.969231 L403.389103,227.969231 L403.389103,199.549525 L397.720513,199.549525 C397.720513,199.473077 397.720513,227.969231 397.720513,227.969231 Z M397.720513,195.796154 L403.61891,195.796154 L403.61891,189.438141 L397.567308,189.438141 L397.567308,195.719551 L397.720513,195.796154 Z" id="Shape" fill="#000000"></path>
            <path d="M408.215064,199.473077 L413.424038,199.473077 L413.424038,204.069231 C414.266667,201.005128 417.024359,198.936859 420.165064,198.936859 C422.769551,198.783654 425.144231,200.1625 426.293269,202.460577 C427.135897,204.758654 427.442308,207.286538 427.2125,209.737821 L427.2125,228.122436 L421.54391,228.122436 L421.54391,209.891026 C421.54391,206.214103 421.54391,203.533013 418.25,203.533013 C413.653846,203.533013 413.653846,209.048397 413.653846,212.035897 L413.653846,227.969231 L408.138462,227.969231 L408.138462,199.473077 L408.215064,199.473077 Z" id="Path" fill="#000000"></path>
            <path d="M438.090064,208.282372 C438.090064,209.125 438.090064,213.721154 441.920192,213.721154 C445.750321,213.721154 445.826923,209.125 445.826923,208.282372 C445.826923,207.439744 445.826923,202.690385 442.073397,202.690385 C438.319872,202.690385 438.090064,205.83109 438.090064,208.282372 Z M435.86859,230.34391 C435.86859,233.408013 438.319872,234.327244 442.45641,234.327244 C444.83109,234.327244 448.967628,233.944231 448.967628,230.420513 C449.044231,228.658654 447.665385,227.203205 445.903526,227.126603 C445.826923,227.126603 445.750321,227.126603 445.750321,227.126603 C444.677885,227.126603 439.46891,226.74359 438.319872,226.74359 C436.787821,227.433013 435.86859,228.811859 435.86859,230.34391 L435.86859,230.34391 Z M453.870192,199.243269 C453.410577,199.166667 453.027564,199.166667 452.567949,199.243269 C450.959295,199.243269 449.963462,200.009295 449.580449,202.383974 C450.959295,204.145833 451.725321,206.290705 451.725321,208.512179 C451.878526,213.414744 448.048397,217.551282 443.069231,217.704487 C442.762821,217.704487 442.533013,217.704487 442.226603,217.704487 C441.077564,217.704487 439.851923,217.551282 438.702885,217.168269 C437.860256,217.551282 436.634615,218.0875 436.634615,219.696154 C436.634615,221.304808 438.013462,221.917628 443.605449,222.147436 C449.197436,222.377244 454.253205,222.760256 454.253205,229.807692 C454.253205,236.855128 446.822756,238.616987 441.84359,238.616987 C438.013462,238.616987 430.812821,237.850962 430.812821,231.416346 C430.659615,228.888462 432.344872,226.590385 434.796154,225.977564 C433.034295,225.134936 431.885256,223.373077 431.808654,221.38141 C431.961859,218.853526 433.49391,216.632051 435.86859,215.712821 C433.1875,214.104167 431.732051,211.116667 432.115064,208.052564 C432.115064,202.996795 436.251603,198.860256 441.307372,198.860256 C441.460577,198.860256 441.613782,198.860256 441.766987,198.860256 C443.605449,198.860256 445.367308,199.243269 446.975962,200.085897 C447.358974,197.864423 447.81859,194.876923 452.031731,194.876923 C452.644551,194.800321 453.257372,194.800321 453.79359,194.876923 L453.870192,199.243269 L453.870192,199.243269 Z" id="Shape" fill="#000000"></path>
            <polygon id="Path" fill="#0D83DD" points="0 87.6333333 39.8333333 87.6333333 39.8333333 106.017949 19.6102564 106.017949 19.6102564 121.874679 37.5352564 121.874679 37.5352564 139.876282 19.6102564 139.876282 19.6102564 173.964423 0 173.964423"></polygon>
            <path d="M57.8349359,115.823077 L57.8349359,132.905449 C65.0355769,132.905449 68.7125,130.377564 68.7125,125.321795 C68.9423077,122.640705 68.0230769,120.036218 66.1846154,118.121154 C63.6567308,116.5125 60.7458333,115.669872 57.8349359,115.823077 L57.8349359,115.823077 Z M41.3653846,101.88141 L60.3628205,101.88141 C67.0272436,101.498397 73.6150641,103.566667 78.7474359,107.779808 C83.2669872,111.916346 85.7182692,117.814744 85.4884615,123.942949 C85.4884615,127.466667 84.5692308,130.913782 82.9605769,134.054487 C81.3519231,137.195192 78.7474359,139.799679 75.5301282,141.408333 L88.5525641,173.887821 L71.2403846,173.887821 L57.988141,141.101923 L57.6817308,141.101923 L57.6817308,173.887821 L41.3653846,173.887821 L41.3653846,101.88141 Z" id="Shape" fill="#0D83DD"></path>
            <polygon id="Path" fill="#0D83DD" points="89.9314103 101.88141 123.023718 101.88141 123.023718 117.201923 106.247756 117.201923 106.247756 130.454167 120.802244 130.454167 120.802244 145.391667 106.247756 145.391667 106.247756 158.567308 123.100321 158.567308 123.100321 173.964423 89.9314103 173.964423"></polygon>
            <polygon id="Path" fill="#0D83DD" points="158.260897 101.88141 174.653846 101.88141 174.653846 128.615705 189.131731 128.615705 189.131731 101.88141 205.524679 101.88141 205.524679 173.964423 189.131731 173.964423 189.131731 143.936218 174.653846 143.936218 174.653846 173.964423 158.260897 173.964423"></polygon>
            <path d="M228.582051,138.497436 L228.582051,157.418269 C232.488782,157.571474 236.395513,156.805449 239.995833,155.120192 C242.523718,153.588141 243.902564,150.753846 243.672756,147.842949 C243.672756,141.714744 239.153205,138.650641 230.114103,138.650641 L228.582051,138.497436 Z M228.582051,104.179487 L228.582051,122.870513 C237.774359,122.640705 242.370513,119.576603 242.370513,113.678205 C242.676923,110.84391 241.374679,108.086218 239.076603,106.400962 C235.782692,104.715705 232.182372,103.949679 228.582051,104.179487 L228.582051,104.179487 Z M208.971795,87.5567308 L229.041667,87.5567308 C240.685256,87.5567308 249.111538,89.8548077 254.24391,94.374359 C259.299679,98.7407051 262.133974,105.175321 261.980769,111.839744 C261.980769,119.576603 257.691026,126.624038 250.873397,130.224359 C258.840064,132.982051 263.972436,140.71891 263.359615,149.145192 C263.589423,156.039423 260.678526,162.627244 255.469551,167.146795 C249.647756,171.896154 242.29391,174.347436 234.710256,173.964423 L208.971795,173.964423 L208.971795,87.5567308 L208.971795,87.5567308 Z" id="Shape" fill="#040505"></path>
            <path d="M290.630128,116.282692 C284.731731,116.282692 281.820833,123.176923 281.820833,137.041987 C281.361218,143.09359 282.127244,149.145192 284.042308,154.890385 C285.038141,157.648077 287.642628,159.486538 290.553526,159.486538 C293.617628,159.486538 296.375321,157.648077 297.600962,154.890385 C299.669231,149.298397 300.511859,143.323397 300.052244,137.348397 C300.052244,123.253526 296.988141,116.20609 290.859936,116.282692 M291.472756,175.802885 C283.429487,176.2625 275.692628,172.432372 271.249679,165.691346 C266.117308,156.958654 263.742628,146.847115 264.432051,136.812179 C263.895833,127.313462 266.270513,117.814744 271.249679,109.694872 C275.539423,103.336859 282.816667,99.6599359 290.476923,99.9663462 C298.366987,99.5833333 305.950641,103.260256 310.546795,109.771474 C315.679167,118.121154 318.053846,127.849679 317.517628,137.654808 C318.130449,147.459936 315.755769,157.265064 310.776603,165.767949 C306.486859,172.279167 299.133013,176.109295 291.319551,175.802885" id="Shape" fill="#040505"></path>
            <path d="M344.788141,116.282692 C338.659936,116.282692 335.595833,123.176923 335.595833,137.041987 C335.212821,143.09359 335.902244,149.145192 337.817308,154.890385 C338.813141,157.648077 341.417628,159.409936 344.328526,159.486538 C347.392628,159.486538 350.150321,157.648077 351.375962,154.890385 C353.520833,149.298397 354.363462,143.323397 353.980449,137.348397 C353.980449,123.253526 350.916346,116.282692 344.788141,116.282692 M345.400962,175.802885 C337.357692,176.2625 329.774038,172.355769 325.33109,165.691346 C320.198718,156.958654 317.824038,146.847115 318.513462,136.812179 C317.977244,127.236859 320.351923,117.814744 325.407692,109.618269 C329.697436,103.260256 336.974679,99.5833333 344.634936,99.8897436 C352.525,99.5067308 360.108654,103.183654 364.704808,109.694872 C369.837179,118.044551 372.288462,127.773077 371.675641,137.578205 C372.211859,147.459936 369.837179,157.188462 364.858013,165.691346 C360.568269,172.202564 353.214423,176.032692 345.400962,175.726282" id="Shape" fill="#040505"></path>
            <polygon id="Path" fill="#040505" points="372.824679 101.88141 389.141026 101.88141 389.141026 135.739744 389.447436 135.739744 404.921154 101.88141 422.080128 101.88141 405.304167 138.650641 421.390705 173.964423 403.389103 173.964423 389.447436 143.936218 389.141026 143.936218 389.141026 173.964423 372.824679 173.964423"></polygon>
            <path d="M422.692949,172.662179 L422.692949,155.886218 C426.599679,158.490705 431.042628,160.099359 435.715385,160.482372 C437.477244,160.558974 439.239103,159.946154 440.617949,158.797115 C441.84359,157.571474 442.533013,155.886218 442.379808,154.200962 C442.379808,152.745513 441.84359,151.290064 440.924359,150.141026 C439.46891,148.379167 437.783654,146.847115 435.945192,145.544872 C431.272436,142.174359 427.059295,138.191026 423.612179,133.518269 C421.084295,129.841346 419.782051,125.475 419.782051,121.032051 C419.245833,109.924679 427.901923,100.425962 439.009295,99.9663462 C439.622115,99.9663462 440.234936,99.9663462 440.924359,99.9663462 C445.673718,99.9663462 450.346474,101.038782 454.712821,102.953846 L454.712821,119.116987 C451.1125,116.895513 447.052564,115.516667 442.839423,115.133654 C441.154167,115.057051 439.545513,115.593269 438.243269,116.589103 C437.094231,117.584936 436.404808,119.116987 436.48141,120.649038 C436.48141,123.713141 439.1625,127.083654 444.601282,130.837179 C448.278205,133.518269 451.648718,136.658974 454.483013,140.259295 C457.776923,144.166026 459.538782,149.221795 459.462179,154.354167 C459.615385,160.175962 457.240705,165.844551 452.950962,169.827885 C448.43141,173.964423 442.533013,176.185897 436.404808,175.95609 C431.655449,175.95609 426.90609,174.883654 422.616346,172.738782" id="Path" fill="#040505"></path>
            <path d="M159.716346,155.196795 L143.246795,131.679808 C126.777244,108.162821 162.014423,92.9189103 162.014423,92.9189103 L159.409936,90.3144231 C159.409936,90.3144231 102.111218,102.111218 126.087821,136.275962 L142.480769,161.095192 C148.608974,170.2875 139.416667,175.649679 133.824679,175.649679 L123.330128,175.649679 L123.330128,180.245833 L131.373397,180.245833 C145.161859,180.245833 174.347436,177.258333 159.716346,155.503205" id="Path" fill="#0D83DD"></path>
            <path d="M352.295192,68.0230769 C352.295192,68.0230769 344.634936,72.6192308 330.616667,92.9955128 C328.395192,96.2128205 326.939744,95.9064103 326.939744,95.9064103 C326.939744,95.9064103 327.552564,100.808974 334.829808,99.3535256 C334.829808,99.3535256 345.017949,75.1471154 355.665705,70.3211538 L352.295192,68.0230769 Z" id="Path" fill="#648C0F"></path>
            <path d="M342.336859,80.5092949 C342.336859,80.5092949 346.933013,14.3246795 400.708013,16.163141 C445.1375,17.5419872 459.385605,0.229807692 459.385605,0.229807692 C459.385605,0.229807692 459.845192,94.1445513 342.336859,80.5092949" id="Path" fill="#86C61F"></path>
            <path d="M348.771474,74.0746795 C348.771474,74.0746795 370.986218,40.599359 397.184295,37.9948718 C412.658013,36.6160256 427.442308,31.1772436 440.158333,22.2147436 C428.514744,35.0073718 412.58141,43.050641 395.345833,44.8891026 C370.909615,47.3403846 348.618269,74.1512821 348.618269,74.1512821" id="Path" fill="#648C0F"></path>
        </g>
    </g>
</svg>