<?xml version="1.0" encoding="UTF-8"?>
<svg width="25px" height="27px" viewBox="0 0 25 27" version="1.1" xmlns="http://www.w3.org/2000/svg" xmlns:xlink="http://www.w3.org/1999/xlink">
    <title>manual_bankingtransactions</title>
    <defs>
        <linearGradient x1="93.4114989%" y1="100%" x2="11.3058017%" y2="-5.3109976%" id="linearGradient-1">
            <stop stop-color="#E95A0C" offset="0%"></stop>
            <stop stop-color="#FF7800" offset="100%"></stop>
        </linearGradient>
    </defs>
    <g id="Wireframes" stroke="none" stroke-width="1" fill="none" fill-rule="evenodd">
        <path d="M21.0482652,8.45380211 C21.2712955,8.19972162 21.6688712,8.19972162 21.8822046,8.45380211 L21.8822046,8.45380211 L24.466447,11.3978217 C24.6991743,11.6629491 24.6991743,12.0882578 24.466447,12.3533852 C24.2337197,12.6185127 23.8603864,12.6185127 23.6276591,12.3533852 L23.6276591,12.3533852 L22.05675,10.5637749 L22.05675,23.4390274 C22.05675,24.9966512 20.946447,26.2615302 19.5791743,26.2615302 L19.5791743,26.2615302 L5.93068942,26.2615302 C4.56341669,26.2615302 3.45311366,24.9966512 3.45311366,23.4390274 L3.45311366,23.4390274 L3.45311366,21.5610412 C3.45311366,21.1854439 3.71978033,20.881652 4.0494773,20.881652 C4.37917427,20.881652 4.64584094,21.1854439 4.64584094,21.5610412 L4.64584094,21.5610412 L4.64584094,23.4390274 C4.64584094,24.2509802 5.22281063,24.9082754 5.93553791,24.9082754 L5.93553791,24.9082754 L19.5888712,24.9082754 C20.3015985,24.9082754 20.8785682,24.2509802 20.8785682,23.4390274 L20.8785682,23.4390274 L20.8785682,10.5637749 L19.3076591,12.3533852 C19.1912955,12.485949 19.0409925,12.5522308 18.8858409,12.5522308 C18.7306894,12.5522308 18.5803864,12.485949 18.4640228,12.3533852 C18.2312955,12.0882578 18.2312955,11.6629491 18.4640228,11.3978217 L18.4640228,11.3978217 Z M12.7622046,7.52585598 C13.0919015,7.52585598 13.3537197,7.82964787 13.3585682,8.19972162 L13.3585682,8.19972162 L13.3585682,9.23813753 L14.4543258,9.23813753 C14.7840228,9.23813753 15.0506894,9.54192942 15.0506894,9.91752666 C15.0506894,10.2931239 14.7840228,10.5969158 14.4543258,10.5969158 L14.4543258,10.5969158 L12.0931137,10.5969158 C11.6131137,10.5969158 11.2203864,11.0995533 11.2203864,11.7126605 C11.2203864,12.3257678 11.6131137,12.8284053 12.0931137,12.8284053 L12.0931137,12.8284053 L13.4312955,12.8284053 C14.5658409,12.8284053 15.4919015,13.9331031 15.4919015,15.2974048 C15.4919015,16.6451361 14.5852349,17.7498339 13.4603864,17.7664043 L13.4603864,17.7664043 L13.3585682,17.7664043 L13.3585682,18.8269142 C13.3585682,19.2025114 13.0919015,19.5063033 12.7622046,19.5063033 C12.4325076,19.5063033 12.1658409,19.2025114 12.1658409,18.8269142 L12.1658409,18.8269142 L12.1658409,17.7719278 L11.0215985,17.7719278 C10.6919015,17.7719278 10.4252349,17.4681359 10.4252349,17.0925387 C10.4252349,16.7169414 10.6919015,16.4131496 11.0215985,16.4131496 L11.0215985,16.4131496 L13.426447,16.4131496 C13.906447,16.4131496 14.2991743,15.9160356 14.2991743,15.2974048 C14.2991743,14.6842975 13.906447,14.1816601 13.426447,14.1816601 L13.426447,14.1816601 L12.0882652,14.1816601 C10.9537197,14.1816601 10.0276591,13.0714388 10.0276591,11.7126605 C10.0276591,10.3538823 10.9537197,9.24366102 12.0882652,9.24366102 L12.0882652,9.24366102 L12.1658409,9.24366102 L12.1658409,8.20524511 C12.1658409,7.82964787 12.4325076,7.52585598 12.7622046,7.52585598 Z M19.5888712,0.759582134 C20.9512955,0.759582134 22.0615985,2.02998457 22.076144,3.58208494 L22.076144,3.58208494 L22.076144,5.46007115 C22.076144,5.83566839 21.8094773,6.13946028 21.4797803,6.13946028 C21.1500834,6.13946028 20.8834167,5.83566839 20.8834167,5.46007115 L20.8834167,5.46007115 L20.8834167,3.58208494 C20.8834167,2.77013208 20.306447,2.1128369 19.5937197,2.1128369 L19.5937197,2.1128369 L5.94523488,2.1128369 C5.2325076,2.1128369 4.65553791,2.77013208 4.65553791,3.58208494 L4.65553791,3.58208494 L4.65553791,16.462861 L6.226447,14.6732506 C6.45917427,14.4081231 6.8325076,14.4081231 7.06523488,14.6732506 C7.29796215,14.938378 7.29796215,15.3636867 7.06523488,15.6288141 L7.06523488,15.6288141 L4.48099245,18.5728337 C4.36462882,18.7053974 4.21432578,18.7716793 4.05917427,18.7716793 C3.90402275,18.7716793 3.75371972,18.7053974 3.63735609,18.5728337 L3.63735609,18.5728337 L1.05311366,15.6288141 C0.820386391,15.3636867 0.820386391,14.938378 1.05311366,14.6732506 C1.28584094,14.4081231 1.65917427,14.4081231 1.89190154,14.6732506 L1.89190154,14.6732506 L3.45796215,16.4573375 L3.45796215,3.58208494 C3.45796215,2.02446108 4.56826518,0.759582134 5.93553791,0.759582134 L5.93553791,0.759582134 Z" id="manual_bankingtransactions" fill="url(#linearGradient-1)" fill-rule="nonzero"></path>
    </g>
</svg>