<?xml version="1.0" encoding="UTF-8"?>
<svg width="10px" height="11px" viewBox="0 0 10 11" version="1.1" xmlns="http://www.w3.org/2000/svg" xmlns:xlink="http://www.w3.org/1999/xlink">
 
    <g id="Wireframes" stroke="none" stroke-width="1" fill="none" fill-rule="evenodd">
        <g id="accounts-spacer-icon" transform="translate(-612.000000, -415.000000)" filter="url(#filter-1)">
            <g transform="translate(617.000000, 420.498892) rotate(90.000000) translate(-617.000000, -420.498892) translate(612.000000, 415.998892)">
                <path d="M5.21726757,3.23194517 L9.29013126,7.30480886 C9.48539341,7.50007101 9.48539341,7.8166535 9.29013126,8.01191564 L9.21752655,8.08452036 C9.0222644,8.2797825 8.70568191,8.2797825 8.51041977,8.08452036 L4.86307845,4.43749086 L1.2170086,8.08452036 C1.02174645,8.2797825 0.705163962,8.2797825 0.509901816,8.08452036 L0.437297102,8.01191564 C0.242034956,7.8166535 0.242034956,7.50007101 0.437297102,7.30480886 L4.51016079,3.23194517 C4.70542294,3.03668303 5.02200543,3.03668303 5.21726757,3.23194517 Z M5.21726757,0.418176512 L9.29013126,4.4910402 C9.48539341,4.68630235 9.48539341,5.00288484 9.29013126,5.19814698 L9.21752655,5.2707517 C9.0222644,5.46601384 8.70568191,5.46601384 8.51041977,5.2707517 L4.86307845,1.6237222 L1.2170086,5.2707517 C1.02174645,5.46601384 0.705163962,5.46601384 0.509901816,5.2707517 L0.437297102,5.19814698 C0.242034956,5.00288484 0.242034956,4.68630235 0.437297102,4.4910402 L4.51016079,0.418176512 C4.70542294,0.222914366 5.02200543,0.222914366 5.21726757,0.418176512 Z" id="bradcrumb-icon" fill="#000000"></path>
            </g>
        </g>
    </g>
</svg>