<?xml version="1.0" encoding="UTF-8"?>
<svg width="7px" height="7px" viewBox="0 0 7 7" version="1.1" xmlns="http://www.w3.org/2000/svg">
    <defs>
        <linearGradient x1="50%" y1="0%" x2="50%" y2="100%" id="linearGradient-1">
            <stop stop-color="#A5CF5A" offset="0%"></stop>
            <stop stop-color="#429321" offset="100%"></stop>
        </linearGradient>
    </defs>
    <path d="M3.32399783,0.352004338 C3.62996338,0.352004338 3.87799747,0.600038424 3.87799747,0.906003976 L3.87799747,3.12200253 L6.09399602,3.12200253 C6.39996158,3.12200253 6.64799566,3.37003662 6.64799566,3.67600217 C6.64799566,3.98196772 6.39996158,4.23000181 6.09399602,4.23000181 L3.87799747,4.23000181 L3.87799747,6.44600036 C3.87799747,6.75196591 3.62996338,7 3.32399783,7 C3.01803228,7 2.76999819,6.75196591 2.76999819,6.44600036 L2.76999819,4.23000181 L0.553999639,4.23000181 C0.248034087,4.23000181 0,3.98196772 0,3.67600217 C0,3.37003662 0.248034087,3.12200253 0.553999639,3.12200253 L2.76999819,3.12200253 L2.76999819,0.906003976 C2.76999819,0.600038424 3.01803228,0.352004338 3.32399783,0.352004338 Z" id="add-view-icon" fill="url(#linearGradient-1)"></path>
</svg>