<?xml version="1.0" encoding="UTF-8"?>
<svg width="12px" height="14px" viewBox="0 0 12 14" version="1.1" xmlns="http://www.w3.org/2000/svg" xmlns:xlink="http://www.w3.org/1999/xlink">
    <g id="Wireframes" stroke="none" stroke-width="1" fill="none" fill-rule="evenodd">
        <g id="arrow-menu" transform="translate(0.000000, 0.500000)" fill="#000000">
            <path d="M5.32238041,6.64644661 C5.51764255,6.45118446 5.83422504,6.45118446 6.02948719,6.64644661 L11.205421,11.8223804 C11.4006831,12.0176426 11.4006831,12.334225 11.205421,12.5294872 L10.9528829,12.7820253 C10.7576207,12.9772875 10.4410382,12.9772875 10.2457761,12.7820253 L5.67531453,8.21260029 L1.10609153,12.7820253 C0.910829381,12.9772875 0.594246891,12.9772875 0.398984746,12.7820253 L0.146446609,12.5294872 C-0.0488155365,12.334225 -0.0488155365,12.0176426 0.146446609,11.8223804 L5.32238041,6.64644661 Z" id="arrow-menu-down"></path>
            <path d="M5.32238041,0.146446609 C5.51764255,-0.0488155365 5.83422504,-0.0488155365 6.02948719,0.146446609 L11.205421,5.32238041 C11.4006831,5.51764255 11.4006831,5.83422504 11.205421,6.02948719 L10.9528829,6.28202533 C10.7576207,6.47728747 10.4410382,6.47728747 10.2457761,6.28202533 L5.67531453,1.71260029 L1.10609153,6.28202533 C0.910829381,6.47728747 0.594246891,6.47728747 0.398984746,6.28202533 L0.146446609,6.02948719 C-0.0488155365,5.83422504 -0.0488155365,5.51764255 0.146446609,5.32238041 L5.32238041,0.146446609 Z" id="arrow-menu-up"></path>
        </g>
    </g>
</svg>