<?xml version="1.0" encoding="UTF-8"?>
<svg width="17px" height="17px" viewBox="0 0 17 17" version="1.1" xmlns="http://www.w3.org/2000/svg">
    <path d="M15.980315,15.200812 C16.3390925,15.200812 16.6299213,15.4916408 16.6299213,15.8504183 C16.6299213,16.1765797 16.3895669,16.4465851 16.0763113,16.4929814 L15.980315,16.5000246 L0.649606299,16.5000246 C0.29082874,16.5000246 0,16.2091959 0,15.8504183 C0,15.5242569 0.240354331,15.2542515 0.553610008,15.2078552 L0.649606299,15.200812 L15.980315,15.200812 Z M8.03416831,0.0563130105 C8.16858484,-0.00360667454 8.31828012,-0.0157361234 8.45890793,0.0200577034 L8.56229823,0.0558907664 L16.2438927,3.46632384 C16.449286,3.5575245 16.5907942,3.74707708 16.6229619,3.96509079 L16.6299213,4.06006399 L16.6299213,5.814001 C16.6299213,6.14016242 16.3895669,6.41016779 16.0763113,6.45656412 L15.980315,6.4636073 C15.6035974,6.4636073 15.5164058,6.80889109 15.4978063,7.01217877 L15.4931102,7.1132136 L15.4931102,9.98827364 C15.4931102,10.3470512 15.2022815,10.6378799 14.8435039,10.6378799 C14.5173425,10.6378799 14.2473372,10.3975256 14.2009408,10.0842699 L14.1938976,9.98827364 L14.1938976,7.1132136 C14.1938976,6.75502069 13.9024843,6.4636073 13.5442913,6.4636073 C13.2186614,6.4636073 12.9482212,6.70444481 12.9017414,7.01734909 L12.894685,7.1132136 L12.894685,12.6023868 L14.8435039,12.6023868 C15.2022815,12.6023868 15.4931102,12.8932156 15.4931102,13.2519931 C15.4931102,13.5781545 15.2527559,13.8481599 14.9395002,13.8945563 L14.8435039,13.9015994 L1.85137795,13.9015994 C1.52521654,13.9015994 1.25521117,13.6612451 1.20881483,13.3479894 L1.20177165,13.2519931 L1.20381791,13.2116526 L1.20177165,13.171312 L1.20177165,7.1132136 C1.20177165,6.81926675 1.06065676,6.52290401 0.748435771,6.47144919 L0.649606299,6.4636073 C0.323444882,6.4636073 0.0534395132,6.22325297 0.00704317694,5.90999729 L0,5.814001 L0,4.06006399 C0,3.83568592 0.115510658,3.62966024 0.301272684,3.51170366 L0.385054134,3.46674608 L8.03416831,0.0563130105 Z M3.15059055,6.4636073 C2.82496063,6.4636073 2.5545204,6.70444481 2.50804061,7.01734909 L2.50098425,7.1132136 L2.50098425,12.6023868 L3.80019685,12.6023868 L3.80019685,7.1132136 C3.80019685,6.75502069 3.50878346,6.4636073 3.15059055,6.4636073 Z M5.74901575,6.4636073 C5.42338583,6.4636073 5.1529456,6.70444481 5.1064658,7.01734909 L5.09940945,7.1132136 L5.09940945,12.6023868 L6.39862205,12.6023868 L6.39862205,7.1132136 C6.39862205,6.75502069 6.10720866,6.4636073 5.74901575,6.4636073 Z M8.34744094,6.4636073 C8.02181102,6.4636073 7.75137079,6.70444481 7.704891,7.01734909 L7.69783465,7.1132136 L7.69783465,12.6023868 L8.99704724,12.6023868 L8.99704724,7.1132136 C8.99704724,6.75502069 8.70563386,6.4636073 8.34744094,6.4636073 Z M10.9458661,6.4636073 C10.6202362,6.4636073 10.349796,6.70444481 10.3033162,7.01734909 L10.2962598,7.1132136 L10.2962598,12.6023868 L11.5954724,12.6023868 L11.5954724,7.1132136 C11.5954724,6.75502069 11.3040591,6.4636073 10.9458661,6.4636073 Z M8.29930512,1.36062502 L1.2992126,4.48169096 L1.2992126,5.13191439 L15.3307087,5.13191439 L15.3307087,4.48240553 L8.29930512,1.36062502 Z M8.31496063,2.79333171 C8.67372828,2.79333171 8.96456693,3.08417036 8.96456693,3.44293801 C8.96456693,3.80170566 8.67372828,4.09254431 8.31496063,4.09254431 C7.95619298,4.09254431 7.66535433,3.80170566 7.66535433,3.44293801 C7.66535433,3.08417036 7.95619298,2.79333171 8.31496063,2.79333171 Z" id="bank-direct-white-icon" fill="#FFFFFF" fill-rule="nonzero"></path>
</svg>