<?xml version="1.0" encoding="UTF-8"?>
<svg width="5px" height="9px" viewBox="0 0 5 9" version="1.1" xmlns="http://www.w3.org/2000/svg" xmlns:xlink="http://www.w3.org/1999/xlink">
    <title>bradcrumb-icon-path</title>
    <g id="Wireframes-V2" stroke="none" stroke-width="1" fill="none" fill-rule="evenodd">
        <path d="M3.35978866,2.80042754 L6.68631858,6.18989232 C6.90018581,6.40780573 6.89854813,6.75734004 6.68264833,6.97323984 C6.46733425,7.18855392 6.11824345,7.18856138 5.90292017,6.97325651 L2.99901977,4.06960437 C2.80378068,3.87431916 2.48719819,3.87433269 2.29194439,4.06960318 C2.29193392,4.06961365 2.29192345,4.06962412 2.2919444,4.069666 L-0.610814141,6.97318854 C-0.826068867,7.18849992 -1.17511166,7.18854585 -1.39042304,6.97329113 C-1.39044014,6.97327403 -1.39045724,6.97325694 -1.39047434,6.97323984 C-1.60637414,6.75734004 -1.60801183,6.40780573 -1.39414459,6.18989232 L1.93238533,2.80042754 C2.31923307,2.406261 2.95237025,2.40032794 3.3465368,2.78717568 C3.35099538,2.79155148 3.35541286,2.79596896 3.35978866,2.80042754 Z" id="bradcrumb-icon-path" fill="#E95A0C" fill-rule="nonzero" transform="translate(2.646087, 4.718159) rotate(-270.000000) translate(-2.646087, -4.718159) "></path>
    </g>
</svg>