<?xml version="1.0" encoding="UTF-8"?>
<svg width="19px" height="14px" viewBox="0 0 19 14" version="1.1" xmlns="http://www.w3.org/2000/svg">
    <path d="M11.9240786,0.024038 C12.4763634,0.024038 12.9240786,0.4717532 12.9240786,1.024038 L12.9240786,1.024038 L12.9240786,4.0723422 L16.8490017,2.4314051 C16.9711848,2.3803226 17.1022974,2.3540179 17.234729,2.3540179 C17.7870137,2.3540179 18.234729,2.8017332 18.234729,3.3540179 L18.234729,3.3540179 L18.234729,12.8045512 C18.234729,13.3568359 17.7870137,13.8045512 17.234729,13.8045512 L17.234729,13.8045512 L1.35882726,13.8045512 C0.80654251,13.8045512 0.358827259,13.3568359 0.358827259,12.8045512 L0.358827259,12.8045512 L0.358827259,5.2974156 C0.358827259,4.8888822 0.60733247,4.5214291 0.98649147,4.3693175 L0.98649147,4.3693175 L5.28804651,2.6436131 C5.66720551,2.4915016 5.91571072,2.1240484 5.91571072,1.715515 L5.91571072,1.715515 L5.91571072,1.024038 C5.91571072,0.4717532 6.36342597,0.024038 6.91571072,0.024038 L6.91571072,0.024038 L11.9240786,0.024038 Z M11.5399193,3.9110415 L5.94957649,6.1313254 L5.94957649,3.9174087 L1.84992718,5.5732324 L1.84992718,12.4203918 L16.8505696,12.4203918 L16.8505696,3.9309734 L11.5399193,6.1512573 L11.5399193,3.9110415 Z M6.89987008,8.3118839 C7.12078398,8.3118839 7.29987008,8.49097 7.29987008,8.7118839 L7.29987008,9.2960433 C7.29987008,9.5169572 7.12078398,9.6960433 6.89987008,9.6960433 L6.31571072,9.6960433 C6.09479682,9.6960433 5.91571072,9.5169572 5.91571072,9.2960433 L5.91571072,8.7118839 C5.91571072,8.49097 6.09479682,8.3118839 6.31571072,8.3118839 L6.89987008,8.3118839 Z M4.13155137,8.3118839 C4.35246527,8.3118839 4.53155137,8.49097 4.53155137,8.7118839 L4.53155137,9.2960433 C4.53155137,9.5169572 4.35246527,9.6960433 4.13155137,9.6960433 L3.54739202,9.6960433 C3.32647812,9.6960433 3.14739202,9.5169572 3.14739202,9.2960433 L3.14739202,8.7118839 C3.14739202,8.49097 3.32647812,8.3118839 3.54739202,8.3118839 L4.13155137,8.3118839 Z M9.6681888,8.3118839 C9.8891027,8.3118839 10.0681888,8.49097 10.0681888,8.7118839 L10.0681888,9.2960433 C10.0681888,9.5169572 9.8891027,9.6960433 9.6681888,9.6960433 L9.08402943,9.6960433 C8.86311553,9.6960433 8.68402943,9.5169572 8.68402943,9.2960433 L8.68402943,8.7118839 C8.68402943,8.49097 8.86311553,8.3118839 9.08402943,8.3118839 L9.6681888,8.3118839 Z M12.4365075,8.3118839 C12.6574214,8.3118839 12.8365075,8.49097 12.8365075,8.7118839 L12.8365075,9.2960433 C12.8365075,9.5169572 12.6574214,9.6960433 12.4365075,9.6960433 L11.8523481,9.6960433 C11.6314342,9.6960433 11.4523481,9.5169572 11.4523481,9.2960433 L11.4523481,8.7118839 C11.4523481,8.49097 11.6314342,8.3118839 11.8523481,8.3118839 L12.4365075,8.3118839 Z M15.2048262,8.3118839 C15.4257401,8.3118839 15.6048262,8.49097 15.6048262,8.7118839 L15.6048262,9.2960433 C15.6048262,9.5169572 15.4257401,9.6960433 15.2048262,9.6960433 L14.6206668,9.6960433 C14.3997529,9.6960433 14.2206668,9.5169572 14.2206668,9.2960433 L14.2206668,8.7118839 C14.2206668,8.49097 14.3997529,8.3118839 14.6206668,8.3118839 L15.2048262,8.3118839 Z M11.5717088,1.3579135 L7.36506398,1.3579135 L7.33373584,4.0922741 L11.5717088,2.4090902 L11.5717088,1.3579135 Z" fill="#666666" class="path" fill-rule="nonzero"></path>
</svg>