<?xml version="1.0" encoding="UTF-8"?>
<svg width="19px" height="20px" viewBox="0 0 19 20" version="1.1" xmlns="http://www.w3.org/2000/svg">
    <g transform="translate(0.000000, 0.500000)" fill="#000000" fill-rule="nonzero">
        <path d="M2.77684245,8.76897615 C3.21928753,8.76897615 3.62119894,8.59299719 3.91706624,8.30769146 L5.53013541,9.11422605 C5.52185738,9.18073551 5.51714749,9.2482441 5.51714749,9.31703716 C5.51714749,10.2236214 6.25474627,10.9612202 7.16133052,10.9612202 C8.06791477,10.9612202 8.80551355,10.2236214 8.80551355,9.31703716 C8.80551355,9.06355894 8.74771025,8.82321135 8.64480606,8.60855412 L10.8373356,6.41602462 C11.0519928,6.51892881 11.2923404,6.57673211 11.5458186,6.57673211 C12.4524028,6.57673211 13.1900016,5.83913333 13.1900016,4.93254908 C13.1900016,4.76128002 13.1635976,4.5961481 13.1147859,4.44086415 L15.0195834,3.01233739 C15.2804833,3.18660369 15.5936202,3.28836605 15.9303067,3.28836605 C16.8368909,3.28836605 17.5744897,2.55076728 17.5744897,1.64418303 C17.5744897,0.737598775 16.8368909,0 15.9303067,0 C15.0237224,0 14.2861236,0.737598775 14.2861236,1.64418303 C14.2861236,1.81545209 14.3125276,1.98058401 14.3613393,2.13586796 L12.4565418,3.56439472 C12.195642,3.39012842 11.882505,3.28836605 11.5458186,3.28836605 C10.6392343,3.28836605 9.90163556,4.02596483 9.90163556,4.93254908 C9.90163556,5.1860273 9.95943887,5.42637489 10.0623431,5.64103212 L7.86981355,7.83356162 C7.65515632,7.73065743 7.41480874,7.67285413 7.16133052,7.67285413 C6.71888543,7.67285413 6.31697403,7.84883308 6.02110673,8.13413881 L4.40803756,7.32760423 C4.41631558,7.26109476 4.42102547,7.19358617 4.42102547,7.12479312 C4.42102547,6.21820887 3.6834267,5.48061009 2.77684245,5.48061009 C1.87025819,5.48061009 1.13265942,6.21820887 1.13265942,7.12479312 C1.13265942,8.03137737 1.87025819,8.76897615 2.77684245,8.76897615 Z M15.9303067,1.09612202 C16.2324538,1.09612202 16.4783677,1.34203586 16.4783677,1.64418303 C16.4783677,1.94633019 16.2324538,2.19224404 15.9303067,2.19224404 C15.6281595,2.19224404 15.3822457,1.94633019 15.3822457,1.64418303 C15.3822457,1.34203586 15.6281595,1.09612202 15.9303067,1.09612202 Z M11.5458186,4.38448807 C11.8479658,4.38448807 12.0938796,4.63040192 12.0938796,4.93254908 C12.0938796,5.23469625 11.8479658,5.48061009 11.5458186,5.48061009 C11.2436714,5.48061009 10.9977576,5.23469625 10.9977576,4.93254908 C10.9977576,4.63040192 11.2436714,4.38448807 11.5458186,4.38448807 Z M7.16133052,8.76897615 C7.46347769,8.76897615 7.70939153,9.01488999 7.70939153,9.31703716 C7.70939153,9.61918432 7.46347769,9.86509816 7.16133052,9.86509816 C6.85918335,9.86509816 6.61326951,9.61918432 6.61326951,9.31703716 C6.61326951,9.01488999 6.85918335,8.76897615 7.16133052,8.76897615 Z M2.77684245,6.57673211 C3.07898961,6.57673211 3.32490346,6.82264595 3.32490346,7.12479312 C3.32490346,7.42694029 3.07898961,7.67285413 2.77684245,7.67285413 C2.47469528,7.67285413 2.22878144,7.42694029 2.22878144,7.12479312 C2.22878144,6.82264595 2.47469528,6.57673211 2.77684245,6.57673211 Z"></path>
        <path d="M18.1590881,17.6110271 L17.5744897,17.6110271 L17.5744897,6.0286711 C17.5744897,5.72595304 17.3291467,5.48061009 17.0264287,5.48061009 L14.8341846,5.48061009 C14.5314666,5.48061009 14.2861236,5.72595304 14.2861236,6.0286711 L14.2861236,17.6110271 L13.1900016,17.6110271 L13.1900016,9.31703716 C13.1900016,9.01431909 12.9446587,8.76897615 12.6419406,8.76897615 L10.4496966,8.76897615 C10.1469785,8.76897615 9.90163556,9.01431909 9.90163556,9.31703716 L9.90163556,17.6110271 L8.80551355,17.6110271 L8.80551355,13.7015252 C8.80551355,13.3988072 8.5601706,13.1534642 8.25745254,13.1534642 L6.0652085,13.1534642 C5.76249044,13.1534642 5.51714749,13.3988072 5.51714749,13.7015252 L5.51714749,17.6110271 L4.42102547,17.6110271 L4.42102547,11.5092812 C4.42102547,11.2065631 4.17568253,10.9612202 3.87296446,10.9612202 L1.68072043,10.9612202 C1.37800236,10.9612202 1.13265942,11.2065631 1.13265942,11.5092812 L1.13265942,17.6110271 L0.548061009,17.6110271 C0.245342945,17.6110271 0,17.85637 0,18.1590881 C0,18.4618062 0.245342945,18.7071491 0.548061009,18.7071491 L18.1590881,18.7071491 C18.4618062,18.7071491 18.7071491,18.4618062 18.7071491,18.1590881 C18.7071491,17.85637 18.4618062,17.6110271 18.1590881,17.6110271 Z M15.3822457,6.57673211 L16.4783677,6.57673211 L16.4783677,17.6110271 L15.3822457,17.6110271 L15.3822457,6.57673211 Z M10.9977576,9.86509816 L12.0938796,9.86509816 L12.0938796,17.6110271 L10.9977576,17.6110271 L10.9977576,9.86509816 Z M6.61326951,14.2495862 L7.70939153,14.2495862 L7.70939153,17.6110271 L6.61326951,17.6110271 L6.61326951,14.2495862 Z M2.22878144,12.0573422 L3.32490346,12.0573422 L3.32490346,17.6110271 L2.22878144,17.6110271 L2.22878144,12.0573422 Z"></path>
    </g>
</svg>