<?xml version="1.0" encoding="UTF-8"?>
<svg width="21px" height="25px" viewBox="0 0 21 25" version="1.1" xmlns="http://www.w3.org/2000/svg" xmlns:xlink="http://www.w3.org/1999/xlink">
    <title>image-file-icon</title>
    <g id="Wireframes" stroke="none" stroke-width="1" fill="none" fill-rule="evenodd">
        <path d="M19.3973809,0.710820312 C20.1395449,0.710820312 20.7468496,1.31807031 20.7468496,2.06034375 L20.7468496,2.06034375 L20.7461934,18.2530937 C20.7461934,18.9952578 20.3042637,20.0187891 19.7635137,20.5271641 L19.7635137,20.5271641 L15.993959,24.0753984 C15.4538652,24.5837734 14.4040293,25.0000547 13.6621934,25.0000547 L13.6621934,25.0000547 L2.19263867,25.0000547 C1.45014648,25.0000547 0.843224603,24.3928047 0.843224603,23.6506406 L0.843224603,23.6506406 L0.843224603,2.06034375 C0.843224603,1.318125 1.45041992,0.710820312 2.19258398,0.710820312 L2.19258398,0.710820312 Z M19.3973262,1.72292187 L2.19252929,1.72292187 C2.00938085,1.72292187 1.85521679,1.87741406 1.85521679,2.06023437 L1.85521679,2.06023437 L1.85521679,23.6505859 C1.85521679,23.8334062 2.00932617,23.9878984 2.19252929,23.9878984 L2.19252929,23.9878984 L13.662084,23.9878984 C13.7629277,23.9878984 13.8789746,23.9713828 13.9993965,23.9470469 L13.9993965,23.9470469 L13.9993965,20.4457344 C14.0014746,19.421875 14.8310293,18.5923203 15.854834,18.5902969 L15.854834,18.5902969 L19.6881543,18.5902969 C19.7157715,18.4692187 19.7340371,18.3531719 19.7340371,18.2529844 L19.7340371,18.2529844 L19.7346387,2.06023437 C19.7346387,1.87741406 19.5801465,1.72292187 19.3973262,1.72292187 L19.3973262,1.72292187 Z M19.2300918,19.6024531 L15.8548887,19.6024531 C15.623123,19.6024531 15.4146543,19.6961875 15.259123,19.8503516 C15.104959,20.0055 15.011498,20.2140234 15.011498,20.4457891 L15.011498,20.4457891 L15.011498,23.5497422 C15.1225137,23.4819844 15.223084,23.4108359 15.3003027,23.3382656 L15.3003027,23.3382656 L19.0698574,19.7903047 C19.1241621,19.7390078 19.1777559,19.6735469 19.2300918,19.6024531 L19.2300918,19.6024531 Z M15.5351562,4.50018657 C16.3428711,4.50018657 17,5.15731548 17,5.96503032 L17,5.96503032 L17,15.5353428 C17,16.3430577 16.3428711,17.0001866 15.5351562,17.0001866 L15.5351562,17.0001866 L5.96484375,17.0001866 C5.15712891,17.0001866 4.5,16.3430577 4.5,15.5353428 L4.5,15.5353428 L4.5,5.96503032 C4.5,5.15731548 5.15712891,4.50018657 5.96484375,4.50018657 L5.96484375,4.50018657 Z M9.54494629,11.1878575 C9.35456543,10.9974766 9.04484863,10.9974766 8.85441895,11.1878575 L8.85441895,11.1878575 L5.4765625,14.5657383 L5.4765625,15.5353428 C5.4765625,15.8045811 5.69560547,16.0236241 5.96484375,16.0236241 L5.96484375,16.0236241 L15.5351562,16.0236241 C15.8043945,16.0236241 16.0234375,15.8045811 16.0234375,15.5353428 L16.0234375,15.5353428 L16.0234375,14.5169102 L13.6709229,12.1643956 C13.4805664,11.9740147 13.1707764,11.9740147 12.9804199,12.1643956 L12.9804199,12.1643956 L11.7509766,13.3938389 Z M15.5351562,5.47674907 L5.96484375,5.47674907 C5.69560547,5.47674907 5.4765625,5.69579204 5.4765625,5.96503032 L5.4765625,5.96503032 L5.4765625,13.1846348 L8.1638916,10.4973057 C8.73505859,9.92616314 9.66437988,9.92616314 10.235498,10.4973057 L10.235498,10.4973057 L11.7509766,12.0127842 L12.2898682,11.4738682 C12.8610352,10.9027256 13.790332,10.9027256 14.361499,11.4738682 L14.361499,11.4738682 L16.0234375,13.1358067 L16.0234375,5.96503032 C16.0234375,5.69579204 15.8043945,5.47674907 15.5351562,5.47674907 L15.5351562,5.47674907 Z M12.4101562,6.45331157 C13.2178711,6.45331157 13.875,7.11044048 13.875,7.91815532 C13.875,8.72587017 13.2178711,9.38299907 12.4101562,9.38299907 C11.6024414,9.38299907 10.9453125,8.72587017 10.9453125,7.91815532 C10.9453125,7.11044048 11.6024414,6.45331157 12.4101562,6.45331157 Z M12.4101562,7.42987407 C12.140918,7.42987407 11.921875,7.64891704 11.921875,7.91815532 C11.921875,8.1873936 12.140918,8.40643657 12.4101562,8.40643657 C12.6793945,8.40643657 12.8984375,8.1873936 12.8984375,7.91815532 C12.8984375,7.64891704 12.6793945,7.42987407 12.4101562,7.42987407 Z" id="image-file-icon" fill="#000000" fill-rule="nonzero"></path>
    </g>
</svg>