<?xml version="1.0" encoding="UTF-8"?>
<svg width="23px" height="26px" viewBox="0 0 23 26" version="1.1" xmlns="http://www.w3.org/2000/svg" xmlns:xlink="http://www.w3.org/1999/xlink">
    <title>invoice-file-icon</title>
    <defs>
        <linearGradient x1="25.412666%" y1="0%" x2="76.4020555%" y2="78.0453845%" id="linearGradient-1">
            <stop stop-color="#63B840" offset="0%"></stop>
            <stop stop-color="#429321" offset="100%"></stop>
        </linearGradient>
    </defs>
    <g id="Wireframes" stroke="none" stroke-width="1" fill="none" fill-rule="evenodd">
        <g id="invoice-file-icon" transform="translate(0.870684, 0.500187)" fill-rule="nonzero">
            <path d="M16.8870357,0.116502193 C16.8148643,0.0419750548 16.7154947,0 16.6118421,0 L6.9627193,0 C5.84288476,0.00128495066 4.93549545,0.908674287 4.93421053,2.02850877 L4.93421053,3.85228207 L2.02850877,3.85228207 C0.908674232,3.853567 0.00128492325,4.7611705 4.54747351e-13,5.88079084 L4.54747351e-13,22.9567143 C0.00128492325,24.0765488 0.908674232,24.9839381 2.02850877,24.9852231 L14.8047731,24.9852231 C15.9246076,24.9839381 16.8319969,24.0765488 16.8332819,22.9567143 L16.8332819,21.1331552 L19.7389837,21.1331552 C20.8588181,21.1318702 21.7662075,20.2242667 21.7674924,19.1046464 L21.7674924,5.299779 C21.7674924,5.19998114 21.7285156,5.10403816 21.6591283,5.03250927 L16.8870357,0.116502193 Z" id="Path" fill="#FFFFFF"></path>
            <path d="M16.6118421,0 C16.7154947,0 16.8148643,0.0419750548 16.8870357,0.116502193 L16.8870357,0.116502193 L21.6591283,5.03250927 C21.7285156,5.10403816 21.7674924,5.19998114 21.7674924,5.299779 L21.7674924,5.299779 L21.7674924,19.1046464 C21.7662075,20.2242667 20.8588181,21.1318702 19.7389837,21.1331552 L19.7389837,21.1331552 L16.8332819,21.1331552 L16.8332819,22.9567143 C16.8319969,24.0765488 15.9246076,24.9839381 14.8047731,24.9852231 L14.8047731,24.9852231 L2.02850877,24.9852231 C0.908674232,24.9839381 0.00128492325,24.0765488 4.54747351e-13,22.9567143 L4.54747351e-13,22.9567143 L4.54747351e-13,5.88079084 C0.00128492325,4.7611705 0.908674232,3.853567 2.02850877,3.85228207 L2.02850877,3.85228207 L4.93421053,3.85228207 L4.93421053,2.02850877 C4.93549545,0.908674287 5.84288476,0.00128495066 6.9627193,0 L6.9627193,0 L16.6118421,0 Z M4.93421053,5.0803959 L2.36247051,5.0803959 C1.66645554,5.08125253 1.10236217,5.64534584 1.10150559,6.34136081 L1.10150559,6.34136081 L1.10150559,22.680106 C1.10236217,23.376121 1.66645554,23.9402143 2.36247051,23.9410709 L2.36247051,23.9410709 L14.5524333,23.9410709 C15.2486624,23.9402143 15.8127558,23.376121 15.8133982,22.680106 L15.8133982,22.680106 L15.8133982,21.1331552 L6.9627193,21.1331552 C5.8430989,21.1318702 4.93549545,20.2242667 4.93421053,19.1046464 L4.93421053,19.1046464 L4.93421053,5.0803959 Z M15.9834144,1.10561625 L7.24503887,1.1189644 C6.5490239,1.11982104 5.98493053,1.6839144 5.98407395,2.37992932 L5.98407395,18.8435738 C5.98493053,19.5395887 6.5490239,20.1036821 7.24503887,20.1045387 L19.4943279,20.0911905 C20.1903428,20.0903339 20.7544361,19.5262405 20.7552928,18.8302256 L20.7552928,6.02226581 L17.5055253,6.02226581 C16.8005157,6.02140918 15.984271,5.44939196 15.9834144,4.74416822 L15.9834144,1.10561625 Z M18.3563768,17.0598616 C18.5683936,17.0598616 18.7401487,17.2318308 18.7401487,17.4436335 C18.7401487,17.6556503 18.5683936,17.8274054 18.3563768,17.8274054 L18.3563768,17.8274054 L8.07013257,17.8274054 C7.85832988,17.8274054 7.68636064,17.6556503 7.68636064,17.4436335 C7.68636064,17.2318308 7.85832988,17.0598616 8.07013257,17.0598616 L8.07013257,17.0598616 L18.3563768,17.0598616 Z M18.7401487,7.70167168 C18.9519515,7.70167168 19.1239207,7.87342678 19.1239207,8.08544358 L19.1239207,14.2433555 C19.1239207,14.4551582 18.9519515,14.6271274 18.7401487,14.6271274 L18.672,14.62 L13.9372106,14.6211942 C13.9152861,14.625093 13.8927204,14.6271274 13.8696834,14.6271274 L13.802,14.62 L11.7166158,14.6211942 C11.6946913,14.625093 11.6721255,14.6271274 11.6490885,14.6271274 L11.581,14.62 L8.13322137,14.6211942 C8.11129688,14.625093 8.08873112,14.6271274 8.06569414,14.6271274 C7.85367729,14.6271274 7.68192219,14.4551582 7.68192219,14.2433555 L7.68192219,8.08544358 C7.68192219,7.87342678 7.85367729,7.70167168 8.06569414,7.70167168 L8.103,7.705 L11.6098393,7.70365234 C11.6227437,7.7023426 11.6358375,7.70167168 11.6490885,7.70167168 L11.687,7.705 L13.830937,7.70360163 C13.8436787,7.70232529 13.8566044,7.70167168 13.8696834,7.70167168 L13.907,7.705 L18.6846056,7.70517653 C18.7084387,7.70264608 18.7241795,7.70167168 18.7401487,7.70167168 Z M11.265,10.988 L8.449,10.988 L8.449,13.853 L11.265,13.853 L11.265,10.988 Z M13.485,10.988 L12.032,10.988 L12.032,13.853 L13.485,13.853 L13.485,10.988 Z M18.356,10.988 L14.253,10.988 L14.253,13.853 L18.356,13.853 L18.356,10.988 Z M11.265,8.472 L8.449,8.472 L8.449,10.221 L11.265,10.221 L11.265,8.472 Z M13.485,8.472 L12.032,8.472 L12.032,10.221 L13.485,10.221 L13.485,8.472 Z M18.356,8.472 L14.253,8.472 L14.253,10.221 L18.356,10.221 L18.356,8.472 Z M8.97204902,2.10561625 C9.10491652,2.10561625 9.21433679,2.19258635 9.2443237,2.30824528 L9.25243852,2.36819566 L9.25243852,2.77282622 L9.7676257,2.77282622 C9.92263778,2.77282622 10.0480152,2.89120218 10.0480152,3.03755792 C10.0480152,3.16300569 9.95590118,3.2678969 9.83196595,3.29530565 L9.7676257,3.30228961 L8.6574657,3.30228961 C8.43178635,3.30228961 8.24713962,3.49814802 8.24713962,3.73705224 C8.24713962,3.94941154 8.39303334,4.12775934 8.58395598,4.16477047 L8.6574657,4.17181486 L9.28663235,4.17181486 C9.82005628,4.17181486 10.2554578,4.60227291 10.2554578,5.13388859 C10.2554578,5.62153606 9.88789733,6.02752827 9.41194995,6.08820888 L9.30030988,6.0959623 L9.25243852,6.0959623 L9.25243852,6.50920202 C9.25243852,6.65555778 9.1270611,6.77393375 8.97204902,6.77393375 C8.83918154,6.77393375 8.72808645,6.68696365 8.69905658,6.56994932 L8.69165954,6.50920202 L8.69165954,6.0981146 L8.15367645,6.0981146 C7.99866438,6.0981146 7.87328696,5.97973864 7.87328696,5.83338291 C7.87328696,5.70793514 7.96540098,5.60304393 8.08933621,5.57563518 L8.15367645,5.56865121 L9.2843528,5.56865121 C9.51003211,5.56865121 9.69467887,5.37494509 9.69467887,5.13388859 C9.69467887,4.92152928 9.54878513,4.74318149 9.35786251,4.70617036 L9.2843528,4.69912597 L8.65518611,4.69912597 C8.1217622,4.69912597 7.68636064,4.26651563 7.68636064,3.73705224 C7.68636064,3.24540766 8.06178342,2.83727413 8.54250428,2.78147773 L8.65518611,2.77497851 L8.69165954,2.77497851 L8.69165954,2.37034795 C8.69165954,2.22399222 8.81703696,2.10561625 8.97204902,2.10561625 Z M16.9960423,1.87139546 L16.9960423,4.40630998 C16.9962565,4.68771414 17.2243352,4.91579287 17.5059536,4.91622122 L17.5059536,4.91622122 L19.9884471,4.91622122 L16.9960423,1.87139546 Z" id="Shape" fill="url(#linearGradient-1)"></path>
        </g>
    </g>
</svg>