<?xml version="1.0" encoding="UTF-8"?>
<svg width="36px" height="15px" viewBox="0 0 36 15" version="1.1" xmlns="http://www.w3.org/2000/svg" xmlns:xlink="http://www.w3.org/1999/xlink">
    <title>mail-sending-icon</title>
    <defs>
        <linearGradient x1="100%" y1="59.2431881%" x2="5.43323864%" y2="39.7750009%" id="linearGradient-1">
            <stop stop-color="#E95A0C" offset="0%"></stop>
            <stop stop-color="#FF7800" offset="100%"></stop>
        </linearGradient>
    </defs>
    <g id="Wireframes" stroke="none" stroke-width="1" fill="none" fill-rule="evenodd">
        <g id="Oferta" transform="translate(-341.000000, -246.000000)" fill="url(#linearGradient-1)" fill-rule="nonzero">
            <g id="Group" transform="translate(341.680000, 246.000000)">
                <path d="M12.549899,14.041908 C12.8087063,14.041908 13.018511,14.2517128 13.018511,14.5105201 C13.018511,14.7693274 12.8087063,14.9791321 12.549899,14.9791321 L6.76066588,14.9791321 C6.50185859,14.9791321 6.29205384,14.7693274 6.29205384,14.5105201 C6.29205384,14.2517128 6.50185859,14.041908 6.76066588,14.041908 L12.549899,14.041908 Z M4.7531319,14.041908 C5.01193919,14.041908 5.22174394,14.2517128 5.22174394,14.5105201 C5.22174394,14.7693274 5.01193919,14.9791321 4.7531319,14.9791321 L3.86745515,14.9791321 C3.60864787,14.9791321 3.39884311,14.7693274 3.39884311,14.5105201 C3.39884311,14.2517128 3.60864787,14.041908 3.86745515,14.041908 L4.7531319,14.041908 Z M17.5206836,0.0153763325 C17.7794909,0.0153763325 18.19854,0.314208984 18.19854,0.731567383 C18.19854,1.14892578 17.7794909,1.39013672 17.5206836,1.39013672 L16.800835,1.39013672 C16.6353122,1.39013672 16.4791822,1.43035201 16.3416827,1.50154491 L22.3686909,6.66076365 C23.6152149,7.78398155 25.5088441,7.78398155 26.7553681,6.66076365 L32.4979406,1.39236045 C32.4757236,1.39088579 32.4533082,1.39013672 32.4307178,1.39013672 L30.495354,1.39013672 C30.2365467,1.39013672 29.8576076,1.19750977 29.8576076,0.731567383 C29.8576076,0.265625 30.2365467,0.0153763325 30.495354,0.0153763325 L33.3028427,0.0153763325 C34.1312698,0.0153763325 34.8028427,0.686949208 34.8028427,1.51537633 L34.8028427,12.0957532 C34.8028427,12.9241803 34.1312698,13.5957532 33.3028427,13.5957532 L15.8198105,13.5957532 C14.9913834,13.5957532 14.3198105,12.9241803 14.3198105,12.0957532 L14.3198105,1.51537633 C14.3198105,0.686949208 14.9913834,0.0153763325 15.8198105,0.0153763325 L17.5206836,0.0153763325 Z M22.0681932,7.623613 L16.367906,12.2374994 C16.4989041,12.3005106 16.6457466,12.3358154 16.800835,12.3358154 L32.4307178,12.3358154 C32.5050772,12.3358154 32.5775411,12.3276993 32.6472717,12.3123046 L27.050331,7.62731139 C26.3313147,8.15382987 25.4602978,8.44102078 24.5617952,8.44102078 C23.6611773,8.44102078 22.7881689,8.15250946 22.0681932,7.623613 Z M9.15105588,11.1365134 C9.40986317,11.1365134 9.61966792,11.3463182 9.61966792,11.6051254 C9.61966792,11.8639327 9.40986317,12.0737375 9.15105588,12.0737375 L3.36182276,12.0737375 C3.10301548,12.0737375 2.89321072,11.8639327 2.89321072,11.6051254 C2.89321072,11.3463182 3.10301548,11.1365134 3.36182276,11.1365134 L9.15105588,11.1365134 Z M1.35428879,11.1365134 C1.61309607,11.1365134 1.82290083,11.3463182 1.82290083,11.6051254 C1.82290083,11.8639327 1.61309607,12.0737375 1.35428879,12.0737375 L0.468612038,12.0737375 C0.209804756,12.0737375 0,11.8639327 0,11.6051254 C0,11.3463182 0.209804756,11.1365134 0.468612038,11.1365134 L1.35428879,11.1365134 Z M33.312758,1.91854659 L27.767,7.00337633 L33.3660347,11.6903901 C33.4078351,11.5801863 33.4307178,11.4606731 33.4307178,11.3358154 L33.4307178,2.39013672 C33.4307178,2.21960237 33.3880304,2.05903818 33.312758,1.91854659 Z M15.800835,2.39013672 L15.800835,11.3358154 C15.800835,11.3851266 15.8044041,11.4336041 15.8112982,11.4810037 L21.336,7.00937633 L15.8070002,2.27846626 C15.8029265,2.31512818 15.800835,2.35238819 15.800835,2.39013672 Z M10.8502431,8.22736987 C11.1090504,8.22736987 11.3188552,8.43717463 11.3188552,8.69598191 C11.3188552,8.95478919 11.1090504,9.16459395 10.8502431,9.16459395 L5.06101001,9.16459395 C4.80220273,9.16459395 4.59239798,8.95478919 4.59239798,8.69598191 C4.59239798,8.43717463 4.80220273,8.22736987 5.06101001,8.22736987 L10.8502431,8.22736987 Z M3.05347604,8.22736987 C3.31228332,8.22736987 3.52208808,8.43717463 3.52208808,8.69598191 C3.52208808,8.95478919 3.31228332,9.16459395 3.05347604,9.16459395 L2.16779929,9.16459395 C1.90899201,9.16459395 1.69918725,8.95478919 1.69918725,8.69598191 C1.69918725,8.43717463 1.90899201,8.22736987 2.16779929,8.22736987 L3.05347604,8.22736987 Z M26.8416714,0.0153763325 C27.1004787,0.0153763325 27.5102323,0.220703125 27.5102323,0.731567383 C27.5102323,1.24243164 27.1004787,1.39013672 26.8416714,1.39013672 L25.7492847,1.39013672 C25.4904774,1.39013672 25.1812305,1.15545654 25.1812305,0.731567383 C25.1812305,0.307678223 25.4904774,0.0153763325 25.7492847,0.0153763325 L26.8416714,0.0153763325 Z M22.1696094,0.0153763325 C22.4284167,0.0153763325 22.8381703,0.220703125 22.8381703,0.731567383 C22.8381703,1.24243164 22.4284167,1.39013672 22.1696094,1.39013672 L21.1053394,1.39013672 C20.8465321,1.39013672 20.5372852,1.15545654 20.5372852,0.731567383 C20.5372852,0.307678223 20.8465321,0.0153763325 21.1053394,0.0153763325 L22.1696094,0.0153763325 Z" id="mail-sending-icon"></path>
            </g>
        </g>
    </g>
</svg>