<?xml version="1.0" encoding="UTF-8"?>
<svg width="21px" height="25px" viewBox="0 0 21 25" version="1.1" xmlns="http://www.w3.org/2000/svg" xmlns:xlink="http://www.w3.org/1999/xlink">
    <title>pdf-file-icon</title>
    <g id="Wireframes" stroke="none" stroke-width="1" fill="none" fill-rule="evenodd">
        <path d="M19.548748,0.710820312 C20.2909121,0.710820312 20.8982168,1.31807031 20.8982168,2.06034375 L20.8982168,2.06034375 L20.8975605,18.2530937 C20.8975605,18.9952578 20.4556309,20.0187891 19.9148809,20.5271641 L19.9148809,20.5271641 L16.1453262,24.0753984 C15.6052324,24.5837734 14.5553965,25.0000547 13.8135605,25.0000547 L13.8135605,25.0000547 L2.34400585,25.0000547 C1.60151367,25.0000547 0.99459179,24.3928047 0.99459179,23.6506406 L0.99459179,23.6506406 L0.99459179,2.06034375 C0.99459179,1.318125 1.6017871,0.710820312 2.34395117,0.710820312 L2.34395117,0.710820312 Z M19.5486934,1.72292187 L2.34389648,1.72292187 C2.16074804,1.72292187 2.00658398,1.87741406 2.00658398,2.06023437 L2.00658398,2.06023437 L2.00658398,23.6505859 C2.00658398,23.8334062 2.16069335,23.9878984 2.34389648,23.9878984 L2.34389648,23.9878984 L13.8134512,23.9878984 C13.9142949,23.9878984 14.0303418,23.9713828 14.1507637,23.9470469 L14.1507637,23.9470469 L14.1507637,20.4457344 C14.1528418,19.421875 14.9823965,18.5923203 16.0062012,18.5902969 L16.0062012,18.5902969 L19.8395215,18.5902969 C19.8671387,18.4692187 19.8854043,18.3531719 19.8854043,18.2529844 L19.8854043,18.2529844 L19.8860059,2.06023437 C19.8860059,1.87741406 19.7315137,1.72292187 19.5486934,1.72292187 L19.5486934,1.72292187 Z M19.381459,19.6024531 L16.0062559,19.6024531 C15.7744902,19.6024531 15.5660215,19.6961875 15.4104902,19.8503516 C15.2563262,20.0055 15.1628652,20.2140234 15.1628652,20.4457891 L15.1628652,20.4457891 L15.1628652,23.5497422 C15.2738809,23.4819844 15.3744512,23.4108359 15.4516699,23.3382656 L15.4516699,23.3382656 L19.2212246,19.7903047 C19.2755293,19.7390078 19.329123,19.6735469 19.381459,19.6024531 L19.381459,19.6024531 Z M7.13673422,7.614 L7.35681422,7.62184 C7.64129422,7.64274667 7.88993422,7.70546667 8.10273422,7.81 C8.36873422,7.94066667 8.56823422,8.12033333 8.70123422,8.349 C8.83423422,8.57766667 8.90073422,8.83666667 8.90073422,9.126 C8.90073422,9.38733333 8.83890088,9.63233333 8.71523422,9.861 C8.59156755,10.0896667 8.39790088,10.274 8.13423422,10.414 C7.87056755,10.554 7.53806755,10.624 7.13673422,10.624 L7.13673422,10.624 L6.31773422,10.624 L6.31773422,12.5 L5.33773422,12.5 L5.33773422,7.614 L7.13673422,7.614 Z M11.3017342,7.614 L11.5179485,7.62014286 C11.9428056,7.64471429 12.3222342,7.743 12.6562342,7.915 C13.0459009,8.11566667 13.3469009,8.4015 13.5592342,8.7725 C13.7715676,9.1435 13.8777342,9.574 13.8777342,10.064 C13.8777342,10.554 13.7715676,10.9821667 13.5592342,11.3485 C13.3469009,11.7148333 13.0459009,11.9983333 12.6562342,12.199 C12.2665676,12.3996667 11.8150676,12.5 11.3017342,12.5 L11.3017342,12.5 L9.59373422,12.5 L9.59373422,7.614 L11.3017342,7.614 Z M17.6297342,7.614 L17.6297342,8.405 L15.5927342,8.405 L15.5927342,9.658 L17.1537342,9.658 L17.1537342,10.435 L15.5927342,10.435 L15.5927342,12.5 L14.6127342,12.5 L14.6127342,7.614 L17.6297342,7.614 Z M11.2667342,8.44 L10.5737342,8.44 L10.5737342,11.667 L11.2667342,11.667 C11.7800676,11.667 12.1767342,11.527 12.4567342,11.247 C12.7367342,10.967 12.8767342,10.5726667 12.8767342,10.064 C12.8767342,9.55533333 12.7367342,9.1575 12.4567342,8.8705 C12.1767342,8.5835 11.7800676,8.44 11.2667342,8.44 L11.2667342,8.44 Z M7.09473422,8.412 L6.31773422,8.412 L6.31773422,9.833 L7.09473422,9.833 C7.36540088,9.833 7.56606755,9.77116667 7.69673422,9.6475 C7.82740088,9.52383333 7.89273422,9.35 7.89273422,9.126 C7.89273422,8.65 7.62673422,8.412 7.09473422,8.412 L7.09473422,8.412 Z" id="pdf-file-icon" fill="#000000" fill-rule="nonzero"></path>
    </g>
</svg>