<?xml version="1.0" encoding="UTF-8"?>
<svg width="118px" height="118px" viewBox="0 0 118 118" version="1.1" xmlns="http://www.w3.org/2000/svg" xmlns:xlink="http://www.w3.org/1999/xlink">
    <title>ritmo-logo-min-white</title>
    <g id="Logo" stroke="none" stroke-width="1" fill="none" fill-rule="evenodd">
        <g id="WHITE-LOGO-Copy" transform="translate(-130.000000, -107.000000)" fill-rule="nonzero">
            <g id="ritmo-logo-min-white" transform="translate(130.000000, 107.000000)">
                <path d="M110.935511,32.1372842 C109.914334,41.2508421 102.512,47.8325263 93.3223684,47.8325263 C91.5357079,47.8325263 90.0041026,47.5795789 88.2171237,47.0730526 C94.3435447,61.5027368 88.9829263,78.2108421 75.4541711,86.5647368 C61.9254158,94.6656842 44.5676474,91.6277895 34.3571579,79.7297895 C10.873255,51.8831579 45.0780763,13.1509158 75.9649184,32.6435895 C74.6883684,22.2643789 82.8568237,13.1509158 93.3223684,13.1509158 C93.8331158,13.1509158 94.3435447,13.1509158 94.8539737,13.1509158 C71.1147289,-5.07594737 37.4203684,-2.54445263 16.4889924,18.9734105 C-4.18713737,40.2381053 -5.46343263,73.9072632 13.93637,96.6908421 C33.0809263,119.474421 66.7752868,124.284211 91.5357079,107.576421 C116.551184,91.1215789 124.719639,58.4648421 110.935511,32.1372842 Z" id="circle" fill="#FFFFFF"></path>
                <path d="M93.3223684,18.2139684 C82.3463947,18.2139684 76.9857763,31.3778105 84.6434842,39.2253684 C92.5565658,46.8201053 105.830266,41.5037895 105.830266,30.6183684 C106.085639,23.7832947 100.214592,17.9608 93.3223684,18.2139684 Z" id="ball" fill="#2793FF"></path>
            </g>
        </g>
    </g>
</svg>