<?xml version="1.0" encoding="UTF-8"?>
<svg width="34px" height="34px" viewBox="0 0 34 34" version="1.1" xmlns="http://www.w3.org/2000/svg">
    <path d="M5.04216128,15.9226146 C5.84554841,15.9226146 6.57533491,15.6030738 7.11256765,15.0850187 L10.0415617,16.5495157 C10.0265305,16.6702829 10.0179783,16.7928643 10.0179783,16.917778 C10.0179783,18.5639441 11.3573024,19.9032682 13.0034686,19.9032682 C14.6496347,19.9032682 15.9889588,18.5639441 15.9889588,16.917778 C15.9889588,16.4575149 15.8840002,16.0210943 15.6971478,15.631322 L19.6783198,11.65015 C20.0680922,11.8370023 20.5045128,11.9419609 20.9647759,11.9419609 C22.610942,11.9419609 23.9502661,10.6026368 23.9502661,8.9564707 C23.9502661,8.64548214 23.902322,8.34563734 23.8136903,8.06367438 L27.2724015,5.46977053 C27.7461407,5.78620144 28.3147314,5.97098047 28.9260832,5.97098047 C30.5722493,5.97098047 31.9115734,4.63165638 31.9115734,2.98549023 C31.9115734,1.33932409 30.5722493,-3.38676455e-14 28.9260832,-3.38676455e-14 C27.279917,-3.38676455e-14 25.9405929,1.33932409 25.9405929,2.98549023 C25.9405929,3.2964788 25.988537,3.59632359 26.0771687,3.87828656 L22.6184575,6.47219041 C22.1447183,6.15575949 21.5761276,5.97098047 20.9647759,5.97098047 C19.3186097,5.97098047 17.9792856,7.31030456 17.9792856,8.9564707 C17.9792856,9.41673378 18.0842443,9.8531544 18.2710966,10.2429267 L14.2899246,14.2240987 C13.9001523,14.0372464 13.4637317,13.9322878 13.0034686,13.9322878 C12.2000814,13.9322878 11.4702949,14.2518285 10.9330622,14.7698836 L8.0040682,13.3053866 C8.01909935,13.1846194 8.02765152,13.0620381 8.02765152,12.9371243 C8.02765152,11.2909582 6.68832743,9.95163411 5.04216128,9.95163411 C3.39599514,9.95163411 2.05667105,11.2909582 2.05667105,12.9371243 C2.05667105,14.5832905 3.39599514,15.9226146 5.04216128,15.9226146 Z M28.9260832,1.99032682 C29.4747188,1.99032682 29.9212466,2.43685459 29.9212466,2.98549023 C29.9212466,3.53412588 29.4747188,3.98065365 28.9260832,3.98065365 C28.3774475,3.98065365 27.9309197,3.53412588 27.9309197,2.98549023 C27.9309197,2.43685459 28.3774475,1.99032682 28.9260832,1.99032682 Z M20.9647759,7.96130729 C21.5134115,7.96130729 21.9599393,8.40783506 21.9599393,8.9564707 C21.9599393,9.50510635 21.5134115,9.95163411 20.9647759,9.95163411 C20.4161402,9.95163411 19.9696125,9.50510635 19.9696125,8.9564707 C19.9696125,8.40783506 20.4161402,7.96130729 20.9647759,7.96130729 Z M13.0034686,15.9226146 C13.5521042,15.9226146 13.998632,16.3691423 13.998632,16.917778 C13.998632,17.4664136 13.5521042,17.9129414 13.0034686,17.9129414 C12.4548329,17.9129414 12.0083052,17.4664136 12.0083052,16.917778 C12.0083052,16.3691423 12.4548329,15.9226146 13.0034686,15.9226146 Z M5.04216128,11.9419609 C5.59079693,11.9419609 6.0373247,12.3884887 6.0373247,12.9371243 C6.0373247,13.48576 5.59079693,13.9322878 5.04216128,13.9322878 C4.49352564,13.9322878 4.04699787,13.48576 4.04699787,12.9371243 C4.04699787,12.3884887 4.49352564,11.9419609 5.04216128,11.9419609 Z" fill="#000000" ></path>
    <path d="M32.973081,31.9779176 L31.9115734,31.9779176 L31.9115734,10.9467975 C31.9115734,10.3971253 31.4660823,9.95163411 30.91641,9.95163411 L26.9357563,9.95163411 C26.3860841,9.95163411 25.9405929,10.3971253 25.9405929,10.9467975 L25.9405929,31.9779176 L23.9502661,31.9779176 L23.9502661,16.917778 C23.9502661,16.3681057 23.504775,15.9226146 22.9551027,15.9226146 L18.974449,15.9226146 C18.4247768,15.9226146 17.9792856,16.3681057 17.9792856,16.917778 L17.9792856,31.9779176 L15.9889588,31.9779176 L15.9889588,24.8790853 C15.9889588,24.329413 15.5434677,23.8839219 14.9937954,23.8839219 L11.0131418,23.8839219 C10.4634695,23.8839219 10.0179783,24.329413 10.0179783,24.8790853 L10.0179783,31.9779176 L8.02765152,31.9779176 L8.02765152,20.8984316 C8.02765152,20.3487594 7.58216038,19.9032682 7.03248811,19.9032682 L3.05183446,19.9032682 C2.50216219,19.9032682 2.05667105,20.3487594 2.05667105,20.8984316 L2.05667105,31.9779176 L0.995163411,31.9779176 C0.445491137,31.9779176 5.68434189e-14,32.4234088 5.68434189e-14,32.973081 C5.68434189e-14,33.5227533 0.445491137,33.9682444 0.995163411,33.9682444 L32.973081,33.9682444 C33.5227533,33.9682444 33.9682444,33.5227533 33.9682444,32.973081 C33.9682444,32.4234088 33.5227533,31.9779176 32.973081,31.9779176 Z M27.9309197,11.9419609 L29.9212466,11.9419609 L29.9212466,31.9779176 L27.9309197,31.9779176 L27.9309197,11.9419609 Z M19.9696125,17.9129414 L21.9599393,17.9129414 L21.9599393,31.9779176 L19.9696125,31.9779176 L19.9696125,17.9129414 Z M12.0083052,25.8742487 L13.998632,25.8742487 L13.998632,31.9779176 L12.0083052,31.9779176 L12.0083052,25.8742487 Z M4.04699787,21.893595 L6.0373247,21.893595 L6.0373247,31.9779176 L4.04699787,31.9779176 L4.04699787,21.893595 Z" fill="#000000" ></path>
</svg>