<?xml version="1.0" encoding="UTF-8"?>
<svg width="467px" height="176px" viewBox="0 0 467 176" version="1.1" xmlns="http://www.w3.org/2000/svg" xmlns:xlink="http://www.w3.org/1999/xlink">
    <g stroke="none" stroke-width="1" fill="none" fill-rule="evenodd">
        <g transform="translate(-486.000000, -610.000000)" fill-rule="nonzero">
            <g transform="translate(486.000000, 610.000000)">
                <path d="M179.971221,4.32848792 C182.237008,6.55476867 183.514423,9.59724206 183.517014,12.7736552 C183.519508,13.0592179 183.511961,13.3425281 183.494703,13.6232503 L183.494758,43.0244677 L208.787399,43.0230751 C209.047029,43.004057 209.308973,42.9932549 209.572976,42.9909295 C212.77491,42.9373769 215.86437,44.1711764 218.148566,46.4156573 C220.432763,48.6601382 221.720557,51.7274843 221.723169,54.929865 C221.780368,61.4807375 216.596919,66.8557734 210.085968,67.0727904 L209.864,67.076871 L209.864903,67.1193065 L183.494758,67.1193065 L183.494758,95.5849032 C183.606296,111.254646 196.319514,123.909902 211.989604,123.949835 C227.502992,123.989368 240.181405,111.650014 240.619137,96.199636 L240.628645,95.7305 L240.628645,74.5504516 C240.647524,56.69241 255.118783,42.2198744 272.976823,42.1994194 C279.561263,42.2534557 285.971989,44.2899806 291.375973,48.0365684 L291.850161,48.3715806 L293.177661,49.3051129 L294.508016,48.3715806 C304.333799,41.2326305 317.336472,40.2173801 328.15124,45.7447136 C338.830822,51.2029554 345.589318,62.1276445 345.728596,74.0954842 L345.730698,74.5504516 L345.730698,163.424435 C345.730698,170.070157 340.342109,175.457579 333.696387,175.457579 C327.151358,175.457579 321.826787,170.232176 321.666938,163.725633 L321.663242,163.424435 L321.640403,162.194 L321.640403,74.5504516 C321.63098,69.9914372 317.937514,66.2979711 313.3785,66.2885484 C308.959664,66.2371267 305.317962,69.7050193 305.123882,74.0900238 L305.116597,74.3391935 L305.116597,95.713371 C304.869504,102.264299 299.425219,107.412704 292.870713,107.293729 C286.417044,107.176584 281.224315,101.995312 281.057295,95.57827 L281.053161,95.2765806 L281.024613,74.3391935 C280.986875,71.4252374 279.397427,68.7527637 276.854998,67.3284674 C274.31257,65.9041711 271.203415,65.9444367 268.698724,67.4340964 C266.277523,68.8741009 264.776735,71.4570052 264.713461,74.2597646 L264.712065,74.5504516 L264.712065,95.8047258 C264.651361,124.82438 241.077074,148.300248 212.057419,148.239546 C183.327962,148.17945 160.031968,125.073692 159.62648,96.4538412 L159.621217,95.5849032 L159.621217,12.3492258 L159.633892,12.3493238 C159.90783,6.04317953 165.079196,0.987773806 171.464746,0.931530699 C174.640874,0.878412349 177.705434,2.10220717 179.971221,4.32848792 Z M375.627664,59.3354894 C394.229278,39.9855337 424.423257,37.7632052 445.657452,54.1811774 C445.220661,54.1469194 444.783871,54.118371 444.338516,54.118371 C439.849938,54.1454367 435.587551,56.0922327 432.628002,59.4670129 C429.668454,62.8417931 428.294747,67.3218477 428.853871,71.7755484 C416.959803,64.1493869 401.279203,66.3515229 391.945785,76.9588085 C382.612367,87.5660941 382.423429,103.399442 391.501074,114.226425 C400.578719,125.053408 416.202305,127.629094 428.274966,120.288925 C440.347626,112.948756 445.251088,97.8926392 439.816452,84.8507097 C441.28236,85.2969462 442.806193,85.5239819 444.338516,85.5244516 C452.442846,85.5567837 459.247302,79.4305497 460.062968,71.3673065 C472.519294,95.14294 465.056806,124.484488 442.755,139.420024 C420.453193,154.355559 390.480319,150.084501 373.238028,129.514031 C355.995737,108.943561 357.02605,78.6854451 375.627664,59.3354894 Z M129.51404,41.1031613 C136.165281,41.1031613 141.557177,46.4950574 141.557177,53.1462984 L141.557177,134.160911 C141.557177,140.812152 136.165281,146.204048 129.51404,146.204048 C122.862799,146.204048 117.470903,140.812152 117.470903,134.160911 L117.470903,53.1462984 C117.470903,46.4950574 122.862799,41.1031613 129.51404,41.1031613 Z M52.551871,41.0888871 C75.2517982,41.1189292 94.6950146,55.5522811 102.007596,75.8938337 L101.925645,75.7539719 C103.85828,82.0691328 100.34081,88.7735607 94.029922,90.7635851 C88.1215807,92.6266739 81.84847,89.700562 79.398659,84.1651912 C79.2766516,83.8127339 79.1464026,83.4645957 79.0096652,83.1198972 L78.9208019,82.8991004 L78.9048628,82.8481736 L78.9048628,82.8481736 L78.8892465,82.7975098 L78.8912339,82.8261593 C74.4678371,72.0299279 63.6507126,64.6864944 51.3933145,65.1845974 C36.2765731,65.7988954 24.3109496,78.1228399 24.0893847,93.1973949 L24.0862742,93.6550323 L24.0870769,134.387129 C23.9675425,140.886466 18.6904139,146.146303 12.150045,146.203577 C5.59917392,146.260943 0.224005171,141.077632 0.0068212673,134.566687 L0.000474370056,134.265253 L1.06311404e-10,93.6407581 C0.0314682482,64.6302057 23.5413186,41.1203553 52.551871,41.0888871 Z M129.409389,0.931544268 C132.611323,0.877991667 135.700784,2.11179118 137.98498,4.35627208 C140.269177,6.60075298 141.556971,9.66809901 141.559583,12.8704798 C141.617661,19.5221349 136.272602,24.9614955 129.620948,25.0197443 C122.969295,25.077993 117.529797,19.7330731 117.471378,13.0814209 C117.412958,6.42976874 122.757739,0.990134061 129.409389,0.931544268 Z" id="letters" fill="#000000"></path>
                <path d="M444.338516,58.7346452 C438.241842,58.7867098 433.331563,63.7523735 433.34784,69.8492479 C433.364198,75.9461222 438.300986,80.8854317 444.397851,80.9049196 C450.494717,80.9242925 455.462887,76.0165497 455.518065,69.9199032 C455.577657,66.9365142 454.419151,64.0576203 452.309694,61.9470862 C450.200237,59.8365522 447.321935,58.6765761 444.338516,58.7346452 Z" id="ball" fill="#2793FF"></path>
            </g>
        </g>
    </g>
</svg>