<?xml version="1.0" encoding="UTF-8"?>
<svg width="18px" height="16px" viewBox="0 0 18 16" version="1.1" xmlns="http://www.w3.org/2000/svg">
    <path d="M13.2273615,10.698265 C15.5289168,10.698265 17.4016219,12.5709701 17.4016219,14.8725254 L17.4016219,15.1529528 C17.4016219,15.4268192 17.1141357,15.8120466 16.5692139,15.8120466 C16.024292,15.8120466 15.7421875,15.4268192 15.7421875,15.1529528 L15.7421875,14.8725254 C15.7421875,13.2977307 14.8021562,12.358643 13.2273615,12.358643 L9.34831914,12.358643 C7.7735245,12.358643 6.82177734,13.2977307 6.82177734,14.8725254 L6.82177734,15.1529528 C6.82177734,15.421143 6.48669434,15.8120466 5.98822021,15.8120466 C5.48974609,15.8120466 5.1740588,15.421143 5.1740588,15.1529528 L5.1740588,14.8725254 C5.1740588,12.5709701 7.04676381,10.698265 9.34831914,10.698265 L13.2273615,10.698265 Z M7.32877741,0.3614946 C7.46533703,0.3614946 7.58613731,0.4430872 7.63916162,0.5644412 L7.65978496,0.6282381 L7.84920395,1.4995655 C8.00385289,1.5500772 8.15596471,1.6086231 8.30477059,1.6748701 L8.52540384,1.7799748 L9.27572798,1.297605 C9.3874477,1.2258161 9.52829865,1.2270054 9.63731549,1.2945658 L9.69841778,1.3430137 L10.5351987,2.1784957 C10.0899086,2.2417274 9.66735805,2.3764781 9.27958159,2.5707131 L9.11503473,2.4074005 L8.49413192,2.8065857 C8.39876449,2.8678488 8.27733101,2.8713607 8.17860778,2.8156386 C7.92083478,2.6701682 7.64604861,2.5562267 7.3618974,2.477014 C7.27461512,2.4526649 7.20381535,2.3912551 7.16663985,2.3109655 L7.14533061,2.2474923 L6.98862211,1.5266175 L5.74931385,1.5266175 L5.59260535,2.2474923 C5.56849035,2.358234 5.48514141,2.4465776 5.37603857,2.477014 C5.09188735,2.5562267 4.81710119,2.6701682 4.55925015,2.8156386 C4.48033399,2.8602163 4.38683333,2.8669341 4.30376159,2.8364315 L4.24380404,2.8065857 L3.6228232,2.4074005 L2.74648866,3.2838131 L3.1456739,3.9047159 C3.20701499,4.0000833 3.21044884,4.1215168 3.1547268,4.22024 C3.00925636,4.478013 2.8953149,4.7527992 2.8161022,5.0369504 C2.79175306,5.1242327 2.73034331,5.1950325 2.65005362,5.232208 L2.58658044,5.2535172 L1.86570572,5.4102257 L1.86570572,6.6495339 L2.58665848,6.8062424 C2.69740018,6.8303574 2.78566578,6.9137064 2.8161022,7.0228092 C2.89539296,7.3069604 3.0093344,7.5817466 3.15480484,7.8395196 C3.19938247,7.9184982 3.20605038,8.0120113 3.17552781,8.0950856 L3.1456739,8.1550438 L2.7465667,8.7759466 L3.62290124,9.6523591 L4.24380404,9.2531739 C4.33917147,9.1919108 4.46060495,9.188399 4.55932818,9.244121 C4.81710119,9.3895914 5.09188735,9.5035329 5.37603857,9.5827456 C5.46332084,9.6070947 5.53412062,9.6685045 5.57129612,9.7487942 L5.59260535,9.8122674 L5.74931385,10.5331421 L6.51561318,10.5320412 C6.02540041,10.8259703 5.59202729,11.2072053 5.24280078,11.6530401 C5.18099199,11.6191214 5.1311047,11.5659084 5.10115625,11.500598 L5.07815101,11.4315216 L4.88873202,10.5601942 C4.73408307,10.5096824 4.58197125,10.4511365 4.43316537,10.3848895 L4.21253212,10.2797849 L3.46220799,10.7621546 C3.35048827,10.8339435 3.20963731,10.8327543 3.10062047,10.7651939 L3.03951818,10.716746 L1.68210185,9.3593296 C1.58825728,9.265485 1.55946242,9.1276133 1.60232435,9.0066797 L1.63669319,8.9366398 L2.11906294,8.1863157 C2.04519818,8.041008 1.97886789,7.8920099 1.92040524,7.7400903 L1.83865363,7.5101158 L0.967326217,7.3206968 C0.833880346,7.2916352 0.733224031,7.1862554 0.707188469,7.0564104 L0.700582747,6.9896892 L0.700582747,5.0700704 C0.700582747,4.9335108 0.782175366,4.812774 0.903529408,4.7597134 L0.967326217,4.7390628 L1.83865363,4.5496439 C1.88916535,4.3949949 1.9477113,4.2428831 2.0139583,4.0940772 L2.11906294,3.873444 L1.63669319,3.1231198 C1.56490425,3.0114001 1.56609353,2.8705491 1.63365393,2.7615323 L1.68210185,2.70043 L3.03951818,1.3430137 C3.13336277,1.2491691 3.27123453,1.2203743 3.39216813,1.2632362 L3.46220799,1.297605 L4.21253212,1.7799748 C4.35783985,1.70611 4.50683793,1.6397797 4.65875754,1.5813171 L4.88873202,1.4995655 L5.07815101,0.6282381 C5.10713842,0.4947922 5.21257124,0.3941359 5.34243284,0.3681003 L5.40915856,0.3614946 L7.32877741,0.3614946 Z M8.26250519,9.214377 C8.53956396,9.4814633 8.85388944,9.7101421 9.19682465,9.8917563 L8.87102809,9.873049 C8.23182669,9.873049 7.61333496,10.0102995 7.04913637,10.2568753 L7.14533061,9.8122674 C7.16944561,9.7015257 7.25279456,9.613182 7.3618974,9.5827456 C7.64604861,9.5035329 7.92083478,9.3895914 8.17868582,9.244121 L8.24021669,9.2177765 L8.26250519,9.214377 Z M11.2878403,2.8427158 C13.2264547,2.8427158 14.8030069,4.419268 14.8030069,6.3578824 C14.8030069,8.2964968 13.2264547,9.873049 11.2878403,9.873049 C9.34922595,9.873049 7.77267373,8.2964968 7.77267373,6.3578824 C7.77267373,4.419268 9.34922595,2.8427158 11.2878403,2.8427158 Z M6.36896798,3.3198907 C6.91191155,3.3198907 7.41808463,3.4804019 7.84252532,3.7564624 C7.70466549,3.934392 7.58168857,4.1247029 7.4747245,4.3248123 C7.15720348,4.1182151 6.77692549,3.997388 6.36896798,3.997388 C5.24828214,3.997388 4.33647615,4.909194 4.33647615,6.0298798 C4.33647615,7.1505657 5.24828214,8.0623717 6.36896798,8.0623717 C6.70509351,8.0623717 7.02242883,7.9803483 7.3020085,7.8352669 C7.38724921,8.0448545 7.49114855,8.2467758 7.6102902,8.4382688 C7.23922166,8.6307698 6.81659123,8.7398689 6.36896798,8.7398689 C4.87472019,8.7398689 3.65897887,7.5241276 3.65897887,6.0298798 C3.65897887,4.535632 4.87472019,3.3198907 6.36896798,3.3198907 Z M11.2878403,4.3304518 C10.1695096,4.3304518 9.26040975,5.2395517 9.26040975,6.3578824 C9.26040975,7.4762131 10.1695096,8.385313 11.2878403,8.385313 C12.406171,8.385313 13.3152709,7.4762131 13.3152709,6.3578824 C13.3152709,5.2395517 12.406171,4.3304518 11.2878403,4.3304518 Z" class="path" fill="#666666" fill-rule="nonzero"></path>
</svg>