<?xml version="1.0" encoding="UTF-8"?>
<svg width="486px" height="70px" viewBox="0 0 486 70" version="1.1" xmlns="http://www.w3.org/2000/svg" xmlns:xlink="http://www.w3.org/1999/xlink">
    <title>kashflow</title>
    <g id="Tests" stroke="none" stroke-width="1" fill="none" fill-rule="evenodd">
        <g id="kashflow" transform="translate(0.229508, 0.721051)" fill-rule="nonzero">
            <g id="Group" transform="translate(0.000000, 0.972222)" fill="#E5426E">
                <path d="M49.6940833,23.2998333 C49.6940833,23.2998333 5.20666667,-7.38597222 2.60925,42.9451389 C2.60925,42.9451389 -4.69783333,22.0001389 11.0523333,8.84936111 C11.0523333,8.84936111 28.3428056,-6.73711111 53.8337778,9.25563889 L56.67575,0 L75.5085,28.0883889 L46.3649722,32.3917778 C46.2841111,32.3109167 48.8815278,26.9523889 49.6940833,23.2998333 Z" id="Path"></path>
                <path d="M34.3501944,44.2428611 C34.3501944,44.2428611 78.8376111,74.9286667 81.4350278,24.5975556 C81.4350278,24.5975556 88.7421111,45.5425556 72.9919444,58.6933333 C72.9919444,58.6933333 55.7014722,74.2798056 30.2105,58.2870556 L27.3685278,67.5407222 L8.6975,39.4543056 L37.8410278,35.3146111 C37.8410278,35.1509167 35.4881667,40.5903056 34.3501944,44.2428611 Z" id="Path"></path>
            </g>
            <path d="M163.994222,65.7538056 L155.144861,65.7538056 L131.359861,34.1745833 L124.703611,40.2628333 L124.703611,65.7538056 L117.153944,65.7538056 L117.153944,0.729638889 L124.703611,0.729638889 L124.703611,32.8768611 L154.089722,0.729638889 L162.939083,0.729638889 L137.043806,29.0606111 L163.994222,65.7538056 Z M196.386,65.7538056 L195.086306,59.2592778 L194.680028,59.2592778 C192.325194,62.10125 190.134056,64.0498056 187.779222,65.1049444 C185.588083,66.1600833 182.584389,66.6472222 179.336139,66.6472222 C174.790167,66.6472222 171.380194,65.5920833 168.782778,63.1563889 C166.185361,60.8015556 164.885667,57.5552778 164.885667,53.2518889 C164.885667,43.9982222 172.19275,39.2076944 186.885806,38.8014167 L194.680028,38.5588333 L194.680028,35.7168611 C194.680028,32.0643056 193.786611,29.4668889 192.325194,27.7609167 C190.782917,26.0569167 188.1855,25.1635 185.018111,25.1635 C181.121,25.1635 176.819583,26.2186389 172.029056,28.6543333 L169.837917,23.4595 C172.029056,22.1598056 174.628444,21.2683611 177.145,20.6175278 C179.742417,19.9686667 182.584389,19.5623889 185.100944,19.5623889 C190.540333,19.5623889 194.599167,20.8620833 197.196583,23.2149444 C199.794,25.5697778 201.093694,29.4649167 201.093694,34.9043056 L201.093694,65.9963889 L196.303167,65.9963889 L196.303167,65.7538056 L196.386,65.7538056 L196.386,65.7538056 Z M180.799528,60.7206944 C185.102917,60.7206944 188.59375,59.6655556 190.946611,57.2298611 C193.301444,54.7941667 194.599167,51.62875 194.599167,47.3253611 L194.599167,43.1856667 L187.698361,43.42825 C182.258972,43.6708333 178.200139,44.4833889 175.845306,46.0256667 C173.490472,47.5679444 172.19275,49.9227778 172.19275,53.1690556 C172.19275,55.7664722 172.841611,57.4724444 174.547583,58.7701667 C176.091833,60.0718333 178.202111,60.7206944 180.799528,60.7206944 L180.799528,60.7206944 Z M245.174833,53.1710278 C245.174833,57.4744167 243.632556,60.7206944 240.384306,63.0755278 C237.138028,65.4303611 232.834639,66.5663611 226.988972,66.5663611 C220.900722,66.5663611 216.193028,65.6729444 212.702194,63.7243889 L212.702194,57.2298611 C214.893333,58.285 217.248167,59.1784167 219.845583,59.8272778 C222.443,60.4761389 224.797833,60.7206944 227.152667,60.7206944 C230.805222,60.7206944 233.647194,60.0718333 235.59575,59.0166944 C237.544306,57.9615556 238.437722,56.1747222 238.437722,53.8218611 C238.437722,52.1178611 237.544306,50.5755833 236.082889,49.2758889 C234.540611,47.9761944 231.536917,46.4339167 226.990944,44.7299167 C222.687556,43.1876389 219.683861,41.7262222 217.899,40.5902222 C216.112167,39.4542222 214.895306,37.9928056 213.759306,36.4505278 C212.865889,34.90825 212.459611,33.20425 212.459611,31.0111389 C212.459611,27.3585833 214.001889,24.3548889 217.005583,22.1617778 C220.009278,19.9706389 224.148972,18.9155 229.5075,18.9155 C234.45975,18.9155 239.248306,19.9706389 243.957972,21.9191944 L241.603139,27.5203056 C237.057167,25.57175 232.998333,24.6783333 229.101222,24.6783333 C225.854944,24.6783333 223.255556,25.0846111 221.794139,26.2206111 C220.090139,27.27575 219.196722,28.5754444 219.196722,30.524 C219.196722,31.8236944 219.439306,32.7151389 220.090139,33.5276944 C220.739,34.4211111 221.794139,35.2316944 223.093833,35.8825278 C224.393528,36.7759444 227.233528,37.8310833 231.049778,39.3733611 C236.489167,41.3219167 240.141722,43.2704722 242.090278,45.4616111 C244.362278,47.8144722 245.174833,50.1673333 245.174833,53.1710278 L245.174833,53.1710278 Z M287.794556,65.7538056 L287.794556,36.1231389 C287.794556,32.4705833 286.901139,29.6286111 285.197139,27.6800556 C283.493139,25.9760556 280.89375,24.8380833 277.241194,24.8380833 C272.450667,24.8380833 269.042667,26.1377778 266.687833,28.7351944 C264.496694,31.3326111 263.441556,35.636 263.441556,41.4796944 L263.441556,65.2666667 L256.54075,65.2666667 L256.54075,0.485083333 L263.441556,0.485083333 L263.441556,20.1303889 C263.441556,22.4852222 263.198972,24.4337778 263.035278,25.9760556 L263.441556,25.9760556 C264.74125,23.7849167 266.687833,22.0789444 269.287222,20.7812222 C271.884639,19.4815278 274.726611,18.8326667 277.892028,18.8326667 C283.493139,18.8326667 287.632833,20.1323611 290.393944,22.7297778 C293.235917,25.3271944 294.533639,29.6305833 294.533639,35.4742778 L294.533639,65.2666667 L287.877389,65.2666667 L287.877389,65.7538056 L287.794556,65.7538056 Z M315.232111,65.7538056 L307.682444,65.7538056 L307.682444,0.891361111 L343.726778,0.891361111 L343.726778,7.54761111 L315.232111,7.54761111 L315.232111,31.3326111 L342.265361,31.3326111 L342.265361,37.9888611 L315.476667,37.9888611 L315.476667,65.6709722 L315.234083,65.6709722 L315.234083,65.7538056 L315.232111,65.7538056 Z M359.88125,65.7538056 L352.980444,65.7538056 L352.980444,0.891361111 L359.88125,0.891361111 L359.88125,65.7538056 Z M413.94775,42.8622222 C413.94775,50.1693056 411.999194,56.013 408.346639,60.39725 C404.694083,64.5369444 399.497278,66.6472222 392.760167,66.6472222 C388.620472,66.6472222 384.965944,65.7538056 381.964222,63.80525 C378.717944,61.8566944 376.363111,59.0147222 374.657139,55.6067222 C372.953139,51.9541667 372.059722,47.8125 372.059722,43.1048056 C372.059722,35.7977222 374.008278,29.9540278 377.660833,25.8143333 C381.313389,21.6746389 386.510194,19.5643611 393.247306,19.5643611 C399.741833,19.5643611 404.694083,21.7555 408.346639,25.8143333 C411.999194,29.8731667 413.94775,35.4742778 413.94775,42.8622222 Z M379.12225,42.8622222 C379.12225,48.7078889 380.177389,53.2538611 382.613083,56.2575556 C384.967917,59.26125 388.45875,60.8035278 393.004722,60.8035278 C397.550694,60.8035278 400.960667,59.26125 403.396361,56.2575556 C405.832056,53.2538611 406.887194,48.7078889 406.887194,42.8622222 C406.887194,37.0165556 405.832056,32.7151389 403.396361,29.7114444 C400.960667,26.70775 397.550694,25.1654722 393.004722,25.1654722 C388.45875,25.1654722 385.048778,26.70775 382.857639,29.7114444 C380.25825,32.4705833 379.12225,37.0165556 379.12225,42.8622222 L379.12225,42.8622222 Z M463.385444,65.7538056 L454.942361,38.9651111 C454.536083,37.2611111 453.400083,33.5257222 451.938667,27.7628889 L451.532389,27.7628889 C450.47725,32.5534167 449.34125,36.3676944 448.690417,38.9651111 L440.085611,65.7538056 L432.129667,65.7538056 L419.789472,20.1303889 L427.096556,20.1303889 C430.10025,31.5771667 432.291389,40.4245556 433.752806,46.2702222 C435.295083,52.3584722 436.107639,56.1747222 436.350222,58.3658611 L436.7565,58.3658611 C436.999083,56.8235833 437.649917,54.7133056 438.298778,52.2776111 C438.947639,49.6801944 439.598472,47.7316389 440.002778,46.1893611 L448.201306,20.0495278 L455.750972,20.0495278 L463.9495,46.1893611 C465.491778,50.9798889 466.546917,55.0387222 467.195778,58.285 L467.602056,58.285 C467.844639,57.2298611 468.008333,55.6875833 468.495472,53.7390278 C468.90175,51.5478889 471.986306,40.3436944 477.100278,20.0495278 L484.243667,20.0495278 L471.74175,65.5920833 L463.379528,65.5920833 L463.379528,65.7538056 L463.385444,65.7538056 Z" id="Shape" fill="#282C2F"></path>
        </g>
    </g>
</svg>