<?xml version="1.0" encoding="UTF-8"?>
<svg width="20px" height="23px" viewBox="0 0 20 23" version="1.1" xmlns="http://www.w3.org/2000/svg" xmlns:xlink="http://www.w3.org/1999/xlink">
    <title>manual_profitandloss</title>
    <defs>
        <linearGradient x1="85.0028861%" y1="100%" x2="18.8006945%" y2="-5.3109976%" id="linearGradient-1">
            <stop stop-color="#E95A0C" offset="0%"></stop>
            <stop stop-color="#FF7800" offset="100%"></stop>
        </linearGradient>
    </defs>
    <g id="Wireframes" stroke="none" stroke-width="1" fill="none" fill-rule="evenodd">
        <path d="M6.31754557,21.3660352 L6.31754557,22.1360352 C6.31754557,22.4399674 6.07147785,22.6860352 5.76754557,22.6860352 L5.76754557,22.6860352 L1.36754557,22.6860352 C1.0636133,22.6860352 0.817545573,22.4399674 0.817545573,22.1360352 L0.817545573,22.1360352 L0.817545573,21.3660352 L6.31754557,21.3660352 Z M12.9542122,21.3660352 L12.9542122,22.1360352 C12.9542122,22.4399674 12.7081445,22.6860352 12.4042122,22.6860352 L12.4042122,22.6860352 L8.00421224,22.6860352 C7.70027997,22.6860352 7.45421224,22.4399674 7.45421224,22.1360352 L7.45421224,22.1360352 L7.45421224,21.3660352 L12.9542122,21.3660352 Z M19.5908789,21.3660352 L19.5908789,22.1360352 C19.5908789,22.4399674 19.3448112,22.6860352 19.0408789,22.6860352 L19.0408789,22.6860352 L14.6408789,22.6860352 C14.3369466,22.6860352 14.0908789,22.4399674 14.0908789,22.1360352 L14.0908789,22.1360352 L14.0908789,21.3660352 L19.5908789,21.3660352 Z M5.76754557,18.9460352 C6.07147785,18.9460352 6.31754557,19.1921029 6.31754557,19.4960352 L6.31754557,19.4960352 L6.31754557,20.2660352 L0.817545573,20.2660352 L0.817545573,19.4960352 C0.817545573,19.1921029 1.0636133,18.9460352 1.36754557,18.9460352 L1.36754557,18.9460352 Z M19.5908789,18.9460352 L19.5908789,20.2660352 L14.0908789,20.2660352 L14.0908789,18.9460352 L19.5908789,18.9460352 Z M12.9542122,18.9460352 L12.9542122,20.2660352 L7.45421224,20.2660352 L7.45421224,18.9460352 L12.9542122,18.9460352 Z M19.5908789,16.5260352 L19.5908789,17.8460352 L14.0908789,17.8460352 L14.0908789,16.5260352 L19.5908789,16.5260352 Z M12.4042122,16.5260352 C12.7081445,16.5260352 12.9542122,16.7721029 12.9542122,17.0760352 L12.9542122,17.0760352 L12.9542122,17.8460352 L7.45421224,17.8460352 L7.45421224,17.0760352 C7.45421224,16.7721029 7.70027997,16.5260352 8.00421224,16.5260352 L8.00421224,16.5260352 Z M19.5908789,14.1060352 L19.5908789,15.4260352 L14.0908789,15.4260352 L14.0908789,14.1060352 L19.5908789,14.1060352 Z M19.0408789,11.6860352 C19.3448112,11.6860352 19.5908789,11.9321029 19.5908789,12.2360352 L19.5908789,12.2360352 L19.5908789,13.0060352 L14.0908789,13.0060352 L14.0908789,12.2360352 C14.0908789,11.9321029 14.3369466,11.6860352 14.6408789,11.6860352 L14.6408789,11.6860352 Z M18.6230545,0.249450685 L18.6575927,0.252014163 C18.6691284,0.253112791 18.6802979,0.255310047 18.6914673,0.256958031 C18.7028198,0.258605969 18.7141724,0.259887719 18.7253418,0.262084938 C18.7390747,0.264648438 18.7522583,0.268493641 18.765625,0.271789563 C18.774231,0.274169922 18.78302,0.276001 18.791626,0.278564453 C18.8057251,0.282775891 18.8192749,0.287902844 18.8330078,0.293029797 C18.8406982,0.295959484 18.8485718,0.298339844 18.8560791,0.301452625 C18.8701782,0.307312 18.8839112,0.313903797 18.8974609,0.320678688 C18.904419,0.323974609 18.911377,0.326904297 18.9181518,0.330566406 C18.9331665,0.338623047 18.9474487,0.347412109 18.961731,0.356384266 C18.9668579,0.359497094 18.9719849,0.362243641 18.9769287,0.365539563 C18.9957886,0.378173828 19.0140991,0.391540516 19.0316772,0.405822766 L19.0316772,0.405822766 L19.0855789,0.454460143 L19.0855789,0.454460143 L19.1338501,0.5078125 L19.1338501,0.5078125 L19.1549759,0.535255445 L19.1549759,0.535255445 L19.1744995,0.563110375 C19.1777954,0.568054188 19.180542,0.573181141 19.1836548,0.578308094 C19.192627,0.592590344 19.201416,0.606872547 19.2094727,0.621887219 C19.2129517,0.628662109 19.2160645,0.635620094 19.2193604,0.642578125 C19.2259521,0.656127906 19.2327271,0.669860828 19.2385864,0.683959938 C19.2416992,0.691467297 19.2440796,0.699340844 19.2470093,0.70703125 C19.2521362,0.720764172 19.2572632,0.734313953 19.2614746,0.748413063 C19.2640381,0.757019031 19.2658691,0.765808094 19.2682495,0.774414063 C19.2715454,0.78778075 19.2753906,0.800964344 19.2779541,0.814697266 C19.2801513,0.825866688 19.2814331,0.83721925 19.283081,0.848571766 C19.284729,0.859741188 19.2869263,0.870910656 19.2880249,0.882446313 C19.2902222,0.905334484 19.2915039,0.928588844 19.2915039,0.951660156 L19.2915039,3.76416016 C19.2915039,4.15270994 18.9769287,4.46728516 18.5883789,4.46728516 C18.1998291,4.46728516 17.8852539,4.15270994 17.8852539,3.76416016 L17.8852539,3.76416016 L17.8852539,2.64904788 L10.6480103,9.88629152 C10.3733521,10.1609497 9.92840575,10.1609497 9.65374755,9.88629152 L9.65374755,9.88629152 L7.33837891,7.57092288 L2.21051027,12.6987915 C2.07318114,12.8361206 1.89337159,12.9047852 1.71337891,12.9047852 C1.53338622,12.9047852 1.35357667,12.8361206 1.21624755,12.6987915 C0.941589344,12.4241333 0.941589344,11.979187 1.21624755,11.7045288 L1.21624755,11.7045288 L6.84124755,6.0795288 C7.11590575,5.80487059 7.56085206,5.80487059 7.83551027,6.0795288 L7.83551027,6.0795288 L10.1508789,8.39489744 L16.8909912,1.65478516 L15.7758789,1.65478516 C15.3873291,1.65478516 15.0727539,1.34020994 15.0727539,0.951660156 C15.0727539,0.563110375 15.3873291,0.248535156 15.7758789,0.248535156 L15.7758789,0.248535156 L18.6230545,0.249450685 L18.6230545,0.249450685 Z" id="manual_profitandloss" fill="url(#linearGradient-1)" fill-rule="nonzero"></path>
    </g>
</svg>