<?xml version="1.0" encoding="UTF-8"?>
<svg width="21px" height="27px" viewBox="0 0 21 27" version="1.1" xmlns="http://www.w3.org/2000/svg" xmlns:xlink="http://www.w3.org/1999/xlink">
    <title>manual_balance</title>
    <defs>
        <linearGradient x1="79.9506093%" y1="100%" x2="23.3039669%" y2="-5.3109976%" id="linearGradient-1">
            <stop stop-color="#E95A0C" offset="0%"></stop>
            <stop stop-color="#FF7800" offset="100%"></stop>
        </linearGradient>
    </defs>
    <g id="Wireframes" stroke="none" stroke-width="1" fill="none" fill-rule="evenodd">
        <path d="M18.4936051,0.748356978 C19.0633367,0.746757086 19.6099046,0.97390622 20.0105569,1.37896794 C20.4112092,1.78402967 20.6323626,2.33305091 20.6243489,2.90272894 L20.6243489,2.90272894 L20.6243489,24.2615302 C20.6244739,24.2615719 20.6244739,24.2616135 20.6244739,24.2616552 L20.6189788,24.4109172 C20.542565,25.445772 19.6787107,26.2615904 18.6243489,26.2614052 L18.6243489,26.2614052 L2.87841509,26.2604211 C1.77389441,26.260227 0.878540097,25.3648167 0.878415093,24.2602961 L0.878415093,24.2602961 L0.878415093,7.0401568 C0.877005171,6.47061171 1.10337405,5.92411491 1.50721161,5.52249409 L1.50721161,5.52249409 L5.65252714,1.37717856 C6.05414796,0.973340998 6.60064476,0.746972118 7.17018985,0.748356978 L7.17018985,0.748356978 Z M18.1808484,1.98730588 L7.17018985,1.99194305 C7.07534494,1.99200141 6.98079215,2.00245553 6.88822533,2.02311815 L6.88822533,2.02311815 L6.88822533,4.61188616 C6.88688845,5.7967041 5.92673715,6.7568554 4.74191921,6.75819227 L4.74191921,6.75819227 L3.45413555,6.75819227 L3.45413555,5.89966983 L4.74191921,5.89966983 C5.45281311,5.89887526 6.02890831,5.32278006 6.02970288,4.61188616 L6.02970288,4.61188616 L6.02970288,2.59899783 L2.45390431,6.12954887 C2.21161672,6.37053477 2.07580146,6.69843086 2.07664257,7.0401568 L2.07664257,7.0401568 L2.07664257,23.6356963 C2.07664257,24.3536665 2.65867239,24.9356963 3.37664257,24.9356963 L3.37664257,24.9356963 L18.153125,24.9356963 C18.8710952,24.9356963 19.453125,24.3536665 19.453125,23.6356963 L19.453125,23.6356963 L19.453125,3.27270508 C19.4599639,2.93459044 19.3296857,2.60809847 19.0919553,2.36757291 C18.8520976,2.12293776 18.5234498,1.98577996 18.1808484,1.98730588 L18.1808484,1.98730588 Z M17.6197559,23.49938 L17.6197559,24.3579024 L15.902711,24.3579024 L15.902711,23.49938 L17.6197559,23.49938 Z M15.0441886,23.49938 L15.0441886,24.3579024 L13.3271437,24.3579024 L13.3271437,23.49938 L15.0441886,23.49938 Z M17.6197559,6.32893105 C17.7336041,6.32893105 17.8427902,6.37415233 17.923293,6.45465514 C17.9836701,6.51503224 18.0242014,6.59154374 18.0406934,6.67405561 L18.0490171,6.75819227 L18.0490171,21.7823351 C18.0490171,21.8961832 18.0037958,22.0053694 17.923293,22.0858722 C17.8629159,22.1462493 17.7864044,22.1867806 17.7038926,22.2032726 L17.6197559,22.2115963 L4.31265799,22.2115963 C4.19880983,22.2115963 4.08962366,22.166375 4.00912085,22.0858722 C3.94874375,22.0254951 3.9082125,21.9489836 3.89172045,21.8664717 L3.88339677,21.7823351 L3.88339677,8.90449839 L7.31748655,8.90449839 L7.31748655,6.32893105 L17.6197559,6.32893105 Z M7.31748655,19.636029 L4.74191921,19.636029 L4.74191921,21.3530738 L7.31748655,21.3530738 L7.31748655,19.636029 Z M12.03936,19.636029 L8.176009,19.636029 L8.176009,21.3530738 L12.03936,21.3530738 L12.03936,19.636029 Z M17.1904947,19.636029 L12.8978824,19.636029 L12.8978824,21.3530738 L17.1904947,21.3530738 L17.1904947,19.636029 Z M12.03936,12.3385882 L8.176009,12.3385882 L8.176009,18.7775065 L12.03936,18.7775065 L12.03936,12.3385882 Z M7.31748655,12.3385882 L4.74191921,12.3385882 L4.74191921,18.7775065 L7.31748655,18.7775065 L7.31748655,12.3385882 Z M17.1904947,12.3385882 L12.8978824,12.3385882 L12.8978824,18.7775065 L17.1904947,18.7775065 L17.1904947,12.3385882 Z M17.1904947,9.76302083 L12.8978824,9.76302083 L12.8978824,11.4800657 L17.1904947,11.4800657 L17.1904947,9.76302083 Z M12.03936,9.76302083 L8.176009,9.76302083 L8.176009,11.4800657 L12.03936,11.4800657 L12.03936,9.76302083 Z M7.31748655,9.76302083 L4.74191921,9.76302083 L4.74191921,11.4800657 L7.31748655,11.4800657 L7.31748655,9.76302083 Z M17.1904947,7.1874535 L8.176009,7.1874535 L8.176009,8.90449839 L17.1904947,8.90449839 L17.1904947,7.1874535 Z M17.6197559,3.75336372 L17.6197559,4.61188616 L16.3319722,4.61188616 L16.3319722,3.75336372 L17.6197559,3.75336372 Z M15.4734498,3.75336372 L15.4734498,4.61188616 L12.4686212,4.61188616 L12.4686212,3.75336372 L15.4734498,3.75336372 Z" id="manual_balance" fill="url(#linearGradient-1)" fill-rule="nonzero"></path>
    </g>
</svg>