<?xml version="1.0" encoding="UTF-8"?>
<svg width="380px" height="99px" viewBox="0 0 380 99" version="1.1" xmlns="http://www.w3.org/2000/svg" xmlns:xlink="http://www.w3.org/1999/xlink">
    <title>mercadopago</title>
    <g id="HUGO-Public-Website" stroke="none" stroke-width="1" fill="none" fill-rule="evenodd">
        <g id="mercadopago" transform="translate(0.148438, 0.050781)" fill-rule="nonzero">
            <path d="M138.839843,45.402344 C138.839843,20.390625 107.761718,0 69.421875,0 C31.085937,0 0.007812,20.390625 0.007812,45.402344 C0.007812,46.050782 0,47.835938 0,48.0625 C0,74.597657 27.164062,96.089844 69.414062,96.089844 C111.925781,96.089844 138.839843,74.605469 138.839843,48.066407 C138.839843,47.140625 138.839843,46.605469 138.839843,45.402344" id="Path" fill="#253E8B"></path>
            <path d="M136.183593,45.382813 C136.183593,68.964844 106.300781,88.082032 69.4375,88.082032 C32.574218,88.082032 2.691406,68.964844 2.691406,45.382813 C2.691406,21.796875 32.574218,2.679688 69.4375,2.679688 C106.300781,2.679688 136.183593,21.796875 136.183593,45.382813" id="Path" fill="#00AEEF"></path>
            <path d="M47.273437,31.910157 C47.238281,31.976563 46.574218,32.667969 47.003906,33.21875 C48.058593,34.566407 51.3125,35.335938 54.601562,34.597657 C56.558593,34.160157 59.070312,32.164063 61.503906,30.230469 C64.136718,28.136719 66.753906,26.042969 69.382812,25.207032 C72.164062,24.320313 73.949218,24.703125 75.128906,25.058594 C76.421875,25.441407 77.941406,26.292969 80.367187,28.113282 C84.933593,31.546875 103.296875,47.578125 106.46875,50.347657 C109.027343,49.191407 120.382812,44.304688 135.816406,40.902344 C134.476562,32.675782 129.46875,25.144532 121.878906,18.980469 C111.300781,23.425782 98.371093,25.746094 85.730468,19.570313 C85.664062,19.542969 78.820312,16.304688 72.074218,16.464844 C62.039062,16.695313 57.695312,21.039063 53.097656,25.632813 L47.273437,31.910157" id="Path" fill="#FFFFFF"></path>
            <path d="M105.722656,52.089844 C105.507812,51.898438 84.128906,33.191407 79.289062,29.554688 C76.484375,27.453125 74.925781,26.914063 73.289062,26.707032 C72.4375,26.59375 71.257812,26.753907 70.4375,26.980469 C68.183593,27.59375 65.238281,29.5625 62.621093,31.636719 C59.914062,33.792969 57.359375,35.824219 54.992187,36.355469 C51.964843,37.035157 48.269531,36.230469 46.582031,35.09375 C45.898437,34.632813 45.417968,34.101563 45.1875,33.5625 C44.5625,32.117188 45.710937,30.960938 45.902343,30.769532 L51.800781,24.386719 C52.488281,23.703125 53.175781,23.019532 53.882812,22.34375 C51.980468,22.59375 50.21875,23.078125 48.507812,23.554688 C46.371093,24.15625 44.316406,24.726563 42.234375,24.726563 C41.367187,24.726563 36.714843,23.964844 35.832031,23.722657 C30.492187,22.261719 25.804687,20.839844 18.808593,17.570313 C10.421875,23.816407 4.8125,31.621094 3.191406,40.21875 C4.398437,40.539063 6.339843,41.117188 7.15625,41.296875 C26.132812,45.515625 32.042968,49.863282 33.117187,50.773438 C34.277343,49.480469 35.953125,48.664063 37.824218,48.664063 C39.921875,48.667969 41.816406,49.71875 42.964843,51.351563 C44.050781,50.492188 45.550781,49.761719 47.488281,49.761719 C48.367187,49.761719 49.28125,49.925782 50.203125,50.238282 C52.34375,50.972657 53.449218,52.398438 54.023437,53.6875 C54.742187,53.363282 55.625,53.125 56.664062,53.128907 C57.6875,53.128907 58.75,53.359375 59.820312,53.824219 C63.320312,55.324219 63.863281,58.761719 63.546875,61.351563 C63.796875,61.324219 64.046875,61.3125 64.300781,61.3125 C68.449218,61.316407 71.824218,64.6875 71.824218,68.839844 C71.824218,70.125 71.496093,71.332032 70.921875,72.390625 C72.050781,73.027344 74.929687,74.460938 77.457031,74.140625 C79.476562,73.886719 80.242187,73.195313 80.515625,72.808594 C80.703125,72.542969 80.902343,72.230469 80.71875,72.007813 L75.363281,66.058594 C75.363281,66.058594 74.480468,65.222657 74.773437,64.902344 C75.074218,64.570313 75.621093,65.046875 76.003906,65.367188 C78.730468,67.644532 82.058593,71.078125 82.058593,71.078125 C82.113281,71.117188 82.335937,71.550782 83.566406,71.773438 C84.625,71.960938 86.5,71.851563 87.796875,70.785157 C88.125,70.515625 88.453125,70.179688 88.726562,69.832032 C88.707031,69.847657 88.6875,69.875 88.667968,69.882813 C90.035156,68.128907 88.515625,66.355469 88.515625,66.355469 L82.261718,59.335938 C82.261718,59.335938 81.371093,58.507813 81.671875,58.175782 C81.945312,57.886719 82.519531,58.324219 82.914062,58.648438 C84.890625,60.304688 87.6875,63.109375 90.371093,65.734375 C90.890625,66.121094 93.25,67.578125 96.367187,65.527344 C98.261718,64.285157 98.640625,62.761719 98.585937,61.609375 C98.457031,60.085938 97.265625,59 97.265625,59 L88.726562,50.414063 C88.726562,50.414063 87.824218,49.644532 88.144531,49.253907 C88.40625,48.925782 88.992187,49.398438 89.375,49.71875 C92.09375,51.996094 99.460937,58.75 99.460937,58.75 C99.566406,58.824219 102.109375,60.636719 105.253906,58.632813 C106.378906,57.914063 107.097656,56.832032 107.160156,55.570313 C107.265625,53.386719 105.722656,52.089844 105.722656,52.089844" id="Path" fill="#FFFFFF"></path>
            <path d="M64.300781,62.976563 C62.976562,62.960938 61.527343,63.746094 61.339843,63.632813 C61.234375,63.5625 61.417968,63.03125 61.542968,62.722657 C61.671875,62.417969 63.414062,57.171875 59.164062,55.347657 C55.910156,53.953125 53.921875,55.523438 53.238281,56.234375 C53.058593,56.421875 52.980468,56.40625 52.957031,56.167969 C52.894531,55.222657 52.46875,52.667969 49.664062,51.808594 C45.652343,50.582032 43.070312,53.382813 42.414062,54.394532 C42.121093,52.105469 40.191406,50.332032 37.820312,50.328125 C35.246093,50.328125 33.1601505,52.410157 33.1601505,54.984375 C33.15625,57.554688 35.242187,59.640625 37.816406,59.640625 C39.066406,59.644532 40.199218,59.144532 41.035156,58.34375 C41.0625,58.367188 41.074218,58.410157 41.058593,58.5 C40.863281,59.648438 40.503906,63.835938 44.886718,65.542969 C46.644531,66.222657 48.140625,65.714844 49.378906,64.847657 C49.746093,64.585938 49.808593,64.695313 49.753906,65.042969 C49.597656,66.121094 49.796875,68.425782 53.03125,69.734375 C55.488281,70.734375 56.945312,69.710938 57.898437,68.832032 C58.3125,68.453125 58.425781,68.511719 58.445312,69.097657 C58.5625,72.214844 61.152343,74.6875 64.292968,74.691407 C67.53125,74.691407 70.1562544,72.074219 70.1562544,68.839844 C70.1601505,65.601563 67.539062,63.011719 64.300781,62.976563" id="Path" fill="#FFFFFF"></path>
            <path d="M64.300781,74.273438 C61.367187,74.269532 58.980468,71.988282 58.871093,69.085938 C58.867187,68.835938 58.839843,68.171875 58.28125,68.171875 C58.046875,68.171875 57.847656,68.3125 57.617187,68.519532 C56.972656,69.117188 56.152343,69.726563 54.953125,69.726563 C54.40625,69.726563 53.816406,69.597657 53.195312,69.34375 C50.09375,68.089844 50.050781,65.960938 50.175781,65.105469 C50.210937,64.875 50.222656,64.636719 50.066406,64.453125 L49.875,64.285157 L49.683593,64.285157 C49.527343,64.285157 49.363281,64.347657 49.144531,64.503907 C48.246093,65.132813 47.386718,65.4375 46.511718,65.4375 C46.03125,65.4375 45.539062,65.339844 45.042968,65.148438 C40.964843,63.5625 41.289062,59.710938 41.488281,58.554688 C41.515625,58.316407 41.457031,58.136719 41.308593,58.015625 L41.019531,57.777344 L40.75,58.035157 C39.957031,58.800782 38.914062,59.222657 37.824218,59.222657 C35.484375,59.21875 33.582031,57.320313 33.585931,54.984375 C33.585931,52.644532 35.492187,50.75 37.828125,50.75 C39.941406,50.75 41.738281,52.339844 42.007812,54.449219 L42.152343,55.585938 L42.777343,54.625 C42.847656,54.511719 44.558593,51.921875 47.707031,51.925782 C48.304687,51.925782 48.921875,52.019532 49.546875,52.214844 C52.054687,52.980469 52.480468,55.253907 52.546875,56.203125 C52.589843,56.753907 52.984375,56.78125 53.0625,56.78125 C53.277343,56.78125 53.4375,56.644532 53.550781,56.523438 C54.023437,56.03125 55.054687,55.210938 56.667968,55.210938 C57.40625,55.210938 58.195312,55.386719 59.003906,55.734375 C62.992187,57.445313 61.183593,62.511719 61.164062,62.566407 C60.820312,63.40625 60.804687,63.777344 61.128906,63.992188 L61.285156,64.066407 L61.402343,64.066407 C61.582031,64.066407 61.804687,63.988282 62.171875,63.863282 C62.714843,63.675782 63.535156,63.394532 64.300781,63.394532 L64.304687,63.394532 C67.304687,63.429688 69.746093,65.871094 69.746093,68.839844 C69.742187,71.835938 67.300781,74.273438 64.300781,74.273438 Z M106.550781,49.851563 C99.964843,44.105469 84.746093,30.875 80.625,27.777344 C78.269531,26.007813 76.664062,25.070313 75.253906,24.652344 C74.621093,24.460938 73.742187,24.242188 72.613281,24.242188 C71.566406,24.242188 70.441406,24.429688 69.265625,24.804688 C66.601562,25.648438 63.949218,27.757813 61.378906,29.796875 L61.246093,29.902344 C58.855468,31.804688 56.386718,33.769532 54.515625,34.1875 C53.699218,34.371094 52.859375,34.464844 52.023437,34.464844 C49.925781,34.464844 48.046875,33.859375 47.339843,32.960938 C47.222656,32.808594 47.296875,32.570313 47.570312,32.222657 L47.609375,32.175782 L53.402343,25.933594 C57.9375,21.394532 62.222656,17.113282 72.089843,16.886719 C72.25,16.882813 72.417968,16.878907 72.582031,16.878907 C78.722656,16.882813 84.859375,19.632813 85.546875,19.949219 C91.304687,22.757813 97.25,24.183594 103.222656,24.1875 C109.449218,24.191407 115.875,22.648438 122.628906,19.539063 C121.875,18.90625 121.089843,18.289063 120.28125,17.683594 C114.347656,20.253907 108.695312,21.554688 103.242187,21.554688 C97.667968,21.546875 92.105468,20.210938 86.699218,17.574219 C86.414062,17.4375 79.636718,14.242188 72.582031,14.238282 C72.398437,14.238282 72.210937,14.242188 72.027343,14.246094 C63.742187,14.4375 59.074218,17.382813 55.933593,19.960938 C52.882812,20.035157 50.246093,20.769532 47.90625,21.425782 C45.8125,22.003907 44.007812,22.507813 42.246093,22.507813 C41.519531,22.507813 40.214843,22.441407 40.097656,22.4375 C38.074218,22.375 27.867187,19.875 19.75,16.800782 C18.921875,17.386719 18.125,17.992188 17.347656,18.609375 C25.828125,22.085938 36.148437,24.773438 39.40625,24.984375 C40.3125,25.046875 41.277343,25.148438 42.242187,25.148438 C44.398437,25.148438 46.546875,24.546875 48.628906,23.964844 C49.855468,23.617188 51.210937,23.242188 52.640625,22.96875 C52.257812,23.34375 51.878906,23.722657 51.496093,24.101563 L45.613281,30.46875 C45.148437,30.9375 44.140625,32.1875 44.804687,33.722657 C45.070312,34.34375 45.605468,34.9375 46.355468,35.441407 C47.753906,36.386719 50.265625,37.023438 52.601562,37.027344 C53.484375,37.027344 54.324218,36.9375 55.09375,36.765625 C57.558593,36.210938 60.148437,34.148438 62.890625,31.96875 C65.074218,30.234375 68.175781,28.03125 70.554687,27.382813 C71.21875,27.203125 72.035156,27.089844 72.6875,27.089844 C72.882812,27.09375 73.070312,27.097657 73.242187,27.125 C74.8125,27.320313 76.328125,27.855469 79.039062,29.890625 C83.871093,33.519532 105.25,52.222657 105.460937,52.410157 C105.472656,52.421875 106.835937,53.59375 106.742187,55.550782 C106.691406,56.640625 106.085937,57.609375 105.035156,58.28125 C104.121093,58.859375 103.179687,59.152344 102.230468,59.152344 C100.800781,59.152344 99.816406,58.480469 99.75,58.4375 C99.671875,58.371094 92.347656,51.65625 89.652343,49.398438 C89.222656,49.042969 88.804687,48.722657 88.382812,48.722657 C88.160156,48.722657 87.960937,48.816407 87.824218,48.988282 C87.402343,49.511719 87.875,50.234375 88.4375,50.710938 L96.992187,59.308594 C97.003906,59.320313 98.058593,60.308594 98.171875,61.628907 C98.242187,63.054688 97.558593,64.246094 96.140625,65.175782 C95.132812,65.839844 94.109375,66.179688 93.109375,66.179688 C91.796875,66.179688 90.871093,65.578125 90.667968,65.4375 L89.441406,64.226563 C87.199218,62.019532 84.882812,59.738282 83.1875,58.324219 C82.773437,57.980469 82.332031,57.664063 81.910156,57.664063 C81.703125,57.664063 81.515625,57.738282 81.371093,57.890625 C81.179687,58.105469 81.042968,58.492188 81.527343,59.132813 C81.722656,59.394532 81.957031,59.613282 81.957031,59.613282 L88.203125,66.628907 C88.253906,66.691407 89.488281,68.160157 88.34375,69.621094 L88.121093,69.898438 C87.9375,70.105469 87.734375,70.296875 87.542968,70.460938 C86.476562,71.335938 85.054687,71.429688 84.492187,71.429688 C84.191406,71.429688 83.898437,71.402344 83.648437,71.355469 C83.03125,71.246094 82.617187,71.074219 82.414062,70.835938 L82.339843,70.757813 C82,70.40625 78.851562,67.191407 76.246093,65.019532 C75.90625,64.730469 75.476562,64.367188 75.035156,64.367188 C74.816406,64.367188 74.621093,64.453125 74.46875,64.621094 C73.953125,65.183594 74.726562,66.027344 75.054687,66.339844 L80.382812,72.210938 C80.375,72.261719 80.308593,72.382813 80.179687,72.570313 C79.988281,72.832032 79.34375,73.480469 77.410156,73.722657 C77.179687,73.753907 76.941406,73.765625 76.703125,73.765625 C74.710937,73.765625 72.585937,72.796875 71.492187,72.21875 C71.992187,71.164063 72.25,70.003907 72.25,68.84375 C72.25,64.457032 68.691406,60.890625 64.308593,60.890625 C64.214843,60.890625 64.117187,60.890625 64.023437,60.894532 C64.164062,58.894532 63.882812,55.105469 59.992187,53.4375 C58.871093,52.953125 57.753906,52.707032 56.671875,52.707032 C55.820312,52.707032 55.003906,52.851563 54.238281,53.144532 C53.429687,51.578125 52.09375,50.4375 50.347656,49.84375 C49.382812,49.511719 48.421875,49.339844 47.496093,49.339844 C45.875,49.339844 44.386718,49.816407 43.054687,50.761719 C41.78125,49.179688 39.855468,48.238282 37.828125,48.238282 C36.054687,48.238282 34.347656,48.949219 33.085937,50.203125 C31.425781,48.9375 24.851562,44.757813 7.25,40.761719 C6.398437,40.570313 4.445312,40.007813 3.246093,39.660157 C3.046875,40.609375 2.894531,41.574219 2.792968,42.546875 C2.792968,42.546875 6.039062,43.324219 6.679687,43.46875 C24.660156,47.460938 30.597656,51.613282 31.605468,52.398438 C31.261718,53.214844 31.085937,54.09375 31.085937,54.984375 C31.082031,58.695313 34.105468,61.722657 37.820312,61.726563 C38.238281,61.726563 38.652343,61.6875 39.054687,61.613282 C39.617187,64.347657 41.40625,66.421875 44.136718,67.484375 C44.9375,67.789063 45.746093,67.949219 46.539062,67.949219 C47.050781,67.949219 47.570312,67.886719 48.074218,67.757813 C48.578125,69.039063 49.714843,70.636719 52.253906,71.667969 C53.144531,72.027344 54.035156,72.214844 54.898437,72.214844 C55.605468,72.214844 56.296875,72.089844 56.957031,71.847657 C58.171875,74.8125 61.070312,76.7734511 64.296875,76.7734511 C66.4375,76.777344 68.492187,75.90625 69.992187,74.363282 C71.273437,75.078125 73.980468,76.367188 76.714843,76.371094 C77.070312,76.371094 77.402343,76.34375 77.734375,76.304688 C80.453125,75.964844 81.714843,74.898438 82.296875,74.074219 C82.402343,73.929688 82.496093,73.777344 82.578125,73.617188 C83.21875,73.804688 83.921875,73.953125 84.730468,73.957032 C86.214843,73.957032 87.640625,73.449219 89.078125,72.398438 C90.492187,71.382813 91.496093,69.917969 91.640625,68.671875 C91.644531,68.652344 91.648437,68.636719 91.652343,68.617188 C92.125,68.714844 92.617187,68.765625 93.105468,68.765625 C94.632812,68.765625 96.132812,68.289063 97.570312,67.347657 C100.339843,65.535157 100.820312,63.164063 100.777343,61.609375 C101.257812,61.710938 101.753906,61.761719 102.246093,61.761719 C103.679687,61.761719 105.089843,61.332032 106.429687,60.476563 C108.148437,59.378907 109.179687,57.699219 109.335937,55.742188 C109.445312,54.414063 109.117187,53.074219 108.414062,51.921875 C113.054687,49.921875 123.660156,46.054688 136.148437,43.238282 C136.074218,42.269532 135.933593,41.3125 135.761718,40.359375 C120.652343,43.714844 109.375,48.59375 106.550781,49.851563" id="Shape" fill="#253E8B"></path>
            <path d="M369.167968,34.484375 C367.953125,36.097657 366.214843,36.902344 363.941406,36.902344 C361.671875,36.902344 359.921875,36.097657 358.699218,34.484375 C357.472656,32.871094 356.863281,30.574219 356.863281,27.601563 C356.863281,24.628907 357.472656,22.339844 358.699218,20.734375 C359.921875,19.132813 361.671875,18.328125 363.941406,18.328125 C366.214843,18.328125 367.953125,19.132813 369.167968,20.734375 C370.382812,22.339844 370.996093,24.628907 370.996093,27.601563 C370.996093,30.574219 370.382812,32.871094 369.167968,34.484375 Z M375.378906,16.472657 C372.871093,13.335938 369.070312,11.765625 363.964843,11.765625 C358.867187,11.765625 355.0625,13.335938 352.558593,16.472657 C350.050781,19.613282 348.796875,23.320313 348.796875,27.601563 C348.796875,31.957032 350.050781,35.679688 352.558593,38.777344 C355.0625,41.863282 358.867187,43.414063 363.964843,43.414063 C369.070312,43.414063 372.871093,41.863282 375.378906,38.777344 C377.886718,35.679688 379.136718,31.957032 379.136718,27.601563 C379.136718,23.320313 377.886718,19.613282 375.378906,16.472657" id="Shape" fill="#253E8B"></path>
            <path d="M307.394531,30.816407 C307.34375,33.421875 306.597656,35.21875 305.164062,36.199219 C303.730468,37.183594 302.164062,37.679688 300.464843,37.679688 C299.390625,37.679688 298.480468,37.378907 297.730468,36.789063 C296.980468,36.195313 296.609375,35.234375 296.609375,33.902344 C296.609375,32.414063 297.21875,31.3125 298.445312,30.597657 C299.175781,30.183594 300.363281,29.824219 302.027343,29.539063 L303.800781,29.210938 C304.683593,29.042969 305.378906,28.863282 305.886718,28.671875 C306.402343,28.484375 306.898437,28.234375 307.394531,27.921875 L307.394531,30.816407 Z M311.34375,13.847657 C308.800781,12.5625 305.894531,11.910157 302.621093,11.910157 C297.589843,11.910157 294.039062,13.222657 291.972656,15.84375 C290.671875,17.523438 289.945312,19.660157 289.773437,22.265625 L297.289062,22.265625 C297.476562,21.117188 297.84375,20.207032 298.398437,19.535157 C299.175781,18.625 300.492187,18.167969 302.355468,18.167969 C304.019531,18.167969 305.28125,18.394532 306.140625,18.867188 C306.996093,19.328125 307.425781,20.171875 307.425781,21.390625 C307.425781,22.394532 306.871093,23.128907 305.746093,23.605469 C305.121093,23.878907 304.085937,24.105469 302.632812,24.289063 L299.96875,24.617188 C296.945312,24.996094 294.644531,25.636719 293.089843,26.53125 C290.242187,28.171875 288.824218,30.816407 288.824218,34.480469 C288.824218,37.300782 289.703125,39.484375 291.472656,41.023438 C293.238281,42.5625 295.484375,43.207032 298.195312,43.335938 C315.191406,44.09375 315,34.378907 315.15625,32.355469 L315.15625,21.171875 C315.15625,17.585938 313.882812,15.144532 311.34375,13.847657" id="Shape" fill="#253E8B"></path>
            <path d="M272.585937,18.570313 C274.53125,18.570313 275.957031,19.171875 276.878906,20.371094 C277.511718,21.257813 277.90625,22.261719 278.058593,23.371094 L286.445312,23.371094 C285.984375,19.140625 284.503906,16.1875 282.003906,14.511719 C279.496093,12.847657 276.289062,12.007813 272.363281,12.007813 C267.742187,12.007813 264.117187,13.425782 261.496093,16.257813 C258.871093,19.09375 257.558593,23.054688 257.558593,28.148438 C257.558593,32.65625 258.746093,36.332032 261.121093,39.167969 C263.496093,41.996094 267.203125,43.414063 272.242187,43.414063 C277.285156,43.414063 281.089843,41.71875 283.65625,38.320313 C285.261718,36.214844 286.164062,33.980469 286.355468,31.621094 L278,31.621094 C277.828125,33.179688 277.339843,34.453125 276.53125,35.433594 C275.726562,36.410157 274.367187,36.902344 272.445312,36.902344 C269.742187,36.902344 267.898437,35.671875 266.917968,33.195313 C266.382812,31.878907 266.113281,30.132813 266.113281,27.957032 C266.113281,25.675782 266.382812,23.847657 266.917968,22.46875 C267.9375,19.875 269.828125,18.570313 272.585937,18.570313" id="Path" fill="#253E8B"></path>
            <path d="M255.3125,12.007813 C238.089843,12.007813 239.109375,27.257813 239.109375,27.257813 L239.109375,42.746094 L246.921875,42.746094 L246.921875,28.21875 C246.921875,25.839844 247.222656,24.074219 247.820312,22.929688 C248.890625,20.898438 250.988281,19.878907 254.113281,19.878907 C254.347656,19.878907 254.65625,19.890625 255.039062,19.910157 C255.417968,19.925782 255.851562,19.960938 256.347656,20.019532 L256.347656,12.066407 C256,12.042969 255.777343,12.035157 255.679687,12.023438 C255.578125,12.015625 255.457031,12.007813 255.3125,12.007813" id="Path" fill="#253E8B"></path>
            <path d="M216.097656,20.101563 C217.199218,18.972657 218.742187,18.40625 220.730468,18.40625 C222.566406,18.40625 224.097656,18.9375 225.335937,20.007813 C226.570312,21.070313 227.261718,22.636719 227.402343,24.695313 L214.03125,24.695313 C214.308593,22.761719 215,21.234375 216.097656,20.101563 Z M226.601562,34.652344 C226.273437,35.121094 225.921875,35.523438 225.53125,35.835938 C224.429687,36.746094 222.929687,37.019532 221.164062,37.019532 C219.492187,37.019532 218.1875,36.765625 217.003906,36.019532 C215.054687,34.824219 213.957031,32.796875 213.839843,29.816407 L235.464843,29.816407 C235.496093,27.253907 235.410156,25.292969 235.203125,23.925782 C234.84375,21.601563 234.054687,19.550782 232.839843,17.789063 C231.492187,15.789063 229.777343,14.324219 227.707031,13.394532 C225.640625,12.46875 223.316406,12.007813 220.730468,12.007813 C216.375,12.007813 212.839843,13.378907 210.113281,16.121094 C207.386718,18.867188 206.019531,22.808594 206.019531,27.949219 C206.019531,33.441407 207.53125,37.402344 210.554687,39.835938 C213.574218,42.269532 217.0625,43.492188 221.011718,43.492188 C225.796875,43.492188 229.519531,42.046875 232.179687,39.160157 C233.613281,37.640625 234.511718,36.136719 234.890625,34.652344 L226.601562,34.652344" id="Shape" fill="#253E8B"></path>
            <path d="M202.882812,42.742188 L195.742187,42.742188 L195.742187,24.765625 C195.742187,23.125 195.203125,19.21875 190.492187,19.21875 C187.351562,19.21875 185.082031,21.484375 185.082031,24.765625 L185.082031,42.742188 L177.9375,42.742188 L177.9375,24.765625 C177.9375,23.125 177.449218,19.21875 172.742187,19.21875 C169.546875,19.21875 167.328125,21.484375 167.328125,24.765625 L167.328125,42.742188 L160.1875,42.742188 L160.1875,24.9375 C160.1875,17.515625 165.109375,11.902344 172.742187,11.902344 C176.53125,11.902344 179.613281,13.496094 181.617187,16.046875 C183.726562,13.496094 186.863281,11.902344 190.492187,11.902344 C198.285156,11.902344 202.882812,17.289063 202.882812,24.9375 L202.882812,42.742188" id="Path" fill="#253E8B"></path>
            <path d="M337.097656,34.546875 C335.957031,36.183594 334.28125,37 332.085937,37 C329.886718,37 328.25,36.175782 327.171875,34.535157 C326.09375,32.886719 325.554687,30.496094 325.554687,27.753907 C325.554687,25.210938 326.082031,23.082032 327.144531,21.367188 C328.203125,19.652344 329.867187,18.792969 332.140625,18.792969 C333.628906,18.792969 334.9375,19.261719 336.066406,20.207032 C337.898437,21.769532 338.816406,24.570313 338.816406,28.203125 C338.816406,30.796875 338.242187,32.914063 337.097656,34.546875 Z M346.472656,2.621094 C346.472656,2.621094 338.597656,1.78125 338.597656,8.105469 L338.59375,16.476563 C337.722656,15.078125 336.589843,13.980469 335.191406,13.195313 C333.796875,12.40625 332.199218,12.007813 330.394531,12.007813 C326.492187,12.007813 323.378906,13.460938 321.042968,16.367188 C318.707031,19.273438 317.546875,23.460938 317.546875,28.527344 C317.546875,32.921875 318.730468,36.523438 321.097656,39.332032 C323.46875,42.132813 328.117187,43.363282 332.242187,43.363282 C346.632812,43.363282 346.464843,31.019532 346.464843,31.019532 L346.472656,2.621094" id="Shape" fill="#253E8B"></path>
            <path d="M230.351562,71.199219 C230.351562,68.253907 229.777343,65.988282 228.625,64.398438 C227.476562,62.816407 225.832031,62.015625 223.683593,62.015625 C221.621093,62.015625 220.007812,62.816407 218.855468,64.398438 C217.789062,65.835938 217.253906,68.109375 217.253906,71.199219 C217.253906,74.082032 217.824218,76.226563 218.976562,77.664063 C220.121093,79.253907 221.773437,80.046875 223.914062,80.046875 C225.90625,80.046875 227.476562,79.253907 228.625,77.664063 C229.777343,76.078125 230.351562,73.929688 230.351562,71.199219 M217.253906,92.347657 C217.253906,93.402344 216.871093,94.3125 216.097656,95.066407 C215.335937,95.824219 214.417968,96.203125 213.34375,96.203125 L209.441406,96.203125 L209.441406,69.042969 C209.441406,63.761719 211.21875,60.457032 214.148437,58.21875 C216.085937,56.742188 218.96875,55.332032 224.375,55.332032 C228.023437,55.332032 232.296875,56.75 234.605468,59.5625 C237.195312,62.726563 238.273437,66.253907 238.273437,70.859375 C238.273437,75.625 237.125,79.46875 234.832031,82.425782 C232.535156,85.300782 229.582031,86.730469 225.980468,86.730469 C224.066406,86.730469 222.382812,86.390625 220.929687,85.714844 C219.390625,84.957032 218.171875,83.785157 217.253906,82.195313 L217.253906,92.347657" id="Shape" fill="#00AEEF"></path>
            <path d="M277.191406,71.203125 C277.191406,76.414063 278.699218,79.300782 281.707031,79.871094 C284.710937,80.429688 286.933593,79.730469 288.363281,77.769532 C289.042968,76.945313 289.527343,75.636719 289.832031,73.867188 C290.128906,72.09375 290.152343,70.335938 289.886718,68.601563 C289.628906,66.859375 289.003906,65.3125 288.023437,63.953125 C287.050781,62.597657 285.617187,61.914063 283.738281,61.914063 C281.179687,61.914063 279.453125,62.863282 278.546875,64.742188 C277.640625,66.632813 277.191406,68.785157 277.191406,71.203125 M290.058593,84.226563 L290.058593,82.308594 C288.707031,84.425782 286.875,85.738282 284.582031,86.269532 C282.289062,86.796875 280.011718,86.609375 277.761718,85.699219 C275.5,84.796875 273.5625,83.117188 271.945312,80.664063 C270.328125,78.203125 269.523437,74.976563 269.523437,70.972657 C269.523437,66.296875 270.59375,62.5 272.734375,59.59375 C274.878906,56.6875 278.324218,55.359375 283.0625,55.230469 C287.730468,55.105469 290.445312,56.164063 293.105468,58.175782 C296.011718,60.382813 297.730497,63.765625 297.730497,69.050782 L297.730497,85.027344 C297.742187,90.109375 294.195312,99.53125 283.0625,98.734375 C276.164062,98.234375 272.335937,95.402344 270.199218,88.992188 L278.4375,88.992188 C279.039062,90.046875 279.957031,90.855469 281.203125,91.417969 C282.4375,91.992188 283.6875,92.140625 284.917968,91.875 C286.160156,91.609375 287.289062,90.871094 288.3125,89.667969 C289.324218,88.460938 289.90625,86.644532 290.058593,84.226563" id="Shape" fill="#00AEEF"></path>
            <path d="M258.886718,74.355469 C258.835937,76.960938 258.089843,78.753907 256.660156,79.738282 C255.226562,80.71875 253.660156,81.210938 251.960937,81.210938 C250.882812,81.210938 249.972656,80.914063 249.226562,80.324219 C248.476562,79.734375 248.101562,78.769532 248.101562,77.4375 C248.101562,75.949219 248.714843,74.847657 249.941406,74.136719 C250.671875,73.71875 251.859375,73.359375 253.519531,73.074219 L255.292968,72.746094 C256.179687,72.578125 256.875,72.398438 257.378906,72.207032 C257.894531,72.019532 258.390625,71.773438 258.886718,71.460938 L258.886718,74.355469 Z M262.835937,57.386719 C260.292968,56.101563 257.386718,55.449219 254.117187,55.449219 C249.082031,55.449219 245.535156,56.761719 243.464843,59.382813 C242.167968,61.058594 241.4375,63.195313 241.269531,65.804688 L248.789062,65.804688 C248.972656,64.652344 249.339843,63.742188 249.894531,63.070313 C250.671875,62.160157 251.988281,61.707032 253.847656,61.707032 C255.519531,61.707032 256.777343,61.933594 257.632812,62.402344 C258.488281,62.867188 258.921875,63.710938 258.921875,64.929688 C258.921875,65.929688 258.363281,66.667969 257.242187,67.144532 C256.621093,67.417969 255.582031,67.644532 254.128906,67.828125 L251.464843,68.152344 C248.441406,68.535157 246.140625,69.175782 244.585937,70.066407 C241.738281,71.707032 240.316406,74.355469 240.316406,78.015625 C240.316406,80.835938 241.199218,83.019532 242.96875,84.558594 C244.734375,86.09375 246.980468,86.746094 249.691406,86.871094 C266.679687,87.628907 266.492187,77.910157 266.648437,75.890625 L266.648437,64.707032 C266.648437,61.121094 265.378906,58.683594 262.835937,57.386719" id="Shape" fill="#00AEEF"></path>
            <path d="M321.082031,77.851563 C319.867187,79.46875 318.125,80.273438 315.855468,80.273438 C313.582031,80.273438 311.832031,79.46875 310.613281,77.851563 C309.382812,76.242188 308.773437,73.949219 308.773437,70.976563 C308.773437,68.003907 309.382812,65.714844 310.613281,64.109375 C311.832031,62.503907 313.582031,61.707032 315.855468,61.707032 C318.125,61.707032 319.867187,62.503907 321.082031,64.109375 C322.296875,65.714844 322.90625,68.003907 322.90625,70.976563 C322.90625,73.949219 322.296875,76.242188 321.082031,77.851563 M327.292968,59.847657 C324.785156,56.707032 320.980468,55.140625 315.875,55.140625 C310.78125,55.140625 306.972656,56.707032 304.46875,59.847657 C301.960937,62.984375 300.707031,66.691407 300.707031,70.976563 C300.707031,75.332032 301.960937,79.050782 304.46875,82.148438 C306.972656,85.234375 310.78125,86.785157 315.875,86.785157 C320.980468,86.785157 324.785156,85.234375 327.292968,82.148438 C329.796875,79.050782 331.042968,75.332032 331.042968,70.976563 C331.042968,66.691407 329.796875,62.984375 327.292968,59.847657" id="Shape" fill="#00AEEF"></path>
        </g>
    </g>
</svg>