<?xml version="1.0" encoding="UTF-8"?>
<svg width="380px" height="96px" viewBox="0 0 380 96" version="1.1" xmlns="http://www.w3.org/2000/svg" xmlns:xlink="http://www.w3.org/1999/xlink">
    <title>mercadolibre</title>
    <g id="HUGO-Public-Website" stroke="none" stroke-width="1" fill="none" fill-rule="evenodd">
        <g id="mercadolibre" transform="translate(0.148438, 0.950781)" fill-rule="nonzero">
            <path d="M219.164134,54.5744681 L221.18541,54.5744681 L221.18541,95 L213.533435,95 L213.533435,59.4832827 C213.533435,58.3282675 215.987842,54.5744681 219.164134,54.5744681 L219.164134,54.5744681 Z M261.033435,63.5258359 C257.279635,63.5258359 254.392097,65.1139818 252.370821,68.2902736 L252.370821,54.5744681 L251.504559,54.5744681 C247.75076,54.5744681 245.729483,56.5957447 244.718845,58.3282675 L244.718845,58.0395137 L244.718845,81.2841945 C244.718845,90.3799392 249.483283,95 259.012158,95 C268.541033,94.8556231 273.161094,89.6580547 273.161094,79.5516717 C273.161094,69.0121581 269.118541,63.8145897 261.033435,63.5258359 L261.033435,63.5258359 Z M258.723404,88.3586626 C254.392097,88.3586626 252.226444,85.1823708 252.370821,79.118541 C252.659574,73.1990881 254.680851,70.3115502 258.867781,70.3115502 C263.054711,70.3115502 265.075988,73.1990881 265.364742,79.118541 C265.364742,85.3267477 263.054711,88.3586626 258.723404,88.3586626 Z M277.636778,79.118541 C277.925532,69.3009119 282.68997,63.8145897 292.940729,63.8145897 L295.25076,63.8145897 L295.25076,71.7553191 L291.641337,71.7553191 C287.31003,71.7553191 285.433131,74.4984802 285.433131,78.9741641 L285.433131,94.8556231 L277.636778,94.8556231 L277.636778,79.118541 Z M307.378419,87.0592705 C308.677812,88.2142857 310.410334,88.7917933 312.720365,88.7917933 C314.308511,88.7917933 315.75228,88.3586626 316.907295,87.4924012 C318.06231,86.6261398 318.784195,85.7598784 319.072948,84.893617 L326.291793,84.893617 C325.136778,88.5030395 323.404255,90.9574468 320.949848,92.5455927 C318.495441,94.1337386 315.75228,94.8556231 312.287234,94.8556231 C309.977204,94.8556231 307.81155,94.4224924 305.93465,93.7006079 C304.057751,92.9787234 302.469605,91.8237082 301.170213,90.5243161 C299.870821,89.0805471 298.860182,87.4924012 298.138298,85.6155015 C297.416413,83.7386018 297.12766,81.5729483 297.12766,79.2629179 C297.12766,77.0972644 297.56079,74.9316109 298.282675,73.0547112 C299.004559,71.1778116 300.015198,69.4452888 301.31459,68.1458967 C302.613982,66.7021277 304.202128,65.6914894 306.079027,64.825228 C307.955927,63.9589666 309.977204,63.6702128 312.287234,63.6702128 C314.741641,63.6702128 317.051672,64.1033435 318.928571,65.1139818 C320.805471,66.1246201 322.393617,67.4240122 323.548632,69.0121581 C324.703647,70.600304 325.569909,72.4772036 326.147416,74.6428571 C326.724924,76.6641337 326.869301,78.9741641 326.724924,81.2841945 L305.212766,81.2841945 C305.50152,84.0273556 306.223404,85.9042553 307.378419,87.0592705 L307.378419,87.0592705 Z M316.618541,71.4665653 C315.607903,70.4559271 314.164134,69.8784195 312.142857,69.8784195 C310.843465,69.8784195 309.68845,70.1671733 308.822188,70.600304 C307.955927,71.0334347 307.234043,71.6109422 306.800912,72.1884498 C306.223404,72.9103343 305.93465,73.4878419 305.645897,74.2097264 C305.357143,74.9316109 305.357143,75.6534954 305.212766,76.231003 L318.495441,76.231003 C318.351064,74.0653495 317.629179,72.4772036 316.618541,71.4665653 L316.618541,71.4665653 Z M229.414894,54.5744681 L237.066869,54.5744681 L237.066869,61.5045593 L229.414894,61.5045593 L229.414894,54.5744681 Z M229.414894,64.9696049 L237.066869,64.9696049 L237.066869,94.8556231 L229.414894,94.8556231 L229.414894,64.9696049 Z M369.027356,38.5486322 C367.727964,39.9924012 365.995441,40.8586626 363.829787,40.8586626 C361.664134,40.8586626 359.931611,39.9924012 358.632219,38.5486322 C357.332827,37.1048632 356.899696,34.6504559 356.899696,31.7629179 C356.899696,28.731003 357.477204,26.5653495 358.632219,25.1215805 C359.931611,23.6778116 361.664134,22.8115502 363.829787,22.8115502 C365.995441,22.8115502 367.727964,23.6778116 369.027356,25.1215805 C370.326748,26.5653495 370.759878,29.0197568 370.759878,31.7629179 C370.759878,34.506079 370.326748,36.8161094 369.027356,38.5486322 Z M375.091185,20.6458967 C372.781155,17.6139818 368.882979,15.881459 363.829787,15.881459 C358.920973,15.881459 354.878419,17.325228 352.568389,20.6458967 C350.258359,23.6778116 348.81459,27.4316109 348.81459,31.618541 C348.81459,35.949848 350.113982,39.7036474 352.568389,42.5911854 C354.878419,45.6231003 358.776596,47.2112462 363.829787,47.2112462 C368.738602,47.2112462 372.781155,45.7674772 375.091185,42.5911854 C377.401216,39.5592705 378.844985,35.8054711 378.844985,31.618541 C378.989362,27.5759878 377.68997,23.8221884 375.091185,20.6458967 M337.553191,38.5486322 C336.542553,39.9924012 334.81003,40.8586626 332.644377,40.8586626 C330.478723,40.8586626 328.746201,39.9924012 327.879939,38.5486322 C326.869301,36.8161094 326.43617,34.6504559 326.43617,31.7629179 C326.43617,29.1641337 326.869301,27.1428571 327.879939,25.5547112 C328.890578,23.8221884 330.478723,22.9559271 332.788754,22.9559271 C334.232523,22.9559271 335.531915,23.3890578 336.68693,24.2553191 C338.419453,25.6990881 339.430091,28.5866261 339.430091,32.3404255 C338.99696,34.9392097 338.708207,37.1048632 337.553191,38.5486322 L337.553191,38.5486322 Z M346.504559,7.07446809 C346.504559,7.07446809 338.708207,6.20820669 338.708207,12.4164134 L338.708207,20.6458967 C337.841945,19.3465046 336.831307,18.3358663 335.243161,17.325228 C333.943769,16.4589666 332.211246,16.3145897 330.478723,16.3145897 C326.580547,16.3145897 323.548632,17.7583587 321.094225,20.6458967 C318.784195,23.3890578 317.629179,27.5759878 317.629179,32.7735562 C317.629179,37.1048632 318.639818,40.8586626 321.094225,43.3130699 C323.404255,46.056231 328.024316,47.2112462 332.066869,47.2112462 C346.360182,47.2112462 346.071429,35.0835866 346.071429,35.0835866 L346.504559,7.07446809 Z M308.100304,34.9392097 C308.100304,37.5379939 307.234043,39.2705167 305.93465,40.281155 C304.490881,41.1474164 302.902736,41.724924 301.31459,41.724924 C300.303951,41.724924 299.43769,41.5805471 298.715805,40.8586626 C297.993921,40.1367781 297.705167,39.4148936 297.705167,38.1155015 C297.705167,36.6717325 298.282675,35.5167173 299.43769,34.7948328 C300.015198,34.3617021 301.31459,33.9285714 302.902736,33.7841945 L304.635258,33.3510638 C305.50152,33.2066869 306.079027,32.9179331 306.800912,32.9179331 C307.234043,32.7735562 307.81155,32.4848024 308.244681,32.3404255 L308.100304,34.9392097 Z M311.99848,18.0471125 C309.399696,16.7477204 306.656535,16.1702128 303.335866,16.1702128 C298.427052,16.1702128 294.817629,17.4696049 292.796353,20.0683891 C291.49696,21.8009119 290.919453,23.8221884 290.630699,26.2765957 L297.993921,26.2765957 C298.138298,25.2659574 298.571429,24.399696 299.004559,23.6778116 C299.870821,22.8115502 301.170213,22.3784195 302.902736,22.3784195 C304.635258,22.3784195 305.645897,22.5227964 306.656535,22.9559271 C307.522796,23.3890578 307.955927,24.2553191 307.955927,25.5547112 C307.955927,26.5653495 307.378419,27.287234 306.223404,27.7203647 C305.645897,27.8647416 304.490881,28.1534954 303.191489,28.2978723 L300.592705,28.4422492 C297.56079,28.8753799 295.395137,29.4528875 293.806991,30.3191489 C291.06383,31.7629179 289.620061,34.6504559 289.620061,38.1155015 C289.620061,40.8586626 290.486322,43.0243161 292.218845,44.612462 C293.951368,46.056231 296.117021,46.7781155 298.860182,46.9224924 C315.75228,47.5 315.607903,37.9711246 315.607903,36.0942249 L315.607903,25.1215805 C315.75228,21.9452888 314.597264,19.3465046 311.99848,18.0471125 M273.738602,22.8115502 C275.615502,22.8115502 277.059271,23.3890578 278.069909,24.5440729 C278.647416,25.4103343 279.080547,26.4209726 279.080547,27.5759878 L287.31003,27.5759878 C286.8769,23.3890578 285.433131,20.3571429 282.978723,18.9133739 C280.668693,17.1808511 277.348024,16.6033435 273.449848,16.6033435 C268.829787,16.6033435 265.220365,17.9027356 262.621581,20.7902736 C260.022796,23.6778116 258.723404,27.5759878 258.723404,32.4848024 C258.723404,37.1048632 259.734043,40.5699088 262.18845,43.3130699 C264.49848,46.056231 268.25228,47.5 273.161094,47.5 C278.069909,47.5 281.823708,45.7674772 284.422492,42.5911854 C285.866261,40.4255319 286.732523,38.2598784 287.021277,35.8054711 L278.791793,35.8054711 C278.647416,37.2492401 278.214286,38.5486322 277.348024,39.5592705 C276.481763,40.4255319 275.182371,41.0030395 273.161094,41.0030395 C270.56231,41.0030395 268.541033,39.7036474 267.819149,37.2492401 C267.386018,35.949848 266.952888,34.2173252 266.952888,32.0516717 C266.952888,29.8860182 267.097264,27.8647416 267.819149,26.7097264 C269.118541,24.1109422 270.851064,22.8115502 273.738602,22.8115502 M256.557751,16.3145897 C239.3769,16.3145897 240.531915,31.4741641 240.531915,31.4741641 L240.531915,46.7781155 L248.328267,46.7781155 L248.328267,32.4848024 C248.328267,30.174772 248.472644,28.2978723 249.194529,27.287234 C250.205167,25.4103343 252.226444,24.2553191 255.402736,24.2553191 L256.268997,24.2553191 C256.702128,24.2553191 257.135258,24.2553191 257.568389,24.399696 L257.568389,16.6033435 L256.990881,16.6033435 C256.846505,16.3145897 256.846505,16.3145897 256.557751,16.3145897 M217.864742,24.2553191 C218.87538,23.2446809 220.463526,22.5227964 222.484802,22.5227964 C224.217325,22.5227964 225.805471,22.9559271 227.104863,23.9665653 C228.404255,24.9772036 228.981763,26.5653495 228.981763,28.5866261 L215.699088,28.5866261 C216.132219,26.8541033 216.709726,25.4103343 217.864742,24.2553191 Z M228.259878,38.5486322 C228.115502,38.9817629 227.682371,39.4148936 227.24924,39.5592705 C226.238602,40.4255319 224.650456,40.5699088 222.917933,40.5699088 C221.18541,40.5699088 219.886018,40.4255319 218.731003,39.5592705 C216.854103,38.5486322 215.699088,36.2386018 215.699088,33.4954407 L237.066869,33.4954407 C237.066869,30.8966565 237.066869,28.8753799 236.922492,27.7203647 C236.489362,25.4103343 235.911854,23.3890578 234.612462,21.656535 C233.31307,19.7796353 231.580547,18.1914894 229.703647,17.325228 C227.826748,16.4589666 225.37234,16.0258359 222.773556,16.0258359 C218.442249,16.0258359 214.977204,17.325228 212.378419,20.212766 C209.779635,22.9559271 208.191489,26.8541033 208.191489,31.9072948 C208.191489,37.2492401 209.635258,41.2917933 212.81155,43.6018237 C215.843465,45.9118541 219.308511,47.3556231 223.206687,47.3556231 C227.971125,47.3556231 231.724924,45.9118541 234.179331,43.0243161 C235.6231,41.5805471 236.489362,39.9924012 236.778116,38.4042553 L228.259878,38.5486322 Z M204.870821,46.6337386 L197.651976,46.6337386 L197.651976,28.8753799 C197.651976,27.1428571 197.218845,23.5334347 192.454407,23.5334347 C189.422492,23.5334347 187.112462,25.6990881 187.112462,28.8753799 L187.112462,46.6337386 L179.893617,46.6337386 L179.893617,28.8753799 C179.893617,27.1428571 179.460486,23.5334347 174.696049,23.5334347 C171.664134,23.5334347 169.49848,25.6990881 169.49848,28.8753799 L169.49848,46.6337386 L162.279635,46.6337386 L162.279635,29.0197568 C162.279635,21.656535 167.044073,16.0258359 174.551672,16.0258359 C178.305471,16.0258359 181.337386,17.4696049 183.50304,20.212766 C185.668693,17.6139818 188.700608,16.0258359 192.454407,16.0258359 C200.25076,16.0258359 204.726444,21.3677812 204.726444,29.0197568 L204.870821,46.6337386 Z" id="Shape" fill="#2D3277"></path>
            <g id="Group-35">
                <path d="M137.446809,44.9012158 C137.446809,20.212766 106.694529,0 68.7234043,0 C30.7522796,0 0,20.212766 0,44.9012158 L0,47.5 C0,73.7765957 26.8541033,95 68.7234043,95 C110.737082,95 137.446809,73.7765957 137.446809,47.5 L137.446809,44.9012158 Z" id="Path" fill="#2D3277"></path>
                <path d="M134.992401,44.9012158 C134.992401,68.1458967 105.395137,87.0592705 69.0121581,87.0592705 C32.6291793,87.0592705 3.03191489,68.1458967 3.03191489,44.9012158 C3.03191489,21.656535 32.6291793,2.74316109 69.0121581,2.74316109 C105.395137,2.74316109 134.992401,21.656535 134.992401,44.9012158 Z" id="Path" fill="#FFE600"></path>
                <g id="Group" transform="translate(3.176292, 16.309813)" fill="#FFFFFF">
                    <path d="M43.8905775,15.3087283 C43.8905775,15.3087283 43.168693,16.0306128 43.6018237,16.6081204 C44.612462,17.9075125 47.7887538,18.629397 51.1094225,17.9075125 C52.9863222,17.4743818 55.5851064,15.4531052 57.8951368,13.5762055 C60.493921,11.5549289 63.0927052,9.38927539 65.6914894,8.6673909 C68.4346505,7.8011295 70.1671733,8.2342602 71.3221884,8.523014 C72.6215805,8.9561447 74.0653495,9.82240609 76.5197568,11.5549289 C80.9954407,14.8755976 99.1869301,30.7570565 102.363222,33.5002176 C104.817629,32.3452024 116.079027,27.5807648 131.382979,24.1157192 C130.083587,16.0306128 125.174772,8.523014 117.667173,2.45918421 C107.272036,6.7904912 94.4224924,9.1005216 81.8617021,3.03669181 C81.8617021,3.03669181 75.0759878,-0.139599985 68.2902736,0.00477691471 C58.3282675,0.293530714 54.1413374,4.48046081 49.5212766,9.1005216 L43.8905775,15.3087283 Z" id="Path"></path>
                    <path d="M101.641337,35.2327404 C101.49696,35.0883635 80.2735562,16.6081204 75.5091185,12.9986979 C72.7659574,10.9774213 71.1778116,10.3999137 69.5896657,10.1111599 C68.7234043,9.96678299 67.5683891,10.1111599 66.7021277,10.3999137 C64.5364742,10.9774213 61.5045593,12.9986979 58.9057751,15.0199745 C56.162614,17.185628 53.7082067,19.2069046 51.3981763,19.6400353 C48.3662614,20.3619198 44.7568389,19.4956584 43.168693,18.3406432 C42.4468085,17.9075125 42.0136778,17.3300049 41.724924,16.7524973 C41.1474164,15.3087283 42.3024316,14.1537131 42.4468085,14.0093362 L48.2218845,7.6567526 L50.2431611,5.635476 C48.3662614,5.9242298 46.6337386,6.3573605 44.9012158,6.7904912 C42.7355623,7.3679988 40.7142857,7.9455064 38.6930091,7.9455064 C37.8267477,7.9455064 33.2066869,7.2236219 32.3404255,6.9348681 C26.9984802,5.4910991 22.3784195,4.04733011 15.4483283,0.871038313 C7.21884498,7.079245 1.5881459,14.7312207 0,23.2494578 C1.1550152,23.5382116 3.17629179,24.1157192 3.89817629,24.2600961 C22.6671733,28.4470262 28.4422492,32.7783331 29.5972644,33.6445945 C30.7522796,32.3452024 32.3404255,31.6233179 34.2173252,31.6233179 C36.2386018,31.6233179 38.1155015,32.6339562 39.2705167,34.2221021 C40.281155,33.3558407 41.8693009,32.6339562 43.7462006,32.6339562 C44.612462,32.6339562 45.4787234,32.7783331 46.4893617,33.0670869 C48.6550152,33.7889714 49.6656535,35.2327404 50.2431611,36.5321325 C50.9650456,36.2433787 51.831307,35.9546249 52.8419453,35.9546249 C53.8525836,35.9546249 54.8632219,36.2433787 56.0182371,36.6765094 C59.4832827,38.1202784 60.0607903,41.585324 59.7720365,44.1841082 L60.493921,44.1841082 C64.6808511,44.1841082 68.0015198,47.5047769 68.0015198,51.691707 C68.0015198,52.9910991 67.712766,54.1461143 67.1352584,55.1567526 C68.2902736,55.7342602 71.0334347,57.1780292 73.6322188,56.8892754 C75.6534954,56.6005216 76.3753799,56.023014 76.6641337,55.5898833 C76.8085106,55.3011295 77.0972644,55.0123757 76.8085106,54.7236219 L71.4665653,48.804169 C71.4665653,48.804169 70.600304,47.9379076 70.8890578,47.6491538 C71.1778116,47.3604 71.7553191,47.7935307 72.1884498,48.0822845 C74.9316109,50.3923149 78.1079027,53.7129836 78.1079027,53.7129836 C78.1079027,53.7129836 78.3966565,54.1461143 79.5516717,54.4348681 C80.56231,54.579245 82.4392097,54.4348681 83.7386018,53.4242298 C84.0273556,53.135476 84.4604863,52.8467222 84.6048632,52.5579684 C85.9042553,50.8254456 84.4604863,49.0929228 84.4604863,49.0929228 L78.2522796,42.1628316 C78.2522796,42.1628316 77.3860182,41.2965702 77.674772,41.0078164 C77.9635258,40.7190626 78.5410334,41.1521933 78.9741641,41.4409471 C80.9954407,43.029093 83.7386018,45.916631 86.337386,48.5154152 C86.9148936,48.9485459 89.224924,50.3923149 92.2568389,48.3710383 C94.1337386,47.0716462 94.5668693,45.6278772 94.4224924,44.472862 C94.2781155,43.029093 93.1231003,41.8740778 93.1231003,41.8740778 L84.7492401,33.3558407 C84.7492401,33.3558407 83.8829787,32.6339562 84.1717325,32.2008255 C84.4604863,31.9120717 85.0379939,32.3452024 85.4711246,32.6339562 C88.2142857,34.9439866 95.4331307,41.585324 95.4331307,41.585324 C95.5775076,41.585324 98.0319149,43.4622237 101.208207,41.4409471 C102.363222,40.7190626 103.085106,39.7084243 103.085106,38.4090322 C103.229483,36.5321325 101.641337,35.2327404 101.641337,35.2327404 L101.641337,35.2327404 Z" id="Path"></path>
                    <path d="M60.7826748,46.0610079 C59.4832827,46.0610079 58.0395137,46.7828924 57.8951368,46.7828924 C57.7507599,46.7828924 57.8951368,46.2053848 58.0395137,45.916631 C58.1838906,45.6278772 59.9164134,40.4303088 55.7294833,38.5534091 C52.5531915,37.1096401 50.5319149,38.697786 49.9544073,39.4196705 C49.8100304,39.5640474 49.6656535,39.5640474 49.6656535,39.4196705 C49.6656535,38.5534091 49.2325228,35.9546249 46.3449848,35.0883635 C42.3024316,33.7889714 39.8480243,36.6765094 39.1261398,37.6871477 C38.837386,35.3771173 36.9604863,33.6445945 34.506079,33.6445945 C31.9072948,33.6445945 29.8860182,35.6658711 29.8860182,38.2646553 C29.8860182,40.8634395 31.9072948,42.8847161 34.506079,42.8847161 C35.8054711,42.8847161 36.8161094,42.4515854 37.6823708,41.585324 L37.6823708,41.7297009 C37.5379939,42.8847161 37.1048632,47.0716462 41.4361702,48.6597921 C43.168693,49.3816766 44.612462,48.804169 45.9118541,47.9379076 C46.3449848,47.6491538 46.3449848,47.7935307 46.3449848,48.0822845 C46.2006079,49.0929228 46.3449848,51.4029532 49.6656535,52.7023453 C52.1200608,53.7129836 53.5638298,52.7023453 54.4300912,51.8360839 C54.8632219,51.4029532 55.0075988,51.5473301 55.0075988,52.1248377 C55.1519757,55.1567526 57.7507599,57.6111599 60.7826748,57.6111599 C63.9589666,57.6111599 66.5577508,55.0123757 66.5577508,51.8360839 C66.5577508,48.6597921 63.9589666,46.0610079 60.7826748,46.0610079 L60.7826748,46.0610079 Z" id="Path"></path>
                </g>
                <path d="M105.683891,49.3768997 C99.1869301,43.7462006 84.1717325,30.6079027 79.9848024,27.5759878 C77.674772,25.843465 76.0866261,24.8328267 74.6428571,24.5440729 C74.0653495,24.399696 73.1990881,24.1109422 72.0440729,24.1109422 C71.0334347,24.1109422 69.8784195,24.2553191 68.7234043,24.6884498 C66.1246201,25.5547112 63.5258359,27.5759878 60.9270517,29.5972644 L60.7826748,29.7416413 C58.4726444,31.618541 56.0182371,33.4954407 54.1413374,33.9285714 C53.275076,34.0729483 52.5531915,34.2173252 51.6869301,34.2173252 C49.6656535,34.2173252 47.7887538,33.6398176 47.0668693,32.7735562 C46.9224924,32.6291793 47.0668693,32.3404255 47.3556231,32.0516717 L53.1306991,25.843465 C57.606383,21.3677812 61.7933131,17.1808511 71.6109422,16.8920973 L72.0440729,16.8920973 C78.1079027,16.8920973 84.1717325,19.6352584 84.893617,19.9240122 C90.668693,22.6671733 96.443769,24.1109422 102.363222,24.1109422 C108.571429,24.1109422 114.924012,22.5227964 121.56535,19.4908815 C120.843465,18.9133739 119.977204,18.1914894 119.255319,17.6139818 C113.335866,20.212766 107.849544,21.3677812 102.363222,21.3677812 C96.8768997,21.3677812 91.3905775,20.0683891 86.0486322,17.4696049 C85.7598784,17.325228 79.118541,14.1489362 72.0440729,14.1489362 L71.4665653,14.1489362 C63.2370821,14.2933131 58.6170213,17.1808511 55.5851064,19.7796353 C52.5531915,19.7796353 49.9544073,20.6458967 47.6443769,21.2234043 C45.6231003,21.8009119 43.7462006,22.2340426 42.0136778,22.2340426 L39.8480243,22.2340426 C37.8267477,22.2340426 27.7203647,19.7796353 19.7796353,16.6033435 C18.9133739,17.1808511 18.1914894,17.7583587 17.325228,18.3358663 C25.6990881,21.8009119 35.949848,24.399696 39.1261398,24.6884498 C39.9924012,24.6884498 41.0030395,24.8328267 42.0136778,24.8328267 C44.1793313,24.8328267 46.2006079,24.2553191 48.3662614,23.6778116 C49.6656535,23.3890578 50.9650456,22.9559271 52.2644377,22.6671733 L51.1094225,23.8221884 L45.3343465,30.174772 C44.9012158,30.6079027 43.8905775,31.9072948 44.4680851,33.3510638 C44.7568389,33.9285714 45.3343465,34.506079 46.056231,35.0835866 C47.5,35.949848 49.9544073,36.6717325 52.2644377,36.6717325 C53.1306991,36.6717325 53.9969605,36.5273556 54.718845,36.3829787 C57.1732523,35.8054711 59.7720365,33.7841945 62.3708207,31.618541 C64.5364742,29.8860182 67.5683891,27.7203647 69.8784195,26.9984802 C70.600304,26.8541033 71.3221884,26.7097264 72.0440729,26.7097264 L72.6215805,26.7097264 C74.2097264,26.8541033 75.6534954,27.4316109 78.3966565,29.4528875 C83.1610942,33.06231 104.384498,51.5425532 104.528875,51.6869301 C104.528875,51.6869301 105.828267,52.8419453 105.828267,54.8632219 C105.828267,55.8738602 105.106383,56.8844985 104.095745,57.606383 C103.229483,58.1838906 102.218845,58.4726444 101.352584,58.4726444 C99.9088146,58.4726444 98.8981763,57.7507599 98.8981763,57.7507599 C98.8981763,57.7507599 91.5349544,51.1094225 88.9361702,48.7993921 C88.5030395,48.3662614 88.0699088,48.0775076 87.6367781,48.0775076 C87.3480243,48.0775076 87.2036474,48.2218845 87.0592705,48.3662614 C86.6261398,48.943769 87.0592705,49.6656535 87.6367781,50.0987842 L96.1550152,58.6170213 C96.1550152,58.6170213 97.1656535,59.6276596 97.3100304,60.9270517 C97.3100304,62.3708207 96.7325228,63.5258359 95.2887538,64.3920973 C94.2781155,65.1139818 93.2674772,65.4027356 92.2568389,65.4027356 C90.9574468,65.4027356 90.0911854,64.825228 89.8024316,64.6808511 L88.5030395,63.5258359 C86.337386,61.3601824 84.0273556,59.050152 82.2948328,57.7507599 C81.8617021,57.4620061 81.4285714,57.0288754 80.9954407,57.0288754 C80.8510638,57.0288754 80.56231,57.0288754 80.4179331,57.3176292 C80.2735562,57.4620061 80.1291793,57.8951368 80.56231,58.6170213 C80.7066869,58.9057751 80.9954407,59.050152 80.9954407,59.050152 L87.2036474,65.9802432 C87.2036474,65.9802432 88.5030395,67.5683891 87.3480243,68.8677812 L87.0592705,69.156535 L86.4817629,69.7340426 C85.4711246,70.600304 84.0273556,70.7446809 83.449848,70.7446809 L82.5835866,70.7446809 C82.006079,70.600304 81.5729483,70.4559271 81.2841945,70.1671733 C80.9954407,69.7340426 77.8191489,66.7021277 75.2203647,64.5364742 C74.9316109,64.2477204 74.4984802,63.9589666 74.0653495,63.9589666 C73.9209726,63.9589666 73.6322188,64.1033435 73.4878419,64.2477204 C73.0547112,64.825228 73.7765957,65.6914894 74.0653495,65.9802432 L79.4072948,71.7553191 C79.4072948,71.7553191 79.4072948,71.899696 79.2629179,72.1884498 C79.118541,72.4772036 78.3966565,73.0547112 76.5197568,73.343465 L75.7978723,73.343465 C73.7765957,73.343465 71.7553191,72.3328267 70.600304,71.7553191 C71.0334347,70.7446809 71.3221884,69.5896657 71.3221884,68.4346505 C71.3221884,64.1033435 67.8571429,60.6382979 63.5258359,60.6382979 L63.2370821,60.6382979 C63.381459,58.6170213 63.0927052,54.8632219 59.1945289,53.275076 C58.0395137,52.8419453 57.0288754,52.5531915 55.8738602,52.5531915 C55.0075988,52.5531915 54.2857143,52.6975684 53.4194529,52.9863222 C52.5531915,51.3981763 51.2537994,50.2431611 49.5212766,49.6656535 C48.5106383,49.3768997 47.6443769,49.2325228 46.6337386,49.2325228 C45.0455927,49.2325228 43.6018237,49.6656535 42.3024316,50.6762918 C41.0320134,49.1119672 39.1200332,48.2090877 37.1048632,48.2218845 C35.3723404,48.2218845 33.6398176,48.943769 32.4848024,50.0987842 C30.8966565,48.7993921 24.399696,44.7568389 6.93009119,40.7142857 C6.06382979,40.5699088 4.18693009,39.9924012 3.03191489,39.5592705 C2.88753799,40.4255319 2.74316109,41.4361702 2.59878419,42.4468085 C2.59878419,42.4468085 5.77507599,43.168693 6.49696049,43.3130699 C24.2553191,47.2112462 30.174772,51.3981763 31.1854103,52.1200608 C30.8966565,52.9863222 30.7522796,53.8525836 30.7522796,54.718845 C30.7522796,58.4726444 33.7841945,61.3601824 37.393617,61.3601824 C37.8267477,61.3601824 38.2598784,61.3601824 38.6930091,61.2158055 C39.2705167,63.9589666 41.0030395,65.9802432 43.7462006,66.9908815 C44.612462,67.2796353 45.3343465,67.4240122 46.056231,67.4240122 C46.4893617,67.4240122 47.0668693,67.4240122 47.6443769,67.2796353 C48.0775076,68.5790274 49.2325228,70.1671733 51.831307,71.1778116 C52.6975684,71.6109422 53.5638298,71.7553191 54.4300912,71.7553191 C55.1519757,71.7553191 55.8738602,71.6109422 56.4513678,71.3221884 C57.606383,74.2097264 60.493921,76.231003 63.6702128,76.231003 C65.8358663,76.231003 67.8571429,75.3647416 69.3009119,73.7765957 C70.600304,74.4984802 73.1990881,75.7978723 75.9422492,75.7978723 L76.9528875,75.7978723 C79.6960486,75.5091185 80.8510638,74.3541033 81.4285714,73.6322188 C81.5729483,73.4878419 81.5729483,73.343465 81.7173252,73.1990881 C82.2948328,73.343465 83.0167173,73.4878419 83.8829787,73.4878419 C85.3267477,73.4878419 86.7705167,73.0547112 88.2142857,71.899696 C89.6580547,70.8890578 90.668693,69.4452888 90.668693,68.1458967 C91.1018237,68.2902736 91.6793313,68.2902736 92.112462,68.2902736 C93.556231,68.2902736 95.1443769,67.8571429 96.5881459,66.8465046 C99.331307,65.1139818 99.7644377,62.6595745 99.7644377,61.2158055 C100.197568,61.3601824 100.775076,61.3601824 101.208207,61.3601824 C102.651976,61.3601824 104.095745,60.9270517 105.395137,60.0607903 C107.12766,58.9057751 108.138298,57.3176292 108.282675,55.4407295 C108.427052,54.1413374 107.993921,52.8419453 107.416413,51.6869301 C112.036474,49.6656535 122.431611,45.9118541 134.848024,43.0243161 C134.848024,42.0136778 134.703647,41.1474164 134.414894,40.1367781 C119.544073,43.3130699 108.427052,48.0775076 105.683891,49.3768997 L105.683891,49.3768997 Z M63.9589666,73.4878419 C61.0714286,73.4878419 58.7613982,71.1778116 58.6170213,68.2902736 C58.6170213,68.0015198 58.6170213,67.4240122 58.0395137,67.4240122 C57.7507599,67.4240122 57.606383,67.5683891 57.3176292,67.712766 C56.7401216,68.2902736 55.8738602,68.8677812 54.718845,68.8677812 C54.1413374,68.8677812 53.5638298,68.7234043 52.9863222,68.4346505 C49.9544073,67.1352584 49.8100304,65.1139818 49.9544073,64.2477204 C49.9544073,63.9589666 49.9544073,63.8145897 49.8100304,63.6702128 L49.6656535,63.5258359 L49.5212766,63.5258359 C49.3768997,63.5258359 49.2325228,63.5258359 48.943769,63.8145897 C48.0775076,64.3920973 47.2112462,64.6808511 46.3449848,64.6808511 C45.9118541,64.6808511 45.3343465,64.5364742 44.9012158,64.3920973 C40.8586626,62.8039514 41.1474164,59.050152 41.4361702,57.8951368 C41.4361702,57.606383 41.4361702,57.4620061 41.2917933,57.3176292 L41.0030395,57.0288754 L40.7142857,57.3176292 C39.8480243,58.0395137 38.837386,58.4726444 37.8267477,58.4726444 C35.5167173,58.4726444 33.6398176,56.5957447 33.6398176,54.2857143 C33.6398176,51.9756839 35.5167173,50.0987842 37.8267477,50.0987842 C39.8480243,50.0987842 41.724924,51.6869301 42.0136778,53.7082067 L42.1580547,54.8632219 L42.7355623,53.8525836 C42.7355623,53.7082067 44.4680851,51.1094225 47.6443769,51.2537994 C48.2218845,51.2537994 48.7993921,51.3981763 49.5212766,51.5425532 C51.9756839,52.2644377 52.4088146,54.5744681 52.4088146,55.4407295 C52.4088146,56.0182371 52.8419453,56.0182371 52.8419453,56.0182371 C52.9863222,56.0182371 53.275076,55.8738602 53.275076,55.7294833 C53.7082067,55.2963526 54.718845,54.4300912 56.3069909,54.4300912 C57.0288754,54.4300912 57.7507599,54.5744681 58.6170213,55.0075988 C62.5151976,56.7401216 60.7826748,61.6489362 60.7826748,61.7933131 C60.493921,62.6595745 60.3495441,62.9483283 60.7826748,63.2370821 L61.0714286,63.2370821 C61.2158055,63.2370821 61.5045593,63.2370821 61.7933131,63.0927052 C62.3708207,62.9483283 63.0927052,62.6595745 63.8145897,62.6595745 C66.7021277,62.6595745 69.156535,65.1139818 69.156535,68.0015198 C69.3009119,71.1778116 66.8465046,73.4878419 63.9589666,73.4878419 L63.9589666,73.4878419 Z" id="Shape" fill="#2D3277"></path>
            </g>
        </g>
    </g>
</svg>