<?xml version="1.0" encoding="UTF-8"?>
<svg width="366px" height="90px" viewBox="0 0 366 90" version="1.1" xmlns="http://www.w3.org/2000/svg" xmlns:xlink="http://www.w3.org/1999/xlink">
    <title>paypal</title>
    <g id="Tests" stroke="none" stroke-width="1" fill="none" fill-rule="evenodd">
        <g id="paypal" transform="translate(0.000000, 0.000000)" fill-rule="nonzero">
            <path d="M136.8,20 L116.6,20 C115.2,20 114,21 113.8,22.4 L105.6,74.1 C105.5,75 106.1,75.9 107,76 C107.1,76 107.2,76 107.3,76 L116.9,76 C118.3,76 119.5,75 119.7,73.6 L121.9,59.7 C122.1,58.3 123.3,57.3 124.7,57.3 L131.1,57.3 C144.4,57.3 152.1,50.9 154.1,38.1 C155,32.5 154.1,28.1 151.5,25.1 C148.7,21.8 143.6,20 136.8,20 Z M139.2,38.9 C138.1,46.1 132.6,46.1 127.2,46.1 L124.2,46.1 L126.3,32.6 C126.4,31.8 127.1,31.2 128,31.2 L129.4,31.2 C133,31.2 136.5,31.2 138.3,33.3 C139.3,34.5 139.6,36.3 139.2,38.9 Z M197.1,38.7 L187.4,38.7 C186.6,38.7 185.9,39.3 185.7,40.1 L185.3,42.8 L184.6,41.8 C182.5,38.8 177.8,37.8 173.2,37.8 C162.5,37.8 153.4,45.9 151.6,57.2 C150.7,62.9 152,68.3 155.2,72 C158.1,75.5 162.4,76.9 167.4,76.9 C176,76.9 180.8,71.4 180.8,71.4 L180.4,74.1 C180.3,75 180.9,75.9 181.8,76 C181.9,76 182,76 182.1,76 L190.8,76 C192.2,76 193.4,75 193.6,73.6 L198.8,40.5 C198.9,39.6 198.3,38.7 197.4,38.6 C197.3,38.7 197.2,38.7 197.1,38.7 Z M183.7,57.4 C182.8,62.9 178.4,66.6 172.8,66.6 C170,66.6 167.8,65.7 166.3,64 C164.9,62.3 164.3,59.9 164.8,57.2 C165.7,51.7 170.1,47.9 175.6,47.9 C178.3,47.9 180.6,48.8 182,50.5 C183.5,52.3 184.1,54.8 183.7,57.4 Z M248.6,38.7 L238.9,38.7 C238,38.7 237.1,39.2 236.6,39.9 L223.2,59.6 L217.5,40.7 C217.1,39.5 216,38.7 214.8,38.7 L205.3,38.7 C204.4,38.7 203.6,39.4 203.6,40.4 C203.6,40.6 203.6,40.8 203.7,40.9 L214.4,72.3 L204.4,86.5 C203.9,87.3 204,88.3 204.8,88.8 C205.1,89 205.4,89.1 205.8,89.1 L215.5,89.1 C216.4,89.1 217.3,88.7 217.8,87.9 L250.1,41.3 C250.6,40.5 250.4,39.5 249.7,39 C249.2,38.8 248.9,38.7 248.6,38.7 L248.6,38.7 Z" id="Shape" fill="#253B80"></path>
            <path d="M280.7,20 L260.5,20 C259.1,20 257.9,21 257.7,22.4 L249.5,74.1 C249.4,75 250,75.9 250.9,76 C251,76 251.1,76 251.2,76 L261.5,76 C262.5,76 263.3,75.3 263.4,74.3 L265.7,59.6 C265.9,58.2 267.1,57.2 268.5,57.2 L274.9,57.2 C288.2,57.2 295.9,50.8 297.9,38 C298.8,32.4 297.9,28 295.3,25 C292.5,21.8 287.4,20 280.7,20 Z M283,38.9 C281.9,46.1 276.4,46.1 271,46.1 L268,46.1 L270.1,32.6 C270.2,31.8 270.9,31.2 271.8,31.2 L273.2,31.2 C276.8,31.2 280.3,31.2 282.1,33.3 C283.1,34.5 283.4,36.3 283,38.9 Z M341,38.7 L331.3,38.7 C330.5,38.7 329.8,39.3 329.6,40.1 L329.2,42.8 L328.5,41.8 C326.4,38.8 321.8,37.8 317.1,37.8 C306.4,37.8 297.3,45.9 295.5,57.2 C294.6,62.9 295.9,68.3 299.1,72 C302,75.5 306.3,76.9 311.3,76.9 C319.9,76.9 324.7,71.4 324.7,71.4 L324.3,74.1 C324.2,75 324.8,75.9 325.7,76 C325.8,76 325.9,76 326,76 L334.7,76 C336.1,76 337.3,75 337.5,73.6 L342.7,40.5 C342.8,39.6 342.2,38.7 341.3,38.6 C341.1,38.7 341,38.7 341,38.7 Z M327.5,57.4 C326.6,62.9 322.2,66.6 316.6,66.6 C313.8,66.6 311.6,65.7 310.1,64 C308.7,62.3 308.1,59.9 308.6,57.2 C309.5,51.7 313.9,47.9 319.4,47.9 C322.1,47.9 324.4,48.8 325.8,50.5 C327.3,52.3 327.9,54.8 327.5,57.4 Z M352.3,21.4 L344,74.1 C343.9,75 344.5,75.9 345.4,76 C345.5,76 345.6,76 345.7,76 L354,76 C355.4,76 356.6,75 356.8,73.6 L365,21.9 C365.1,21 364.5,20.1 363.6,20 C363.5,20 363.4,20 363.3,20 L354,20 C353.2,20 352.5,20.6 352.3,21.4 Z" id="Shape" fill="#179BD7"></path>
            <path d="M22,86.1 L23.5,76.3 L20.1,76.2 L3.7,76.2 L15.1,3.9 C15.2,3.4 15.6,3.1 16,3.1 L43.7,3.1 C52.9,3.1 59.2,5 62.5,8.8 C64.1,10.6 65,12.4 65.5,14.5 C66,16.6 66,19.2 65.5,22.3 L65.5,22.5 L65.5,24.5 L67.1,25.4 C68.3,26 69.3,26.8 70.2,27.8 C71.5,29.3 72.4,31.2 72.7,33.5 C73.1,35.8 73,38.6 72.3,41.8 C71.6,45.4 70.4,48.6 68.9,51.2 C67.5,53.5 65.7,55.5 63.5,57.1 C61.4,58.6 59,59.7 56.3,60.4 C53.6,61.1 50.6,61.4 47.2,61.4 L45,61.4 C43.5,61.4 42,62 40.8,62.9 C39.6,63.9 38.9,65.3 38.6,66.8 L38.4,67.7 L35.9,85 L35.8,85.6 C35.8,85.8 35.7,85.9 35.6,86 C35.5,86.1 35.4,86.1 35.3,86.1 C35.3,86.1 22,86.1 22,86.1 Z" id="Path" fill="#253B80"></path>
            <path d="M68.5,22.7 C68.4,23.2 68.3,23.8 68.2,24.3 C64.6,43 52.1,49.5 36.1,49.5 L28,49.5 C26.1,49.5 24.4,50.9 24.1,52.8 L20,79.2 L18.8,86.7 C18.6,87.8 19.4,88.9 20.5,89.1 C20.6,89.1 20.7,89.1 20.8,89.1 L35.2,89.1 C36.9,89.1 38.4,87.9 38.6,86.2 L38.7,85.5 L41.4,68.3 L41.6,67.4 C41.9,65.7 43.3,64.5 45,64.5 L47.2,64.5 C61.1,64.5 72.1,58.8 75.3,42.5 C76.6,35.7 75.9,29.9 72.4,25.9 C71.4,24.5 70,23.5 68.5,22.7 Z" id="Path" fill="#179BD7"></path>
            <path d="M64.7,21.2 C63.5,20.9 62.4,20.6 61.2,20.4 C58.8,20 56.4,19.9 54,19.9 L32.4,19.9 C30.7,19.9 29.2,21.1 29,22.8 L24.3,52 L24.2,52.9 C24.5,51 26.2,49.6 28.1,49.6 L36.2,49.6 C52.1,49.6 64.6,43.1 68.3,24.4 C68.4,23.8 68.5,23.3 68.6,22.8 C67.6,22.3 66.6,21.9 65.6,21.5 C65.3,21.3 65,21.3 64.7,21.2 Z" id="Path" fill="#222D65"></path>
            <path d="M28.9,22.8 C29.2,21.1 30.6,19.9 32.3,19.9 L54,19.9 C56.6,19.9 59,20.1 61.2,20.4 C62.7,20.6 64.1,21 65.6,21.4 C66.7,21.8 67.7,22.2 68.6,22.7 C69.7,15.8 68.6,11.1 64.8,6.8 C60.7,2.1 53.2,0.1 43.7,0.1 L16,0.1 C14.1,0.1 12.4,1.5 12.1,3.4 L0.6,76.4 C0.4,77.7 1.3,78.9 2.6,79.1 C2.7,79.1 2.8,79.1 3,79.1 L20,79.1 L24.3,51.9 C24.3,52 28.9,22.8 28.9,22.8 Z" id="Path" fill="#253B80"></path>
        </g>
    </g>
</svg>