<?xml version="1.0" encoding="UTF-8"?>
<svg width="484px" height="79px" viewBox="0 0 484 79" version="1.1" xmlns="http://www.w3.org/2000/svg" xmlns:xlink="http://www.w3.org/1999/xlink">
    <title>prestashop</title>
    <g id="Tests" stroke="none" stroke-width="1" fill="none" fill-rule="evenodd">
        <g id="prestashop" transform="translate(0.288136, 0.000000)">
            <g id="XMLID_323_" transform="translate(99.661017, 10.847458)" fill-rule="nonzero">
                <path d="M76.0786441,36.1464407 C76.0298305,35.8576271 76.0061017,35.3986441 76.0061017,34.7708475 C76.0061017,30.8128814 77.3213559,27.7240678 79.9525424,25.5030508 C82.5837288,23.2827119 85.4922034,22.1722034 88.6772881,22.1722034 C92.8766102,22.1722034 95.7966102,23.7654237 97.4379661,26.9518644 L76.0786441,36.1464407 Z M106.63322,30.4989831 C106.584407,25.8169492 104.823729,22.0162712 101.348475,19.0955932 C97.8725424,16.1755932 93.5030508,14.7152542 88.2427119,14.7152542 C84.9125424,14.7152542 81.7505085,15.4515254 78.7586441,16.9233898 C75.7647458,18.3966102 73.2562712,20.6888136 71.2284746,23.8027119 C69.2013559,26.9159322 68.1864407,30.5247458 68.1864407,34.6271186 C68.1864407,40.5640678 70.1416949,45.3423729 74.0515254,48.9627119 C77.9620339,52.5830508 82.6427119,54.3932203 88.0983051,54.3932203 C94.3254237,54.3932203 99.7308475,52.0284746 104.317288,47.2976271 L99.5376271,42.0115254 C96.7383051,45.3911864 93.1783051,47.080678 88.8576271,47.080678 C84.5369492,47.080678 81.1227119,45.5362712 78.6128814,42.4467797 L106.705763,30.6447458 L106.63322,30.4989831 Z" id="XMLID_341_" fill="#1F0047"></path>
                <path d="M58.8854237,17.1037288 C56.64,18.6494915 54.8657627,20.6277966 53.5633898,23.040678 L53.5633898,15.2942373 L45.4542373,15.2942373 L45.4542373,53.8128814 L53.5633898,53.8128814 L53.5633898,37.3044068 C53.5633898,32.9125424 54.5769492,29.4128814 56.6054237,26.8061017 C58.6311864,24.2 61.6481356,22.8962712 65.6555932,22.8962712 L66.0901695,22.8962712 L66.0176271,14.7138983 C63.5057627,14.7633898 61.1294915,15.56 58.8854237,17.1037288" id="XMLID_189_" fill="#1F0047"></path>
                <path d="M135.696949,34.1918644 C134.39322,33.3227119 133.174237,32.6474576 132.040678,32.1647458 C130.905763,31.6820339 129.734915,31.2481356 128.529492,30.8610169 C127.322034,30.4759322 125.934237,30.0901695 124.365424,29.7030508 C122.79661,29.3172881 121.578305,28.9064407 120.709831,28.4718644 C119.454237,27.8928814 118.827797,26.9762712 118.827797,25.7213559 C118.827797,24.3213559 119.430508,23.2718644 120.637288,22.5715254 C121.842712,21.8725424 123.412203,21.5220339 125.343051,21.5220339 C129.010169,21.5220339 132.414237,22.56 135.552542,24.6352542 L138.59322,18.6257627 C134.635254,16.019661 130.435254,14.7152542 125.995254,14.7152542 C121.553898,14.7152542 117.945763,15.7905085 115.170169,17.9383051 C112.393898,20.0861017 111.00678,22.9464407 111.00678,26.5179661 C111.00678,31.5864407 115.013559,35.2054237 123.026441,37.3776271 C123.218305,37.4264407 123.507797,37.5233898 123.894915,37.6677966 C129.010169,39.2128814 131.569492,40.9505085 131.569492,42.8813559 C131.569492,44.1844068 131.037288,45.2583051 129.976271,46.1030508 C128.914576,46.9477966 127.466441,47.3694915 125.632542,47.3694915 C121.43322,47.3694915 117.089492,45.680678 112.6,42.3010169 L108.690169,48.6 C111.00678,50.4345763 113.67322,51.8583051 116.690169,52.8718644 C119.707119,53.8854237 122.614915,54.3925424 125.414237,54.3925424 C129.566102,54.3925424 132.968814,53.2949153 135.624407,51.0983051 C138.277966,48.9016949 139.606102,45.9701695 139.606102,42.3010169 C139.606102,38.6332203 138.303051,35.9294915 135.696949,34.1918644" id="XMLID_188_" fill="#1F0047"></path>
                <path d="M28.3979661,28.5077966 C26.6833898,30.3172881 23.4616949,31.2230508 18.7322034,31.2230508 L8.81288136,31.2230508 L8.81288136,10.9491525 L17.5010169,10.9491525 C22.1349153,10.9491525 25.5376271,11.6732203 27.7098305,13.1220339 C29.8820339,14.5701695 30.9681356,17.0440678 30.9681356,20.5437288 C30.9681356,24.0440678 30.1111864,26.6969492 28.3979661,28.5077966 M34.4433898,7.61966102 C30.919322,4.6759322 25.32,3.20271186 17.6454237,3.20271186 L0.269152542,3.20271186 L0.269152542,53.8135593 L8.81288136,53.8135593 L8.81288136,38.9708475 L17.7905085,38.9708475 C25.2244068,38.9708475 30.7383051,37.5471186 34.3349153,34.6989831 C37.9294915,31.8522034 39.7288136,27.3620339 39.7288136,21.2318644 C39.7288136,15.1023729 37.9661017,10.5640678 34.4433898,7.61966102" id="XMLID_336_" fill="#1F0047"></path>
                <path d="M158.581695,47.3688136 C156.844068,47.3688136 155.492203,46.8250847 154.527458,45.739661 C153.561356,44.6535593 153.078644,43.1945763 153.078644,41.359322 L153.078644,21.8101695 L163.216271,21.8101695 L163.216271,15.2942373 L153.078644,15.2942373 L153.078644,3.20271186 L144.969492,3.20271186 L144.969492,41.1423729 C144.969492,45.1972881 146.187797,48.4189831 148.625763,50.8081356 C151.062373,53.1979661 154.00678,54.3918644 157.458305,54.3918644 C160.909153,54.3918644 164.058983,53.1138983 166.907119,50.5545763 L163.576271,44.8338983 C161.985763,46.5254237 160.32,47.3688136 158.581695,47.3688136" id="XMLID_185_" fill="#1F0047"></path>
                <path d="M195.696271,43.7125424 C193.475254,46.0542373 190.773559,47.2237288 187.587119,47.2237288 C184.402034,47.2237288 181.625085,46.0657627 179.260339,43.7491525 C176.894915,41.4311864 175.71322,38.4271186 175.71322,34.7342373 C175.71322,31.0413559 176.871864,27.9640678 179.188475,25.5023729 C181.505763,23.040678 184.28,21.8101695 187.515254,21.8101695 C190.748475,21.8101695 193.475254,23.040678 195.696271,25.5023729 C197.91661,27.9640678 199.027119,31.0305085 199.027119,34.6983051 C199.026441,38.3674576 197.915932,41.3715254 195.696271,43.7125424 M198.882034,21.9559322 C195.599322,17.1294915 191.423729,14.7145763 186.355932,14.7145763 C181.287458,14.7145763 176.894915,16.5010169 173.178983,20.0725424 C169.461017,23.6447458 167.60339,28.4244068 167.60339,34.4081356 C167.60339,40.3938983 169.413559,45.2223729 173.03322,48.8894915 C176.653559,52.5572881 180.901017,54.3918644 185.776949,54.3918644 C188.189831,54.3918644 190.591864,53.8013559 192.980339,52.6176271 C195.369492,51.4359322 197.336271,49.7349153 198.881356,47.5138983 L198.881356,53.8128814 L206.990508,53.8128814 L206.990508,15.2942373 L198.881356,15.2942373 L198.881356,21.9559322 L198.882034,21.9559322 Z" id="XMLID_332_" fill="#1F0047"></path>
                <path d="M327.194576,43.640678 C324.901695,45.9823729 321.99322,47.1518644 318.470508,47.1518644 C314.946441,47.1518644 312.037966,45.9823729 309.746441,43.640678 C307.452881,41.299661 306.307119,38.2711864 306.307119,34.5538983 C306.307119,30.8372881 307.452881,27.8088136 309.746441,25.4671186 C312.038644,23.1261017 314.946441,21.9552542 318.470508,21.9552542 C321.99322,21.9552542 324.902373,23.1261017 327.194576,25.4671186 C329.48678,27.8088136 330.633898,30.8366102 330.633898,34.5538983 C330.633898,38.2711864 329.48678,41.299661 327.194576,43.640678 M318.470508,14.7145763 C312.677966,14.7145763 307.850847,16.6338983 303.990508,20.4711864 C300.127458,24.3091525 298.197966,29.0033898 298.197966,34.5545763 C298.197966,40.1057627 300.127458,44.799322 303.990508,48.6372881 C307.851525,52.4745763 312.677966,54.3932203 318.470508,54.3932203 C324.263051,54.3932203 329.088814,52.4745763 332.951864,48.6372881 C336.812881,44.799322 338.743051,40.1057627 338.743051,34.5545763 C338.743051,29.0033898 336.812881,24.3091525 332.951864,20.4711864 C329.088814,16.6338983 324.263051,14.7145763 318.470508,14.7145763" id="XMLID_329_" fill="#E2066F"></path>
                <path d="M371.242034,43.6759322 C368.875932,45.9932203 366.101695,47.1518644 362.915254,47.1518644 C359.728814,47.1518644 357.026441,45.9823729 354.806102,43.640678 C352.585085,41.299661 351.475254,38.2949153 351.475254,34.6257627 C351.475254,30.9586441 352.585085,27.9044068 354.806102,25.4671186 C357.026441,23.0291525 359.75322,21.8101695 362.987797,21.8101695 C366.221017,21.8101695 368.997966,23.0291525 371.314576,25.4671186 C373.631864,27.9044068 374.789153,30.9694915 374.789153,34.6616949 C374.789153,38.3545763 373.60678,41.359322 371.242034,43.6759322 M377.39661,20.0725424 C373.727458,16.5010169 369.310508,14.7145763 364.145763,14.7145763 C358.980339,14.7145763 354.806102,17.1532203 351.619661,22.0284746 L351.619661,15.2949153 L343.510508,15.2949153 L343.510508,67.859661 L351.619661,67.859661 L351.619661,48.0216949 C355.482034,52.2698305 359.837966,54.3925424 364.688814,54.3925424 C369.539661,54.3925424 373.787119,52.5349153 377.431186,48.8176271 C381.075254,45.1016949 382.898983,40.2732203 382.898983,34.3362712 C382.898983,28.399322 381.063729,23.6447458 377.39661,20.0725424" id="XMLID_326_" fill="#E2066F"></path>
                <path d="M279.318644,14.7145763 C276.614915,14.7145763 274.092881,15.3918644 271.751864,16.7416949 C269.410169,18.0942373 267.661017,19.9525424 266.503051,22.3179661 L266.503051,0.162033898 L258.39322,0.162033898 L258.39322,53.8135593 L266.503051,53.8135593 L266.503051,32.960678 C266.503051,29.3884746 267.540339,26.6738983 269.616949,24.8149153 C271.690847,22.9572881 274.129492,22.0277966 276.929492,22.0277966 C282.817627,22.0277966 285.762712,25.5749153 285.762712,32.6705085 L285.762712,53.8135593 L293.872542,53.8135593 L293.872542,30.2088136 C293.872542,25.1891525 292.532881,21.3525424 289.853559,18.6969492 C287.174237,16.0433898 283.662373,14.7145763 279.318644,14.7145763" id="XMLID_178_" fill="#E2066F"></path>
                <path d="M248.696949,29.4854237 C246.065763,27.2169492 242.155932,25.4555932 236.967458,24.2 C231.778305,22.9457627 228.387797,21.7742373 226.794576,20.6881356 C225.202034,19.6027119 224.405424,18.0338983 224.405424,15.9816949 C224.405424,13.9308475 225.202034,12.3979661 226.794576,11.3850847 C228.387797,10.3708475 230.426441,9.86372881 232.91322,9.86372881 C235.398644,9.86372881 237.919322,10.2983051 240.479322,11.1674576 C243.03661,12.0359322 245.063729,13.1464407 246.561356,14.4983051 L251.121356,8.05423729 C248.804746,6.12474576 246.053559,4.62644068 242.867797,3.56542373 C239.682034,2.50372881 236.471186,1.97220339 233.238644,1.97220339 C228.217627,1.97220339 224.006102,3.24 220.60339,5.77288136 C217.200678,8.30711864 215.499661,11.9152542 215.499661,16.5972881 C215.499661,21.279322 216.995254,24.7552542 219.987797,27.0237288 C221.48339,28.2298305 223.197966,29.2081356 225.128136,29.9552542 C227.058983,30.7044068 229.882712,31.5247458 233.600678,32.4169492 C237.31661,33.3111864 239.934915,34.299661 241.455593,35.3857627 C242.976271,36.4718644 243.736949,37.9918644 243.736949,39.9471186 C243.736949,41.9023729 242.928136,43.4711864 241.310508,44.6535593 C239.692881,45.8372881 237.509153,46.4277966 234.757966,46.4277966 C229.255593,46.4277966 223.945085,44.2074576 218.829153,39.7661017 L213.471864,46.2101695 C219.601356,51.6657627 226.624407,54.3925424 234.541017,54.3925424 C239.946441,54.3925424 244.315254,53.0169492 247.646102,50.2650847 C250.976271,47.5145763 252.642034,43.9308475 252.642034,39.5132203 C252.642034,35.0955932 251.327458,31.7552542 248.696949,29.4854237" id="XMLID_177_" fill="#E2066F"></path>
            </g>
            <path d="M26.1769492,60.3884746 C26.8054237,60.1084746 27.4420339,59.8515254 28.0847458,59.6101695 C28.8101695,59.3376271 29.5416949,59.0813559 30.2827119,58.8576271 C31.2054237,58.579661 32.1355932,58.3281356 33.0786441,58.1281356 C34.3498305,57.8583051 35.6359322,57.6583051 36.9322034,57.5322034 C36.2054237,59.8176271 35.4020339,62.0901695 34.5315254,64.3477966 C34.5688136,64.7850847 34.5891525,65.2250847 34.600678,65.6657627 C36.3532203,65.32 38.1640678,65.1349153 40.0183051,65.1349153 C41.8725424,65.1349153 43.6833898,65.32 45.4359322,65.6657627 C45.4474576,65.2244068 45.4671186,64.7844068 45.5050847,64.3477966 C44.6345763,62.0901695 43.8311864,59.8176271 43.1044068,57.5322034 C44.400678,57.6583051 45.6867797,57.8576271 46.9579661,58.1281356 C47.900339,58.3281356 48.8311864,58.579661 49.7538983,58.8576271 C50.4955932,59.080678 51.2264407,59.3376271 51.9518644,59.6101695 C52.5945763,59.8515254 53.2318644,60.1091525 53.860339,60.3884746 C58.319322,62.3742373 62.3844068,65.319322 65.7179661,69.1416949 C74.0738983,61.9254237 79.3701695,51.2623729 79.3701695,39.3552542 C79.3701695,17.6223729 61.7518644,0.00406779661 40.0189831,0.00406779661 C18.2861017,0.00406779661 0.66779661,17.6223729 0.66779661,39.3552542 C0.66779661,51.2623729 5.96338983,61.9261017 14.32,69.1416949 C17.6528814,65.319322 21.7179661,62.3735593 26.1769492,60.3884746 Z" id="XMLID_176_" fill="#A0DBE8" fill-rule="nonzero"></path>
            <path d="M28.7708475,67.5077966 C30.6183051,66.6908475 32.5688136,66.0664407 34.600678,65.6657627 C34.5891525,65.2244068 34.5694915,64.7844068 34.5315254,64.3477966 C35.4020339,62.0901695 36.2054237,59.8176271 36.9322034,57.5322034 C35.6359322,57.6583051 34.3498305,57.8576271 33.0786441,58.1281356 C32.1362712,58.3281356 31.2054237,58.579661 30.2827119,58.8576271 C29.5416949,59.080678 28.8101695,59.3369492 28.0847458,59.6101695 L30.9532203,60.3050847 L28.7708475,67.5077966 Z" id="XMLID_175_" fill="#525353" fill-rule="nonzero"></path>
            <path d="M22.0081356,71.7505085 C22.08,71.0169492 22.1240678,70.2772881 22.1240678,69.5301695 C22.1240678,69.080678 22.4888136,68.7159322 22.9383051,68.7159322 L23.6535593,68.7159322 L26.1769492,60.3891525 C21.7179661,62.3749153 17.6528814,65.32 14.3186441,69.1423729 C16.1566102,70.7294915 18.1410169,72.1484746 20.2522034,73.3776271 C20.8142373,72.8101695 21.4,72.2671186 22.0081356,71.7505085 Z" id="XMLID_174_" fill="#525353" fill-rule="nonzero"></path>
            <path d="M53.859661,60.3884746 L56.3830508,68.7152542 L57.0976271,68.7152542 C57.5477966,68.7152542 57.9118644,69.08 57.9118644,69.5294915 C57.9118644,70.2772881 57.9559322,71.0169492 58.0277966,71.7498305 C58.6366102,72.2664407 59.2216949,72.8101695 59.7837288,73.3762712 C61.8949153,72.1471186 63.879322,70.7281356 65.7172881,69.1410169 C62.3837288,65.319322 58.3186441,62.3742373 53.859661,60.3884746 Z" id="XMLID_173_" fill="#525353" fill-rule="nonzero"></path>
            <path d="M49.0833898,60.3050847 L51.9511864,59.6101695 C51.2257627,59.3376271 50.4942373,59.0813559 49.7532203,58.8576271 C48.8305085,58.579661 47.900339,58.3281356 46.9572881,58.1281356 C45.6861017,57.8583051 44.4,57.6583051 43.1037288,57.5322034 C43.8305085,59.8176271 44.6338983,62.0901695 45.5044068,64.3477966 C45.4671186,64.7850847 45.4467797,65.2250847 45.4352542,65.6657627 C47.4677966,66.0664407 49.4183051,66.6908475 51.2657627,67.5077966 L49.0833898,60.3050847 Z" id="XMLID_172_" fill="#525353" fill-rule="nonzero"></path>
            <path d="M40.0183051,68.7152542 L45.5633898,68.7152542 C45.4494915,67.6935593 45.4088136,66.6752542 45.4359322,65.6657627 C43.6833898,65.32 41.8725424,65.1349153 40.0183051,65.1349153 C38.1640678,65.1349153 36.3538983,65.32 34.600678,65.6657627 C34.6271186,66.6752542 34.5864407,67.6935593 34.4732203,68.7152542 L40.0183051,68.7152542 Z" id="XMLID_171_" fill="#000000" fill-rule="nonzero"></path>
            <path d="M20.2522034,73.3769492 C20.7098305,73.6433898 21.1708475,73.9030508 21.639322,74.1511864 C21.8033898,73.3627119 21.9288136,72.5620339 22.0081356,71.7505085 C21.4,72.2671186 20.8142373,72.8101695 20.2522034,73.3769492 Z" id="XMLID_170_" fill="#000000" fill-rule="nonzero"></path>
            <path d="M28.4047458,68.7152542 L34.4732203,68.7152542 C34.5871186,67.6935593 34.6277966,66.6752542 34.600678,65.6657627 C32.5688136,66.0664407 30.6176271,66.6908475 28.7708475,67.5077966 L28.4047458,68.7152542 Z" id="XMLID_169_" fill="#000000" fill-rule="nonzero"></path>
            <path d="M58.0277966,71.7505085 C58.1071186,72.5620339 58.2325424,73.3627119 58.3966102,74.1511864 C58.8650847,73.9030508 59.3267797,73.6433898 59.7837288,73.3769492 C59.2216949,72.8101695 58.6366102,72.2671186 58.0277966,71.7505085 Z" id="XMLID_168_" fill="#000000" fill-rule="nonzero"></path>
            <path d="M51.6318644,68.7152542 L51.2657627,67.5084746 C49.4183051,66.6915254 47.4677966,66.0671186 45.4352542,65.6664407 C45.4088136,66.6759322 45.4494915,67.6942373 45.5627119,68.7159322 L51.6318644,68.7152542 L51.6318644,68.7152542 Z" id="XMLID_167_" fill="#000000" fill-rule="nonzero"></path>
            <path d="M28.4047458,68.7152542 L28.7708475,67.5077966 L30.9538983,60.3044068 L28.0854237,59.6094915 C27.4427119,59.8508475 26.8054237,60.1084746 26.1776271,60.3877966 L23.6542373,68.7145763 L26.3633898,68.7145763 L28.4047458,68.7152542 L28.4047458,68.7152542 Z" id="XMLID_166_" fill="#AA9678" fill-rule="nonzero"></path>
            <path d="M51.2664407,67.5084746 L51.6325424,68.7152542 L53.6738983,68.7152542 L56.3837288,68.7152542 L53.860339,60.3884746 C53.2318644,60.1084746 52.5945763,59.8515254 51.9518644,59.6101695 L49.0840678,60.3050847 L51.2664407,67.5084746 Z" id="XMLID_165_" fill="#AA9678" fill-rule="nonzero"></path>
            <path d="M23.7362712,70.3972881 C23.760678,70.379661 23.7857627,70.3620339 23.8108475,70.3444068 L23.739661,70.3444068 C23.7389831,70.3620339 23.7369492,70.3789831 23.7362712,70.3972881 Z" id="XMLID_164_" fill="#C0B098" fill-rule="nonzero"></path>
            <path d="M40.0183051,70.3437288 L34.2284746,70.3437288 L27.9111864,70.3437288 L23.8115254,70.3437288 C23.7864407,70.3613559 23.7613559,70.3789831 23.7369492,70.3966102 C23.6827119,71.9342373 23.4766102,73.4420339 23.1423729,74.9091525 C28.2569492,77.3410169 33.9776271,78.7064407 40.0183051,78.7064407 L40.0183051,70.3437288 Z" id="XMLID_163_" fill="#C0B098" fill-rule="nonzero"></path>
            <path d="M56.2969492,70.3437288 L56.2257627,70.3437288 C56.2508475,70.3613559 56.2759322,70.3789831 56.300339,70.3966102 C56.2989831,70.3789831 56.2969492,70.3620339 56.2969492,70.3437288 Z" id="XMLID_162_" fill="#AA9678" fill-rule="nonzero"></path>
            <path d="M56.2250847,70.3437288 L52.1261017,70.3437288 L45.8081356,70.3437288 L40.0189831,70.3437288 L40.0189831,70.3437288 L40.0189831,78.7064407 C46.059661,78.7064407 51.780339,77.3416949 56.8949153,74.9091525 C56.560678,73.4420339 56.3552542,71.9349153 56.300339,70.3966102 C56.2752542,70.3789831 56.2501695,70.3620339 56.2250847,70.3437288 Z" id="XMLID_161_" fill="#AA9678" fill-rule="nonzero"></path>
            <rect id="XMLID_160_" fill="#786453" fill-rule="nonzero" x="40.0183051" y="69.5294915" width="1" height="1"></rect>
            <path d="M58.0277966,71.7505085 C57.9559322,71.0169492 57.9118644,70.2772881 57.9118644,69.5301695 C57.9118644,69.080678 57.5471186,68.7159322 57.0976271,68.7159322 L56.3830508,68.7159322 L53.6732203,68.7159322 L51.6318644,68.7159322 L45.5633898,68.7159322 L40.0183051,68.7159322 L34.4725424,68.7159322 L28.4040678,68.7159322 L26.3627119,68.7159322 L23.6535593,68.7159322 L22.9383051,68.7159322 C22.4881356,68.7159322 22.1240678,69.080678 22.1240678,69.5301695 C22.1240678,70.2779661 22.08,71.0176271 22.0081356,71.7505085 C21.9288136,72.5620339 21.8033898,73.3627119 21.639322,74.1511864 C22.1349153,74.4135593 22.6345763,74.6684746 23.1416949,74.9098305 C23.4759322,73.4427119 23.6813559,71.9355932 23.7362712,70.3972881 C23.7369492,70.379661 23.7389831,70.3620339 23.739661,70.3444068 L23.8108475,70.3444068 L27.9105085,70.3444068 L34.2277966,70.3444068 L40.0176271,70.3444068 L40.0176271,70.3444068 L45.8067797,70.3444068 L52.1247458,70.3444068 L56.2237288,70.3444068 L56.2949153,70.3444068 C56.2955932,70.3620339 56.2976271,70.379661 56.2983051,70.3972881 C56.3525424,71.9349153 56.5586441,73.4427119 56.8928814,74.9098305 C57.400678,74.6684746 57.900339,74.4135593 58.3952542,74.1511864 C58.2325424,73.3620339 58.1071186,72.5620339 58.0277966,71.7505085 Z" id="XMLID_159_" fill="#8B7460" fill-rule="nonzero"></path>
            <g id="XMLID_195_" transform="translate(12.203390, 11.525424)">
                <path d="M41.0583051,21.8501695 L41.0583051,21.8501695 C41.059661,21.8535593 41.060339,21.8569492 41.0616949,21.859661 C41.5538983,23.2738983 42.1125424,24.7064407 42.399322,26.180339 C42.3891525,26.2827119 42.3789831,26.3884746 42.3688136,26.4976271 C42.3430508,26.6562712 42.3166102,26.7966102 42.2901695,26.9227119 C42.3315254,26.7288136 42.3715254,26.4976271 42.4115254,26.2284746 C42.1261017,24.7342373 41.5572881,23.2833898 41.0583051,21.8501695 C41.0562712,21.8535593 41.0549153,21.8569492 41.0528814,21.8610169 C41.0549153,21.8576271 41.0562712,21.8535593 41.0583051,21.8501695 L41.0583051,21.8501695 Z" id="XMLID_158_"></path>
                <path d="M52.5179661,30.7464407 C52.4962712,30.759322 52.4745763,30.7701695 52.4522034,30.7816949 C52.4745763,30.7701695 52.4962712,30.7586441 52.5179661,30.7464407 Z" id="XMLID_157_"></path>
                <path d="M52.7715254,30.5538983 C52.7430508,30.5810169 52.7152542,30.6101695 52.6854237,30.6338983 C52.7152542,30.6101695 52.7430508,30.5810169 52.7715254,30.5538983 Z" id="XMLID_156_"></path>
                <path d="M39.8745763,20.8149153 C38.9701695,20.0515254 38.0189831,19.3559322 37.0210169,18.7410169 L37.0210169,18.7410169 C38.0189831,19.3552542 38.9694915,20.0515254 39.8745763,20.8149153 Z" id="XMLID_155_"></path>
                <path d="M49.000678,30.2454237 C49.0074576,30.2535593 49.0142373,30.2623729 49.0216949,30.2705085 C49.0149153,30.2623729 49.0081356,30.2542373 49.000678,30.2454237 Z" id="XMLID_154_"></path>
                <path d="M50.6677966,32.3240678 C50.6942373,32.3579661 50.7213559,32.3911864 50.7477966,32.4250847 C50.7213559,32.3911864 50.6942373,32.3579661 50.6677966,32.3240678 Z" id="XMLID_153_"></path>
                <path d="M42.2779661,26.9783051 C42.2515254,27.0969492 42.2250847,27.2033898 42.1979661,27.2833898 C42.2250847,27.2027119 42.2515254,27.0962712 42.2779661,26.9783051 Z" id="XMLID_152_"></path>
                <path d="M38.420339,41.3328814 C37.8183051,42.3362712 37.4325424,43.2874576 37.2094915,44.179661 C37.4325424,43.2874576 37.8183051,42.3362712 38.420339,41.3328814 C38.6183051,41.0027119 38.8122034,40.6786441 39.000678,40.36 C38.8135593,40.6759322 38.6216949,40.9966102 38.4250847,41.3240678 C38.4237288,41.3274576 38.4223729,41.3301695 38.420339,41.3328814 Z" id="XMLID_151_"></path>
                <path d="M41.0623729,21.8433898 C41.0976271,21.7728814 41.1335593,21.7050847 41.1688136,21.6345763 L41.159322,21.6427119 C41.1267797,21.7077966 41.0942373,21.7762712 41.0623729,21.8433898 C41.2989831,22.0481356 41.5342373,22.2569492 41.7654237,22.4684746 C41.5342373,22.2569492 41.299661,22.0481356 41.0623729,21.8433898 Z" id="XMLID_150_"></path>
                <path d="M33.2515254,27.0088136 C33.2522034,27.0115254 33.2535593,27.0142373 33.2542373,27.0169492 C33.2535593,27.0142373 33.2522034,27.0115254 33.2515254,27.0088136 Z" id="XMLID_149_"></path>
                <path d="M35.6216949,17.940339 C35.5674576,17.9098305 35.5247458,17.8867797 35.500339,17.8745763 C35.5247458,17.8867797 35.5674576,17.9098305 35.6216949,17.940339 Z" id="XMLID_147_"></path>
                <path d="M35.8216949,18.0522034 C35.7579661,18.0162712 35.7044068,17.9864407 35.6549153,17.9586441 C35.7037288,17.9864407 35.7572881,18.0162712 35.8216949,18.0522034 Z" id="XMLID_146_"></path>
                <path d="M37.1125424,21.2230508 C37.1132203,21.3159322 37.1111864,21.4081356 37.1118644,21.5010169 C37.1111864,21.4081356 37.1138983,21.3159322 37.1125424,21.2230508 Z" id="XMLID_145_"></path>
                <path d="M33.1186441,26.6684746 C33.119322,26.6705085 33.120678,26.6725424 33.1220339,26.6752542 C33.120678,26.6725424 33.12,26.6705085 33.1186441,26.6684746 Z" id="XMLID_144_"></path>
                <path d="M52.2738983,34.4020339 C52.3227119,34.4664407 52.3722034,34.5301695 52.4210169,34.5938983 C52.3722034,34.5294915 52.3227119,34.4657627 52.2738983,34.4020339 Z" id="XMLID_143_"></path>
                <path d="M37.1077966,22.4630508 C37.099661,22.8759322 37.0854237,23.2888136 37.0644068,23.7016949 C37.0854237,23.2888136 37.099661,22.8759322 37.1077966,22.4630508 Z" id="XMLID_142_"></path>
                <path d="M33.3505085,27.3654237 C33.3511864,27.3688136 33.3518644,27.3715254 33.3525424,27.3749153 C33.3525424,27.3715254 33.3511864,27.3688136 33.3505085,27.3654237 Z" id="XMLID_141_"></path>
                <path d="M36.9484746,18.6942373 C36.8047458,18.6115254 36.4277966,18.3959322 36.0881356,18.2027119 C36.4230508,18.3932203 36.7966102,18.6074576 36.9484746,18.6942373 Z" id="XMLID_140_"></path>
                <path d="M36.0664407,18.1911864 C35.9810169,18.1430508 35.900339,18.0969492 35.8257627,18.0549153 C35.899661,18.0962712 35.9816949,18.1423729 36.0664407,18.1911864 Z" id="XMLID_139_"></path>
                <path d="M37.0115254,18.7301695 L37.0115254,18.7301695 C37.0088136,18.7288136 36.9925424,18.719322 36.9857627,18.7152542 C36.9959322,18.7220339 37.0081356,18.7288136 37.0115254,18.7301695 Z" id="XMLID_138_"></path>
                <path d="M53.5891525,28.2901695 C53.5898305,28.2589831 53.5945763,28.2298305 53.5945763,28.1986441 C53.5945763,28.1945763 53.5952542,28.1911864 53.5952542,28.1871186 C53.5952542,28.1837288 53.5945763,28.180339 53.5945763,28.1762712 C53.5945763,28.1471186 53.5898305,28.12 53.5891525,28.0908475 C53.5898305,28.1233898 53.5945763,28.1538983 53.5945763,28.1871186 C53.5952542,28.2223729 53.5898305,28.2555932 53.5891525,28.2901695 Z" id="XMLID_137_"></path>
                <path d="M47.1464407,28.0461017 C47.1844068,28.0894915 47.2210169,28.1328814 47.2589831,28.1762712 C47.2583051,28.1755932 47.2576271,28.1749153 47.2569492,28.1742373 L47.2664407,28.1742373 C47.2501695,28.1552542 47.2074576,28.1098305 47.1464407,28.0461017 L47.1464407,28.0461017 Z" id="XMLID_136_"></path>
                <path d="M41.7654237,22.4684746 C42.2894915,22.9477966 42.8013559,23.44 43.3071186,23.9383051 C42.8020339,23.439322 42.2894915,22.9477966 41.7654237,22.4684746 Z" id="XMLID_135_"></path>
                <path d="M52.0115254,25.4732203 C52.1084746,25.4732203 52.2013559,25.4935593 52.2935593,25.5220339 C52.2020339,25.4935593 52.1084746,25.4732203 52.0115254,25.4732203 Z" id="XMLID_134_"></path>
                <path d="M50.4983051,27.4284746 C50.4901695,27.4752542 50.48,27.52 50.4732203,27.5681356 C50.48,27.52 50.4901695,27.4752542 50.4983051,27.4284746 Z" id="XMLID_133_"></path>
                <path d="M52.3776271,25.5532203 C52.4420339,25.579661 52.5050847,25.6142373 52.5667797,25.6535593 C52.5050847,25.6135593 52.4420339,25.580339 52.3776271,25.5532203 Z" id="XMLID_132_"></path>
                <path d="M52.980339,26.0542373 C53.0013559,26.0827119 53.0216949,26.1118644 53.0420339,26.1416949 C53.0216949,26.1118644 53.0013559,26.0827119 52.980339,26.0542373 Z" id="XMLID_131_"></path>
                <path d="M53.56,27.6230508 C53.559322,27.6169492 53.5572881,27.6108475 53.5566102,27.6047458 C53.5552542,27.5938983 53.5525424,27.5850847 53.5511864,27.5742373 C53.5532203,27.5918644 53.5579661,27.6074576 53.560678,27.6257627 C53.56,27.6244068 53.56,27.6237288 53.56,27.6230508 Z" id="XMLID_130_"></path>
                <path d="M53.5566102,28.7715254 C53.5579661,28.7640678 53.56,28.7572881 53.560678,28.7491525 C53.560678,28.7484746 53.560678,28.7477966 53.560678,28.7471186 C53.5579661,28.7674576 53.5525424,28.7857627 53.5498305,28.8061017 C53.5518644,28.7945763 53.5552542,28.7837288 53.5566102,28.7715254 Z" id="XMLID_129_"></path>
                <path d="M50.9810169,26.1423729 C51.0013559,26.1118644 51.0223729,26.0827119 51.0433898,26.0542373 C51.0223729,26.0827119 51.0013559,26.1118644 50.9810169,26.1423729 Z" id="XMLID_128_"></path>
                <path d="M51.7294915,25.5220339 C51.8210169,25.4935593 51.9145763,25.4732203 52.0115254,25.4732203 C51.9145763,25.4732203 51.8210169,25.4935593 51.7294915,25.5220339 Z" id="XMLID_127_"></path>
                <path d="M44.740339,25.399322 C44.4983051,25.1450847 44.2515254,24.8949153 44.0061017,24.6447458 C44.2522034,24.8949153 44.4976271,25.1450847 44.740339,25.399322 Z" id="XMLID_126_"></path>
                <path d="M52.0115254,16.8691525 L52.0115254,16.8691525 C52.0115254,16.8664407 52.0115254,16.8583051 52.0115254,16.8583051 L52.0115254,20.5172881 L50.6101695,26.9355932 C50.6054237,26.9511864 50.6033898,26.9694915 50.599322,26.9850847 C50.6027119,26.9722034 50.6067797,26.960678 50.6108475,26.9484746 L50.6108475,26.9484746 L50.6108475,26.9484746 L52.0122034,20.5301695 L52.0122034,16.8711864 L52.0122034,16.8711864 L52.0115254,16.8691525 L52.0115254,16.8691525 Z" id="XMLID_125_"></path>
                <path d="M46.0508475,26.8128814 C45.9233898,26.6718644 45.7945763,26.5308475 45.6664407,26.3905085 C45.7952542,26.5308475 45.9227119,26.6718644 46.0508475,26.8128814 Z" id="XMLID_124_"></path>
                <path d="M53.4128814,26.9477966 C53.4284746,26.9986441 53.4474576,27.0461017 53.4610169,27.0989831 C53.4610169,27.0983051 53.4610169,27.0976271 53.460339,27.0969492 C53.4467797,27.0447458 53.4284746,26.9986441 53.4128814,26.9477966 L53.4128814,26.9477966 L53.4128814,26.9477966 Z" id="XMLID_123_"></path>
                <path d="M50.4277966,28.1742373 L50.4291525,28.1742373 C50.4291525,28.1484746 50.4332203,28.1247458 50.4332203,28.099661 C50.4325424,28.1254237 50.4277966,28.1484746 50.4277966,28.1742373 Z" id="XMLID_122_"></path>
                <path d="M51.4562712,25.6542373 C51.5179661,25.6149153 51.580339,25.580339 51.6454237,25.5538983 C51.5810169,25.580339 51.5179661,25.6135593 51.4562712,25.6542373 Z" id="XMLID_121_"></path>
                <path d="M51.1701695,25.8962712 C51.2352542,25.8257627 51.3023729,25.760678 51.3735593,25.7071186 C51.3023729,25.7613559 51.2345763,25.8250847 51.1701695,25.8962712 Z" id="XMLID_120_"></path>
                <path d="M53.4610169,29.2745763 C53.4610169,29.2738983 53.4610169,29.2732203 53.4616949,29.2725424 C53.4264407,29.4115254 53.3837288,29.5444068 53.3355932,29.6705085 C53.3850847,29.5430508 53.4298305,29.4101695 53.4664407,29.2691525 L53.4610169,29.2745763 L53.4610169,29.2745763 Z" id="XMLID_119_"></path>
                <path d="M5.50372881,26.9708475 C5.56135593,26.879322 5.62169492,26.7898305 5.68,26.6989831 C5.62169492,26.7898305 5.56135593,26.879322 5.50372881,26.9708475 Z" id="XMLID_118_"></path>
                <path d="M52.6494915,25.7071186 C52.720678,25.760678 52.7877966,25.8257627 52.8528814,25.8962712 C52.7884746,25.8250847 52.720678,25.7613559 52.6494915,25.7071186 Z" id="XMLID_117_"></path>
                <path d="M6.61966102,25.3315254 C6.64813559,25.2928814 6.67457627,25.2522034 6.70372881,25.2135593 C6.67525424,25.2522034 6.64813559,25.2928814 6.61966102,25.3315254 Z" id="XMLID_116_"></path>
                <path d="M33.4420339,28.1552542 L33.4433898,28.1545763 C33.4433898,28.1525424 33.4433898,28.1505085 33.4433898,28.1484746 L33.4433898,28.1484746 L33.4501695,28.1484746 L33.440678,28.1274576 C33.440678,28.1369492 33.4420339,28.1457627 33.4420339,28.1552542 Z" id="XMLID_115_"></path>
                <path d="M3.79389831,30.1064407 C3.72610169,30.2501695 3.65898305,30.3938983 3.59389831,30.5389831 C3.65898305,30.3938983 3.72610169,30.2501695 3.79389831,30.1064407 Z" id="XMLID_114_"></path>
                <path d="M2.93288136,32.1166102 C2.9240678,32.140339 2.91389831,32.1633898 2.90508475,32.1871186 C2.91389831,32.1633898 2.9240678,32.140339 2.93288136,32.1166102 Z" id="XMLID_113_"></path>
                <polygon id="XMLID_112_" points="52.9864407 17.8027119 52.9830508 17.7986441 52.9830508 17.7986441"></polygon>
                <path d="M10.7077966,20.9179661 L10.7050847,20.920678 L10.7077966,20.9179661 Z" id="XMLID_111_"></path>
                <path d="M9.16813559,22.3498305 C9.24610169,22.2718644 9.32542373,22.1959322 9.4040678,22.1186441 C9.32542373,22.1959322 9.24542373,22.2718644 9.16813559,22.3498305 Z" id="XMLID_110_"></path>
                <path d="M7.78033898,23.8664407 C7.85966102,23.7728814 7.93830508,23.6786441 8.01898305,23.5864407 C7.93830508,23.6786441 7.85966102,23.7722034 7.78033898,23.8664407 Z" id="XMLID_109_"></path>
                <path d="M53.4135593,26.9484746 L52.0115254,20.5301695 L53.4135593,26.9484746 Z" id="XMLID_108_"></path>
                <path d="M28.9755932,31.8094915 C28.9491525,31.8040678 28.9240678,31.7959322 28.8976271,31.7898305 C28.9240678,31.7959322 28.9491525,31.8040678 28.9755932,31.8094915 Z" id="XMLID_107_"></path>
                <path d="M29.3505085,31.8684746 C29.320678,31.8650847 29.2922034,31.8589831 29.2630508,31.8549153 C29.2922034,31.8583051 29.320678,31.8650847 29.3505085,31.8684746 Z" id="XMLID_106_"></path>
                <path d="M4.65694915,28.4101695 C4.56813559,28.5708475 4.48474576,28.7342373 4.39932203,28.8962712 C4.48474576,28.7342373 4.56813559,28.5708475 4.65694915,28.4101695 Z" id="XMLID_105_"></path>
                <path d="M27.9281356,31.4162712 C27.9267797,31.4155932 27.9247458,31.4142373 27.9233898,31.4135593 C27.9254237,31.4142373 27.9267797,31.4155932 27.9281356,31.4162712 Z" id="XMLID_104_"></path>
                <path d="M28.6115254,31.7132203 C28.5945763,31.7077966 28.5776271,31.700339 28.560678,31.6942373 C28.5776271,31.700339 28.5938983,31.7077966 28.6115254,31.7132203 Z" id="XMLID_103_"></path>
                <path d="M28.2610169,31.5816949 C28.2522034,31.5776271 28.2440678,31.5728814 28.2352542,31.5694915 C28.2440678,31.5735593 28.2528814,31.5776271 28.2610169,31.5816949 Z" id="XMLID_102_"></path>
                <path d="M26.3037288,29.580339 C26.3050847,29.5830508 26.3057627,29.5864407 26.3071186,29.5891525 C26.3057627,29.5864407 26.3050847,29.5830508 26.3037288,29.580339 Z" id="XMLID_101_"></path>
                <path d="M26.1288136,27.3355932 C26.1227119,27.3627119 26.1138983,27.3891525 26.1077966,27.4169492 C26.1138983,27.3898305 26.1227119,27.3633898 26.1288136,27.3355932 Z" id="XMLID_100_"></path>
                <path d="M26.5118644,26.3532203 C26.5098305,26.3572881 26.5071186,26.360678 26.5050847,26.3640678 C26.5077966,26.360678 26.5098305,26.3572881 26.5118644,26.3532203 Z" id="XMLID_99_"></path>
                <path d="M27.7416949,25.0583051 C27.7410169,25.0589831 27.740339,25.0589831 27.739661,25.0589831 C27.740339,25.0589831 27.7410169,25.0589831 27.7416949,25.0583051 Z" id="XMLID_98_"></path>
                <path d="M26.2257627,26.9938983 C26.2189831,27.0135593 26.2108475,27.0318644 26.2047458,27.0515254 C26.2108475,27.0318644 26.219661,27.0128814 26.2257627,26.9938983 Z" id="XMLID_97_"></path>
                <path d="M26.3538983,26.6671186 C26.3491525,26.6779661 26.3430508,26.6888136 26.3383051,26.699661 C26.3430508,26.6888136 26.3491525,26.6779661 26.3538983,26.6671186 Z" id="XMLID_96_"></path>
                <path d="M30.4644068,24.5457627 C30.4589831,24.5444068 30.4528814,24.5444068 30.4474576,24.5430508 C30.4528814,24.5437288 30.4583051,24.5444068 30.4644068,24.5457627 Z" id="XMLID_95_"></path>
                <path d="M31.1383051,24.7498305 C31.1349153,24.7484746 31.1315254,24.7471186 31.1274576,24.7457627 C31.1308475,24.7471186 31.1349153,24.7484746 31.1383051,24.7498305 Z" id="XMLID_94_"></path>
                <path d="M28.3620339,24.7389831 C28.3566102,24.7410169 28.3505085,24.7430508 28.3450847,24.7450847 C28.3505085,24.7430508 28.3566102,24.7416949 28.3620339,24.7389831 Z" id="XMLID_93_"></path>
                <path d="M29.0372881,24.5410169 C29.0291525,24.5423729 29.0210169,24.5430508 29.0128814,24.5444068 C29.0210169,24.5430508 29.0291525,24.5423729 29.0372881,24.5410169 Z" id="XMLID_92_"></path>
                <path d="M33.4149153,27.740339 C33.4149153,27.7423729 33.4155932,27.7437288 33.4155932,27.7457627 C33.4155932,27.7437288 33.4149153,27.7416949 33.4149153,27.740339 Z" id="XMLID_91_"></path>
                <path d="M29.7566102,16.2494915 C29.7566102,16.1918644 29.7566102,16.1376271 29.7566102,16.0888136 C29.7566102,16.1383051 29.7566102,16.1911864 29.7566102,16.2494915 Z" id="XMLID_90_"></path>
                <path d="M29.7566102,15.9918644 C29.7566102,15.9545763 29.7566102,15.920678 29.7566102,15.8949153 C29.7566102,15.920678 29.7566102,15.9525424 29.7566102,15.9918644 Z" id="XMLID_89_"></path>
                <path d="M29.7566102,15.8420339 C29.7566102,15.8284746 29.7566102,15.8210169 29.7566102,15.8210169 C29.7566102,15.8210169 29.7566102,15.8284746 29.7566102,15.8420339 Z" id="XMLID_88_"></path>
                <path d="M29.7566102,16.7450847 L29.7566102,16.6881356 L29.7566102,16.5240678 C29.7566102,16.4698305 29.7566102,16.4169492 29.7566102,16.3661017 C29.7566102,16.4861017 29.7566102,16.6149153 29.7566102,16.7450847 Z" id="XMLID_87_"></path>
                <path d="M53.0976271,30.1538983 C53.0576271,30.2183051 53.0149153,30.2759322 52.9708475,30.3328814 C53.0149153,30.2759322 53.0576271,30.2183051 53.0976271,30.1538983 Z" id="XMLID_86_"></path>
                <path d="M26.0616949,27.7057627 C26.0583051,27.7355932 26.0515254,27.7640678 26.0481356,27.7938983 C26.0515254,27.7640678 26.0583051,27.7355932 26.0616949,27.7057627 Z" id="XMLID_85_"></path>
                <path d="M26.0989831,28.8969492 C26.099661,28.9016949 26.100339,28.9064407 26.1010169,28.9118644 C26.100339,28.9071186 26.099661,28.9016949 26.0989831,28.8969492 Z" id="XMLID_84_"></path>
                <path d="M53.2942373,29.7674576 C53.2562712,29.8576271 53.2142373,29.9430508 53.1701695,30.0250847 C53.2149153,29.9437288 53.2555932,29.8583051 53.2942373,29.7674576 Z" id="XMLID_83_"></path>
                <path d="M39.0820339,51.5742373 C38.9633898,51.4379661 38.840678,51.2915254 38.7138983,51.1254237 C38.840678,51.2922034 38.9633898,51.4379661 39.0820339,51.5742373 L39.0820339,51.5742373 Z" id="XMLID_82_" fill="#525353" fill-rule="nonzero"></path>
                <path d="M39.9871186,52.4732203 C39.9871186,52.4732203 39.9898305,52.4827119 39.9952542,52.4989831 C39.9898305,52.4827119 39.9871186,52.4732203 39.9871186,52.4732203 C39.9871186,52.4732203 39.5884746,52.1572881 39.0820339,51.5742373 L39.0820339,51.5742373 C39.5877966,52.1572881 39.9871186,52.4732203 39.9871186,52.4732203 Z" id="XMLID_81_" fill="#AA9678" fill-rule="nonzero"></path>
                <circle id="XMLID_80_" fill="#FFFFFF" fill-rule="nonzero" transform="translate(52.033280, 16.903945) rotate(-4.571408) translate(-52.033280, -16.903945) " cx="52.0332801" cy="16.9039448" r="1"></circle>
                <path d="M53.5945763,28.1986441 C53.5945763,28.1945763 53.5952542,28.1911864 53.5952542,28.1871186 L53.5952542,28.1871186 C53.5952542,28.1911864 53.5945763,28.1952542 53.5945763,28.1986441 Z" id="XMLID_79_" fill="#FFFFFF" fill-rule="nonzero"></path>
                <path d="M54.0155932,19.0725424 L54.0155932,19.0725424 L54.0155932,19.0725424 C54.0088136,19.0637288 54.0020339,19.0555932 53.9959322,19.0467797 L53.9966102,19.0467797 C53.6698305,18.5925424 53.3322034,18.1783051 52.9864407,17.8020339 C52.9857627,17.800678 52.9844068,17.799322 52.9830508,17.7986441 C52.9837288,17.8 52.9850847,17.8013559 52.9864407,17.8020339 C52.9830508,17.7986441 52.980339,17.7945763 52.9776271,17.7911864 L52.9776271,17.7911864 C52.820339,17.6210169 52.6616949,17.4576271 52.5010169,17.3037288 C52.44,17.2454237 52.3776271,17.1945763 52.3166102,17.1389831 C52.2155932,17.0474576 52.1145763,16.9525424 52.0122034,16.8677966 L52.0122034,16.8698305 L52.0122034,20.5288136 L53.4135593,26.9471186 L53.4135593,26.9471186 C53.4284746,26.9972881 53.4474576,27.0433898 53.460339,27.0955932 L54.4311864,28.1837288 L54.440678,28.1728814 L55.4569492,28.1728814 C55.4583051,28.0786441 55.4637288,27.9857627 55.4637288,27.8915254 L55.4637288,27.8901695 C55.4637288,24.8630508 54.9661017,21.9538983 54.0650847,19.2291525 L54.0650847,19.2291525 C54.0481356,19.1776271 54.0332203,19.1247458 54.0155932,19.0725424 Z" id="XMLID_78_" fill="#BBBCBD" fill-rule="nonzero"></path>
                <path d="M53.5952542,28.1871186 C53.5952542,28.1837288 53.5945763,28.180339 53.5945763,28.1762712 C53.5945763,28.180339 53.5952542,28.1837288 53.5952542,28.1871186 L53.5952542,28.1871186 Z" id="XMLID_77_" fill="#BBBCBD" fill-rule="nonzero"></path>
                <path d="M53.5511864,27.5742373 C53.5525424,27.5844068 53.5552542,27.5938983 53.5566102,27.6047458 C53.5572881,27.6108475 53.559322,27.6169492 53.56,27.6230508 C53.56,27.6237288 53.56,27.6244068 53.56,27.6257627 C53.5783051,27.7762712 53.5857627,27.9328814 53.5891525,28.0915254 C53.5898305,28.120678 53.5945763,28.1477966 53.5945763,28.1769492 C53.5945763,28.180339 53.5952542,28.1837288 53.5952542,28.1877966 C53.5952542,28.1918644 53.5945763,28.1952542 53.5945763,28.199322 C53.5945763,28.2305085 53.5898305,28.259661 53.5891525,28.2908475 C53.5857627,28.4461017 53.5789831,28.6 53.560678,28.7477966 C53.560678,28.7484746 53.560678,28.7491525 53.560678,28.7498305 C53.56,28.7572881 53.5579661,28.7640678 53.5566102,28.7722034 C53.5552542,28.7844068 53.5518644,28.7952542 53.5498305,28.8067797 C53.5281356,28.9674576 53.499661,29.1240678 53.4616949,29.2725424 C53.4616949,29.2732203 53.4616949,29.2738983 53.4610169,29.2745763 L53.4610169,29.2745763 L53.4664407,29.2684746 C53.4671186,29.2657627 53.4677966,29.2637288 53.4684746,29.2610169 L53.4684746,29.2610169 L54.4311864,28.1844068 L53.460339,27.0962712 C53.460339,27.0969492 53.460339,27.0976271 53.4610169,27.0983051 C53.499661,27.2501695 53.5288136,27.4094915 53.5511864,27.5742373 Z" id="XMLID_76_" fill="#676A6A" fill-rule="nonzero"></path>
                <path d="M53.5498305,28.8067797 C53.5525424,28.7864407 53.5579661,28.7681356 53.560678,28.7477966 C53.5789831,28.6 53.5857627,28.4461017 53.5891525,28.2908475 C53.5898305,28.2555932 53.5952542,28.2230508 53.5952542,28.1877966 C53.5952542,28.1545763 53.5905085,28.1240678 53.5898305,28.0915254 C53.5864407,27.9328814 53.5789831,27.7762712 53.560678,27.6257627 C53.5586441,27.6081356 53.5538983,27.5918644 53.5511864,27.5742373 C53.5288136,27.4101695 53.499661,27.2508475 53.4610169,27.0989831 C53.4474576,27.0461017 53.4284746,26.999322 53.4128814,26.9477966 C53.32,26.64 53.1925424,26.3674576 53.0420339,26.1416949 C53.0216949,26.1118644 53.0013559,26.0820339 52.980339,26.0542373 C52.9389831,25.9986441 52.8976271,25.9444068 52.8535593,25.8962712 C52.7884746,25.8257627 52.7213559,25.760678 52.6501695,25.7071186 C52.6230508,25.6867797 52.5945763,25.6725424 52.5667797,25.6542373 C52.5057627,25.6149153 52.4427119,25.580339 52.3776271,25.5538983 C52.3498305,25.5423729 52.3220339,25.5315254 52.2935593,25.5227119 C52.2020339,25.4942373 52.1084746,25.4738983 52.0115254,25.4738983 C51.9145763,25.4738983 51.8216949,25.4942373 51.7294915,25.5227119 C51.7010169,25.5315254 51.6732203,25.5423729 51.6454237,25.5538983 C51.580339,25.580339 51.5179661,25.6149153 51.4562712,25.6542373 C51.4291525,25.6725424 51.4,25.6861017 51.3735593,25.7071186 C51.3023729,25.760678 51.2352542,25.8257627 51.1701695,25.8962712 C51.1261017,25.9444068 51.0847458,25.9986441 51.0433898,26.0542373 C51.0223729,26.0827119 51.0013559,26.1125424 50.9810169,26.1423729 C50.8305085,26.3688136 50.7030508,26.640678 50.6101695,26.9484746 C50.6061017,26.960678 50.6020339,26.9728814 50.5986441,26.9850847 C50.5579661,27.1261017 50.5254237,27.2752542 50.4983051,27.4284746 C50.4901695,27.4752542 50.479322,27.52 50.4732203,27.5681356 C50.4488136,27.7389831 50.4359322,27.9172881 50.4332203,28.099661 C50.4325424,28.1247458 50.4291525,28.1491525 50.4291525,28.1742373 L50.4352542,28.1742373 C50.4352542,29.6732203 51.1444068,30.8881356 52.0189831,30.8881356 C52.1694915,30.8881356 52.3145763,30.8488136 52.4522034,30.7810169 C52.4745763,30.7701695 52.4962712,30.7586441 52.5179661,30.7457627 C52.5755932,30.7132203 52.6311864,30.6766102 52.6854237,30.6338983 C52.7152542,30.6101695 52.7430508,30.5810169 52.7715254,30.5538983 C52.8413559,30.4888136 52.9077966,30.4149153 52.9708475,30.3328814 C53.0142373,30.2759322 53.0576271,30.2183051 53.0976271,30.1538983 C53.1233898,30.1132203 53.1464407,30.0684746 53.1701695,30.0250847 C53.2142373,29.9437288 53.2562712,29.8583051 53.2942373,29.7674576 C53.3077966,29.7349153 53.3227119,29.7037288 53.3355932,29.6698305 C53.3837288,29.5437288 53.4264407,29.4115254 53.4616949,29.2718644 C53.499661,29.1240678 53.5281356,28.9674576 53.5498305,28.8067797 Z M52.0684746,27.8257627 C51.740339,27.8257627 51.4745763,27.3701695 51.4745763,26.8081356 C51.4745763,26.2461017 51.740339,25.7905085 52.0684746,25.7905085 C52.3966102,25.7905085 52.6623729,26.2461017 52.6623729,26.8081356 C52.6623729,27.3701695 52.3966102,27.8257627 52.0684746,27.8257627 Z" id="XMLID_219_" fill="#000000" fill-rule="nonzero"></path>
                <ellipse id="XMLID_73_" fill="#FFFFFF" fill-rule="nonzero" cx="52.0684746" cy="26.8081356" rx="1" ry="1.01762712"></ellipse>
                <path d="M50.6101695,26.9484746 L50.6101695,26.9484746 C50.7030508,26.64 50.8305085,26.3681356 50.9810169,26.1423729 C51.0013559,26.1118644 51.0223729,26.0827119 51.0433898,26.0542373 C51.0840678,25.9986441 51.1261017,25.9450847 51.1701695,25.8962712 C51.2352542,25.8250847 51.3030508,25.7613559 51.3735593,25.7071186 C51.400678,25.6867797 51.4291525,25.6725424 51.4562712,25.6542373 C51.5172881,25.6142373 51.580339,25.580339 51.6454237,25.5538983 C51.6732203,25.5423729 51.7010169,25.5315254 51.7294915,25.5227119 C51.8210169,25.4942373 51.9145763,25.4738983 52.0115254,25.4738983 C52.1084746,25.4738983 52.2020339,25.4935593 52.2935593,25.5227119 C52.3220339,25.5315254 52.3498305,25.5423729 52.3776271,25.5538983 C52.4420339,25.580339 52.5050847,25.6142373 52.5667797,25.6542373 C52.5945763,25.6725424 52.6230508,25.6867797 52.6501695,25.7071186 C52.7213559,25.7613559 52.7884746,25.8250847 52.8535593,25.8962712 C52.8976271,25.9444068 52.939661,25.9986441 52.980339,26.0542373 C53.0013559,26.0827119 53.0216949,26.1118644 53.0420339,26.1416949 C53.1925424,26.3681356 53.319322,26.64 53.4128814,26.9477966 L53.4128814,26.9484746 L53.4128814,26.9484746 L52.0115254,20.5301695 L50.6101695,26.9484746 L50.6101695,26.9484746 Z" id="XMLID_72_" fill="#909393" fill-rule="nonzero"></path>
                <path d="M33.440678,28.1274576 C33.4386441,27.9986441 33.4305085,27.8711864 33.4155932,27.7450847 C33.4155932,27.7430508 33.4149153,27.7416949 33.4149153,27.739661 C33.4,27.6162712 33.379661,27.4942373 33.3532203,27.3742373 C33.3525424,27.3708475 33.3518644,27.3681356 33.3511864,27.3647458 C33.3247458,27.2461017 33.2928814,27.1301695 33.2549153,27.0162712 C33.2542373,27.0135593 33.2528814,27.0108475 33.2522034,27.0081356 C33.2142373,26.8942373 33.1708475,26.7823729 33.1227119,26.6738983 C33.1220339,26.6718644 33.120678,26.6691525 33.119322,26.6671186 C33.0705085,26.5579661 33.0162712,26.4508475 32.9572881,26.3477966 L32.9572881,26.3477966 C32.7769492,26.0325424 32.5518644,25.7457627 32.2908475,25.4969492 C31.959322,25.1810169 31.5688136,24.9254237 31.1389831,24.7484746 C31.1355932,24.7471186 31.1322034,24.7457627 31.1281356,24.7444068 C30.9159322,24.6576271 30.6942373,24.5905085 30.4644068,24.5444068 C30.4589831,24.5430508 30.4528814,24.5430508 30.4474576,24.5416949 C30.2176271,24.4969492 29.979661,24.4718644 29.7362712,24.4718644 C29.4969492,24.4718644 29.2637288,24.4962712 29.0372881,24.539661 C29.0291525,24.5410169 29.0210169,24.5416949 29.0128814,24.5430508 C28.7877966,24.5877966 28.5701695,24.6535593 28.3620339,24.7376271 C28.3566102,24.739661 28.3505085,24.7416949 28.3450847,24.7437288 C28.1335593,24.8298305 27.9315254,24.9349153 27.7416949,25.0569492 C27.7410169,25.0576271 27.740339,25.0576271 27.739661,25.0576271 C27.5477966,25.1810169 27.3681356,25.3213559 27.2027119,25.4766102 L27.1986441,25.4894915 L27.1850847,25.4928814 C26.920678,25.7437288 26.6935593,26.0332203 26.5118644,26.3518644 C26.5098305,26.3559322 26.5071186,26.359322 26.5050847,26.3627119 C26.4494915,26.460339 26.4,26.5620339 26.3532203,26.6650847 C26.3484746,26.6759322 26.3423729,26.6867797 26.3376271,26.6976271 C26.2955932,26.7932203 26.259661,26.8922034 26.2257627,26.9918644 C26.2189831,27.0115254 26.2108475,27.0298305 26.2047458,27.0494915 C26.1749153,27.1423729 26.1511864,27.2379661 26.1288136,27.3342373 C26.1227119,27.3613559 26.1138983,27.3877966 26.1077966,27.4155932 C26.0881356,27.5105085 26.0745763,27.6067797 26.0616949,27.7044068 C26.0583051,27.7342373 26.0515254,27.7627119 26.0481356,27.7925424 C26.0345763,27.919322 26.0277966,28.0488136 26.0277966,28.1789831 C26.0277966,28.4244068 26.0528814,28.6637288 26.0983051,28.8955932 C26.0989831,28.900339 26.099661,28.9050847 26.100339,28.9105085 C26.1471186,29.1416949 26.2149153,29.3654237 26.3030508,29.5789831 C26.3044068,29.5816949 26.3050847,29.5850847 26.3064407,29.5877966 C26.4847458,30.020339 26.7430508,30.4115254 27.0616949,30.7437288 C27.3138983,31.0061017 27.6040678,31.2318644 27.9227119,31.4122034 C27.9240678,31.4128814 27.9261017,31.4142373 27.9274576,31.4149153 C28.0271186,31.4705085 28.1301695,31.5213559 28.2345763,31.5681356 C28.2433898,31.5722034 28.2515254,31.5769492 28.260339,31.580339 C28.3572881,31.6230508 28.4576271,31.6589831 28.559322,31.6935593 C28.5762712,31.699661 28.5932203,31.7064407 28.6101695,31.7125424 C28.7037288,31.7423729 28.8,31.7661017 28.8969492,31.7884746 C28.9233898,31.7945763 28.9484746,31.8027119 28.9749153,31.8081356 C29.0691525,31.8277966 29.1654237,31.840678 29.2623729,31.8535593 C29.2915254,31.8576271 29.320678,31.8637288 29.3498305,31.8671186 C29.4766102,31.88 29.6047458,31.8874576 29.7349153,31.8874576 C30.2467797,31.8874576 30.7342373,31.7837288 31.1783051,31.5959322 C31.4,31.5023729 31.6108475,31.3871186 31.8081356,31.2542373 C32.2027119,30.9877966 32.5430508,30.6474576 32.8094915,30.2528814 C32.9423729,30.0555932 33.0576271,29.8447458 33.1511864,29.6230508 C33.3389831,29.179661 33.4427119,28.6915254 33.4427119,28.179661 C33.4427119,28.1708475 33.4413559,28.1627119 33.4413559,28.1538983 L33.4413559,28.1538983 C33.4420339,28.1457627 33.440678,28.1369492 33.440678,28.1274576 L33.440678,28.1274576 Z M29.7355932,27.6928814 C28.9661017,27.6928814 28.3430508,27.0691525 28.3430508,26.300339 C28.3430508,25.5308475 28.9667797,24.9077966 29.7355932,24.9077966 C30.5050847,24.9077966 31.1281361,25.5315254 31.1281361,26.300339 C31.1288136,27.0691525 30.5050847,27.6928814 29.7355932,27.6928814 Z" id="XMLID_214_" fill="#000000" fill-rule="nonzero"></path>
                <circle id="XMLID_69_" fill="#FFFFFF" fill-rule="nonzero" cx="29.7355932" cy="26.299661" r="1.39254237"></circle>
                <path d="M27.1850847,25.4949153 L27.1850847,25.4949153 L27.1986441,25.4915254 L27.2027119,25.4786441 L27.2027119,25.4786441 L29.7559322,17.6698305 C29.7559322,17.6698305 29.7559322,17.2074576 29.7559322,16.7457627 C29.7559322,16.6155932 29.7559322,16.4867797 29.7559322,16.3667797 C29.7559322,16.3267797 29.7559322,16.2874576 29.7559322,16.2501695 C29.7559322,16.1918644 29.7559322,16.1389831 29.7559322,16.0894915 C29.7559322,16.0549153 29.7559322,16.0210169 29.7559322,15.9925424 C29.7559322,15.9538983 29.7559322,15.9220339 29.7559322,15.8955932 C29.7559322,15.8738983 29.7559322,15.8549153 29.7559322,15.8427119 C29.7559322,15.8291525 29.7559322,15.8216949 29.7559322,15.8216949 C28.3342373,15.5301695 26.8718644,15.3701695 25.3749153,15.3701695 C24.8752542,15.3701695 24.379661,15.3911864 23.8874576,15.4250847 C23.8155932,15.4298305 23.7437288,15.4345763 23.6718644,15.44 C21.1084746,15.6345763 18.5850847,16.3030508 16.2481356,17.3694915 C14.2440678,18.2847458 12.3816949,19.4901695 10.7077966,20.919322 L10.7077966,20.919322 C10.7071186,20.92 10.7057627,20.9213559 10.7050847,20.9220339 C10.2555932,21.3037288 9.82508475,21.7071186 9.4040678,22.12 C9.32542373,22.1972881 9.24542373,22.2732203 9.16813559,22.3511864 C8.77220339,22.7505085 8.38915254,23.1627119 8.01898305,23.5871186 C7.93830508,23.679322 7.85966102,23.7735593 7.78033898,23.8671186 C7.40881356,24.3057627 7.04677966,24.7525424 6.70372881,25.2149153 C6.67525424,25.2535593 6.64813559,25.2942373 6.61966102,25.3328814 C6.29220339,25.7783051 5.98101695,26.2352542 5.68067797,26.700339 C5.62237288,26.7911864 5.5620339,26.880678 5.50440678,26.9722034 C5.26169492,27.3572881 5.03525424,27.7532203 4.81152542,28.1498305 L16.4230508,28.1498305 L16.4433898,28.1498305 L27.1850847,25.4949153 Z" id="XMLID_68_" fill="#BBBCBD" fill-rule="nonzero"></path>
                <path d="M37.0054237,24.6155932 C37.0291525,24.3111864 37.0488136,24.0061017 37.0644068,23.7016949 C37.0854237,23.2888136 37.099661,22.8759322 37.1077966,22.4630508 C37.1138983,22.1423729 37.1132203,21.8216949 37.1118644,21.5010169 C37.1111864,21.4081356 37.1138983,21.3159322 37.1125424,21.2230508 C37.1037288,20.3966102 37.0718644,19.5688136 37.0210169,18.7410169 L37.0210169,18.7410169 L37.0210169,18.7410169 C37.0189831,18.739661 37.0162712,18.7376271 37.0142373,18.7362712 C37.0128814,18.7342373 37.0122034,18.7322034 37.0108475,18.7301695 C37.0074576,18.7281356 36.9959322,18.7213559 36.9850847,18.7152542 C36.9749153,18.7098305 36.9667797,18.7044068 36.9477966,18.6942373 C36.7959322,18.6067797 36.4223729,18.3932203 36.0874576,18.2027119 C36.080678,18.1986441 36.0732203,18.1945763 36.0664407,18.1905085 C35.9816949,18.1423729 35.899661,18.0962712 35.8257627,18.0542373 C35.8244068,18.0535593 35.8223729,18.0522034 35.8216949,18.0515254 C35.7579661,18.0155932 35.7044068,17.9857627 35.6549153,17.9579661 C35.6447458,17.9525424 35.6311864,17.9444068 35.6223729,17.939661 C35.5681356,17.9091525 35.5254237,17.8861017 35.5010169,17.8738983 C34.9661017,17.5966102 34.420339,17.339661 33.8657627,17.1050847 C32.5430508,16.5464407 30.7613559,16.0569492 29.7572881,15.820339 L29.7572881,16.5233898 L29.7572881,16.6874576 L29.7572881,16.7444068 C29.7572881,17.2067797 29.7572881,17.6684746 29.7572881,17.6684746 L32.2881356,25.4901695 L32.2908475,25.4969492 C32.5518644,25.7457627 32.7769492,26.0325424 32.9572881,26.3477966 L32.9572881,26.3477966 C33.0162712,26.4515254 33.0705085,26.5579661 33.119322,26.6671186 C33.120678,26.6691525 33.1213559,26.6711864 33.1227119,26.6738983 C33.1715254,26.7823729 33.2142373,26.8942373 33.2522034,27.0081356 C33.2528814,27.0108475 33.2542373,27.0135593 33.2549153,27.0162712 C33.2922034,27.1301695 33.3247458,27.2461017 33.3511864,27.3647458 C33.3518644,27.3681356 33.3525424,27.3708475 33.3532203,27.3742373 C33.379661,27.4935593 33.400678,27.6155932 33.4149153,27.739661 C33.4149153,27.7416949 33.4155932,27.7430508 33.4155932,27.7450847 C33.4305085,27.8705085 33.4386441,27.9979661 33.440678,28.1274576 L33.440678,28.1274576 L33.4501695,28.1484746 L36.5491525,28.1484746 C36.7586441,27.0142373 36.9044068,25.8650847 36.9972881,24.7111864 C36.999322,24.679322 37.0027119,24.6474576 37.0054237,24.6155932 Z" id="XMLID_67_" fill="#E2DDDB" fill-rule="nonzero"></path>
                <path d="M41.0583051,21.8501695 C41.0562712,21.8535593 41.0549153,21.8576271 41.0528814,21.8610169 C41.0549153,21.8576271 41.0569492,21.8542373 41.0583051,21.8501695 L41.0583051,21.8501695 Z" id="XMLID_66_" fill="#FBB040" fill-rule="nonzero"></path>
                <path d="M33.4671186,39.2942373 C34.1701695,38.5945763 34.8338983,37.9247458 35.4671186,37.2677966 C35.8433898,36.8779661 36.2108475,36.4915254 36.5620339,36.1105085 C39.1518644,33.2989831 41.0535593,30.6677966 42.1972881,27.2833898 C42.2244068,27.2027119 42.2515254,27.0969492 42.2772881,26.9783051 C42.2813559,26.96 42.2854237,26.9423729 42.2894915,26.9233898 C42.3166102,26.7972881 42.3423729,26.6569492 42.3681356,26.4983051 C42.3783051,26.3891525 42.3891525,26.2833898 42.3986441,26.1810169 C42.1111864,24.7071186 41.5532203,23.2752542 41.0610169,21.860339 C41.0630508,21.8650847 41.0644068,21.8698305 41.0664407,21.8745763 C41.0637288,21.8718644 41.0542373,21.8630508 41.0522034,21.8610169 C40.9579661,21.7715254 40.8589831,21.6881356 40.7633898,21.6 C40.4718644,21.3315254 40.1755932,21.0691525 39.8738983,20.8149153 C38.9688136,20.0515254 38.0183051,19.3559322 37.020339,18.7410169 L37.020339,18.7410169 C37.0711864,19.5688136 37.1030508,20.3966102 37.1118644,21.2230508 C37.1132203,21.3159322 37.1105085,21.4081356 37.1111864,21.5010169 C37.1125424,21.8216949 37.1132203,22.1423729 37.1071186,22.4630508 C37.0989831,22.8759322 37.0847458,23.2888136 37.0637288,23.7016949 C37.0481356,24.0067797 37.0284746,24.3111864 37.0047458,24.6155932 C37.0020339,24.6474576 36.9986441,24.6786441 36.9966102,24.7105085 C36.9044068,25.8650847 36.7579661,27.0135593 36.5484746,28.1477966 L36.1844068,29.8691525 C35.4244068,32.9511864 33.88,35.7471186 32.6101695,38.6338983 C32.2732203,39.399322 31.9538983,40.1735593 31.6738983,40.9620339 C31.6481356,41.0345763 31.6210169,41.1105085 31.5945763,41.1850847 C31.9911864,40.7681356 32.3423729,40.4081356 32.6094915,40.1437288 C32.9010169,39.8555932 33.1871186,39.5728814 33.4671186,39.2942373 Z" id="XMLID_65_" fill="#FBB040" fill-rule="nonzero"></path>
                <path d="M27.2027119,25.4786441 L27.2027119,25.4786441 C27.3681356,25.3233898 27.5477966,25.1830508 27.739661,25.059661 C27.740339,25.0589831 27.7410169,25.0589831 27.7416949,25.0589831 C27.9315254,24.9369492 28.1335593,24.8318644 28.3450847,24.7457627 C28.3505085,24.7437288 28.3566102,24.7416949 28.3620339,24.739661 C28.5701695,24.6555932 28.7877966,24.5898305 29.0128814,24.5450847 C29.0210169,24.5437288 29.0291525,24.5430508 29.0372881,24.5416949 C29.2637288,24.4983051 29.4969492,24.4738983 29.7362712,24.4738983 C29.979661,24.4738983 30.2169492,24.4989831 30.4474576,24.5437288 C30.4535593,24.5450847 30.4589831,24.5450847 30.4644068,24.5464407 C30.6942373,24.5925424 30.9159322,24.660339 31.1281356,24.7464407 C31.1315254,24.7477966 31.1349153,24.7491525 31.1389831,24.7505085 C31.5694915,24.9274576 31.959322,25.1830508 32.2908475,25.4989831 L32.2881356,25.4922034 L29.7572881,17.6705085 L27.2027119,25.4786441 Z" id="XMLID_64_" fill="#909393" fill-rule="nonzero"></path>
                <path d="M26.3037288,29.580339 C26.2162712,29.3667797 26.1477966,29.1430508 26.1010169,28.9118644 C26.100339,28.9071186 26.099661,28.9023729 26.0989831,28.8969492 C26.0535593,28.6650847 26.0284746,28.4257627 26.0284746,28.180339 C26.0284746,28.0494915 26.0352542,27.920678 26.0488136,27.7938983 C26.0522034,27.7640678 26.0583051,27.7355932 26.0623729,27.7057627 C26.0752542,27.6088136 26.0881356,27.5118644 26.1084746,27.4169492 C26.1145763,27.3891525 26.1227119,27.3627119 26.1294915,27.3355932 C26.1518644,27.239322 26.1755932,27.1437288 26.2054237,27.0508475 C26.2115254,27.0311864 26.219661,27.0128814 26.2264407,26.9932203 C26.260339,26.8935593 26.2962712,26.7945763 26.3383051,26.6989831 C26.3430508,26.6881356 26.3491525,26.6772881 26.3538983,26.6664407 C26.400678,26.5633898 26.4501695,26.4616949 26.5057627,26.3640678 C26.5077966,26.36 26.5105085,26.3566102 26.5125424,26.3532203 C26.6942373,26.0345763 26.9213559,25.7450847 27.1857627,25.4942373 L27.1857627,25.4942373 L16.4433898,28.1477966 L16.4230508,28.1477966 L27.0630508,30.7444068 C26.7444068,30.4122034 26.4861017,30.0210169 26.3077966,29.5884746 C26.3057627,29.5864407 26.3050847,29.5830508 26.3037288,29.580339 Z" id="XMLID_63_" fill="#676A6A" fill-rule="nonzero"></path>
                <path d="M50.4732203,27.5674576 C50.48,27.519322 50.4901695,27.4745763 50.4983051,27.4277966 C50.5254237,27.2752542 50.5572881,27.1261017 50.5986441,26.9844068 C50.6033898,26.9688136 50.6054237,26.9505085 50.6094915,26.9349153 L52.0108475,20.5166102 L52.0108475,16.8569492 C50.8657627,15.9111864 49.639322,15.3938983 48.3620339,15.3938983 C46.7491525,15.3938983 45.2447458,16.2847458 44.12,17.3850847 C42.8888136,18.5891525 41.9383051,20.1044068 41.1688136,21.6332203 C41.1335593,21.7037288 41.0976271,21.7708475 41.0623729,21.8420339 C41.299661,22.0474576 41.5342373,22.2555932 41.7654237,22.4671186 C42.2894915,22.9464407 42.8020339,23.4379661 43.3071186,23.9369492 C43.5430508,24.1694915 43.7735593,24.4067797 44.0054237,24.6433898 C44.2515254,24.8935593 44.4976271,25.1437288 44.739661,25.3979661 C45.0508475,25.7254237 45.36,26.0555932 45.6657627,26.3891525 C45.7945763,26.5294915 45.9227119,26.6705085 46.0501695,26.8115254 C46.4183051,27.219661 46.7850847,27.6291525 47.1457627,28.0447458 L47.1464407,28.0454237 C47.2067797,28.1091525 47.2494915,28.1538983 47.2657627,28.1728814 L50.4264407,28.1728814 C50.4264407,28.1471186 50.4318644,28.1240678 50.4318644,28.0983051 C50.4366102,27.9166102 50.4488136,27.7383051 50.4732203,27.5674576 Z" id="XMLID_62_" fill="#E2DDDB" fill-rule="nonzero"></path>
                <path d="M41.0616949,21.859661 C41.060339,21.8562712 41.059661,21.8528814 41.0583051,21.8501695 L41.0583051,21.8501695 C41.0562712,21.8535593 41.0549153,21.8569492 41.0528814,21.8610169 C41.0549153,21.8630508 41.0644068,21.8718644 41.0671186,21.8745763 C41.0657627,21.8698305 41.0637288,21.8650847 41.0616949,21.859661 Z" id="XMLID_61_" fill="#E2DDDB" fill-rule="nonzero"></path>
                <path d="M2.90508475,32.1871186 C2.91389831,32.1633898 2.9240678,32.140339 2.93288136,32.1166102 C3.13627119,31.5844068 3.35932203,31.0589831 3.59389831,30.5389831 C3.65898305,30.3938983 3.72677966,30.2508475 3.79389831,30.1064407 C3.98576271,29.6983051 4.18847458,29.2955932 4.39864407,28.8962712 C4.4840678,28.7335593 4.56745763,28.5708475 4.65627119,28.4101695 C4.70508475,28.3213559 4.76067797,28.2366102 4.81016949,28.1477966 C5.03457627,27.7511864 5.26033898,27.3552542 5.50305085,26.9701695 C5.56067797,26.8786441 5.62101695,26.7891525 5.67932203,26.6983051 C5.97966102,26.2338983 6.29152542,25.7762712 6.61830508,25.3308475 C6.64677966,25.2922034 6.67322034,25.2515254 6.70237288,25.2128814 C7.04542373,24.7511864 7.40745763,24.3037288 7.77898305,23.8650847 C7.85830508,23.7715254 7.93694915,23.6772881 8.01762712,23.5850847 C8.38779661,23.160678 8.77016949,22.7484746 9.16677966,22.3491525 C9.24474576,22.2711864 9.3240678,22.1952542 9.40271186,22.1179661 C9.82372881,21.7050847 10.2542373,21.3023729 10.7037288,20.92 C10.7044068,20.919322 10.7057627,20.9179661 10.7064407,20.9172881 C12.4738983,14.9945763 17.8833898,10.6833898 24.2840678,10.6833898 C26.8610169,10.6833898 29.4223729,11.4257627 31.6183051,12.7688136 C33.8705085,14.1464407 35.7057627,16.1647458 36.8983051,18.5172881 C36.9044068,18.5288136 36.9105085,18.5410169 36.9159322,18.5525424 C36.9457627,18.6122034 36.979661,18.6691525 37.0094915,18.7294915 L37.0094915,18.7294915 L37.0094915,18.7294915 C37.0101695,18.7315254 37.0115254,18.7335593 37.0128814,18.7355932 C37.0149153,18.7369492 37.0176271,18.7389831 37.019661,18.740339 C38.0169492,19.3545763 38.9681356,20.0508475 39.8732203,20.8142373 C40.1749153,21.0684746 40.4711864,21.3308475 40.7627119,21.599322 C40.8583051,21.6874576 40.9572881,21.7708475 41.0515254,21.860339 C41.0535593,21.8569492 41.0549153,21.8528814 41.0569492,21.8494915 C41.0583051,21.8474576 41.059661,21.8447458 41.060339,21.8427119 C41.0928814,21.7755932 41.1247458,21.7077966 41.1579661,21.6427119 C42.059661,15.9498305 44.5708475,11.8488136 47.5328814,11.8488136 C49.7654237,11.8488136 51.7430508,14.1769492 52.9688136,17.76 L52.9810169,17.7986441 C52.9823729,17.8 52.9830508,17.8013559 52.9844068,17.8027119 C53.3301695,18.1789831 53.6677966,18.5932203 53.9945763,19.0474576 L53.9938983,19.0474576 C54.000678,19.0562712 54.0067797,19.0644068 54.0135593,19.0732203 L54.0135593,19.0725424 L54.0135593,19.0732203 C54.0311864,19.1254237 54.0461017,19.1783051 54.0630508,19.2305085 L54.0630508,19.2305085 L54.0162712,19.0440678 C50.3315254,8.13559322 40.0142373,0.282033898 27.8623729,0.282033898 C12.619661,0.282033898 0.263728814,12.6386441 0.263728814,27.880678 C0.263728814,30.8854237 0.743728814,33.7783051 1.63525424,36.4705085 C1.63661017,36.4650847 1.6379661,36.460339 1.63864407,36.4549153 C1.81423729,35.6427119 2.02372881,34.8359322 2.26847458,34.0372881 C2.46169492,33.4142373 2.67389831,32.7972881 2.90508475,32.1871186 Z" id="XMLID_60_" fill="#525353" fill-rule="nonzero"></path>
                <path d="M54.4311864,28.1850847 L53.4684746,29.2616949 L53.4684746,29.2616949 C53.4677966,29.2644068 53.4671186,29.2664407 53.4664407,29.2691525 C53.4298305,29.4101695 53.3850847,29.5430508 53.3355932,29.6705085 C53.3227119,29.7044068 53.3084746,29.7355932 53.2942373,29.7681356 C53.2555932,29.8583051 53.2149153,29.9444068 53.1701695,30.0257627 C53.1464407,30.0691525 53.1227119,30.1138983 53.0976271,30.1545763 C53.0576271,30.2189831 53.0149153,30.2766102 52.9708475,30.3335593 C52.9077966,30.4155932 52.8413559,30.4894915 52.7715254,30.5545763 C52.7430508,30.5816949 52.7152542,30.6108475 52.6854237,30.6345763 C52.6311864,30.6779661 52.5749153,30.7138983 52.5179661,30.7464407 C52.4962712,30.7586441 52.4745763,30.7708475 52.4522034,30.7816949 C52.3145763,30.8488136 52.1694915,30.8888136 52.0189831,30.8888136 C51.1444068,30.8888136 50.4352542,29.6738983 50.4352542,28.1749153 L50.4291525,28.1749153 L50.4277966,28.1749153 L47.2671186,28.1749153 L47.2576271,28.1749153 C47.2583051,28.1755932 47.2589831,28.1762712 47.259661,28.1769492 C47.8494915,28.8583051 48.4298305,29.5491525 49.0013559,30.2461017 C49.0081356,30.2542373 49.0149153,30.2630508 49.0223729,30.2711864 C49.5783051,30.9498305 50.1267797,31.6352542 50.6684746,32.3240678 C50.6949153,32.3579661 50.7220339,32.3911864 50.7484746,32.4250847 C51.2623729,33.080678 51.7708475,33.740339 52.2745763,34.4013559 C52.3233898,34.4657627 52.3728814,34.5294915 52.4216949,34.5932203 C52.9545763,35.2942373 53.4827119,35.9972881 54.0061017,36.7010169 C54.0094915,36.7057627 54.0135593,36.7111864 54.0169492,36.7159322 C54.9247458,34.0291525 55.4325424,31.159322 55.4644068,28.1742373 L55.4576271,28.1742373 L54.4413559,28.1742373 L54.4311864,28.1850847 Z" id="XMLID_59_" fill="#FFFFFF" fill-rule="nonzero"></path>
                <path d="M23.6718644,15.4386441 C23.7437288,15.4332203 23.8155932,15.4284746 23.8874576,15.4237288 C24.379661,15.3905085 24.8752542,15.3688136 25.3749153,15.3688136 C26.8711864,15.3688136 28.3335593,15.5294915 29.7559322,15.820339 C29.7559322,15.820339 29.7559322,15.8277966 29.7559322,15.8413559 C29.7559322,15.8535593 29.7559322,15.8725424 29.7559322,15.8942373 C29.7559322,15.920678 29.7559322,15.9538983 29.7559322,15.9911864 C29.7559322,16.020339 29.7559322,16.0535593 29.7559322,16.0881356 C29.7559322,16.1369492 29.7559322,16.1918644 29.7559322,16.2488136 C29.7559322,16.2861017 29.7559322,16.3254237 29.7559322,16.3654237 C29.7559322,16.4162712 29.7559322,16.4691525 29.7559322,16.5233898 L29.7559322,15.820339 C30.76,16.0569492 32.5416949,16.5464407 33.8644068,17.1050847 C34.419661,17.339661 34.9654237,17.5959322 35.499661,17.8738983 C35.5240678,17.8867797 35.5667797,17.9098305 35.6210169,17.939661 C35.6305085,17.9450847 35.6440678,17.9525424 35.6535593,17.9579661 C35.7030508,17.9857627 35.7572881,18.0155932 35.820339,18.0515254 C35.8216949,18.0522034 35.8237288,18.0535593 35.8244068,18.0542373 C35.8989831,18.0962712 35.979661,18.1423729 36.0650847,18.1905085 C36.0718644,18.1945763 36.079322,18.1986441 36.0861017,18.2027119 C36.4264407,18.3959322 36.8027119,18.6115254 36.9464407,18.6942373 C36.9647458,18.7050847 36.9735593,18.7098305 36.9837288,18.7152542 C36.9905085,18.719322 37.0074576,18.7288136 37.0094915,18.7301695 L37.0094915,18.7301695 C36.979661,18.6705085 36.9457627,18.6128814 36.9159322,18.5532203 C36.9098305,18.5416949 36.9044068,18.5294915 36.8983051,18.5179661 C35.7064407,16.1654237 33.8705085,14.1471186 31.6183051,12.7694915 C29.4223729,11.4264407 26.860339,10.6840678 24.2840678,10.6840678 C17.8833898,10.6840678 12.4738983,14.9952542 10.7064407,20.9179661 C12.380339,19.4888136 14.2420339,18.2833898 16.2467797,17.3681356 C18.5850847,16.3010169 21.1091525,15.6332203 23.6718644,15.4386441 Z" id="XMLID_58_" fill="#000000" fill-rule="nonzero"></path>
                <line x1="29.7566102" y1="16.5240678" x2="29.7566102" y2="16.6888136" id="XMLID_57_"></line>
                <path d="M44.12,17.3864407 C45.2447458,16.2861017 46.7491525,15.3952542 48.3620339,15.3952542 C49.639322,15.3952542 50.8657627,15.9125424 52.0108475,16.8583051 C52.0108475,16.8583051 52.0108475,16.8664407 52.0108475,16.8691525 L52.0108475,16.8711864 L52.0108475,16.8691525 C52.1132203,16.9532203 52.2135593,17.0481356 52.3152542,17.140339 C52.3762712,17.1959322 52.439322,17.2467797 52.499661,17.3050847 C52.660339,17.4589831 52.8189831,17.6216949 52.9762712,17.7925424 L52.9762712,17.7925424 C52.979661,17.7959322 52.9823729,17.8 52.9850847,17.8033898 C52.9844068,17.8020339 52.9830508,17.800678 52.9816949,17.8 L52.9816949,17.8 L52.9688136,17.7613559 C51.7430508,14.1783051 49.7654237,11.8501695 47.5328814,11.8501695 C44.5708475,11.8501695 42.059661,15.9511864 41.1579661,21.6440678 L41.1674576,21.6359322 C41.9383051,20.1057627 42.8894915,18.5905085 44.12,17.3864407 Z" id="XMLID_56_" fill="#000000" fill-rule="nonzero"></path>
                <path d="M17.9830508,53.6244068 C18.2352542,53.7213559 18.4915254,53.8088136 18.7471186,53.8983051 C21.6020339,54.8983051 24.6677966,55.4494915 27.8650847,55.4494915 C31.5105085,55.4494915 34.9871186,54.7362712 38.1728814,53.4522034 C38.3416949,53.3844068 38.5064407,53.3098305 38.6732203,53.2386441 C38.9437288,53.1233898 39.2122034,53.0047458 39.4779661,52.8813559 C39.7159322,52.7708475 39.9538983,52.6610169 40.1877966,52.5444068 C40.1315254,52.5511864 40.0745763,52.5620339 40.0183051,52.5688136 L40.0183051,52.5688136 C39.0277966,52.68 38.0454237,52.6867797 37.0847458,52.5491525 C31.4061017,51.7328814 30.1477966,48.9945763 30.3281356,46.1430508 C29.919322,45.9071186 29.5030508,45.6420339 29.08,45.3349153 C24.7125424,42.1667797 22.120678,38.7911864 22.120678,38.7911864 C22.120678,38.7911864 25.4894915,41.3918644 30.5220339,43.3383051 C30.6298305,43.380339 30.7308475,43.4162712 30.8372881,43.4562712 C31.0725424,42.6433898 31.3505085,41.8705085 31.5952542,41.1857627 L31.5952542,41.1857627 C31.6216949,41.1111864 31.6488136,41.0352542 31.6745763,40.9627119 C31.9545763,40.1742373 32.2738983,39.400678 32.6108475,38.6345763 C33.880678,35.7477966 35.4244068,32.9518644 36.1850847,29.8698305 L36.5491525,28.1484746 L33.4501695,28.1484746 L33.4433898,28.1484746 L33.4433898,28.1484746 C33.4433898,28.1505085 33.4433898,28.1525424 33.4433898,28.1545763 L33.4420339,28.1552542 L33.4420339,28.1552542 C33.4420339,28.1640678 33.4433898,28.1722034 33.4433898,28.1810169 C33.4433898,28.6928814 33.339661,29.180339 33.1518644,29.6244068 C33.0576271,29.8461017 32.9430508,30.0569492 32.8101695,30.2542373 C32.5437288,30.6488136 32.2033898,30.9891525 31.8088136,31.2555932 C31.6115254,31.3891525 31.400678,31.5037288 31.1789831,31.5972881 C30.7355932,31.7850847 30.2474576,31.8888136 29.7355932,31.8888136 C29.6054237,31.8888136 29.4772881,31.8820339 29.3505085,31.8684746 C29.320678,31.8650847 29.2922034,31.8589831 29.2630508,31.8549153 C29.1661017,31.8427119 29.0698305,31.8291525 28.9755932,31.8094915 C28.9491525,31.8040678 28.9240678,31.7959322 28.8976271,31.7898305 C28.800678,31.7674576 28.7044068,31.7437288 28.6108475,31.7138983 C28.5938983,31.7084746 28.5769492,31.7010169 28.56,31.6949153 C28.4589831,31.6610169 28.3579661,31.6244068 28.2610169,31.5816949 C28.2522034,31.5776271 28.2440678,31.5735593 28.2352542,31.5694915 C28.1301695,31.5227119 28.0271186,31.4725424 27.9281356,31.4162712 C27.9267797,31.4155932 27.9247458,31.4142373 27.9233898,31.4135593 C27.6040678,31.2338983 27.3138983,31.0081356 27.0623729,30.7450847 L16.4223729,28.1484746 L4.81084746,28.1484746 C4.76067797,28.2366102 4.70576271,28.3220339 4.65694915,28.4108475 C4.56813559,28.5715254 4.48474576,28.7349153 4.39932203,28.8969492 C4.18915254,29.2955932 3.98576271,29.6983051 3.79457627,30.1071186 C3.72677966,30.2508475 3.65966102,30.3945763 3.59457627,30.539661 C3.36067797,31.059661 3.13762712,31.5850847 2.93355932,32.1172881 C2.92474576,32.1410169 2.91457627,32.1640678 2.90576271,32.1877966 C2.67457627,32.7979661 2.46237288,33.4149153 2.27186441,34.0372881 C2.02779661,34.8359322 1.81762712,35.6427119 1.6420339,36.4549153 C3.47050847,42.0305085 7.02644068,46.8210169 11.6759322,50.1979661 C11.8108475,50.2962712 11.9538983,50.3837288 12.0908475,50.479322 C12.8772881,51.0291525 13.6894915,51.5430508 14.5328814,52.0101695 C15.639322,52.6223729 16.7898305,53.1661017 17.9830508,53.6244068 Z" id="XMLID_55_" fill="#FFFFFF" fill-rule="nonzero"></path>
                <path d="M37.0379661,45.0522034 C36.9959322,45.3477966 36.9667797,45.6386441 36.9586441,45.919322 C36.9423729,46.4298305 36.9776271,46.9145763 37.0522034,47.3728814 C37.1016949,47.6786441 37.1681356,47.9722034 37.2481356,48.2528814 C37.3681356,48.6745763 37.5186441,49.0684746 37.6874576,49.4325424 C37.8555932,49.7966102 38.0420339,50.1308475 38.2332203,50.4345763 C38.2969492,50.5355932 38.3613559,50.6332203 38.4257627,50.7274576 C38.5227119,50.8684746 38.619661,51.0013559 38.7152542,51.1261017 C38.8420339,51.2922034 38.9647458,51.4379661 39.0833898,51.5749153 C39.5898305,52.1572881 39.9884746,52.4738983 39.9884746,52.4738983 C39.9884746,52.4738983 39.9911864,52.4833898 39.9966102,52.499661 C40.0020339,52.5159322 40.0101695,52.540339 40.019661,52.5694915 L40.019661,52.5694915 C40.0759322,52.5633898 40.1328814,52.5525424 40.1891525,52.5450847 C41.419661,52.3911864 42.659661,52.0576271 43.8827119,51.6176271 C44.5064407,51.3932203 45.1274576,51.1498305 45.7389831,50.8711864 C45.9254237,50.7857627 46.1077966,50.6915254 46.2928814,50.6020339 C52.6149153,47.5450847 57.9084746,42.1383051 57.9084746,42.1383051 C49.9640678,46.040678 42.200678,45.8854237 37.0379661,45.0522034 Z" id="XMLID_54_" fill="#9F2255" fill-rule="nonzero"></path>
                <path d="M52.2738983,34.4020339 C51.7701695,33.740339 51.2623729,33.080678 50.7477966,32.4257627 C50.7213559,32.3918644 50.6942373,32.3586441 50.6677966,32.3247458 C50.1261017,31.6352542 49.5776271,30.9505085 49.0216949,30.2718644 C49.0149153,30.2637288 49.0081356,30.2549153 49.000678,30.2467797 C48.4284746,29.5498305 47.8488136,28.8589831 47.2589831,28.1776271 C47.2216949,28.1342373 47.1844068,28.0908475 47.1464407,28.0474576 C46.7857627,27.6325424 46.4189831,27.2223729 46.0508475,26.8142373 C45.9227119,26.6732203 45.7952542,26.5322034 45.6664407,26.3918644 C45.360678,26.0583051 45.0522034,25.7281356 44.740339,25.400678 C44.4976271,25.1464407 44.2522034,24.8962712 44.0061017,24.6461017 C43.7742373,24.4101695 43.5430508,24.1722034 43.3077966,23.939661 C42.8013559,23.4413559 42.2894915,22.9491525 41.7661017,22.4698305 C41.5342373,22.2583051 41.299661,22.0494915 41.0623729,21.8440678 C41.0610169,21.8467797 41.060339,21.8488136 41.0589831,21.8508475 C41.5579661,23.2840678 42.1267797,24.7355932 42.4115254,26.2298305 C42.4854237,26.6183051 42.5471186,26.9972881 42.5966102,27.3667797 C43.2915254,32.540339 41.6338983,35.9179661 39.000678,40.3613559 C38.8122034,40.68 38.6183051,41.0033898 38.420339,41.3342373 C37.8183051,42.3376271 37.4325424,43.2881356 37.2094915,44.1810169 C37.1349153,44.4786441 37.0786441,44.7694915 37.0379661,45.0535593 C42.200678,45.8867797 49.9640678,46.0420339 57.9071186,42.1389831 C57.9071186,42.1389831 56.3498305,39.8494915 54.0054237,36.7023729 C53.4813559,35.9986441 52.9532203,35.2955932 52.4210169,34.5945763 C52.3722034,34.5294915 52.3227119,34.4657627 52.2738983,34.4020339 Z" id="XMLID_53_" fill="#E2066F" fill-rule="nonzero"></path>
                <path d="M39.9871186,52.4732203 C39.9871186,52.4732203 39.5884746,52.1572881 39.0820339,51.5742373 C38.9633898,51.4372881 38.8413559,51.2915254 38.7138983,51.1254237 C38.6183051,51.000678 38.5213559,50.8677966 38.4244068,50.7267797 C38.36,50.6325424 38.2955932,50.5349153 38.2318644,50.4338983 C38.040678,50.1308475 37.8542373,49.7966102 37.6861017,49.4318644 C37.5179661,49.0677966 37.3674576,48.6738983 37.2467797,48.2522034 C37.1667797,47.9708475 37.100339,47.6772881 37.0508475,47.3722034 C36.9769492,46.9138983 36.9416949,46.4291525 36.9572881,45.9186441 C36.9661017,45.6379661 36.9945763,45.3471186 37.0366102,45.0515254 C37.0772881,44.7674576 37.1335593,44.4759322 37.2081356,44.1789831 C37.4311864,43.2867797 37.8169492,42.3362712 38.4189831,41.3322034 C38.4210169,41.3294915 38.4223729,41.3267797 38.4237288,41.3240678 C38.620339,40.9966102 38.8122034,40.6752542 38.999322,40.36 C41.6318644,35.9166102 43.2894915,32.5389831 42.5952542,27.3654237 C42.5457627,26.9959322 42.4840678,26.6176271 42.4101695,26.2284746 C42.3708475,26.4969492 42.3301695,26.7281356 42.2888136,26.9227119 C42.2847458,26.9416949 42.280678,26.959322 42.2766102,26.9776271 C42.2501695,27.0955932 42.2237288,27.2027119 42.1966102,27.2827119 C41.0528814,30.6671186 39.1511864,33.2983051 36.5613559,36.1098305 C36.2101695,36.4908475 35.8427119,36.8772881 35.4664407,37.2671186 C34.8332203,37.9233898 34.1694915,38.5938983 33.4664407,39.2935593 C33.1864407,39.5722034 32.900339,39.8555932 32.6094915,40.1437288 C32.3423729,40.4081356 31.9911864,40.7688136 31.5945763,41.1850847 L31.5945763,41.1850847 C31.3498305,41.8705085 31.0711864,42.6433898 30.8366102,43.4555932 C30.7308475,43.4155932 30.6298305,43.379661 30.5213559,43.3376271 C25.4894915,41.3911864 22.12,38.7905085 22.12,38.7905085 C22.12,38.7905085 24.7118644,42.1661017 29.079322,45.3342373 C29.5023729,45.6413559 29.9186441,45.9064407 30.3274576,46.1423729 C30.1471186,48.9938983 31.4054237,51.7322034 37.0840678,52.5484746 C38.0440678,52.6867797 39.0271186,52.68 40.0176271,52.5681356 C40.0074576,52.5389831 40,52.5145763 39.9945763,52.4983051 C39.9898305,52.4827119 39.9871186,52.4732203 39.9871186,52.4732203 Z" id="XMLID_52_" fill="#000000" fill-rule="nonzero"></path>
            </g>
        </g>
    </g>
</svg>