<?xml version="1.0" encoding="UTF-8"?>
<svg width="521px" height="106px" viewBox="0 0 521 106" version="1.1" xmlns="http://www.w3.org/2000/svg" xmlns:xlink="http://www.w3.org/1999/xlink">
    <title>woocommerce</title>
    <g id="Tests" stroke="none" stroke-width="1" fill="none" fill-rule="evenodd">
        <g id="woocommerce" transform="translate(0.769231, 0.583273)">
            <path d="M1.30384615,9.96923077 C3.8396223,4.01909504 9.64055597,0.119402689 16.1076923,0.0173076923 C63.8,0.0173076923 111.492308,0.0173076923 159.184615,0.0173076923 C163.364872,-0.0643081124 167.418287,1.45469088 170.515385,4.26346154 C174.02567,7.45479485 175.989457,12.0047255 175.903846,16.7480769 C175.903846,35.0307692 175.938462,53.3076923 175.903846,71.5903846 C175.869231,79.8519231 168.651923,87.225 160.390385,87.45 C143.001923,87.525 125.601923,87.45 108.207692,87.4846154 C110.544231,93.2538462 112.909615,98.9942308 115.246154,104.757692 C104.861538,99.0519231 94.6269231,93.1442308 84.2076923,87.5596154 C61.3269231,87.3576923 38.4288462,87.5596154 15.5538462,87.4442308 C7.30961538,87.2134615 0.121153846,79.8461538 0.075,71.6019231 C0.00576923077,53.7173077 0.075,35.8038462 0.0403846154,17.9019231 C-0.117790393,15.19857 0.323504086,12.4936712 1.33269231,9.98076923 L1.30384615,9.96923077 Z" id="Path" fill="#9C5C8F"></path>
            <path d="M71.25,11.3019231 C73.8923077,8.49230769 78.9057692,9.40384615 80.8557692,12.5826923 C81.9017386,14.302764 82.0144277,16.433021 81.1557692,18.2538462 C77.4807692,25.4826923 75.9634615,33.5365385 74.5326923,41.4519231 C72.8596154,51.7730769 71.4692308,62.2211538 72.0115385,72.7038462 C72.1615385,75.375 70.8576923,78.6173077 68.0019231,79.2403846 C65.2903846,79.8173077 62.8096154,78.0865385 61.1192308,76.1538462 C53.3307692,67.7769231 48.9230769,56.925 45.7442308,46.0961538 C42.5307692,52.4423077 39.3057692,58.7884615 36.1903846,65.1692308 C34.0096154,69.4903846 31.7076923,73.8980769 28.2230769,77.3307692 C26.7519231,78.7903846 24.2653846,80.1115385 22.3673077,78.6115385 C19.5115385,76.1134615 18.8076923,72.1326923 17.5961538,68.7115385 C12.9807692,52.8519231 10.3903846,36.5076923 7.71923077,20.25 C7.10769231,17.5384615 8.24423077,14.2903846 10.95,13.2057692 C13.1365385,12.3865385 15.9346154,12.2711538 17.7980769,13.8807692 C19.0961538,15.0346154 19.4538462,16.8346154 19.6961538,18.4961538 C21.5711538,31.0903846 23.8038462,43.6442308 26.8442308,55.9961538 C32.0519231,46.1192308 37.2442308,36.2326923 42.4211538,26.3365385 C43.1942308,24.8884615 44.1173077,23.4519231 45.5365385,22.5346154 C47.4346154,21.3173077 50.25,21.3807692 51.8365385,23.1115385 C53.1692308,24.5076923 53.6134615,26.4519231 53.9826923,28.3038462 C55.461327,36.5016412 57.7057762,44.5426411 60.6865385,52.3211538 C62.0019231,40.6442308 63.6115385,28.8230769 67.875,17.7980769 C68.8384615,15.5769231 69.6865385,13.2288462 71.2442308,11.3423077 L71.25,11.3019231 Z M100.534615,17.5557692 C106.142308,16.8692308 112.194231,18.7096154 116.013462,22.9961538 C119.128846,26.5211538 120.876923,31.0730769 121.465385,35.7230769 C122.453605,43.7007034 120.958824,51.7890421 117.184615,58.8865385 C115.032692,62.8903846 112.217308,66.7269231 108.248077,69.0807692 C102.432692,72.6115385 94.6326923,72.1788462 89.0134615,68.4519231 C84.525,65.3769231 82.0038462,60.1384615 80.9769231,54.9173077 C78.9115385,43.1019231 82.4423077,29.9307692 91.3903846,21.6807692 C93.9644122,19.4332137 97.1461597,17.9979143 100.534615,17.5557692 L100.534615,17.5557692 Z M101.688462,29.7115385 C98.9942308,30.6057692 97.2923077,33.075 95.8442308,35.3711538 C92.2153846,41.2153846 91.1653846,48.9230769 94.0846154,55.2807692 C94.8519231,56.9538462 96.0865385,58.7423077 98.0307692,59.0653846 C100.096154,59.4057692 102.017308,58.2230769 103.523077,56.9365385 C106.840385,54.0923077 108.490385,49.8173077 109.292308,45.6230769 C110.192308,40.8461538 109.730769,35.5557692 106.926923,31.4653846 C105.755666,29.793478 103.625226,29.0895882 101.688462,29.7346154 L101.688462,29.7115385 Z M145.534615,17.5673077 C151.015385,16.8865385 156.963462,18.5769231 160.8,22.6673077 C164.261538,26.3711538 166.090385,31.3211538 166.615385,36.3057692 C167.456042,44.0141093 165.983961,51.798264 162.386538,58.6673077 C160.205769,62.7807692 157.326923,66.7442308 153.242308,69.1326923 C147.657692,72.4788462 140.284615,72.1730769 134.751923,68.8730769 C131.013462,66.6230769 128.526923,62.7807692 127.096154,58.7423077 C123.173077,46.3903846 126.484615,31.8576923 135.525,22.5346154 C138.23641,19.8397316 141.748616,18.0967866 145.534615,17.5673077 L145.534615,17.5673077 Z M146.723077,29.7288462 C143.780769,30.7788462 142.015385,33.5884615 140.486538,36.1384615 C137.175,41.9769231 136.361538,49.4942308 139.332692,55.6269231 C140.140385,57.3230769 141.571154,59.0307692 143.596154,59.1230769 C145.8,59.2038462 147.698077,57.8076923 149.226923,56.3653846 C152.555769,53.0826923 154.078846,48.3923077 154.609615,43.8403846 C155.157692,39.5769231 154.448077,34.9961538 151.967308,31.4192308 C150.781132,29.7494104 148.636346,29.0611055 146.7,29.7288462 L146.723077,29.7288462 Z" id="Shape" fill="#FFFFFF"></path>
            <path d="M205.534615,19.1884615 C210.346655,18.1713929 215.32477,18.2383984 220.107692,19.3846154 C220.107692,23.2788462 220.107692,27.1730769 220.107692,31.0673077 C216.201923,30.1269231 211.834615,29.2442308 208.044231,31.0673077 C203.515385,33.2826923 201.040385,38.3884615 200.994231,43.2923077 C200.740385,48.1788462 202.367308,53.6192308 206.694231,56.3653846 C210.669231,58.9961538 215.746154,58.4365385 220.107692,57.1846154 C220.107692,61.0788462 220.107692,64.9730769 220.107692,68.8673077 C214.289189,70.5468819 208.086611,70.3265883 202.401923,68.2384615 C195.56543,65.5986494 190.325958,59.9569599 188.198077,52.9442308 C186.624923,47.6539237 186.453948,42.0455418 187.701923,36.6692308 C189.916773,27.9690579 196.792704,21.2265975 205.534615,19.1826923 L205.534615,19.1884615 Z M240.680769,18.6115385 C246.565385,17.9538462 252.963462,18.8596154 257.723077,22.65 C262.309615,26.2096154 264.594231,31.95 265.390385,37.5576923 C266.198077,43.6961538 266.019231,50.0826923 264.121154,56.0192308 C262.511538,61.0557692 259.130769,65.7115385 254.261538,68.0019231 C249.392308,70.2923077 243.542308,70.4884615 238.275,69.3 C233.352723,68.1683135 229.138435,65.0081217 226.673077,60.6 C223.321154,54.7096154 222.709615,47.7173077 222.969231,41.0711538 C223.246154,35.3365385 224.7,29.3596154 228.548077,24.9173077 C231.642937,21.3578126 235.972485,19.1043861 240.663462,18.6115385 L240.680769,18.6115385 Z M242.492308,29.7807692 C239.965385,30.4211538 238.534615,32.9134615 237.876923,35.2615385 C236.625,39.9057692 236.838462,44.7923077 237.155769,49.5461538 C237.461538,52.1134615 237.732692,54.9519231 239.567308,56.9538462 C241.996154,59.7173077 246.876923,59.3423077 249.109615,56.5153846 C250.586538,54.7038462 250.967308,52.3153846 251.307692,50.0769231 C251.849645,46.0720979 251.849645,42.0125175 251.307692,38.0076923 C250.880769,35.6134615 250.217308,33.0865385 248.457692,31.2980769 C246.874087,29.7748152 244.605228,29.1982839 242.486538,29.7807692 L242.492308,29.7807692 Z M473.261538,19.3961538 C478.251923,18.0865385 483.548077,18.2769231 488.573077,19.35 C488.688462,23.2557692 488.573077,27.1673077 488.625,31.0730769 C484.8,30.1557692 480.576923,29.2961538 476.832692,30.9461538 C472.534615,32.9076923 469.909615,37.5230769 469.586538,42.1326923 C469.061538,47.325 470.480769,53.2442308 475.038462,56.2673077 C479.030769,59.0134615 484.205769,58.4769231 488.625,57.1961538 C488.573077,61.1192308 488.740385,65.0480769 488.532692,68.9653846 C482.382692,70.5634615 475.684615,70.35 469.823077,67.8115385 C463.329092,64.9179877 458.464075,59.2787979 456.553846,52.4307692 C455.100445,47.2045626 455.007106,41.6935812 456.282692,36.4211538 C458.498956,28.1221818 464.972865,21.6350788 473.267308,19.4019231 L473.261538,19.3961538 Z M273.132692,19.7826923 C278.694231,19.7826923 284.259615,19.7826923 289.828846,19.7826923 C291.842308,28.8057692 293.757692,37.8576923 295.430769,46.95 C297.028846,37.8173077 299.163462,28.7942308 301.315385,19.7826923 C307.026923,19.7826923 312.734615,19.7826923 318.438462,19.7826923 C320.661538,36.1134615 322.867308,52.4461538 325.055769,68.7807692 C320.686538,68.7807692 316.321154,68.7807692 311.959615,68.7807692 C310.748077,57.5942308 309.651923,46.3961538 308.394231,35.2153846 C305.751923,46.4192308 302.953846,57.5884615 300.253846,68.7807692 C297.282692,68.7807692 294.294231,68.7807692 291.317308,68.7807692 C288.467308,57.5769231 285.657692,46.3557692 282.773077,35.1576923 C281.646154,46.3692308 280.523077,57.5788462 279.403846,68.7865385 C275.226923,68.7865385 271.05,68.7865385 266.878846,68.7865385 C268.955769,52.4557692 271.040385,36.125 273.132692,19.7942308 L273.132692,19.7826923 Z M333.023077,19.7826923 C338.590385,19.7826923 344.151923,19.7826923 349.725,19.7826923 C351.738462,28.7942308 353.630769,37.8288462 355.315385,46.8980769 C356.930769,37.7826923 359.048077,28.7653846 361.205769,19.7826923 L378.259615,19.7826923 C380.471154,36.1134615 382.675,52.4461538 384.871154,68.7807692 C380.509615,68.7807692 376.148077,68.7807692 371.786538,68.7807692 C370.580769,57.5884615 369.444231,46.3961538 368.25,35.2038462 C365.532692,46.3903846 362.855769,57.5884615 360.132692,68.775 C357.161538,68.775 354.184615,68.775 351.213462,68.775 C348.363462,57.5596154 345.515385,46.3403846 342.669231,35.1173077 C341.515385,46.3326923 340.388462,57.55 339.288462,68.7692308 C335.115385,68.7692308 330.940385,68.7692308 326.763462,68.7692308 C328.851923,52.4384615 330.936538,36.1057692 333.017308,19.7711538 L333.023077,19.7826923 Z M388.603846,19.9442308 C397.534615,19.7423077 406.488462,19.9153846 415.425,19.8576923 C415.425,23.3192308 415.425,26.8096154 415.425,30.2884615 C410.913462,30.3403846 406.401923,30.2884615 401.890385,30.3173077 C401.890385,33.3057692 401.890385,36.2942308 401.890385,39.2826923 C405.801923,39.2826923 409.701923,39.2826923 413.607692,39.2826923 C413.607692,42.6711538 413.607692,46.0538462 413.607692,49.4307692 C409.701923,49.4307692 405.796154,49.4307692 401.890385,49.4307692 C401.890385,52.4192308 401.890385,55.4096154 401.890385,58.4019231 C406.419231,58.4019231 410.953846,58.4019231 415.482692,58.4019231 C415.482692,61.8634615 415.482692,65.3423077 415.482692,68.8384615 C406.540385,68.8384615 397.6,68.8384615 388.661538,68.8384615 C388.609615,52.5346154 388.759615,36.225 388.580769,19.9269231 L388.603846,19.9442308 Z M419.290385,19.7826923 C424.892308,19.7826923 430.482692,19.7365385 436.078846,19.8173077 C441.357692,19.9846154 446.942308,21.3 450.876923,25.0096154 C454.430769,28.3153846 455.659615,33.7096154 454.280769,38.3076923 C453.130934,42.0397723 450.438916,45.1013649 446.884615,46.7192308 C450.392308,54.0769231 453.905769,61.4230769 457.425,68.7576923 L443.463462,68.7576923 C439.811538,61.2576923 436.275,53.6942308 432.576923,46.2173077 C432.484615,53.7173077 432.576923,61.2173077 432.536538,68.7519231 C428.117308,68.7519231 423.694231,68.7519231 419.267308,68.7519231 C419.267308,52.4211538 419.267308,36.0884615 419.267308,19.7538462 L419.290385,19.7826923 Z M432.473077,29.2038462 C432.473077,33.1 432.473077,36.9980769 432.473077,40.8980769 C434.867308,40.7307692 437.469231,40.6384615 439.505769,39.1673077 C441.848077,37.4769231 441.594231,33.8596154 440.117308,31.6673077 C438.294231,29.4288462 435.109615,29.3596154 432.473077,29.1692308 L432.473077,29.2038462 Z M492.334615,19.7942308 C501.259615,19.7942308 510.184615,19.7942308 519.109615,19.7942308 C519.109615,23.2788462 519.109615,26.7634615 519.109615,30.2480769 L505.523077,30.2480769 C505.523077,33.2326923 505.523077,36.2173077 505.523077,39.2019231 C509.428846,39.2019231 513.334615,39.2019231 517.240385,39.2019231 C517.240385,42.5884615 517.240385,45.9807692 517.240385,49.3673077 L505.534615,49.3673077 C505.534615,52.3557692 505.534615,55.3442308 505.534615,58.3384615 C510.080769,58.3384615 514.626923,58.3384615 519.178846,58.3384615 C519.178846,61.8 519.178846,65.2807692 519.178846,68.7807692 L492.363462,68.7807692 C492.363462,52.4538462 492.363462,36.125 492.363462,19.7942308 L492.334615,19.7942308 Z" id="Shape" fill="#000000" fill-rule="nonzero"></path>
        </g>
    </g>
</svg>