<?xml version="1.0" encoding="UTF-8"?>
<svg width="208px" height="208px" viewBox="0 0 208 208" version="1.1" xmlns="http://www.w3.org/2000/svg" xmlns:xlink="http://www.w3.org/1999/xlink">
    <title>xero</title>
    <g id="Tests" stroke="none" stroke-width="1" fill="none" fill-rule="evenodd">
        <path d="M104.089898,0.396874479 C161.358078,0.396874479 207.782574,46.8213707 207.782574,104.089903 C207.782574,161.357729 161.358078,207.782578 104.089898,207.782578 C46.8217189,207.782578 0.39686997,161.357729 0.39686997,104.089903 C0.39686997,46.8213707 46.8217189,0.396874479 104.089898,0.396874479 Z M160.991541,81.1455894 C148.171597,81.1455894 137.741722,91.574053 137.741722,104.391881 C137.741722,117.211472 148.171597,127.642758 160.991541,127.642758 C173.811133,127.642758 184.246299,117.211472 184.246299,104.391881 C184.246299,91.574053 173.811133,81.1455894 160.991541,81.1455894 Z M104.034512,84.6627477 C96.1513401,79.6578894 85.7415736,79.93482 78.1272183,85.349606 C71.9162128,89.7681476 68.3309324,96.9962113 68.3309324,104.441939 C68.3309324,106.308839 68.5560046,108.193378 69.0244935,110.048283 C71.3697601,119.274127 79.3009099,126.258069 88.7567652,127.415533 C91.5627596,127.755258 94.2939651,127.592627 97.1221845,126.860261 C99.5524706,126.269005 101.904087,125.283344 104.070848,123.894811 C106.319807,122.449127 108.198701,120.542716 110.018329,118.260597 C110.055018,118.218616 110.092059,118.181575 110.128748,118.137477 C111.391693,116.571144 111.157448,114.343705 109.76962,113.280433 C108.599104,112.383319 106.634132,112.019605 105.087907,113.999747 C104.75559,114.473175 104.38482,114.960361 103.976657,115.447547 C102.747226,116.806094 101.221815,118.122308 99.3940733,119.143247 C97.0682095,120.38573 94.4177901,121.095872 91.6001541,121.111747 C82.3778376,121.009089 77.4428294,114.5716 75.6874072,109.976669 C75.3808433,109.118714 75.1444822,108.228655 74.979735,107.312139 C74.9582155,107.140689 74.9423405,106.975236 74.9359905,106.822836 L74.9359905,106.822836 L78.1500398,106.822429 L84.2167899,106.821488 L84.2167899,106.821488 L84.658946,106.821417 L90.2692305,106.820507 L90.2692305,106.820507 L90.7511163,106.820428 L96.4702616,106.819484 L96.4702616,106.819484 L96.9305613,106.819407 L102.400175,106.818493 L102.400175,106.818493 L102.768656,106.818432 L108.030779,106.817544 L108.295241,106.808377 C112.662417,106.596529 114.996556,103.44797 114.33527,99.8575918 C112.968962,93.3887058 109.427426,88.075167 104.034512,84.6627477 Z M65.470963,81.2553033 C64.6084213,81.2553033 63.8002075,81.6003199 63.1736741,82.2480199 L63.1736741,82.2480199 L45.5093856,99.8911417 L27.7777166,82.1834616 C27.1797583,81.5851505 26.3838916,81.2574199 25.5393416,81.2574199 C23.7916806,81.2574199 22.3689278,82.6766449 22.3689278,84.4260698 C22.3689278,85.2826143 22.7079473,86.0844781 23.3295417,86.6965476 L23.3295417,86.6965476 L41.0139385,104.414106 L23.3203695,122.105205 C22.7093584,122.708102 22.3689278,123.508202 22.3689278,124.360866 C22.3689278,126.10888 23.7916806,127.529163 25.5393416,127.529163 C26.3824805,127.529163 27.1776416,127.203197 27.7777166,126.611588 L27.7777166,126.611588 L45.5369023,108.913433 L47.4137684,110.789228 C47.4906851,110.866101 47.5695157,110.944887 47.6501736,111.025499 L48.7002307,112.074966 L50.2087864,113.582681 L50.2087864,113.582681 L50.4772411,113.850988 L51.5886796,114.961816 L51.5886796,114.961816 L52.9418269,116.314229 L52.9418269,116.314229 L53.6321948,117.004226 L55.1204546,118.491699 L55.1204546,118.491699 L56.2993392,119.669974 L56.8782537,120.248594 L56.8782537,120.248594 L57.6338132,121.003775 L57.6338132,121.003775 L58.002991,121.372771 L59.0675575,122.436826 C59.2817371,122.650905 59.4907455,122.859817 59.6937991,123.062778 L60.2843122,123.653028 L60.9391462,124.307586 L60.9391462,124.307586 L63.0556662,126.423543 C63.0978306,126.465718 63.1320716,126.499975 63.1579879,126.525914 L63.2170658,126.58513 C63.8196102,127.195083 64.6186519,127.529163 65.470963,127.529163 C67.2207407,127.529163 68.6431407,126.108174 68.6431407,124.358397 C68.6431407,123.518786 68.3157629,122.727152 67.7290935,122.129194 L67.7290935,122.129194 L50.033055,104.389411 L67.7192157,86.6612698 C68.3143518,86.0633115 68.6413768,85.2702671 68.6413768,84.4260698 C68.6413768,82.6766449 67.2189768,81.2553033 65.470963,81.2553033 Z M135.115998,81.5371727 C132.187589,81.5371727 129.36325,82.4607449 127.004226,84.2786087 C126.693428,82.8562088 125.422017,81.785881 123.907542,81.785881 C122.164467,81.785881 120.76782,83.1825282 120.763587,84.9291309 L120.763587,84.9291309 L120.763883,86.0271073 L120.763883,86.0271073 L120.763943,86.2479988 L120.764898,89.7835548 L120.764898,89.7835548 L120.765009,90.1932772 L120.765873,93.3901311 L120.765873,93.3901311 L120.766861,97.0472816 C120.766911,97.2298334 120.76696,97.4134027 120.76701,97.5979112 L120.767852,100.714513 L120.767852,100.714513 L120.76793,101.003592 L120.768878,104.510678 L120.768878,104.510678 L120.769826,108.017696 C120.769879,108.210649 120.769931,108.403132 120.769982,108.595067 L120.769982,108.595067 L120.770896,111.973753 L120.770896,111.973753 L120.771043,112.518226 L120.771884,115.630464 L120.771884,115.630464 L120.772859,119.236309 C120.772895,119.370681 120.772931,119.502861 120.772966,119.63277 L120.772966,119.63277 L120.773874,122.991202 L120.773874,122.991202 L120.77417,124.087463 L120.779656,124.266609 C120.877211,125.926938 122.260946,127.247999 123.944937,127.247999 C125.688717,127.247999 127.110412,125.830891 127.114998,124.083583 L127.114998,124.083583 L127.115907,108.558933 L127.115907,108.558933 L127.116409,100.006147 C127.116409,91.9811586 127.850187,88.7401892 134.724414,87.8811753 C135.178238,87.8247309 135.660499,87.8149035 135.900059,87.8138956 L136.053681,87.8145003 C137.934692,87.749942 139.271367,86.4573642 139.271367,84.7104087 C139.271367,82.9623949 137.844381,81.5399949 136.091428,81.5399949 L136.091428,81.5399949 Z M160.991541,87.7107837 C170.188458,87.7107837 177.674755,95.1935529 177.674755,104.391881 C177.674755,113.592325 170.188458,121.078269 160.991541,121.078269 C151.790039,121.078269 144.305506,113.592325 144.305506,104.391881 C144.305506,95.1935529 151.790039,87.7107837 160.991541,87.7107837 Z M160.997539,98.6331362 C157.816541,98.6331362 155.23315,101.217586 155.23315,104.394703 C155.23315,107.572525 157.816541,110.156622 160.997539,110.156622 C164.171127,110.156622 166.755577,107.572525 166.755577,104.394703 C166.755577,101.217586 164.171127,98.6331362 160.997539,98.6331362 Z M91.5017291,87.5283615 C99.4452261,87.5283615 106.095793,93.045453 107.842395,100.456256 L107.842395,100.456256 L75.2111572,100.456256 L75.2150378,100.324008 L75.2150378,100.324008 L75.2220933,100.189908 C77.0628877,92.9131614 83.6531292,87.5283615 91.5017291,87.5283615 Z" id="xero" fill="#1AB4D7" fill-rule="nonzero"></path>
    </g>
</svg>