<svg xmlns="http://www.w3.org/2000/svg" width="166.255" height="61.799" viewBox="0 0 166.255 61.799">
  <g id="ritmo-logo" transform="translate(-430.942 -380.849)">
    <path id="Trazado_1" data-name="Trazado 1" d="M565.285,438.674a4.215,4.215,0,0,0,8.43,0l0-.807V407.543a11.3,11.3,0,0,0-17.942-9.17l-.466.327-.465-.327a11.477,11.477,0,0,0-6.611-2.162A11.344,11.344,0,0,0,536.9,407.543v7.419a10.007,10.007,0,0,1-20.013-.051V404.94h9.237V396.5h-9.237V381.755h-8.362v33.156a18.405,18.405,0,0,0,36.811.077v-7.445a2.857,2.857,0,0,1,5.714-.074l.01,7.334a4.216,4.216,0,0,0,8.429.153v-7.487a2.861,2.861,0,0,1,2.894-2.82,2.9,2.9,0,0,1,2.894,2.894v30.7Z" transform="translate(-19.67 -0.23)" fill="#2793FF"/>
    <path id="Trazado_2" data-name="Trazado 2" d="M449.35,400.6a18.428,18.428,0,0,0-18.408,18.408V437.42h8.437V419.013a9.97,9.97,0,0,1,19.908-.809h8.452A18.432,18.432,0,0,0,449.35,400.6Z" transform="translate(0 -5.008)" fill="#2793FF"/>
    <path id="Trazado_3" data-name="Trazado 3" d="M492.925,380.849a4.219,4.219,0,1,0,4.256,4.182A4.186,4.186,0,0,0,492.925,380.849Z" transform="translate(-14.654)" fill="#2793FF"/>
    <rect id="Rectángulo_7" data-name="Rectángulo 7" width="8.437" height="36.815" transform="translate(474.09 395.597)" fill="#2793FF"/>
    <g id="Grupo_1" data-name="Grupo 1" transform="translate(560.382 396.318)">
      <path id="Trazado_4" data-name="Trazado 4" d="M646.073,412.8a3.882,3.882,0,1,0-3.916,3.847A3.875,3.875,0,0,0,646.073,412.8Z" transform="translate(-612.953 -403.424)" fill="#2793FF"/>
      <path id="Trazado_5" data-name="Trazado 5" d="M639.054,411.451a5.514,5.514,0,0,1-5.508,4.959,5.445,5.445,0,0,1-1.584-.236,10.018,10.018,0,1,1-3.84-4.58,5.5,5.5,0,0,1,5.424-6.185c.156,0,.309.01.462.022a18.408,18.408,0,1,0,5.046,6.02Z" transform="translate(-604.342 -401.571)" fill="#2793FF"/>
    </g>
    <path id="Trazado_6" data-name="Trazado 6" d="M642.157,408.879a3.883,3.883,0,1,0,3.916,3.918A3.842,3.842,0,0,0,642.157,408.879Z" transform="translate(-52.571 -7.106)" fill="#e9a759"/>
  </g>
</svg>
