<?xml version="1.0" encoding="utf-8"?>
<!DOCTYPE svg PUBLIC "-//W3C//DTD SVG 1.1//EN" "http://www.w3.org/Graphics/SVG/1.1/DTD/svg11.dtd">
<svg xmlns="http://www.w3.org/2000/svg" xmlns:xlink="http://www.w3.org/1999/xlink" version="1.1" baseProfile="full" width="36.7605" height="36.6653" viewBox="0 0 36.76 36.67" enable-background="new 0 0 36.76 36.67" xml:space="preserve">
	<g>
		<path fill="#000000" fill-opacity="1" stroke-linejoin="round" d="M 33.1781,9.32915C 33.1781,5.88207 29.0095,4.11845 26.5244,6.52339C 24.1195,8.92833 25.803,13.177 29.25,13.177C 31.4145,13.177 33.1781,11.4936 33.1781,9.32915 Z "/>
		<path fill="#000000" fill-opacity="1" stroke-linejoin="round" d="M 34.7814,9.81014C 34.4607,12.6961 32.136,14.7803 29.25,14.7803C 28.6889,14.7803 28.2079,14.7002 27.6467,14.5398C 29.5707,19.1092 27.8872,24.4001 23.6385,27.0455C 19.3898,29.6108 13.9386,28.6488 10.732,24.8811C 3.35689,16.063 14.0989,3.79779 23.7989,9.97047C 23.398,6.68372 25.9633,3.79779 29.25,3.79779C 29.4104,3.79779 29.5707,3.79779 29.731,3.79779C 22.2757,-1.97405 11.694,-1.17241 5.12051,5.64158C -1.37282,12.3754 -1.77364,23.0373 4.31886,30.2521C 10.3312,37.4669 20.9129,38.99 28.6889,33.6992C 36.545,28.4885 39.1103,18.1472 34.7814,9.81014 Z "/>
		<path fill="#E9A759" fill-opacity="1" stroke-linejoin="round" d="M 29.25,5.40109C 25.803,5.40109 24.1195,9.56964 26.5244,12.0547C 29.0095,14.4597 33.1781,12.7762 33.1781,9.32915C 33.2583,7.16471 31.4145,5.32092 29.25,5.40109 Z "/>
	</g>
</svg>
