<?xml version="1.0" encoding="UTF-8"?>
<svg width="13px" height="12px" viewBox="0 0 13 12" version="1.1" xmlns="http://www.w3.org/2000/svg">
    <defs>
        <linearGradient x1="100%" y1="100%" x2="5.43323864%" y2="-5.3109976%" id="linearGradient-1">
            <stop stop-color="#A5CF5A" offset="0%"></stop>
            <stop stop-color="#429321" offset="100%"></stop>
        </linearGradient>
    </defs>
    <path d="M6.46197377,0.734292377 C6.9790178,0.734292377 7.39816481,1.15343938 7.39816481,1.67048341 L7.39816481,5.41524753 L11.1429289,5.41524753 C11.659973,5.41524753 12.07912,5.83439454 12.07912,6.35143857 C12.07912,6.8684826 11.659973,7.2876296 11.1429289,7.2876296 L7.39816481,7.2876296 L7.39816481,11.0323937 C7.39816481,11.5494378 6.9790178,11.9685848 6.46197377,11.9685848 C5.94492975,11.9685848 5.52578274,11.5494378 5.52578274,11.0323937 L5.52578274,7.2876296 L1.78101862,7.2876296 C1.26397459,7.2876296 0.844827586,6.8684826 0.844827586,6.35143857 C0.844827586,5.83439454 1.26397459,5.41524753 1.78101862,5.41524753 L5.52578274,5.41524753 L5.52578274,1.67048341 C5.52578274,1.15343938 5.94492975,0.734292377 6.46197377,0.734292377 Z" fill="url(#linearGradient-1)"></path>
</svg>