<?xml version="1.0" encoding="UTF-8"?>
<svg width="17px" height="17px" viewBox="0 0 17 17" version="1.1" xmlns="http://www.w3.org/2000/svg">
    <path d="M16.0636483,15.6978581 C16.4224259,15.6978581 16.7132546,15.9886868 16.7132546,16.3474644 C16.7132546,16.6736258 16.4729003,16.9436312 16.1596446,16.9900275 L16.0636483,16.9970707 L0.73293963,16.9970707 C0.37416207,16.9970707 0.08333333,16.7062419 0.08333333,16.3474644 C0.08333333,16.021303 0.32368766,15.7512976 0.63694334,15.7049013 L0.73293963,15.6978581 L16.0636483,15.6978581 Z M8.11750164,0.5533591 C8.25191818,0.4934394 8.40161345,0.4813099 8.54224126,0.5171038 L8.64563156,0.5529368 L16.327226,3.9633699 C16.5326194,4.0545706 16.6741275,4.2441231 16.7062952,4.4621369 L16.7132546,4.5571101 L16.7132546,6.3110471 C16.7132546,6.6372085 16.4729003,6.9072139 16.1596446,6.9536102 L16.0636483,6.9606534 C15.6869308,6.9606534 15.5997392,7.3059372 15.5811397,7.5092248 L15.5764436,7.6102597 L15.5764436,10.4853197 C15.5764436,10.8440973 15.2856148,11.134926 14.9268373,11.134926 C14.6006759,11.134926 14.3306705,10.8945717 14.2842741,10.581316 L14.277231,10.4853197 L14.277231,7.6102597 C14.277231,7.2520668 13.9858176,6.9606534 13.6276247,6.9606534 C13.3019948,6.9606534 13.0315545,7.2014909 12.9850747,7.5143951 L12.9780184,7.6102597 L12.9780184,13.0994329 L14.9268373,13.0994329 C15.2856148,13.0994329 15.5764436,13.3902616 15.5764436,13.7490392 C15.5764436,14.0752006 15.3360892,14.345206 15.0228336,14.3916023 L14.9268373,14.3986455 L1.93471129,14.3986455 C1.60854987,14.3986455 1.3385445,14.1582912 1.29214816,13.8450355 L1.28510499,13.7490392 L1.28715125,13.7086986 L1.28510499,13.6683581 L1.28510499,7.6102597 C1.28510499,7.3163128 1.1439901,7.0199501 0.8317691,6.9684952 L0.73293963,6.9606534 C0.40677822,6.9606534 0.13677285,6.720299 0.09037651,6.4070434 L0.08333333,6.3110471 L0.08333333,4.5571101 C0.08333333,4.332732 0.19884399,4.1267063 0.38460602,4.0087497 L0.46838747,3.9637921 L8.11750164,0.5533591 Z M3.23392388,6.9606534 C2.90829396,6.9606534 2.63785373,7.2014909 2.59137394,7.5143951 L2.58431759,7.6102597 L2.58431759,13.0994329 L3.88353018,13.0994329 L3.88353018,7.6102597 C3.88353018,7.2520668 3.5921168,6.9606534 3.23392388,6.9606534 Z M5.83234908,6.9606534 C5.50671916,6.9606534 5.23627893,7.2014909 5.18979914,7.5143951 L5.18274278,7.6102597 L5.18274278,13.0994329 L6.48195538,13.0994329 L6.48195538,7.6102597 C6.48195538,7.2520668 6.19054199,6.9606534 5.83234908,6.9606534 Z M8.43077428,6.9606534 C8.10514436,6.9606534 7.83470413,7.2014909 7.78822433,7.5143951 L7.78116798,7.6102597 L7.78116798,13.0994329 L9.0803806,13.0994329 L9.0803806,7.6102597 C9.0803806,7.2520668 8.78896719,6.9606534 8.43077428,6.9606534 Z M11.0291995,6.9606534 C10.7035696,6.9606534 10.4331293,7.2014909 10.3866495,7.5143951 L10.3795932,7.6102597 L10.3795932,13.0994329 L11.6788058,13.0994329 L11.6788058,7.6102597 C11.6788058,7.2520668 11.3873924,6.9606534 11.0291995,6.9606534 Z M8.38263845,1.8576711 L1.38254593,4.978737 L1.38254593,5.6289605 L15.414042,5.6289605 L15.414042,4.9794516 L8.38263845,1.8576711 Z M8.39829396,3.2903778 C8.75706162,3.2903778 9.0479003,3.5812164 9.0479003,3.9399841 C9.0479003,4.2987517 8.75706162,4.5895904 8.39829396,4.5895904 C8.03952631,4.5895904 7.74868766,4.2987517 7.74868766,3.9399841 C7.74868766,3.5812164 8.03952631,3.2903778 8.39829396,3.2903778 Z" class="path" fill="#666666" fill-rule="nonzero"></path
</svg>