<?xml version="1.0" encoding="UTF-8"?>
<svg width="26px" height="27px" viewBox="0 0 26 27" version="1.1" xmlns="http://www.w3.org/2000/svg" xmlns:xlink="http://www.w3.org/1999/xlink">
    <title>contract-file-icon</title>
    <g id="Wireframes" stroke="none" stroke-width="1" fill="none" fill-rule="evenodd">
        <path d="M4.13040091,0.518222927 L18.8912326,1.50552591 C19.3672224,1.53735183 19.7371925,1.96028184 19.7052667,2.43632165 L19.7052667,2.43632165 L18.28669,23.646024 C18.2555136,24.1127208 17.8206926,24.4907348 17.3559442,24.460058 L17.3559442,24.460058 L14.4440474,24.2653054 C14.4258612,24.2641063 14.4081745,24.2611585 14.3908377,24.2574613 L14.3908377,24.2574613 L12.6852282,25.9555265 C12.6157807,26.0246742 12.5187541,26.0646939 12.4208282,26.0646939 L12.4208282,26.0646939 L1.12232688,26.0646939 C0.640241638,26.0646939 0.247988425,25.6724407 0.247988425,25.1903555 L0.247988425,25.1903555 L0.247988425,3.93313913 C0.247988425,3.45105389 0.640241638,3.05880067 1.12232688,3.05880067 L1.12232688,3.05880067 L3.08419249,3.05880067 L3.19965513,1.33225701 C3.23188075,0.851220973 3.64921499,0.486347044 4.13040091,0.518222927 L4.13040091,0.518222927 Z M21.6200179,10.3887047 C21.6200179,8.83587962 24.0367893,8.82913472 24.0367893,10.3814102 L24.0367893,10.3814102 L24.0367893,11.1357395 C24.3143293,11.3073596 24.5080827,11.6519989 24.5080827,11.9782021 L24.5080827,11.9782021 L24.5080827,12.5137469 L24.7912685,12.5123479 C25.0630628,12.5196924 25.3307603,12.6190672 25.525463,12.8128206 C25.7209651,13.0073734 25.8286336,13.2664773 25.8286336,13.5424186 L25.8286336,13.5424186 L25.8286336,18.0725909 C25.8286336,18.7519769 25.1529448,19.2534475 24.5049351,19.0691369 L24.5049351,19.0691369 L24.5046354,22.4841031 C24.5046354,23.3334605 24.2569727,23.5815228 24.0096099,23.8278864 C23.989625,24.6282808 23.6696671,25.3781634 23.1018467,25.946983 C22.946864,26.0663927 22.7251817,26.1149559 22.5650529,25.9560761 C22.0069252,25.4025949 21.6765751,24.6439189 21.6472973,23.8598622 C21.3182462,23.5324599 21.1482748,23.0670121 21.1482748,22.5174279 L21.1482748,22.5174279 L21.1482748,21.876213 C21.1775527,21.3926289 21.9255867,21.4377448 21.8963588,21.9213789 L21.8963588,21.9213789 L21.8957093,22.6047118 C21.8957093,23.8414261 23.7552523,23.8333322 23.7552523,22.6173523 L23.7552523,22.6173523 L23.7559242,19.2596819 C23.7559496,19.1765684 23.7559753,19.0934279 23.7560014,19.0103685 L23.7569786,16.2417441 C23.757004,16.1761719 23.7570289,16.1119759 23.7570534,16.049264 L23.7576505,14.5842303 L21.8985072,14.5934733 C21.9064512,16.272353 21.9060515,17.9238035 21.8970583,19.630812 C21.8945102,20.1247882 21.1451772,20.0972091 21.1476253,19.6268649 C21.1566185,17.9213054 21.1570182,16.2713038 21.1490243,14.593823 C19.8967218,14.5195293 19.9002691,12.6187174 21.1476253,12.5337817 L21.1476253,12.5337817 L21.1476253,11.9850969 C21.1476253,11.6298157 21.3372818,11.3179017 21.6200179,11.1431339 L21.6200179,11.1431339 Z M4.08033879,1.2660571 C4.00389663,1.26810555 3.95958016,1.30682625 3.94738938,1.38231913 L3.94738938,1.38231913 L3.83527421,3.05885064 L10.0239917,3.05885064 C10.5084751,3.05885064 10.5084751,3.8082836 10.0239917,3.8082836 L10.0239917,3.8082836 L1.12232688,3.8082836 C1.05347897,3.8082836 0.997421388,3.86434119 0.997421388,3.93318909 L0.997421388,3.93318909 L0.997421388,25.1903555 C0.997421388,25.2592034 1.05347897,25.315261 1.12232688,25.315261 L1.12232688,25.315261 L12.0461117,25.315261 L12.0461117,22.1799832 C12.0461117,21.697898 12.4383649,21.3056447 12.9204502,21.3056447 L12.9204502,21.3056447 L16.041089,21.3056447 L16.041089,3.93318909 C16.041089,3.86434119 15.9850814,3.8082836 15.9161835,3.8082836 L15.9161835,3.8082836 L12.0194819,3.8082836 C11.5349984,3.8082836 11.5349984,3.05885064 12.0194819,3.05885064 L12.0194819,3.05885064 L15.9161835,3.05885064 C16.3982688,3.05885064 16.790522,3.45110385 16.790522,3.93318909 L16.790522,3.93318909 L16.790522,21.7127367 C16.790522,21.8124113 16.7508021,21.907989 16.6801555,21.9782858 L16.6801555,21.9782858 L15.0937558,23.5576408 L17.4060063,23.7123238 C17.4823985,23.7102753 17.526715,23.6715047 17.5389058,23.5960618 L17.5389058,23.5960618 L18.9574824,2.38625953 C18.955434,2.30981737 18.9166633,2.2655009 18.8411704,2.25331012 L18.8411704,2.25331012 Z M23.2015213,24.2829421 C23.0723191,24.3144682 22.9411183,24.3307559 22.8098676,24.3307559 C22.6923066,24.3307559 22.5747955,24.3176658 22.4587833,24.2925348 C22.5291301,24.5860627 22.6551347,24.8653014 22.8293529,25.1122146 C23.0070684,24.861854 23.1328733,24.5809166 23.2015213,24.2829421 Z M15.5134882,22.0550777 L12.9204502,22.0550777 C12.8516023,22.0550777 12.7955447,22.1111353 12.7955447,22.1799832 L12.7955447,22.1799832 L12.7955447,24.7830137 L15.5134882,22.0550777 Z M3.70527257,20.1978329 C3.71656403,19.7899416 4.36437388,19.6698824 4.44131567,20.0982083 C4.54598647,20.6811173 4.60743997,21.2941534 4.84710864,21.841889 C5.08732688,22.3909236 5.51620239,22.7107316 5.77550619,21.8944992 C5.88042681,21.5640992 6.42041824,21.512788 6.49815942,21.8944992 C6.59008986,22.3459576 6.86663062,22.4283453 7.27707008,22.4280455 C7.50354872,22.4278956 7.73002736,22.4275958 7.95655597,22.4272461 C8.63049605,22.4261969 9.30443613,22.424748 9.97837621,22.4229494 C10.4614607,22.4217003 10.4605614,23.1711333 9.97847614,23.1723823 L9.97847614,23.1723823 L7.63619835,23.1771287 C7.08786324,23.1777782 6.50185662,23.2136511 6.1081545,22.7586953 C5.99269186,22.8856493 5.8611414,22.9945169 5.72029796,23.071109 C4.96322078,23.4827475 4.43192277,22.784276 4.17511708,22.1667432 C4.03692164,22.6387861 3.85126211,23.0963399 3.6658524,23.5513956 C3.48613837,23.9924618 2.76078719,23.7998576 2.94319917,23.3521463 C3.15244086,22.8385849 3.36323137,22.3220257 3.50387495,21.7845324 C3.64022179,21.2635766 3.69038384,20.7349765 3.70527257,20.1978329 Z M24.7949657,13.2617809 L21.2169229,13.2795175 C20.8598431,13.2812661 20.8513995,13.8473878 21.2132257,13.8473878 L21.2132257,13.8473878 L24.1304685,13.8328988 C24.3340644,13.8328988 24.5083326,13.9984235 24.5080827,14.2080649 L24.5080827,14.2080649 L24.5079902,14.3305687 C24.5079742,14.3589059 24.5079579,14.3909738 24.5079415,14.4264286 L24.5070335,18.079136 C24.5070335,18.4553014 25.0792006,18.4273725 25.0792006,18.0725909 L25.0791507,18.0725909 L25.0791507,13.5424186 C25.0627131,13.3700989 24.9679848,13.2765197 24.7949657,13.2617809 L24.7949657,13.2617809 Z M13.6292139,14.9558491 C13.8362073,14.9558491 14.0039304,15.1236222 14.0039304,15.3305656 C14.0039304,15.537509 13.8362073,15.7052821 13.6292139,15.7052821 L13.6292139,15.7052821 L3.40929651,15.7052821 C3.20235309,15.7052821 3.03458003,15.537509 3.03458003,15.3305656 C3.03458003,15.1236222 3.20235309,14.9558491 3.40929651,14.9558491 L3.40929651,14.9558491 Z M13.6292139,12.3435756 C13.8362073,12.3435756 14.0039304,12.5113487 14.0039304,12.7182921 C14.0039304,12.9252355 13.8362073,13.0930086 13.6292139,13.0930086 L13.6292139,13.0930086 L3.40929651,13.0930086 C3.20235309,13.0930086 3.03458003,12.9252355 3.03458003,12.7182921 C3.03458003,12.5113487 3.20235309,12.3435756 3.40929651,12.3435756 L3.40929651,12.3435756 Z M23.5756882,11.7461277 L22.0755732,11.753572 C21.9731507,11.7812011 21.8970583,11.8741808 21.8970583,11.9850469 L21.8970583,11.9850469 L21.8970583,12.5266871 L23.7586498,12.517494 L23.7586498,11.9782021 C23.7586498,11.9137009 23.7334688,11.8531467 23.6877534,11.8076311 C23.6563772,11.7763548 23.6176565,11.7565198 23.5756882,11.7461277 L23.5756882,11.7461277 Z M22.8299025,9.9286528 C22.5758947,9.92990186 22.3694509,10.1362457 22.3694009,10.3887047 L22.3694009,10.3887047 L22.3694009,10.9937969 L23.2873064,10.9892503 L23.2873064,10.3814102 C23.2873064,10.1541822 23.0599284,9.9286528 22.8299025,9.9286528 Z M13.6292139,9.73130212 C13.8362073,9.73130212 14.0039304,9.89907518 14.0039304,10.1060186 C14.0039304,10.312962 13.8362073,10.4807351 13.6292139,10.4807351 L13.6292139,10.4807351 L3.40929651,10.4807351 C3.20235309,10.4807351 3.03458003,10.312962 3.03458003,10.1060186 C3.03458003,9.89907518 3.20235309,9.73130212 3.40929651,9.73130212 L3.40929651,9.73130212 Z M11.8289261,7.11902862 C12.0358695,7.11902862 12.2036425,7.28680168 12.2036425,7.4937451 C12.2036425,7.70068853 12.0358695,7.86846159 11.8289261,7.86846159 L11.8289261,7.86846159 L5.20958438,7.86846159 C5.00264096,7.86846159 4.8348679,7.70068853 4.8348679,7.4937451 C4.8348679,7.28680168 5.00264096,7.11902862 5.20958438,7.11902862 L5.20958438,7.11902862 Z" id="contract-file-icon" fill="#000000" fill-rule="nonzero"></path>
    </g>
</svg>