<?xml version="1.0" encoding="UTF-8"?>
<svg width="17px" height="20px" viewBox="0 0 17 20" version="1.1" xmlns="http://www.w3.org/2000/svg">
    <path d="M3.7579012,0.5119006 L15.8945728,1.3236822 C16.2859418,1.3498502 16.5901391,1.6975922 16.563889,2.0890024 L16.563889,2.0890024 L15.3975049,17.6159866 C15.371871,17.9997148 15.0143519,18.310526 14.6322258,18.2853029 L14.6322258,18.2853029 L12.238002,18.1251731 C12.2230489,18.1241871 12.2085065,18.1217634 12.1942518,18.1187235 L12.1942518,18.1187235 L10.7918632,19.5149091 C10.734762,19.5717638 10.6549846,19.6046688 10.5744679,19.6046688 L10.5744679,19.6046688 L1.28459839,19.6046688 C0.88821759,19.6046688 0.5656986,19.2821498 0.5656986,18.885769 L0.5656986,18.885769 L0.5656986,3.3197177 C0.5656986,2.9233369 0.88821759,2.6008179 1.28459839,2.6008179 L1.28459839,2.6008179 L2.89768626,2.6008179 L2.99262211,1.1812168 C3.01911871,0.7856987 3.36225984,0.4856915 3.7579012,0.5119006 L3.7579012,0.5119006 Z M4.11958435,1.453114 C4.05673197,1.4547983 4.02029402,1.4866353 4.01027051,1.5487072 L4.01027051,1.5487072 L4.01027051,2.608343 L8.2019043,2.608343 C9.0973732,2.608343 9.0973732,3.833998 8.2019043,3.8209232 L8.2019043,3.8209232 L1.90299294,3.8839437 C1.84638471,3.8839437 1.80029297,3.9300354 1.80029297,3.9866436 L1.80029297,3.9866436 L1.80029297,18.3187415 C1.80029297,18.3753497 1.84638471,18.4214414 1.90299294,18.4214414 L1.90299294,18.4214414 L9.7603802,18.461121 L9.7603802,15.8868945 C9.7603802,15.4905137 10.0828991,15.1679947 10.4792799,15.1679947 L10.4792799,15.1679947 L12.9911111,15.1679947 L12.9911111,3.936698 C12.9911111,3.8800898 12.9450604,3.833998 12.8884111,3.833998 L12.8884111,3.833998 L10.4792799,3.8209232 C9.6675469,3.8209232 9.6675469,2.608343 10.4792799,2.608343 L10.4792799,2.608343 L13.4484238,2.608343 C13.8448046,2.608343 14.1673236,2.930862 14.1673236,3.3272428 L14.1673236,3.3272428 L14.1673236,16.0263965 C14.1673236,16.1083511 14.134665,16.1869371 14.0765779,16.2447366 L14.0765779,16.2447366 L12.9911111,17.2972685 L14.3933952,17.3928616 C14.4562065,17.3911773 14.4926444,17.3592993 14.5026679,17.2972685 L14.5026679,17.2972685 L15.5919878,2.3354001 C15.5903036,2.2725478 15.5584255,2.2361098 15.4963536,2.2260863 L15.4963536,2.2260863 L4.11958435,1.453114 Z M12.5209961,16.1975934 L10.8933494,16.1975934 C10.8367412,16.1975934 10.7906494,16.2436851 10.7906494,16.3002933 L10.7906494,16.3002933 L10.7906494,17.9111332 L12.5209961,16.1975934 Z M3.40835159,14.7808102 C3.41763567,14.4454332 3.95027879,14.346718 4.01354197,14.6988967 C4.09960454,15.1781769 4.15013293,15.6822284 4.34719363,16.1325883 C4.54470621,16.5840163 4.89733682,16.8469693 5.11054196,16.1758455 C5.19680993,15.9041835 5.64080244,15.8619944 5.7047229,16.1758455 C5.78031007,16.5470443 6.00768781,16.6147852 6.3451599,16.6145387 C6.53137549,16.6144154 6.71759107,16.614169 6.90384774,16.6138814 C7.45797569,16.6130187 8.01210364,16.6118274 8.5662316,16.6103485 C8.963434,16.6093215 8.9626946,17.2255213 8.5663138,17.2265483 L8.5663138,17.2265483 L6.64044286,17.2304509 L6.64044286,17.2304509 L6.36772695,17.2307865 C6.0031838,17.2266404 5.64302076,17.1856655 5.38405251,16.886406 C5.28911666,16.9907903 5.18095305,17.0803036 5.06514857,17.1432792 C4.44266352,17.4817372 4.00581893,16.907439 3.79466779,16.3996903 C3.68104055,16.7878141 3.52838731,17.1640246 3.37593948,17.5381811 C3.22817476,17.9008353 2.6317755,17.7424719 2.78175854,17.3743541 C2.95380153,16.9520929 3.12711799,16.5273669 3.24275816,16.0854284 C3.35486544,15.6570874 3.39610975,15.2224611 3.40835159,14.7808102 Z M11.5680285,11.4267823 C11.7382228,11.4267823 11.8761284,11.5647289 11.8761284,11.7348822 C11.8761284,11.9050355 11.7382228,12.0429821 11.5680285,12.0429821 L11.5680285,12.0429821 L3.16499374,12.0429821 C2.99484043,12.0429821 2.85689383,11.9050355 2.85689383,11.7348822 C2.85689383,11.5647289 2.99484043,11.4267823 3.16499374,11.4267823 L3.16499374,11.4267823 L11.5680285,11.4267823 Z M11.5680285,9.2789152 C11.7382228,9.2789152 11.8761284,9.4168618 11.8761284,9.5870151 C11.8761284,9.7571684 11.7382228,9.895115 11.5680285,9.895115 L11.5680285,9.895115 L3.16499374,9.895115 C2.99484043,9.895115 2.85689383,9.7571684 2.85689383,9.5870151 C2.85689383,9.4168618 2.99484043,9.2789152 3.16499374,9.2789152 L3.16499374,9.2789152 L11.5680285,9.2789152 Z M11.5680285,7.131048 C11.7382228,7.131048 11.8761284,7.2689946 11.8761284,7.4391479 C11.8761284,7.6093012 11.7382228,7.7472478 11.5680285,7.7472478 L11.5680285,7.7472478 L3.16499374,7.7472478 C2.99484043,7.7472478 2.85689383,7.6093012 2.85689383,7.4391479 C2.85689383,7.2689946 2.99484043,7.131048 3.16499374,7.131048 L3.16499374,7.131048 L11.5680285,7.131048 Z M10.0877933,4.9831809 C10.2579466,4.9831809 10.3958932,5.1211275 10.3958932,5.2912808 C10.3958932,5.4614341 10.2579466,5.5993807 10.0877933,5.5993807 L10.0877933,5.5993807 L4.64522894,5.5993807 C4.47507563,5.5993807 4.33712903,5.4614341 4.33712903,5.2912808 C4.33712903,5.1211275 4.47507563,4.9831809 4.64522894,4.9831809 L4.64522894,4.9831809 L10.0877933,4.9831809 Z" class="path" fill="#666666" fill-rule="nonzero"></path>
</svg>