<?xml version="1.0" encoding="UTF-8"?>
<svg width="20px" height="14px" viewBox="0 0 20 14" version="1.1" xmlns="http://www.w3.org/2000/svg">
    <g transform="translate(0.700192, 0.710820)" fill-rule="nonzero">
        <path d="M16.8409091,0 L2.06818182,0 C0.927801136,0 0,0.927801136 0,2.06818182 L0,10.9318182 C0,12.0721989 0.927801136,13 2.06818182,13 L16.8409091,13 C17.9812898,13 18.9090909,12.0721989 18.9090909,10.9318182 L18.9090909,2.06818182 C18.9090909,0.927801136 17.9812898,0 16.8409091,0 Z M2.06818182,1.18181818 L16.8409091,1.18181818 C17.3296278,1.18181818 17.7272727,1.57946307 17.7272727,2.06818182 L17.7272727,3.25 L1.18181818,3.25 L1.18181818,2.06818182 C1.18181818,1.57946307 1.57946307,1.18181818 2.06818182,1.18181818 Z M16.8409091,11.8181818 L2.06818182,11.8181818 C1.57946307,11.8181818 1.18181818,11.4205369 1.18181818,10.9318182 L1.18181818,4.43181818 L17.7272727,4.43181818 L17.7272727,10.9318182 C17.7272727,11.4205369 17.3296278,11.8181818 16.8409091,11.8181818 Z" class="path"></path>
        <path d="M4.13636364,10.0454545 L3.54545455,10.0454545 C3.219125,10.0454545 2.95454545,9.780875 2.95454545,9.45454545 L2.95454545,8.86363636 C2.95454545,8.53730682 3.219125,8.27272727 3.54545455,8.27272727 L4.13636364,8.27272727 C4.46269318,8.27272727 4.72727273,8.53730682 4.72727273,8.86363636 L4.72727273,9.45454545 C4.72727273,9.780875 4.46269318,10.0454545 4.13636364,10.0454545 Z" class="path"></path>
    </g>
</svg>