<?xml version="1.0" encoding="UTF-8"?>
<svg width="7px" height="7px" viewBox="0 0 7 7" version="1.1" xmlns="http://www.w3.org/2000/svg">
    <path d="M6.48237152,0.165624142 C6.70320371,0.38645633 6.70320371,0.744496051 6.48237152,0.965328239 L4.1237356,3.32383533 L6.48237152,5.68266742 C6.70320371,5.90349961 6.70320371,6.26153933 6.48237152,6.48237152 C6.26153933,6.70320371 5.90349961,6.70320371 5.68266742,6.48237152 L3.32399783,4.1235731 L0.965328239,6.48237152 C0.744496051,6.70320371 0.38645633,6.70320371 0.165624142,6.48237152 C-0.0552080472,6.26153933 -0.0552080472,5.90349961 0.165624142,5.68266742 L2.52426006,3.32383533 L0.165624142,0.965328239 C-0.0552080472,0.744496051 -0.0552080472,0.38645633 0.165624142,0.165624142 C0.38645633,-0.0552080472 0.744496051,-0.0552080472 0.965328239,0.165624142 L3.32399783,2.52409756 L5.68266742,0.165624142 C5.90349961,-0.0552080472 6.26153933,-0.0552080472 6.48237152,0.165624142 Z" id="delete-icon" fill="#000000"></path>
</svg>