<?xml version="1.0" encoding="UTF-8"?>
<svg width="21px" height="25px" viewBox="0 0 21 25" version="1.1" xmlns="http://www.w3.org/2000/svg" xmlns:xlink="http://www.w3.org/1999/xlink">
    <title>doc-file-icon</title>
    <g id="Wireframes" stroke="none" stroke-width="1" fill="none" fill-rule="evenodd">
        <path d="M19.2460137,0.710820312 C19.9881777,0.710820312 20.5954824,1.31807031 20.5954824,2.06034375 L20.5954824,2.06034375 L20.5948262,18.2530937 C20.5948262,18.9952578 20.1528965,20.0187891 19.6121465,20.5271641 L19.6121465,20.5271641 L15.8425918,24.0753984 C15.302498,24.5837734 14.2526621,25.0000547 13.5108262,25.0000547 L13.5108262,25.0000547 L2.04127148,25.0000547 C1.29877929,25.0000547 0.691857415,24.3928047 0.691857415,23.6506406 L0.691857415,23.6506406 L0.691857415,2.06034375 C0.691857415,1.318125 1.29905273,0.710820312 2.04121679,0.710820312 L2.04121679,0.710820312 Z M19.245959,1.72292187 L2.0411621,1.72292187 C1.85801367,1.72292187 1.7038496,1.87741406 1.7038496,2.06023437 L1.7038496,2.06023437 L1.7038496,23.6505859 C1.7038496,23.8334062 1.85795898,23.9878984 2.0411621,23.9878984 L2.0411621,23.9878984 L13.5107168,23.9878984 C13.6115605,23.9878984 13.7276074,23.9713828 13.8480293,23.9470469 L13.8480293,23.9470469 L13.8480293,20.4457344 C13.8501074,19.421875 14.6796621,18.5923203 15.7034668,18.5902969 L15.7034668,18.5902969 L19.5367871,18.5902969 C19.5644043,18.4692187 19.5826699,18.3531719 19.5826699,18.2529844 L19.5826699,18.2529844 L19.5832715,2.06023437 C19.5832715,1.87741406 19.4287793,1.72292187 19.245959,1.72292187 L19.245959,1.72292187 Z M19.0787246,19.6024531 L15.7035215,19.6024531 C15.4717559,19.6024531 15.2632871,19.6961875 15.1077559,19.8503516 C14.9535918,20.0055 14.8601309,20.2140234 14.8601309,20.4457891 L14.8601309,20.4457891 L14.8601309,23.5497422 C14.9711465,23.4819844 15.0717168,23.4108359 15.1489355,23.3382656 L15.1489355,23.3382656 L18.9184902,19.7903047 C18.9727949,19.7390078 19.0263887,19.6735469 19.0787246,19.6024531 L19.0787246,19.6024531 Z M11.1499668,15.5542109 C11.4293105,15.5542109 11.6556621,15.7805625 11.6556621,16.0602344 C11.6556621,16.3399062 11.4293105,16.5662578 11.1499668,16.5662578 L11.1499668,16.5662578 L5.75241992,16.5662578 C5.47274804,16.5662578 5.24639648,16.3399062 5.24639648,16.0602344 C5.24639648,15.7805625 5.47274804,15.5542109 5.75241992,15.5542109 L5.75241992,15.5542109 Z M15.5354668,12.1807031 C15.8148105,12.1807031 16.0414902,12.407 16.0414902,12.6867266 C16.0414902,12.9663984 15.8148105,13.19275 15.5354668,13.19275 L15.5354668,13.19275 L5.75236523,13.19275 C5.47274804,13.19275 5.24634179,12.9663984 5.24634179,12.6867266 C5.24634179,12.4070547 5.47269335,12.1807031 5.75236523,12.1807031 L5.75236523,12.1807031 Z M15.5354668,8.80719531 C15.8148105,8.80719531 16.0414902,9.03354687 16.0414902,9.31321875 C16.0414902,9.59289062 15.8148105,9.81924219 15.5354668,9.81924219 L15.5354668,9.81924219 L5.75236523,9.81924219 C5.47274804,9.81924219 5.24634179,9.59289062 5.24634179,9.31321875 C5.24634179,9.03354687 5.47269335,8.80719531 5.75236523,8.80719531 L5.75236523,8.80719531 Z M15.5354668,5.4336875 C15.8148105,5.4336875 16.0414902,5.66003906 16.0414902,5.93971094 C16.0414902,6.21938281 15.8148105,6.44573437 15.5354668,6.44573437 L15.5354668,6.44573437 L5.75236523,6.44573437 C5.47274804,6.44573437 5.24634179,6.21938281 5.24634179,5.93971094 C5.24634179,5.66003906 5.47269335,5.4336875 5.75236523,5.4336875 L5.75236523,5.4336875 Z" id="doc-file-icon" fill="#000000" fill-rule="nonzero"></path>
    </g>
</svg>