<?xml version="1.0" encoding="UTF-8"?>
<svg width="13px" height="14px" viewBox="0 0 13 14" version="1.1" xmlns="http://www.w3.org/2000/svg" xmlns:xlink="http://www.w3.org/1999/xlink">
    <title>edit-icon</title>
    <g id="Wireframes" stroke="none" stroke-width="1" fill="none" fill-rule="evenodd">
        <g id="Datos-Empresa" transform="translate(-381.000000, -480.000000)" fill="#104E89" fill-rule="nonzero">
            <g id="Content-Title" transform="translate(343.000000, 148.000000)">
                <path d="M50.236176,344.697454 C50.5124837,344.697454 50.7364752,344.921446 50.7364752,345.197754 L50.7364752,345.469891 C50.7364752,345.746198 50.5124837,345.97019 50.236176,345.97019 L38.5095098,345.97019 C38.2332022,345.97019 38.0092106,345.746198 38.0092106,345.469891 L38.0092106,345.197754 C38.0092106,344.921446 38.2332022,344.697454 38.5095098,344.697454 L50.236176,344.697454 Z M46.4275454,332.677297 C46.8180697,332.286772 47.4512347,332.286772 47.841759,332.677297 L47.841759,332.677297 L50.0293684,334.864906 C50.4198927,335.25543 50.4198927,335.888595 50.0293684,336.27912 L50.0293684,336.27912 L43.1766623,343.131826 C42.9891259,343.319362 42.734772,343.424719 42.4695555,343.424719 L42.4695555,343.424719 L40.281946,343.424719 C39.7296613,343.424719 39.281946,342.977004 39.281946,342.424719 L39.281946,342.424719 L39.281946,340.23711 C39.281946,339.971893 39.3873029,339.717539 39.5748393,339.530003 L39.5748393,339.530003 Z M47.1346522,333.771086 L40.5546815,340.351087 L40.5546815,342.151984 L42.355578,342.151984 L48.9355488,335.571983 L47.1346522,333.771086 Z" id="edit-icon"></path>
            </g>
        </g>
    </g>
</svg>