<?xml version="1.0" encoding="UTF-8"?>
<svg width="20px" height="17px" viewBox="0 0 20 17" version="1.1" xmlns="http://www.w3.org/2000/svg">
    <path d="M1.78564453,0.672363 C2.06178691,0.672363 2.28564453,0.8962206 2.28564453,1.172363 L2.28464844,14.740363 L19.3057861,14.7408444 C19.5819285,14.7408444 19.8057861,14.964702 19.8057861,15.2408444 L19.8057861,15.7618405 C19.8057861,16.0379829 19.5819285,16.2618405 19.3057861,16.2618405 L1.30578613,16.2618405 C1.23104674,16.2618405 1.16013744,16.245442 1.09645993,16.2160466 C0.90327358,16.1461269 0.764648438,15.9612004 0.764648438,15.7438962 L0.764648438,1.172363 C0.764648438,0.8962206 0.988506063,0.672363 1.26464844,0.672363 L1.78564453,0.672363 Z M6.97507137,6.672363 C7.25121375,6.672363 7.47507137,6.8962206 7.47507137,7.172363 L7.47507137,13.2556963 C7.47507137,13.5318387 7.25121375,13.7556963 6.97507137,13.7556963 L3.68233209,13.7556963 C3.40618972,13.7556963 3.18233209,13.5318387 3.18233209,13.2556963 L3.18233209,7.172363 C3.18233209,6.8962206 3.40618972,6.672363 3.68233209,6.672363 L6.97507137,6.672363 Z M12.4123404,4.5086086 C12.6884827,4.5086086 12.9123404,4.7324662 12.9123404,5.0086086 L12.9123404,13.2556963 C12.9123404,13.5318387 12.6884827,13.7556963 12.4123404,13.7556963 L9.11960109,13.7556963 C8.84345872,13.7556963 8.61960109,13.5318387 8.61960109,13.2556963 L8.61960109,5.0086086 C8.61960109,4.7324662 8.84345872,4.5086086 9.11960109,4.5086086 L12.4123404,4.5086086 Z M17.8496094,1.834513 C18.1257517,1.834513 18.3496094,2.0583707 18.3496094,2.334513 L18.3496094,13.2556963 C18.3496094,13.5318387 18.1257517,13.7556963 17.8496094,13.7556963 L14.5568701,13.7556963 C14.2807277,13.7556963 14.0568701,13.5318387 14.0568701,13.2556963 L14.0568701,2.334513 C14.0568701,2.0583707 14.2807277,1.834513 14.5568701,1.834513 L17.8496094,1.834513 Z M16.8212373,2.8503415 L15.5909537,2.8503415 C15.3454938,2.8503415 15.1413453,3.0172321 15.0990094,3.2373144 L15.0909537,3.3221166 L15.0909537,6.2591548 C15.0909537,6.3215097 15.1037745,6.3810391 15.1266498,6.4352883 C15.1112982,6.4714352 15.1005505,6.5097917 15.0950911,6.5497119 L15.0909537,6.6106842 L15.0909537,12.3489033 C15.0909537,12.580507 15.2678289,12.7731314 15.5010781,12.8130775 L15.5909537,12.8206784 L16.8212373,12.8206784 C17.0666972,12.8206784 17.2708457,12.6537878 17.3131816,12.4337054 L17.3212373,12.3489033 L17.3212373,6.6106842 C17.3212373,6.5487005 17.3085686,6.4895087 17.2851264,6.4355243 C17.3006531,6.3992008 17.3115268,6.3606355 17.3170508,6.3204857 L17.3212373,6.2591548 L17.3212373,3.3221166 C17.3212373,3.0905129 17.1443621,2.8978885 16.9111129,2.8579424 L16.8212373,2.8503415 Z M5.94098775,7.6156003 L4.71070417,7.6156003 C4.46524429,7.6156003 4.2610958,7.7816366 4.21875984,8.0005923 L4.21070417,8.0849604 L4.21070417,12.3400878 C4.21070417,12.570506 4.38757933,12.7621443 4.62082854,12.8018859 L4.71070417,12.8094479 L5.94098775,12.8094479 C6.18644764,12.8094479 6.39059612,12.6434116 6.43293208,12.4244559 L6.44098775,12.3400878 L6.44098775,8.0849604 C6.44098775,7.8545422 6.26411259,7.6629039 6.03086338,7.6231623 L5.94098775,7.6156003 Z M11.3811125,5.4678952 L10.150829,5.4678952 C9.90536906,5.4678952 9.70122057,5.6300003 9.65888461,5.8437719 L9.65082895,5.9261425 L9.65082895,12.3490034 C9.65082895,12.573966 9.82770411,12.761067 10.0609533,12.7998677 L10.150829,12.8072507 L11.3811125,12.8072507 C11.6265724,12.8072507 11.8307209,12.6451455 11.8730569,12.4313739 L11.8811125,12.3490034 L11.8811125,5.9261425 C11.8811125,5.7011798 11.7042374,5.5140788 11.4709882,5.4752782 L11.3811125,5.4678952 Z" fill="#666666" class="path" fill-rule="nonzero"></path>
</svg>