<?xml version="1.0" encoding="UTF-8"?>
<svg width="22px" height="23px" viewBox="0 0 22 23" version="1.1" xmlns="http://www.w3.org/2000/svg">
    <g transform="translate(0.494439, 0.775862)" fill="#000000" fill-rule="nonzero">
        <path d="M9.55407287,8.27586207 L10.0885556,8.27586207 C10.2266268,8.27586207 10.3385556,8.38779088 10.3385556,8.52586207 L10.3385556,9.06034483 C10.3385556,9.19841602 10.2266268,9.31034483 10.0885556,9.31034483 L9.55407287,9.31034483 C9.41600168,9.31034483 9.30407287,9.19841602 9.30407287,9.06034483 L9.30407287,8.52586207 C9.30407287,8.38779088 9.41600168,8.27586207 9.55407287,8.27586207 Z"></path>
        <path d="M9.55407287,0 L10.0885556,0 C10.2266268,-2.53632657e-17 10.3385556,0.111928813 10.3385556,0.25 L10.3385556,0.784482759 C10.3385556,0.922553946 10.2266268,1.03448276 10.0885556,1.03448276 L9.55407287,1.03448276 C9.41600168,1.03448276 9.30407287,0.922553946 9.30407287,0.784482759 L9.30407287,0.25 C9.30407287,0.111928813 9.41600168,2.53632657e-17 9.55407287,0 Z"></path>
        <path d="M9.55407287,2.06896552 L10.0885556,2.06896552 C10.2266268,2.06896552 10.3385556,2.18089433 10.3385556,2.31896552 L10.3385556,2.85344828 C10.3385556,2.99151946 10.2266268,3.10344828 10.0885556,3.10344828 L9.55407287,3.10344828 C9.41600168,3.10344828 9.30407287,2.99151946 9.30407287,2.85344828 L9.30407287,2.31896552 C9.30407287,2.18089433 9.41600168,2.06896552 9.55407287,2.06896552 Z"></path>
        <path d="M9.55407287,4.13793103 L10.0885556,4.13793103 C10.2266268,4.13793103 10.3385556,4.24985985 10.3385556,4.38793103 L10.3385556,4.92241379 C10.3385556,5.06048498 10.2266268,5.17241379 10.0885556,5.17241379 L9.55407287,5.17241379 C9.41600168,5.17241379 9.30407287,5.06048498 9.30407287,4.92241379 L9.30407287,4.38793103 C9.30407287,4.24985985 9.41600168,4.13793103 9.55407287,4.13793103 Z"></path>
        <path d="M9.55407287,20.6896552 L10.0885556,20.6896552 C10.2266268,20.6896552 10.3385556,20.801584 10.3385556,20.9396552 L10.3385556,21.4741379 C10.3385556,21.6122091 10.2266268,21.7241379 10.0885556,21.7241379 L9.55407287,21.7241379 C9.41600168,21.7241379 9.30407287,21.6122091 9.30407287,21.4741379 L9.30407287,20.9396552 C9.30407287,20.801584 9.41600168,20.6896552 9.55407287,20.6896552 Z"></path>
        <path d="M9.55407287,18.6206897 L10.0885556,18.6206897 C10.2266268,18.6206897 10.3385556,18.7326185 10.3385556,18.8706897 L10.3385556,19.4051724 C10.3385556,19.5432436 10.2266268,19.6551724 10.0885556,19.6551724 L9.55407287,19.6551724 C9.41600168,19.6551724 9.30407287,19.5432436 9.30407287,19.4051724 L9.30407287,18.8706897 C9.30407287,18.7326185 9.41600168,18.6206897 9.55407287,18.6206897 Z"></path>
        <path d="M9.55407287,16.5517241 L10.0885556,16.5517241 C10.2266268,16.5517241 10.3385556,16.663653 10.3385556,16.8017241 L10.3385556,17.3362069 C10.3385556,17.4742781 10.2266268,17.5862069 10.0885556,17.5862069 L9.55407287,17.5862069 C9.41600168,17.5862069 9.30407287,17.4742781 9.30407287,17.3362069 L9.30407287,16.8017241 C9.30407287,16.663653 9.41600168,16.5517241 9.55407287,16.5517241 Z"></path>
        <path d="M9.55407287,6.20689655 L10.0885556,6.20689655 C10.2266268,6.20689655 10.3385556,6.31882536 10.3385556,6.45689655 L10.3385556,6.99137931 C10.3385556,7.1294505 10.2266268,7.24137931 10.0885556,7.24137931 L9.55407287,7.24137931 C9.41600168,7.24137931 9.30407287,7.1294505 9.30407287,6.99137931 L9.30407287,6.45689655 C9.30407287,6.31882536 9.41600168,6.20689655 9.55407287,6.20689655 Z"></path>
        <path d="M9.55407287,14.4827586 L10.0885556,14.4827586 C10.2266268,14.4827586 10.3385556,14.5946874 10.3385556,14.7327586 L10.3385556,15.2672414 C10.3385556,15.4053126 10.2266268,15.5172414 10.0885556,15.5172414 L9.55407287,15.5172414 C9.41600168,15.5172414 9.30407287,15.4053126 9.30407287,15.2672414 L9.30407287,14.7327586 C9.30407287,14.5946874 9.41600168,14.4827586 9.55407287,14.4827586 Z"></path>
        <path d="M6.16952546,9.13357759 C6.09522856,8.9291091 5.90093181,8.79298378 5.68338322,8.79298378 C5.46583462,8.79298378 5.27153788,8.9291091 5.19724098,9.13357759 L1.54978408,19.1637931 L0.95799569,17.5873707 C0.887154733,17.3889434 0.703035802,17.2533163 0.492526887,17.2444936 C0.282017973,17.2356709 0.0871960566,17.355416 0,17.5472198 L0.413275862,19.137931 L1.05834011,20.8637069 C1.13166239,21.0690716 1.3259045,21.2063936 1.54396511,21.2070259 C1.76297006,21.2070259 1.95725769,21.070973 2.03159442,20.8665517 L5.68338322,10.8238578 L7.26620649,15.1767672 C7.33290805,15.3600354 7.49702409,15.4902043 7.69066548,15.5134276 C7.88430688,15.5366509 8.07454834,15.4489799 8.18269356,15.286681 L9.14068925,13.8496552 C10.1263448,14.1946735 11.2147706,13.7527865 11.6809763,12.8183312 C12.147182,11.883876 11.845648,10.7485292 10.9772234,10.1685352 C10.1087988,9.58854109 8.94454994,9.74493658 8.25997239,10.533548 C7.57539485,11.3221594 7.58416973,12.496833 8.28045218,13.2751293 L7.88902977,13.8621983 L6.16952546,9.13357759 Z M9.82131425,10.862069 C10.3926433,10.862069 10.855797,11.3252227 10.855797,11.8965517 C10.855797,12.4678808 10.3926433,12.9310345 9.82131425,12.9310345 C9.2499852,12.9310345 8.78683149,12.4678808 8.78683149,11.8965517 C8.78750841,11.3255033 9.25026582,10.8627459 9.82131425,10.862069 L9.82131425,10.862069 Z" id="Shape"></path>
        <path d="M19.6942954,13.5217886 L20.2281417,13.5217886 C20.3662128,13.5217886 20.4781417,13.6337175 20.4781417,13.7717886 L20.4781417,14.3056349 C20.4781417,14.4437061 20.3662128,14.5556349 20.2281417,14.5556349 L19.6942954,14.5556349 C19.5562242,14.5556349 19.4442954,14.4437061 19.4442954,14.3056349 L19.4442954,13.7717886 C19.4442954,13.6337175 19.5562242,13.5217886 19.6942954,13.5217886 Z" transform="translate(19.961219, 14.038712) rotate(-30.953924) translate(-19.961219, -14.038712) "></path>
        <path d="M15.8153444,13.7104526 L16.5998272,13.7104526 L16.5998272,13.7104526 L16.5998272,14.4949353 C16.5998272,14.6330065 16.4878984,14.7449353 16.3498272,14.7449353 L15.8153444,14.7449353 C15.6772732,14.7449353 15.5653444,14.6330065 15.5653444,14.4949353 L15.5653444,13.9604526 C15.5653444,13.8223814 15.6772732,13.7104526 15.8153444,13.7104526 Z" transform="translate(16.082586, 14.227694) rotate(-16.260205) translate(-16.082586, -14.227694) "></path>
        <path d="M14.0775686,7.75175431 L14.6120513,7.75175431 C14.7501225,7.75175431 14.8620513,7.86368312 14.8620513,8.00175431 L14.8620513,8.53623707 C14.8620513,8.67430826 14.7501225,8.78623707 14.6120513,8.78623707 L14.0775686,8.78623707 C13.9394974,8.78623707 13.8275686,8.67430826 13.8275686,8.53623707 L13.8275686,8.00175431 C13.8275686,7.86368312 13.9394974,7.75175431 14.0775686,7.75175431 Z" transform="translate(14.344810, 8.268996) rotate(-16.260205) translate(-14.344810, -8.268996) "></path>
        <path d="M10.7698431,9.10801105 L11.3038478,9.10801105 C11.441919,9.10801105 11.5538478,9.21993986 11.5538478,9.35801105 L11.5538478,9.89201576 C11.5538478,10.030087 11.441919,10.1420158 11.3038478,10.1420158 L10.7698431,10.1420158 C10.6317719,10.1420158 10.5198431,10.030087 10.5198431,9.89201576 L10.5198431,9.35801105 C10.5198431,9.21993986 10.6317719,9.10801105 10.7698431,9.10801105 Z" transform="translate(11.036845, 9.625013) rotate(-61.691480) translate(-11.036845, -9.625013) "></path>
        <path d="M12.9494425,5.41973095 L14.0098674,5.70761525 C14.0936025,5.73034766 14.159563,5.79487108 14.1841342,5.87808516 L14.336333,6.39353034 L14.336333,6.39353034 L14.3462212,6.45099862 C14.3510668,6.54162318 14.3058646,6.62804097 14.2294211,6.67595279 L14.1665246,6.70413085 L13.654004,6.85364939 L13.5971221,6.86337022 C13.5064975,6.86821378 13.4200811,6.82300951 13.3721735,6.74656423 L13.3439992,6.68366644 L13.298922,6.52913793 L13.2662512,6.57178425 C13.2279179,6.60789049 13.1743965,6.62394641 13.1225186,6.61490272 L13.0718119,6.59730547 L12.5287455,6.30485423 C12.428172,6.24896504 12.3812231,6.13395173 12.4071792,6.02732366 L12.4316556,5.96489313 L12.6648517,5.54058679 C12.7204432,5.43943663 12.8380543,5.38949127 12.9494425,5.41973095 Z M13.4334772,4.22255221 C13.5469489,4.18893477 13.6653642,4.23961911 13.7215799,4.33815335 L13.7441936,4.39123921 L13.8092876,4.61216532 C13.8327013,4.69163048 13.7872627,4.7750303 13.7077975,4.79844403 C13.6837852,4.80551905 13.658384,4.80647202 13.6339091,4.80121608 L13.2988602,4.7292651 C13.2178641,4.71187137 13.1663042,4.63211062 13.1836979,4.55111449 C13.1864574,4.5382645 13.1908938,4.5258329 13.1968931,4.51413906 L13.2819663,4.34831376 L13.2819663,4.34831376 C13.3027486,4.30772597 13.3340122,4.27399642 13.3719769,4.250263 L13.4334772,4.22255221 Z" id="Shape"></path>
        <path d="M15.2358272,11.7246724 L15.7703099,11.7246724 C15.9083811,11.7246724 16.0203099,11.8366012 16.0203099,11.9746724 L16.0203099,12.5091552 C16.0203099,12.6472264 15.9083811,12.7591552 15.7703099,12.7591552 L15.2358272,12.7591552 C15.097756,12.7591552 14.9858272,12.6472264 14.9858272,12.5091552 L14.9858272,11.9746724 C14.9858272,11.8366012 15.097756,11.7246724 15.2358272,11.7246724 Z" transform="translate(15.503069, 12.241914) rotate(-16.260205) translate(-15.503069, -12.241914) "></path>
        <path d="M11.7515537,7.28700652 L12.2854938,7.28700652 C12.423565,7.28700652 12.5354938,7.39893533 12.5354938,7.53700652 L12.5354938,8.07101124 C12.5354938,8.20908243 12.423565,8.32101124 12.2854938,8.32101124 L11.7515537,8.32101124 C11.6134825,8.32101124 11.5015537,8.20908243 11.5015537,8.07101124 L11.5015537,7.53700652 C11.5015537,7.39893533 11.6134825,7.28700652 11.7515537,7.28700652 Z" transform="translate(12.018524, 7.804009) rotate(-61.691480) translate(-12.018524, -7.804009) "></path>
        <path d="M14.6568272,9.73798707 L15.1913099,9.73798707 C15.3293811,9.73798707 15.4413099,9.84991588 15.4413099,9.98798707 L15.4413099,10.5224698 C15.4413099,10.660541 15.3293811,10.7724698 15.1913099,10.7724698 L14.6568272,10.7724698 C14.518756,10.7724698 14.4068272,10.660541 14.4068272,10.5224698 L14.4068272,9.98798707 C14.4068272,9.84991588 14.518756,9.73798707 14.6568272,9.73798707 Z" transform="translate(14.924069, 10.255228) rotate(-16.260205) translate(-14.924069, -10.255228) "></path>
        <path d="M16.2940718,15.6447207 L16.8541192,15.501418 C16.987881,15.4671915 17.1240623,15.5478808 17.1582887,15.6816426 C17.1622356,15.6970674 17.1646998,15.712834 17.165648,15.7287276 L17.194239,16.2079958 C17.2011892,16.3245006 17.1266025,16.4303123 17.0145396,16.4629249 L16.4259012,16.6342304 C16.2933298,16.6728113 16.1545835,16.596617 16.1160026,16.4640457 C16.1093971,16.4413479 16.1060443,16.4178281 16.1060443,16.3941887 L16.1060443,15.8869177 C16.1060443,15.7727153 16.1834339,15.6730303 16.2940718,15.6447207 Z" transform="translate(16.656083, 16.076818) rotate(-16.260205) translate(-16.656083, -16.076818) "></path>
        <path d="M17.946134,14.5639406 L18.4804481,14.5639406 C18.6185193,14.5639406 18.7304481,14.6758694 18.7304481,14.8139406 L18.7304481,15.3481901 C18.7304481,15.4862613 18.6185193,15.5981901 18.4804481,15.5981901 L17.946134,15.5981901 C17.8080628,15.5981901 17.696134,15.4862613 17.696134,15.3481901 L17.696134,14.8139406 C17.696134,14.6758694 17.8080628,14.5639406 17.946134,14.5639406 Z" transform="translate(18.213291, 15.081065) rotate(-31.003068) translate(-18.213291, -15.081065) "></path>
    </g>
</svg>