<?xml version="1.0" encoding="UTF-8"?>
<svg width="18px" height="17px" viewBox="0 0 18 17" version="1.1" xmlns="http://www.w3.org/2000/svg">
        <path d="M16.0506675,0 C16.8531725,0 17.5062389,0.65306634 17.5062389,1.45557134 L17.5062389,15.0409038 C17.5062389,15.8434088 16.8531725,16.4964752 16.0506675,16.4964752 L1.4949542,16.4964752 C0.6924492,16.4964752 0.0393828,15.8434088 0.0393828,15.0409038 L0.0393828,1.45557134 C0.0393828,0.65306634 0.6924492,0 1.4949542,0 L16.0506675,0 Z M15.5525932,1.47393799 L2.0402832,1.47393799 C1.785515,1.47393799 1.5770683,1.67877731 1.5770683,1.93116862 L1.5770683,14.5 C1.5770683,14.7523913 1.785515,14.9572306 2.0402832,14.9572306 L15.5525932,14.9572306 C15.8073614,14.9572306 16.0158081,14.7523913 16.0158081,14.5 L16.0158081,1.93116862 C16.0158081,1.67877731 15.8073614,1.47393799 15.5525932,1.47393799 Z M5.8616682,4.85190446 C6.9319983,4.85190446 7.80243,5.72233612 7.80243,6.79266625 L7.80243,10.1889994 C7.80243,10.4568245 7.5850646,10.6741898 7.3172395,10.6741898 C7.0494144,10.6741898 6.8320491,10.4568245 6.8320491,10.1889994 L6.8313828,8.733 L4.8903828,8.733 L4.8912873,10.1889994 C4.8912873,10.4568245 4.673922,10.6741898 4.4060968,10.6741898 C4.1382717,10.6741898 3.9209064,10.4568245 3.9209064,10.1889994 L3.9209064,6.79266625 C3.9209064,5.72233612 4.791338,4.85190446 5.8616682,4.85190446 Z M11.1987631,4.85190446 C12.5369183,4.85190446 13.6247153,5.94067182 13.6247153,7.2778567 L13.6247153,8.2482376 C13.6247153,9.5854225 12.5369183,10.6741898 11.1987631,10.6741898 L10.2283822,10.6741898 C9.9605571,10.6741898 9.7431917,10.4568245 9.7431917,10.1889994 L9.7431917,5.33709491 C9.7431917,5.06926978 9.9605571,4.85190446 10.2283822,4.85190446 L11.1987631,4.85190446 Z M11.1987631,5.82228535 L10.7135726,5.82228535 L10.7135726,9.7038089 L11.1987631,9.7038089 C12.0012681,9.7038089 12.6543344,9.0507426 12.6543344,8.2482376 L12.6543344,7.2778567 C12.6543344,6.47535169 12.0012681,5.82228535 11.1987631,5.82228535 Z M5.8616682,5.82228535 C5.3260179,5.82228535 4.8912873,6.25798637 4.8912873,6.79266625 L4.8903828,7.763 L6.8313828,7.763 L6.8320491,6.79266625 C6.8320491,6.25798637 6.3973184,5.82228535 5.8616682,5.82228535 Z" fill="#666666" class="path" fill-rule="nonzero"></path>
</svg>