<?xml version="1.0" encoding="UTF-8"?>
<svg width="23px" height="26px" viewBox="0 0 23 26" version="1.1" xmlns="http://www.w3.org/2000/svg" xmlns:xlink="http://www.w3.org/1999/xlink">
    <g id="Wireframes" stroke="none" stroke-width="1" fill="none" fill-rule="evenodd">
        <g id="offer-file-icon" transform="translate(0.870684, 0.500187)" fill-rule="nonzero">
            <path d="M16.8870357,0.116502193 C16.8148643,0.0419750548 16.7154947,-5.15143483e-14 16.6118421,-5.15143483e-14 L6.9627193,-5.15143483e-14 C5.84288476,0.00128495066 4.93549545,0.908674287 4.93421053,2.02850877 L4.93421053,3.85228207 L2.02850877,3.85228207 C0.908674232,3.853567 0.00128492325,4.7611705 1.93622895e-13,5.88079084 L1.93622895e-13,22.9567143 C0.00128492325,24.0765488 0.908674232,24.9839381 2.02850877,24.9852231 L14.8047731,24.9852231 C15.9246076,24.9839381 16.8319969,24.0765488 16.8332819,22.9567143 L16.8332819,21.1331552 L19.7389837,21.1331552 C20.8588181,21.1318702 21.7662075,20.2242667 21.7674924,19.1046464 L21.7674924,5.299779 C21.7674924,5.19998114 21.7285156,5.10403816 21.6591283,5.03250927 L16.8870357,0.116502193 Z" id="Path" fill="#FFFFFF"></path>
            <path d="M16.6118421,-5.32907052e-14 C16.7154947,-5.32907052e-14 16.8148643,0.0419750548 16.8870357,0.116502193 L16.8870357,0.116502193 L21.6591283,5.03250927 C21.7285156,5.10403816 21.7674924,5.19998114 21.7674924,5.299779 L21.7674924,5.299779 L21.7674924,19.1046464 C21.7662075,20.2242667 20.8588181,21.1318702 19.7389837,21.1331552 L19.7389837,21.1331552 L16.8332819,21.1331552 L16.8332819,22.9567143 C16.8319969,24.0765488 15.9246076,24.9839381 14.8047731,24.9852231 L14.8047731,24.9852231 L2.02850877,24.9852231 C0.908674232,24.9839381 0.00128492325,24.0765488 1.93622895e-13,22.9567143 L1.93622895e-13,22.9567143 L1.93622895e-13,5.88079084 C0.00128492325,4.7611705 0.908674232,3.853567 2.02850877,3.85228207 L2.02850877,3.85228207 L4.93421053,3.85228207 L4.93421053,2.02850877 C4.93549545,0.908674287 5.84288476,0.00128495066 6.9627193,-5.32907052e-14 L6.9627193,-5.32907052e-14 Z M4.93421053,5.0803959 L2.36247051,5.0803959 C1.66645554,5.08125253 1.10236217,5.64534584 1.10150559,6.34136081 L1.10150559,6.34136081 L1.10150559,22.680106 C1.10236217,23.376121 1.66645554,23.9402143 2.36247051,23.9410709 L2.36247051,23.9410709 L14.5524333,23.9410709 C15.2486624,23.9402143 15.8127558,23.376121 15.8133982,22.680106 L15.8133982,22.680106 L15.8133982,21.1331552 L6.9627193,21.1331552 C5.8430989,21.1318702 4.93549545,20.2242667 4.93421053,19.1046464 L4.93421053,19.1046464 L4.93421053,5.0803959 Z M15.9834144,1.10561625 L7.24503887,1.1189644 C6.5490239,1.11982104 5.98493053,1.6839144 5.98407395,2.37992932 L5.98407395,2.37992932 L5.98407395,18.8435738 C5.98493053,19.5395887 6.5490239,20.1036821 7.24503887,20.1045387 L7.24503887,20.1045387 L19.4943279,20.0911905 C20.1903428,20.0903339 20.7544361,19.5262405 20.7552928,18.8302256 L20.7552928,18.8302256 L20.7552928,6.02226581 L17.5055253,6.02226581 C16.8005157,6.02140918 15.984271,5.44939196 15.9834144,4.74416822 L15.9834144,4.74416822 L15.9834144,1.10561625 Z M18.3563768,17.0598616 C18.5683936,17.0598616 18.7401487,17.2318308 18.7401487,17.4436335 C18.7401487,17.6556503 18.5683936,17.8274054 18.3563768,17.8274054 L18.3563768,17.8274054 L8.07013257,17.8274054 C7.85832988,17.8274054 7.68636064,17.6556503 7.68636064,17.4436335 C7.68636064,17.2318308 7.85832988,17.0598616 8.07013257,17.0598616 L8.07013257,17.0598616 Z M14.2280445,14.6512215 C14.4400613,14.6512215 14.6118164,14.8229766 14.6118164,15.0349935 C14.6118164,15.2467962 14.4400613,15.4187654 14.2280445,15.4187654 L14.2280445,15.4187654 L8.07013257,15.4187654 C7.85832988,15.4187654 7.68636064,15.2467962 7.68636064,15.0349935 C7.68636064,14.8229766 7.85832988,14.6512215 8.07013257,14.6512215 L8.07013257,14.6512215 Z M10.0273934,2.8818935 C10.3096456,2.8818935 10.533787,3.09743719 10.5379378,3.36000858 L10.5379378,3.36000858 L10.5379378,4.09677607 L11.4760112,4.09677607 C11.7582634,4.09677607 11.9865556,4.31231975 11.9865556,4.57881012 C11.9865556,4.84530049 11.7582634,5.06084417 11.4760112,5.06084417 L11.4760112,5.06084417 L9.45458753,5.06084417 C9.04366156,5.06084417 8.70744941,5.41747098 8.70744941,5.85247732 C8.70744941,6.28748366 9.04366156,6.64411048 9.45458753,6.64411048 L9.45458753,6.64411048 L10.6001993,6.64411048 C11.5714789,6.64411048 12.3642754,7.42790568 12.3642754,8.39589275 C12.3642754,9.3521229 11.588082,10.1359181 10.6251039,10.147675 L10.6251039,10.147675 L10.5379378,10.147675 L10.5379378,10.9001184 C10.5379378,11.1666088 10.3096456,11.3821525 10.0273934,11.3821525 C9.74514125,11.3821525 9.51684904,11.1666088 9.51684904,10.9001184 L9.51684904,10.9001184 L9.51684904,10.151594 L8.53726794,10.151594 C8.25501576,10.151594 8.02672356,9.93605032 8.02672356,9.66955996 C8.02672356,9.40306959 8.25501576,9.18752591 8.53726794,9.18752591 L8.53726794,9.18752591 L10.5960486,9.18752591 C11.0069745,9.18752591 11.3431867,8.83481806 11.3431867,8.39589275 C11.3431867,7.96088641 11.0069745,7.6042596 10.5960486,7.6042596 L10.5960486,7.6042596 L9.45043676,7.6042596 C8.4791572,7.6042596 7.68636064,6.81654542 7.68636064,5.85247732 C7.68636064,4.88840922 8.4791572,4.10069504 9.45043676,4.10069504 L9.45043676,4.10069504 L9.51684904,4.10069504 L9.51684904,3.36392755 C9.51684904,3.09743719 9.74514125,2.8818935 10.0273934,2.8818935 Z M16.9960423,1.87139546 L16.9960423,4.40630998 C16.9962565,4.68771414 17.2243352,4.91579287 17.5059536,4.91622122 L17.5059536,4.91622122 L19.9884471,4.91622122 L16.9960423,1.87139546 Z" fill="#000"></path>
        </g>
    </g>
</svg>