<?xml version="1.0" encoding="UTF-8"?>
<svg width="20px" height="20px" viewBox="0 0 20 20" version="1.1" xmlns="http://www.w3.org/2000/svg">
    <path d="M9.4912341,0.8713855 C9.701424,0.718834 9.98590111,0.718834 10.196091,0.8713855 L10.196091,0.8713855 L11.7855492,2.0249809 C11.9054271,2.1119858 12.0532513,2.1515725 12.2005666,2.1361211 L12.2005666,2.1361211 L14.1537064,1.931262 C14.4120751,1.9041625 14.6585354,2.0464157 14.7643096,2.2836931 L14.7643096,2.2836931 L15.5639731,4.0775328 C15.6242652,4.2127826 15.7324421,4.3209595 15.8676919,4.3812516 L15.8676919,4.3812516 L17.6615317,5.1809151 C17.8988091,5.2866894 18.0410623,5.5331496 18.0139627,5.7915183 L18.0139627,5.7915183 L17.8091037,7.7446582 C17.7936522,7.8919734 17.833239,8.0397977 17.9202438,8.1596755 L17.9202438,8.1596755 L19.0738393,9.7491337 C19.2263907,9.9593236 19.2263907,10.2438007 19.0738393,10.4539906 L19.0738393,10.4539906 L17.9202438,12.0434489 C17.833239,12.1633267 17.7936522,12.3111509 17.8091037,12.4584662 L17.8091037,12.4584662 L18.0139627,14.4116061 C18.0410623,14.6699747 17.8988091,14.916435 17.6615317,15.0222093 L17.6615317,15.0222093 L15.8676919,15.8218728 C15.7324421,15.8821648 15.6242652,15.9903418 15.5639731,16.1255916 L15.5639731,16.1255916 L14.7643096,17.9194313 C14.6585354,18.1567087 14.4120751,18.2989619 14.1537064,18.2718624 L14.1537064,18.2718624 L12.2005666,18.0670033 C12.0532513,18.0515518 11.9054271,18.0911386 11.7855492,18.1781435 L11.7855492,18.1781435 L10.196091,19.3317389 C9.98590111,19.4842903 9.701424,19.4842903 9.4912341,19.3317389 L9.4912341,19.3317389 L7.90177587,18.1781435 C7.78189802,18.0911386 7.6340738,18.0515518 7.48675853,18.0670033 L7.48675853,18.0670033 L5.53361868,18.2718624 C5.27525001,18.2989619 5.02878973,18.1567087 4.92301547,17.9194313 L4.92301547,17.9194313 L4.12335197,16.1255916 C4.0630599,15.9903418 3.95488298,15.8821648 3.81963319,15.8218728 L3.81963319,15.8218728 L2.02579345,15.0222093 C1.78851606,14.916435 1.64626286,14.6699747 1.67336239,14.4116061 L1.67336239,14.4116061 L1.87822145,12.4584662 C1.89367292,12.3111509 1.85408612,12.1633267 1.76708129,12.0434489 L1.76708129,12.0434489 L0.613485827,10.4539906 C0.460934405,10.2438007 0.460934405,9.9593236 0.613485827,9.7491337 L0.613485827,9.7491337 L1.76708129,8.1596755 C1.85408612,8.0397977 1.89367292,7.8919734 1.87822145,7.7446582 L1.87822145,7.7446582 L1.67336239,5.7915183 C1.64626286,5.5331496 1.78851606,5.2866894 2.02579345,5.1809151 L2.02579345,5.1809151 L3.81963319,4.3812516 C3.95488298,4.3209595 4.0630599,4.2127826 4.12335197,4.0775328 L4.12335197,4.0775328 L4.92301547,2.2836931 C5.02878973,2.0464157 5.27525001,1.9041625 5.53361868,1.931262 L5.53361868,1.931262 L7.48675853,2.1361211 C7.6340738,2.1515725 7.78189802,2.1119858 7.90177587,2.0249809 L7.90177587,2.0249809 L9.4912341,0.8713855 Z M9.84366256,2.3288571 L8.10220161,3.592764 L5.95994682,3.3683429 L5.08101296,5.3365688 L3.11278708,6.2155026 L3.33955201,8.3577574 L2.07095748,10.1015622 L3.33955201,11.845367 L3.11044325,13.9829341 L5.07866914,14.861868 L5.957603,16.8300938 L8.09985778,16.6056727 L9.84366256,17.8742673 L11.5874673,16.6056727 L13.7273783,16.8324377 L14.6063122,14.8642118 L16.5721942,13.9876217 L16.3477731,11.845367 L17.6163676,10.1015622 L16.3477731,8.3577574 L16.5768819,6.2201903 L14.608656,5.3412564 L13.7297221,3.3730305 L11.5874673,3.5974516 L9.84366256,2.3288571 Z M9.83642616,4.5143499 C9.99631948,4.5143499 10.2141525,4.5295227 10.4899253,4.5596624 C10.4963282,4.5603622 10.5027068,4.561268 10.5090514,4.5623786 C10.6489,4.5868574 10.7490432,4.7045376 10.7568712,4.8404163 L10.7528486,4.909525 L10.6638582,5.4179309 C10.6364712,5.5743941 10.4918979,5.6824108 10.3340987,5.6642396 C10.1911407,5.647846 10.0756429,5.6382237 9.9876053,5.6353725 C9.51587281,5.6200949 9.04334043,5.6796163 8.587816,5.8129506 C6.21959226,6.5061413 4.86173701,8.98791 5.55492767,11.3561337 C6.24811834,13.7243574 8.72988705,15.0822127 11.0981108,14.389022 C13.2799348,13.7503915 14.6041806,11.5936556 14.2570678,9.4062208 C14.2454215,9.3328277 14.2260526,9.2378466 14.1989612,9.1212772 C14.1680478,8.9882625 14.2308402,8.854413 14.345756,8.7908885 L14.407365,8.7653161 L14.906344,8.619932 C14.911303,8.6184871 14.9162985,8.6171706 14.9213256,8.6159837 C15.0825485,8.5779187 15.2441034,8.677758 15.2822208,8.8389686 C15.3184383,8.9923665 15.344256,9.1168944 15.3596738,9.212552 C15.4066116,9.5037706 15.4304755,9.7986077 15.4308914,10.0943092 C15.4348436,13.1800547 12.9366095,15.6847561 9.85089895,15.6887745 C6.76515349,15.6927267 4.26045205,13.1945275 4.2564337,10.108782 C4.25248153,7.0230366 6.75071566,4.5183351 9.83642616,4.5143499 Z M11.7530876,8.0425151 C11.8702449,7.9253578 12.0601944,7.9253578 12.1773517,8.0425151 L12.1773517,8.0425151 L12.5439871,8.4091505 C12.6611443,8.5263078 12.6611443,8.7162573 12.5439871,8.8334146 L12.5439871,8.8334146 L9.00466029,12.3727413 L7.14333805,10.5114191 C7.02618077,10.3942618 7.02618077,10.2043123 7.14333805,10.087155 L7.14333805,10.087155 L7.50997346,9.7205196 C7.62713074,9.6033623 7.81708024,9.6033623 7.93423752,9.7205196 L7.93423752,9.7205196 L9.00466029,10.7909424 L11.7530876,8.0425151 Z M14.1528555,6.601838 L14.1993089,6.6531852 L14.5296942,7.1152626 C14.5360759,7.1241879 14.541963,7.1334566 14.5473292,7.143027 C14.6167857,7.2668993 14.5888971,7.4189302 14.4885032,7.5108689 L14.4323791,7.551422 L13.9825252,7.8036596 C13.8712494,7.8660532 13.7356988,7.850285 13.6421502,7.7711774 L13.5915914,7.7162306 L13.3271625,7.3456198 C13.2531651,7.2419085 13.2540239,7.1056501 13.3222821,7.0040963 L13.3712653,6.9478666 L13.7551627,6.6041625 L13.7807845,6.5836345 C13.8963087,6.5010347 14.0504789,6.5121123 14.1528555,6.601838 Z M12.256272,5.102972 L12.3287299,5.1331063 L12.7876323,5.3890781 L12.8158492,5.4069461 C12.9314172,5.4894845 12.9708776,5.6389303 12.919153,5.7648518 L12.8856221,5.8254335 L12.5865625,6.2441684 C12.5125672,6.3477746 12.3835361,6.3912493 12.2653661,6.3597938 L12.1962945,6.3318106 L11.7984308,6.1098905 C11.6841032,6.0461209 11.6264817,5.9174544 11.6495346,5.7932937 L11.6678948,5.7319101 L11.8495405,5.2985924 C11.8544429,5.2868976 11.8599958,5.2754862 11.866173,5.2644117 C11.9445781,5.1238484 12.1079293,5.0605771 12.256272,5.102972 Z" class="path" fill="#666666" fill-rule="nonzero"></path>
</svg>