<?xml version="1.0" encoding="UTF-8"?>
<svg width="54px" height="55px" viewBox="0 0 54 55" version="1.1" xmlns="http://www.w3.org/2000/svg">
    <path d="M29.0721698,4.74591954 C37.1708744,0.557032549 45.6404059,0.327006049 49.9686166,0.563466119 C52.1136322,0.680536003 53.8195829,2.38627584 53.9365473,4.53129142 C54.172691,8.85918571 53.9430864,17.3288226 49.7539885,25.4278437 C47.6185705,29.5565083 43.9978416,33.9228985 39.8203452,37.4074678 C39.7688766,37.4503934 39.7169862,37.4921589 39.6654122,37.5347681 L39.6654122,37.5347681 L39.0545394,45.4426805 C38.9541335,46.7442656 38.2719641,47.9036793 37.1830033,48.6237118 L37.1830033,48.6237118 L29.0227051,54.0189459 C28.5405037,54.3377768 27.9872167,54.5000926 27.4300273,54.5000926 C27.0332553,54.5000926 26.6346904,54.4178273 26.2580629,54.2511873 C25.3529334,53.8507239 24.7220216,53.0275433 24.5704636,52.0493242 L24.5704636,52.0493242 L23.5385611,45.3866768 C23.409046,45.4101962 23.2796363,45.4338212 23.1501211,45.4554422 C22.9233642,45.4933053 22.6955525,45.5119732 22.4690065,45.5119732 C21.3689714,45.5119732 20.295409,45.0739631 19.5009158,44.2794699 L19.5009158,44.2794699 L10.2205435,34.9989922 C9.262258,34.0408121 8.82266586,32.6766843 9.04446583,31.3498923 C9.06608684,31.2203772 9.08971176,31.0909675 9.1132312,30.9614523 L9.1132312,30.9614523 L2.45068922,29.9295499 C1.47247015,29.7779918 0.649395042,29.1470801 0.248826198,28.2417397 C-0.151637178,27.3365047 -0.0648367151,26.3030202 0.481173002,25.4772029 L0.481173002,25.4772029 L5.87630166,17.3169047 C6.59622871,16.2280493 7.75564243,15.5457745 9.05733297,15.4451577 L9.05733297,15.4451577 L16.9653509,14.8342849 C17.0079601,14.7827109 17.0497255,14.7309259 17.0926512,14.6794573 C20.5772204,10.5020664 24.9436107,6.88144296 29.0721698,4.74591954 Z M10.3937226,41.868885 C11.0115563,41.2510513 12.0132948,41.2510513 12.631023,41.868885 C13.2488567,42.4867187 13.2488567,43.4883517 12.6309175,44.1061854 L12.6309175,44.1061854 L2.70064924,54.0364537 C2.39183787,54.345476 1.98694483,54.4998817 1.58205178,54.4998817 C1.17715873,54.4998817 0.772371153,54.345476 0.463454317,54.0365591 C-0.154379356,53.4187255 -0.154379356,52.4170924 0.463454317,51.7992588 L0.463454317,51.7992588 Z M15.1272482,46.6024106 C15.7449764,45.9845769 16.7467149,45.9845769 17.3644431,46.6024106 C17.9822768,47.2202443 17.9822768,48.2218773 17.3644431,48.839711 L17.3644431,48.839711 L12.199341,54.0048132 C11.8905296,54.3138355 11.4855311,54.4682412 11.0807435,54.4682412 C10.6759559,54.4682412 10.2710629,54.31373 9.96214606,54.0048132 C9.34431238,53.3869795 9.34431238,52.3853465 9.96214606,51.7675128 L9.96214606,51.7675128 Z M36.2981237,40.0472354 C33.1890218,42.1284426 29.9255143,43.6819916 26.6264639,44.6519842 L26.6264639,44.6519842 L27.6322102,51.145144 L35.4380292,45.9842605 C35.7068681,45.8065464 35.8754065,45.5201997 35.9001916,45.1988376 L35.9001916,45.1988376 Z M5.66019698,37.1353594 C6.27803066,36.5175257 7.27976917,36.5175257 7.89749738,37.1353594 C8.51533105,37.7531931 8.51533105,38.7548261 7.89749738,39.3726598 L7.89749738,39.3726598 L2.73239522,44.5377619 C2.42358385,44.8467842 2.0186908,45.0011899 1.61379776,45.0011899 C1.20890471,45.0011899 0.804011662,44.8466788 0.495200294,44.5377619 C-0.122633378,43.9199283 -0.122633378,42.9182952 0.495200294,42.3004615 L0.495200294,42.3004615 Z M13.4005202,27.1716576 C12.8698034,28.6511678 12.4410745,30.2216972 12.1651692,31.8715388 C12.1114858,32.1920572 12.220962,32.5248099 12.4577385,32.7616918 L12.4577385,32.7616918 L21.7382162,42.0421695 C21.9749926,42.278946 22.3073235,42.3881058 22.6283692,42.3347388 C23.9567432,42.1126224 25.5483663,41.7329363 27.3252972,41.0964347 L27.3252972,41.0964347 Z M49.7963867,3.72266548 C45.7898546,3.5045569 37.9587231,3.7115913 30.5259457,7.55622955 C26.7576665,9.5052849 22.7470211,12.8403 19.5223259,16.7062429 C17.9776362,18.5580564 16.1938498,21.0438403 14.7322692,24.0290168 L14.7322692,24.0290168 L30.4703638,39.7671115 C32.7571289,38.6513616 35.2380612,37.1094142 37.7938761,34.9775821 C41.6597134,31.7528869 44.9947286,27.742347 46.9436785,23.9741733 C50.7883167,16.5412904 50.995773,8.71026438 50.777348,4.70373219 C50.7484497,4.17333179 50.3266817,3.75156381 49.7963867,3.72266548 Z M14.4525671,18.2018897 L9.30107036,18.5998219 C8.97981372,18.6246069 8.69346711,18.7930399 8.51564745,19.0619842 L8.51564745,19.0619842 L3.35465856,26.8679087 L9.84771288,27.8735496 C10.8177054,24.5744992 12.3712544,21.3109916 14.4525671,18.2018897 L14.4525671,18.2018897 Z M31.3969034,11.91703 C34.4807984,8.83302955 39.4989831,8.83281862 42.583089,11.91703 C44.0770483,13.4109893 44.899807,15.3973805 44.899807,17.5101227 C44.899807,19.622865 44.0771538,21.6092562 42.583089,23.1032155 C41.041247,24.6450575 39.0151997,25.4160313 36.9899962,25.4162422 C34.9640544,25.4164531 32.9390618,24.6453739 31.3969034,23.1032155 C29.902944,21.6092562 29.0800799,19.622865 29.0800799,17.5101227 C29.0800799,15.3973805 29.9028386,13.4109893 31.3969034,11.91703 Z M36.9897853,12.7663667 C35.7744733,12.7663667 34.5591614,13.2289509 33.6339929,14.1542249 C32.7376173,15.0506005 32.2438144,16.2424985 32.2438144,17.5101227 C32.2438144,18.777747 32.7375118,19.9695395 33.6338874,20.8659151 C35.4843298,22.7162521 38.4953461,22.7163576 40.3456831,20.8659151 C41.2420587,19.9695395 41.7356507,18.7776415 41.7356507,17.5100173 C41.7356507,16.242393 41.2420587,15.0506005 40.3456831,14.1542249 C39.4205146,13.2289509 38.2052027,12.7663667 36.9897853,12.7663667 Z" id="onboard-icon" fill="#2793FF" fill-rule="nonzero"></path>
</svg>