<?xml version="1.0" encoding="UTF-8"?>
<svg width="19px" height="18px" viewBox="0 0 19 18" version="1.1" xmlns="http://www.w3.org/2000/svg" xmlns:xlink="http://www.w3.org/1999/xlink">
    <title>pending-icon</title>
    <defs>
        <linearGradient x1="100%" y1="100%" x2="5.43323864%" y2="-5.3109976%" id="linearGradient-1">
            <stop stop-color="#E95A0C" offset="0%"></stop>
            <stop stop-color="#FF7800" offset="100%"></stop>
        </linearGradient>
    </defs>
    <g id="Wireframes" stroke="none" stroke-width="1" fill="none" fill-rule="evenodd">
        <g id="Firma-de-Contrato" transform="translate(-400.000000, -242.000000)" fill="url(#linearGradient-1)" fill-rule="nonzero">
            <path d="M409.496055,241.999993 C409.780714,242.000115 410.182634,242.030667 410.701815,242.091648 C410.707411,242.092305 410.712987,242.09312 410.718537,242.094091 C410.881669,242.122646 410.990767,242.278039 410.962341,242.441194 L410.962341,242.441194 L410.764131,243.573581 C410.73654,243.731207 410.590111,243.839446 410.431334,243.819527 C410.134214,243.782368 409.901374,243.761058 409.732813,243.755599 C408.994044,243.731674 408.254022,243.824889 407.540636,244.0337 C403.831817,245.11929 401.705313,249.005928 402.790902,252.714747 C403.876491,256.423566 407.76313,258.550071 411.471949,257.464481 C414.888851,256.464337 416.962721,253.086725 416.419116,249.661035 C416.396016,249.515463 416.353516,249.315658 416.291617,249.061623 C416.253601,248.905608 416.34511,248.747307 416.499323,248.70254 L416.499323,248.70254 L417.606761,248.379874 C417.610809,248.378694 417.614882,248.3776 417.618976,248.376592 C417.779912,248.336975 417.942493,248.435324 417.982013,248.596284 C418.061453,248.918995 418.116076,249.172812 418.145881,249.357735 C418.219389,249.813805 418.256762,250.275543 418.257406,250.738634 C418.263603,255.571146 414.351178,259.4937 409.51872,259.499993 C404.686208,259.506182 400.763654,255.593812 400.757369,250.761299 C400.751172,245.928787 404.663597,242.006234 409.496055,241.999993 Z M415.799911,245.125859 C415.934689,245.029492 416.122069,245.060631 416.218435,245.195409 L416.218435,245.195409 L416.956318,246.227414 C416.9627,246.236339 416.968587,246.245608 416.973953,246.255178 C417.054986,246.399696 417.003521,246.582541 416.859003,246.663573 L416.859003,246.663573 L415.85632,247.225788 C415.722789,247.30066 415.554302,247.262979 415.465386,247.138359 L415.465386,247.138359 L414.874516,246.310223 C414.785719,246.18577 414.804715,246.014448 414.918619,245.91247 L414.918619,245.91247 L415.774289,245.146387 C415.782449,245.139081 415.791002,245.132229 415.799911,245.125859 Z M412.748612,242.99544 C412.840084,242.831449 413.047178,242.772662 413.211168,242.864134 L413.211168,242.864134 L414.283692,243.462379 C414.293422,243.467806 414.302843,243.473772 414.311909,243.480247 C414.446739,243.576542 414.477977,243.763905 414.381682,243.898734 L414.381682,243.898734 L413.714703,244.83262 C413.625908,244.956947 413.457863,244.994685 413.324435,244.920262 L413.324435,244.920262 L412.436117,244.424777 C412.302735,244.350379 412.246536,244.18765 412.305581,244.046797 L412.305581,244.046797 L412.731979,243.02962 C412.736881,243.017926 412.742434,243.006514 412.748612,242.99544 Z M408.66613,245.747089 C409.198909,245.747089 409.630811,246.178992 409.630811,246.71177 L409.629943,250.508089 L413.447003,250.50892 C413.979781,250.50892 414.411684,250.940823 414.411684,251.473601 C414.411684,252.00638 413.979781,252.438282 413.447003,252.438282 L408.968871,252.43937 C408.873657,252.470814 408.771881,252.48783 408.66613,252.48783 C408.308899,252.48783 407.997019,252.293655 407.830277,252.005093 C407.729678,251.852829 407.670943,251.670075 407.670943,251.473601 C407.670943,251.39127 407.681257,251.311347 407.700663,251.235054 L407.701449,246.71177 C407.701449,246.178992 408.133352,245.747089 408.66613,245.747089 Z" id="pending-icon"></path>
        </g>
    </g>
</svg>