<?xml version="1.0" encoding="UTF-8"?>
<svg width="462px" height="176px" viewBox="0 0 462 176" version="1.1" xmlns="http://www.w3.org/2000/svg" xmlns:xlink="http://www.w3.org/1999/xlink">
    <title>ritmo-logo-white</title>
    <g id="Logo" stroke="none" stroke-width="1" fill="none" fill-rule="evenodd">
        <g id="WHITE-LOGO" transform="translate(-489.000000, -610.000000)" fill-rule="nonzero">
            <g id="ritmo-logo-white" transform="translate(489.000000, 610.000000)">
                <path d="M175.971221,4.32848792 C178.237008,6.55476867 179.514423,9.59724206 179.517014,12.7736552 C179.519508,13.0592179 179.511961,13.3425281 179.494703,13.6232503 L179.494758,43.0244677 L204.787399,43.0230751 C205.047029,43.004057 205.308973,42.9932549 205.572976,42.9909295 C208.77491,42.9373769 211.86437,44.1711764 214.148566,46.4156573 C216.432763,48.6601382 217.720557,51.7274843 217.723169,54.929865 C217.780368,61.4807375 212.596919,66.8557734 206.085968,67.0727904 L205.864,67.076871 L205.864903,67.1193065 L179.494758,67.1193065 L179.494758,95.5849032 C179.606296,111.254646 192.319514,123.909902 207.989604,123.949835 C223.502992,123.989368 236.181405,111.650014 236.619137,96.199636 L236.628645,95.7305 L236.628645,74.5504516 C236.647524,56.69241 251.118783,42.2198744 268.976823,42.1994194 C275.561263,42.2534557 281.971989,44.2899806 287.375973,48.0365684 L287.850161,48.3715806 L289.177661,49.3051129 L290.508016,48.3715806 C300.333799,41.2326305 313.336472,40.2173801 324.15124,45.7447136 C334.830822,51.2029554 341.589318,62.1276445 341.728596,74.0954842 L341.730698,74.5504516 L341.730698,163.424435 C341.730698,170.070157 336.342109,175.457579 329.696387,175.457579 C323.151358,175.457579 317.826787,170.232176 317.666938,163.725633 L317.663242,163.424435 L317.640403,162.194 L317.640403,74.5504516 C317.63098,69.9914372 313.937514,66.2979711 309.3785,66.2885484 C304.959664,66.2371267 301.317962,69.7050193 301.123882,74.0900238 L301.116597,74.3391935 L301.116597,95.713371 C300.869504,102.264299 295.425219,107.412704 288.870713,107.293729 C282.417044,107.176584 277.224315,101.995312 277.057295,95.57827 L277.053161,95.2765806 L277.024613,74.3391935 C276.986875,71.4252374 275.397427,68.7527637 272.854998,67.3284674 C270.31257,65.9041711 267.203415,65.9444367 264.698724,67.4340964 C262.277523,68.8741009 260.776735,71.4570052 260.713461,74.2597646 L260.712065,74.5504516 L260.712065,95.8047258 C260.651361,124.82438 237.077074,148.300248 208.057419,148.239546 C179.327962,148.17945 156.031968,125.073692 155.62648,96.4538412 L155.621217,95.5849032 L155.621217,12.3492258 L155.633892,12.3493238 C155.90783,6.04317953 161.079196,0.987773806 167.464746,0.931530699 C170.640874,0.878412349 173.705434,2.10220717 175.971221,4.32848792 Z M370.627664,59.3354894 C389.229278,39.9855337 419.423257,37.7632052 440.657452,54.1811774 C440.220661,54.1469194 439.783871,54.118371 439.338516,54.118371 C434.849938,54.1454367 430.587551,56.0922327 427.628002,59.4670129 C424.668454,62.8417931 423.294747,67.3218477 423.853871,71.7755484 C411.959803,64.1493869 396.279203,66.3515229 386.945785,76.9588085 C377.612367,87.5660941 377.423429,103.399442 386.501074,114.226425 C395.578719,125.053408 411.202305,127.629094 423.274966,120.288925 C435.347626,112.948756 440.251088,97.8926392 434.816452,84.8507097 C436.28236,85.2969462 437.806193,85.5239819 439.338516,85.5244516 C447.442846,85.5567837 454.247302,79.4305497 455.062968,71.3673065 C467.519294,95.14294 460.056806,124.484488 437.755,139.420024 C415.453193,154.355559 385.480319,150.084501 368.238028,129.514031 C350.995737,108.943561 352.02605,78.6854451 370.627664,59.3354894 Z M128.51404,41.1031613 C135.165281,41.1031613 140.557177,46.4950574 140.557177,53.1462984 L140.557177,134.160911 C140.557177,140.812152 135.165281,146.204048 128.51404,146.204048 C121.862799,146.204048 116.470903,140.812152 116.470903,134.160911 L116.470903,53.1462984 C116.470903,46.4950574 121.862799,41.1031613 128.51404,41.1031613 Z M52.551871,41.0888871 C75.2517982,41.1189292 94.6950146,55.5522811 102.007596,75.8938337 L101.925645,75.7539719 C103.85828,82.0691328 100.34081,88.7735607 94.029922,90.7635851 C88.1215807,92.6266739 81.84847,89.700562 79.398659,84.1651912 C79.2766516,83.8127339 79.1464026,83.4645957 79.0096652,83.1198972 L78.9208019,82.8991004 L78.9048628,82.8481736 L78.9048628,82.8481736 L78.8892465,82.7975098 L78.8912339,82.8261593 C74.4678371,72.0299279 63.6507126,64.6864944 51.3933145,65.1845974 C36.2765731,65.7988954 24.3109496,78.1228399 24.0893847,93.1973949 L24.0862742,93.6550323 L24.0870769,134.387129 C23.9675425,140.886466 18.6904139,146.146303 12.150045,146.203577 C5.59917392,146.260943 0.224005171,141.077632 0.0068212673,134.566687 L0.00047437005,134.265253 L1.00108366e-10,93.6407581 C0.0314682482,64.6302057 23.5413186,41.1203553 52.551871,41.0888871 Z M128.409389,0.931544268 C131.611323,0.877991667 134.700784,2.11179118 136.98498,4.35627208 C139.269177,6.60075298 140.556971,9.66809901 140.559583,12.8704798 C140.617661,19.5221349 135.272602,24.9614955 128.620948,25.0197443 C121.969295,25.077993 116.529797,19.7330731 116.471378,13.0814209 C116.412958,6.42976874 121.757739,0.990134061 128.409389,0.931544268 Z" id="letters" fill="#FFFFFF"></path>
                <path d="M439.338516,58.7346452 C433.241842,58.7867098 428.331563,63.7523735 428.34784,69.8492479 C428.364198,75.9461222 433.300986,80.8854317 439.397851,80.9049196 C445.494717,80.9242925 450.462887,76.0165497 450.518065,69.9199032 C450.577657,66.9365142 449.419151,64.0576203 447.309694,61.9470862 C445.200237,59.8365522 442.321935,58.6765761 439.338516,58.7346452 Z" id="ball" fill="#E9A759"></path>
            </g>
        </g>
    </g>
</svg>