<?xml version="1.0" encoding="UTF-8"?>
<svg width="18px" height="18px" viewBox="0 0 18 18" version="1.1" xmlns="http://www.w3.org/2000/svg">
        <path d="M8.13351917,0.4444121 C8.74606443,-0.148243 9.70571865,-0.1482078 10.3182991,0.4444121 L10.3182991,0.4444121 L11.4184515,1.5086919 C11.5371233,1.6234913 11.6988846,1.6760857 11.8624764,1.6529921 L11.8624764,1.6529921 L13.3781035,1.4386012 C14.2218317,1.3192253 14.9983561,1.8833302 15.1456133,2.7227988 L15.1456133,2.7227988 L15.4100639,4.2305403 C15.4386142,4.3931464 15.538628,4.5308635 15.6845124,4.6082413 L15.6845124,4.6082413 L17.0366884,5.3256937 C17.7895558,5.7251507 18.0861122,6.6378079 17.7118259,7.4035247 L17.7118259,7.4035247 L17.0395751,8.7787592 C16.9670554,8.9271078 16.9670554,9.0972827 17.0395751,9.2456665 L17.0395751,9.2456665 L17.7118259,10.620901 C18.0861122,11.3866178 17.7895558,12.2993454 17.0366884,12.6987671 L17.0366884,12.6987671 L15.6845124,13.4162196 C15.5386632,13.4936326 15.4386494,13.6313145 15.4100991,13.7939558 L15.4100991,13.7939558 L15.1456133,15.3016268 C14.9983561,16.1410954 14.222219,16.7052355 13.3781035,16.5858244 L13.3781035,16.5858244 L11.8624764,16.3714336 C11.698955,16.3484807 11.5371586,16.4009343 11.4184515,16.5157338 L11.4184515,16.5157338 L10.3182639,17.5800135 C10.0120617,17.8762883 9.618871,18.0244609 9.22589154,18.0244609 C8.83280647,18.0244609 8.43986221,17.8763587 8.13351917,17.5800135 L8.13351917,17.5800135 L7.03336678,16.5157338 C6.91465973,16.4009343 6.75279289,16.3482343 6.58934188,16.3714336 L6.58934188,16.3714336 L5.07371483,16.5858244 C4.99806197,16.5965264 4.92279635,16.6017365 4.84862205,16.6017365 C4.09550822,16.6018069 3.44022562,16.065865 3.30616974,15.301662 L3.30616974,15.301662 L3.04171916,13.7939206 C3.01316892,13.6313145 2.91315507,13.4935974 2.76727073,13.4162196 L2.76727073,13.4162196 L1.41509469,12.6987671 C0.662227287,12.2993102 0.365670896,11.386653 0.739957167,10.6209362 L0.739957167,10.6209362 L1.41220798,9.2457369 C1.48472771,9.0973883 1.48472771,8.9272134 1.41220798,8.7788296 L1.41220798,8.7788296 L0.739992371,7.4036303 C0.3657061,6.6379135 0.662262491,5.7251859 1.41512989,5.3257641 L1.41512989,5.3257641 L2.76730593,4.6083117 C2.91315507,4.5308987 3.01316892,4.3932168 3.04171916,4.2305755 L3.04171916,4.2305755 L3.30616974,2.7229045 C3.45342702,1.8834358 4.22966971,1.3192605 5.07367962,1.4387069 L5.07367962,1.4387069 L6.58930668,1.6530977 C6.7528633,1.676121 6.91462453,1.6236322 7.03333158,1.5087975 L7.03333158,1.5087975 L8.13351917,0.4444121 Z M9.57580662,1.6076751 C9.3795535,1.4178882 9.07214138,1.4178882 8.87595492,1.6076751 L8.87595492,1.6076751 L7.83429348,2.6153389 C7.50214973,2.9366167 7.04914766,3.0838399 6.59167924,3.0190777 L6.59167924,3.0190777 L5.15667827,2.8160917 C4.8862636,2.7778944 4.63768076,2.9585486 4.59048401,3.2274633 L4.59048401,3.2274633 L4.34010129,4.6549648 C4.26027347,5.1101334 3.98032612,5.4953735 3.57215429,5.7119919 L3.57215429,5.7119919 L2.29190931,6.3912783 C2.05072596,6.5192362 1.95573251,6.8115826 2.07562424,7.0568657 L2.07562424,7.0568657 L2.71211365,8.3589425 C2.91503298,8.7741139 2.91503298,9.250281 2.71211365,9.6654524 L2.71211365,9.6654524 L2.07562424,10.9675292 C1.95573251,11.2128122 2.05072596,11.5051587 2.29190931,11.6331166 L2.29190931,11.6331166 L3.57215429,12.312403 C3.98035945,12.5289547 4.26027347,12.9142281 4.34013462,13.3693967 L4.34013462,13.3693967 L4.59055067,14.7969315 C4.63774742,15.0658463 4.88656358,15.2465005 5.15674493,15.2083032 L5.15674493,15.2083032 L6.5917459,15.0053172 C6.66260767,14.9952845 6.73336946,14.9903515 6.80356461,14.9903515 C7.18667151,14.9903515 7.55364618,15.137508 7.83436014,15.409056 L7.83436014,15.409056 L8.87598825,16.4167198 C9.07224138,16.6065067 9.37965349,16.6065067 9.57583995,16.4167198 L9.57583995,16.4167198 L10.6175014,15.4090893 C10.9496451,15.0878115 11.4024806,14.9405216 11.8601156,15.0053505 L11.8601156,15.0053505 L13.2951166,15.2083365 C13.5655313,15.2465005 13.8141475,15.0658796 13.8613109,14.7969649 L13.8613109,14.7969649 L14.1116936,13.3694634 C14.1915214,12.9142948 14.4714688,12.5290547 14.8796406,12.3124363 L14.8796406,12.3124363 L16.1598856,11.6331499 C16.4010689,11.5051921 16.4960624,11.2128122 16.3761373,10.9674625 L16.3761373,10.9674625 L15.7396479,9.665419 C15.5367286,9.250281 15.5367286,8.7740472 15.7396479,8.3589092 L15.7396479,8.3589092 L16.3761373,7.0568657 C16.496029,6.8115826 16.4010356,6.5192362 16.1598522,6.3912783 L16.1598522,6.3912783 L14.8796073,5.7119919 C14.4714021,5.4954401 14.1914881,5.1101667 14.1116269,4.6549981 L14.1116269,4.6549981 L13.8612442,3.2274633 C13.8140808,2.9585486 13.5652646,2.777861 13.2950499,2.8160917 L13.2950499,2.8160917 L11.860049,3.0190777 C11.4025139,3.0838399 10.9495785,2.9366501 10.6174347,2.6153389 L10.6174347,2.6153389 L9.57580662,1.6076751 Z M11.3049898,9.8785243 C12.3558922,9.8785243 13.2108856,10.7335178 13.2108856,11.7844201 C13.2108856,12.8353225 12.3558922,13.690316 11.3049898,13.690316 C10.2540875,13.690316 9.39909399,12.8353225 9.39909399,11.7844201 C9.39909399,10.7335178 10.2540875,9.8785243 11.3049898,9.8785243 Z M12.2887234,5.2142387 C12.4917082,5.0112538 12.8208633,5.0112538 13.0238129,5.2142387 C13.2268329,5.4172587 13.2268329,5.7463433 13.0237777,5.9493634 L13.0237777,5.9493634 L6.16295406,12.810187 C6.06149685,12.9117146 5.92842667,12.9624432 5.79542691,12.9624432 C5.66242714,12.9624432 5.52939217,12.9116794 5.42789976,12.810187 C5.22491493,12.6072022 5.22491493,12.2780823 5.42789976,12.0750975 L5.42789976,12.0750975 L12.2887234,5.2142387 Z M11.3049898,10.9181263 C10.8272749,10.9181263 10.4386607,11.3067405 10.4386607,11.7844201 C10.4386607,12.2620998 10.8273101,12.650714 11.3049898,12.650714 C11.7826695,12.650714 12.1712837,12.2620998 12.1712837,11.7844201 C12.1712837,11.3067405 11.7826695,10.9181263 11.3049898,10.9181263 Z M7.14672285,4.3341449 C8.1976252,4.3341449 9.05261868,5.1891384 9.05261868,6.2400407 C9.05261868,7.2909431 8.1976252,8.1459366 7.14672285,8.1459366 C6.09582051,8.1459366 5.24082703,7.2909431 5.24082703,6.2400407 C5.24082703,5.1891384 6.09582051,4.3341449 7.14672285,4.3341449 Z M7.14672285,5.3737116 C6.66904317,5.3737116 6.28042897,5.7623258 6.28042897,6.2400055 C6.28042897,6.7177204 6.66904317,7.1063346 7.14672285,7.1063346 C7.62440254,7.1063346 8.01301674,6.7177204 8.01305194,6.2400055 C8.01305194,5.7623258 7.62440254,5.3737116 7.14672285,5.3737116 Z" fill="#666666" class="path" fill-rule="nonzero"></path>
</svg>