<?xml version="1.0" encoding="UTF-8"?>
<svg width="47px" height="49px" viewBox="0 0 47 49" version="1.1" xmlns="http://www.w3.org/2000/svg">
    <defs>
        <linearGradient x1="96.2086649%" y1="100%" x2="8.81258913%" y2="-5.3109976%" id="linearGradient-1">
            <stop stop-color="#E95A0C" offset="0%"></stop>
            <stop stop-color="#FF7800" offset="100%"></stop>
        </linearGradient>
    </defs>
    <g>
        <path d="M40.2652917,27.41335 L44.4189167,31.5689333 C46.0835,33.2335166 47,35.4483916 47,37.80035 C47,40.1542666 46.0835,42.3691416 44.4189167,44.0317666 L42.0336667,46.4170166 C40.3651667,48.087475 38.0974167,48.9981 35.784625,48.9981 C35.0639583,48.9981 34.3374167,48.909975 33.622625,48.72785 L26.795875,46.9868916 C26.5412917,46.9222666 26.3239167,46.7577666 26.19075,46.5325583 C25.7246667,45.7335583 25.2429167,43.822225 26.760625,42.3045166 C27.4342917,41.63085 28.3429583,41.3684333 29.228125,41.3096833 L20.8758333,32.9573916 C20.321625,32.4031833 20.016125,31.6648916 20.016125,30.8796 C20.016125,30.0943083 20.321625,29.357975 20.8758333,28.8018083 C22.0195,27.6561833 23.8857917,27.6561833 25.0294583,28.8018083 L27.226905,31.0000114 C27.3665978,30.7061716 27.5577961,30.4310122 27.8005,30.1883083 C28.7525758,29.229689 30.2129907,29.0718403 31.3370413,29.7147621 C31.4784425,29.3835343 31.6852494,29.0726423 31.9560833,28.8018083 C32.9108696,27.8453871 34.369303,27.687431 35.4904473,28.3279398 C35.6341636,27.9912066 35.8438535,27.6811632 36.1116667,27.41335 C37.2553333,26.2696833 39.1177083,26.2696833 40.2652917,27.41335 Z M37.4962083,28.7978916 C37.3101667,28.9839333 37.2083333,29.228725 37.2083333,29.4911416 C37.2083333,29.7535583 37.312125,29.99835 37.4962083,30.1824333 L37.548125,30.2406 L38.8787917,31.5708916 C39.2606667,31.9527666 39.2606667,32.5735583 38.8787917,32.9554333 C38.6888333,33.1453916 38.4381667,33.24135 38.1875,33.24135 C37.9368333,33.24135 37.6861667,33.1453916 37.49425,32.9554333 L34.7251667,30.18635 C34.3432917,29.804475 33.7225,29.804475 33.340625,30.18635 C32.988125,30.53885 32.9610096,31.0949239 33.2592788,31.478743 L33.355125,31.5876 L36.1097083,34.3419333 C36.4915833,34.7238083 36.4915833,35.3446 36.1097083,35.726475 C35.91975,35.914475 35.6690833,36.0104333 35.4184167,36.0104333 C35.16775,36.0104333 34.9170833,35.914475 34.7251667,35.7245166 L30.5715417,31.5708916 C30.1896667,31.1870583 29.5669167,31.190975 29.1850417,31.5708916 C28.8063956,31.9514895 28.8051292,32.5694085 29.1812425,32.9535325 L33.3386667,37.1110166 C33.7205417,37.4928916 33.7205417,38.1136833 33.3386667,38.4955583 C32.9567917,38.8774333 32.336,38.8774333 31.954125,38.4955583 L23.6449167,30.18635 C23.2630417,29.8064333 22.64225,29.804475 22.260375,30.18635 C21.8785,30.568225 21.8785,31.1890166 22.260375,31.5708916 L32.647375,41.9559333 C32.9685417,42.2771 33.0253333,42.7745166 32.788375,43.1603083 C32.5494583,43.5461 32.0814167,43.7184333 31.6466667,43.5774333 C30.8124167,43.3013083 28.858,42.9683916 28.1451667,43.6871 C27.5968333,44.2354333 27.641875,44.8425166 27.7456667,45.2067666 L34.1082917,46.830225 C36.4289167,47.4255583 38.945375,46.7381833 40.6471667,45.0344333 L43.0324167,42.6491833 C44.3288333,41.3527666 45.0416667,39.6313916 45.0416667,37.80035 C45.0416667,35.9693083 44.3288333,34.2498916 43.034375,32.953475 L38.88075,28.7978916 C38.498875,28.417975 37.8780833,28.4160166 37.4962083,28.7978916 Z M19.4356421,1.26541736 L19.5836159,1.39987772 L21.7504084,3.49601772 C21.9549211,3.69385689 22.2244094,3.79789535 22.5044351,3.7903431 L22.6249326,3.78022247 L25.6100184,3.35797146 C27.2124254,3.13125297 28.691757,4.1562403 29.0554307,5.71221366 L29.0911972,5.8872481 L29.6120428,8.85680289 C29.6612448,9.13702953 29.8182087,9.37972528 30.0491661,9.53811586 L30.1525796,9.60069963 L32.8157424,11.0137498 C34.2436252,11.7713569 34.838125,13.4662466 34.2219439,14.9374254 L34.1454517,15.1061179 L32.8214279,17.8146952 C32.6990018,18.0651337 32.6815124,18.3471551 32.7689596,18.606661 L32.8214279,18.7342872 L34.1454517,21.4428645 C34.7433368,22.6660209 34.4720937,24.0796412 33.5571482,24.9898766 C32.6402805,24.8248371 31.6609402,25.0957444 30.9560833,25.8018083 C30.6852494,26.0726423 30.4784425,26.3835343 30.3370413,26.7147621 C29.0911972,28.4613037 26.5615827,26.0546221 28.3990042,24.8708434 L28.5673536,24.7744085 L31.0888454,23.4365277 C31.5273253,23.2038958 31.7204713,22.6953331 31.5618162,22.2383991 L31.5147616,22.1254307 L30.2611712,19.561006 C29.8922566,18.8062703 29.8638786,17.9490045 30.176037,17.1784949 L30.2611712,16.9877845 L31.5147616,14.4233597 C31.732729,13.9774264 31.590079,13.4525118 31.1932271,13.1761755 L31.0887798,13.1124597 L28.567288,11.7745789 C27.820739,11.3785367 27.2920573,10.6959672 27.0944053,9.8827122 L27.0547211,9.69278904 L26.5615827,6.88120423 C26.4753276,6.38939751 26.0466208,6.04742046 25.5597093,6.06136267 L25.4464413,6.070992 L22.6201516,6.47078073 C21.7883366,6.58852071 20.9642406,6.3505656 20.3278563,5.8155188 L20.172775,5.67560161 L18.1212483,3.69096896 C17.7644532,3.34592962 17.2211125,3.31938813 16.8357213,3.6113445 L16.7428635,3.69096896 L14.6912711,5.67560161 C14.087422,6.25969612 13.28075,6.55169443 12.4515575,6.49283825 L12.2438945,6.47078073 L9.41760483,6.070992 C8.92305501,6.00113448 8.46558054,6.30293605 8.32832464,6.77046481 L8.30246343,6.88120423 L7.80932502,9.69272339 C7.66333133,10.5251617 7.17748975,11.2388458 6.46517322,11.678144 L6.29682382,11.7745789 L3.77533202,13.1124597 C3.3368521,13.3450916 3.14370615,13.8535984 3.30230966,14.3104205 L3.34935024,14.4233597 L4.60294064,16.9878502 C4.97185519,17.7426464 5.00023324,18.599805 4.68807477,19.3703493 L4.60294064,19.5610716 L3.34935024,22.125562 C3.13138281,22.5714954 3.27403282,23.0964099 3.67088475,23.3727462 L3.77533202,23.436462 L6.29682382,24.7743429 C7.04337277,25.1703851 7.57205454,25.8529545 7.76970646,26.6662096 L7.80939066,26.8561327 L8.30259472,29.6677175 C8.38891083,30.1595242 8.81762197,30.5014447 9.30448117,30.487547 L9.41773612,30.4779298 L12.2440258,30.078141 C12.3835908,30.0583814 12.5229589,30.0486656 12.6612109,30.0486656 C13.3471598,30.0486656 14.00685,30.2881949 14.5365093,30.7335669 L14.6914024,30.8733202 L16.7429291,32.8579528 C17.0362657,33.1416244 17.4556919,33.2100173 17.8097713,33.0631316 C18.3330527,33.1388059 18.7469668,33.3557177 19.0515137,33.7138672 C19.508334,34.2510913 19.8206727,35.8383789 17.6430461,36.0172255 L17.4320771,36.0244609 C16.7282624,36.0244609 16.0246769,35.7833923 15.4492598,35.3010469 L15.2806077,35.1491047 L13.1138151,33.0529647 C12.9092418,32.8551255 12.6395866,32.7509278 12.359706,32.7585796 L12.239291,32.7687599 L9.25420513,33.191011 C9.10520391,33.2120888 8.95696538,33.2223504 8.81087623,33.2223504 C7.38692101,33.2224836 6.14054185,32.2496865 5.80951457,30.8402222 L5.77295699,30.6618037 L5.2521114,27.6922489 C5.20290945,27.4120222 5.04594553,27.1693265 4.81498814,27.0109359 L4.71157464,26.9483521 L2.04841184,25.5353019 C0.620529062,24.7776948 0.0260292021,23.0828052 0.642210351,21.6116264 L0.718702487,21.4429339 L2.04272636,18.7344259 C2.16515241,18.4839873 2.18264184,18.2019659 2.09519466,17.9424601 L2.04272636,17.8148339 L0.718771822,15.1063259 C0.0089032318,13.6540731 0.524227115,11.9333273 1.88744538,11.1053913 L2.04848117,11.0138885 L4.71164397,9.6008383 C4.96299253,9.46742882 5.14522478,9.2431383 5.22452577,8.97455522 L5.2521114,8.85687222 L5.77295699,5.8874561 C6.05262771,4.29313909 7.48420303,3.20298584 9.07659223,3.33808914 L9.25413579,3.35817946 L12.2392217,3.78043048 C12.5210863,3.82010751 12.8002437,3.74591783 13.0222554,3.5752334 L13.1137458,3.49622573 L15.2806077,1.39987772 C16.4387819,0.279310886 18.2270028,0.234552112 19.4356421,1.26541736 Z M21.5269413,19.980725 C23.5967339,19.980725 25.2806765,21.6646676 25.2806765,23.7344603 C25.2806765,25.8042529 23.5967339,27.4881955 21.5269413,27.4881955 C19.4571486,27.4881955 17.773206,25.8042529 17.773206,23.7344603 C17.773206,21.6646676 19.4571486,19.980725 21.5269413,19.980725 Z M23.4644425,10.7942348 C23.8642289,10.3944483 24.5125125,10.3944483 24.9122296,10.7942348 C25.3120853,11.1940905 25.3120853,11.8422354 24.9121602,12.2420912 L24.9121602,12.2420912 L11.3995038,25.7547477 C11.1996799,25.9547102 10.937593,26.0546221 10.6756449,26.0546221 C10.4136967,26.0546221 10.1516792,25.9546409 9.95178599,25.7547477 C9.55199956,25.3549612 9.55199956,24.706747 9.95178599,24.3069606 L9.95178599,24.3069606 Z M21.5269413,22.0282611 C20.5860634,22.0282611 19.8206727,22.7936518 19.8206727,23.7344603 C19.8206727,24.6752688 20.5861327,25.4406595 21.5269413,25.4406595 C22.4677498,25.4406595 23.2331404,24.6752688 23.2331404,23.7344603 C23.2331404,22.7936518 22.4677498,22.0282611 21.5269413,22.0282611 Z M13.3370743,9.06085621 C15.4068669,9.06085621 17.0908095,10.7447988 17.0908095,12.8145915 C17.0908095,14.8843841 15.4068669,16.5683267 13.3370743,16.5683267 C11.2672816,16.5683267 9.58333905,14.8843841 9.58333905,12.8145915 C9.58333905,10.7447988 11.2672816,9.06085621 13.3370743,9.06085621 Z M13.3370743,11.108323 C12.3962658,11.108323 11.6308751,11.8737136 11.6308751,12.8145221 C11.6308751,13.7554 12.3962658,14.5207906 13.3370743,14.5207906 C14.2778828,14.5207906 15.0432735,13.7554 15.0433428,12.8145221 C15.0433428,11.8737136 14.2778828,11.108323 13.3370743,11.108323 Z" fill="url(#linearGradient-1)" fill-rule="nonzero"></path>
    </g>
</svg>