<?xml version="1.0" encoding="UTF-8"?>
<svg width="19px" height="18px" viewBox="0 0 19 18" version="1.1" xmlns="http://www.w3.org/2000/svg" xmlns:xlink="http://www.w3.org/1999/xlink">
    <title>satus-accepted-icon</title>
    <defs>
        <linearGradient x1="81.9331384%" y1="15.7031603%" x2="21.291577%" y2="100%" id="linearGradient-1">
            <stop stop-color="#78993F" offset="0%"></stop>
            <stop stop-color="#429321" offset="100%"></stop>
        </linearGradient>
    </defs>
    <g id="Wireframes" stroke="none" stroke-width="1" fill="none" fill-rule="evenodd">
        <path d="M9.4960546,-7.33362594e-06 C9.78071384,0.000114968948 10.1826341,0.030666724 10.7018152,0.0916479315 C10.7074109,0.0923051735 10.7129868,0.0931199851 10.7185366,0.0940913958 C10.8583646,0.118566628 10.9584932,0.236229493 10.9663473,0.372093031 L10.9623414,0.441194362 L10.7641306,1.57358133 C10.7365402,1.73120672 10.5901109,1.83944589 10.4313336,1.81952675 C10.1342143,1.78236757 9.90137396,1.76105846 9.73281265,1.75559943 C8.99404364,1.73167363 8.25402194,1.82488869 7.54063599,2.03370029 C3.83181726,3.11928967 1.70531252,7.00592847 2.7909019,10.7147472 C3.87649127,14.4235659 7.76313008,16.5500707 11.4719488,15.4644813 C14.8888514,14.4643372 16.9627211,11.0867246 16.4191161,7.66103502 C16.396016,7.51546256 16.3535161,7.31565847 16.2916166,7.06162276 C16.259032,6.92789581 16.3216078,6.79248953 16.4372655,6.72833958 L16.4993229,6.7025403 L17.6067615,6.37987351 C17.6108095,6.37869406 17.6148819,6.37760006 17.618976,6.37659223 C17.7799122,6.33697531 17.9424925,6.43532394 17.9820125,6.59628391 C18.0614528,6.91899473 18.1160756,7.17281179 18.145881,7.35773508 C18.2193892,7.81380547 18.256762,8.27554294 18.2574059,8.73863401 C18.2636027,13.5711464 14.3511778,17.4936996 9.51872009,17.4999927 C4.68620769,17.5061821 0.763654484,13.5938119 0.757368787,8.7612995 C0.75117204,3.92878709 4.66359695,0.00623388825 9.4960546,-7.33362594e-06 Z M12.6177753,5.4052852 C12.7349325,5.28812791 12.924882,5.28812791 13.0420393,5.4052852 L13.0420393,5.4052852 L13.8563841,6.21962994 C13.9735414,6.33678722 13.9735414,6.52673672 13.8563841,6.643894 L13.8563841,6.643894 L8.1934459,12.3068322 L5.15839063,9.2717769 C5.04123335,9.15461961 5.04123335,8.96467012 5.15839063,8.84751283 L5.15839063,8.84751283 L5.97273537,8.0331681 C6.08989266,7.91601081 6.27984215,7.91601081 6.39699944,8.0331681 L6.39699944,8.0331681 L8.1934459,9.82961456 Z M16.1719818,3.14406211 L16.2184352,3.19540937 L16.9563183,4.22741375 C16.9627,4.2363391 16.9685871,4.24560782 16.9739533,4.25517815 C17.0434098,4.37905051 17.0155212,4.53108142 16.9151273,4.62302008 L16.8590032,4.66357315 L15.8563201,5.22578779 C15.7450443,5.2881813 15.6094937,5.27241315 15.5159451,5.19330552 L15.4653863,5.13835878 L14.8745159,4.3102232 C14.8005184,4.20651195 14.8013773,4.07025346 14.8696354,3.96869972 L14.9186186,3.91247005 L15.774289,3.14638662 C15.7824485,3.13908142 15.7910019,3.13222851 15.7999108,3.12585866 C15.915435,3.04325886 16.0696052,3.05433646 16.1719818,3.14406211 Z M13.1387105,0.834000013 L13.2111684,0.864134302 L14.2836922,1.462379 C14.2934224,1.46780639 14.3028426,1.47377161 14.3119092,1.48024692 C14.4274772,1.56278537 14.4669376,1.71223118 14.4152129,1.83815266 L14.3816821,1.89873437 L13.7147029,2.83261995 C13.6407076,2.93622622 13.5116765,2.97970082 13.3935064,2.9482454 L13.3244349,2.92026216 L12.4361174,2.42477711 C12.3217898,2.36100755 12.2641682,2.23234104 12.2872211,2.10818027 L12.3055814,2.04679668 L12.731979,1.0296204 C12.7368814,1.01792561 12.7424343,1.00651424 12.7486115,0.995439784 C12.8270166,0.854876443 12.9903678,0.791605174 13.1387105,0.834000013 Z" id="satus-accepted-icon" fill="url(#linearGradient-1)" fill-rule="nonzero"></path>
    </g>
</svg>