<?xml version="1.0" encoding="UTF-8"?>
<svg width="15px" height="15px" viewBox="0 0 15 15" version="1.1" xmlns="http://www.w3.org/2000/svg" xmlns:xlink="http://www.w3.org/1999/xlink">
    <title>status-pendent-icon</title>
    <defs>
        <linearGradient x1="100%" y1="100%" x2="5.43323864%" y2="-5.3109976%" id="linearGradient-1">
            <stop stop-color="#E95A0C" offset="0%"></stop>
            <stop stop-color="#FF7800" offset="100%"></stop>
        </linearGradient>
    </defs>
    <g id="Wireframes" stroke="none" stroke-width="1" fill="none" fill-rule="evenodd">
        <g id="Cuentas-de-Marketing-" transform="translate(-813.000000, -498.000000)" fill="url(#linearGradient-1)" fill-rule="nonzero">
            <g id="Connectd-accounts-title" transform="translate(343.384615, 295.000000)">
                <path d="M477.02004,203.630113 C477.235917,203.630206 477.536094,203.652174 477.92057,203.696019 C477.926505,203.696696 477.932419,203.69755 477.938302,203.69858 C478.101489,203.727144 478.210623,203.882588 478.18209,204.04578 L478.18209,204.04578 L478.044329,204.832818 C478.016826,204.989943 477.871185,205.098078 477.712825,205.078924 C477.501422,205.053395 477.333629,205.03862 477.209446,205.034598 C476.618433,205.015457 476.026417,205.090029 475.45571,205.257078 C472.488664,206.125549 470.787465,209.234859 471.655934,212.201913 C472.524403,215.168967 475.633705,216.87017 478.600751,216.001699 C481.334265,215.201584 482.993356,212.499495 482.558473,209.758944 C482.541679,209.653108 482.512066,209.511439 482.469636,209.333938 C482.432443,209.178346 482.52389,209.020946 482.677472,208.976172 L482.677472,208.976172 L483.448394,208.751554 C483.45281,208.750267 483.457255,208.749082 483.461726,208.747999 C483.622712,208.70903 483.784808,208.807943 483.823866,208.968907 C483.8793,209.197905 483.917972,209.380371 483.939881,209.516304 C483.998687,209.881161 484.028586,210.25055 484.029101,210.621023 C484.034058,214.487031 480.904127,217.625073 477.038173,217.630101 C473.172174,217.635059 470.034141,214.505164 470.029112,210.639155 C470.024155,206.773147 473.154086,203.635106 477.02004,203.630113 Z M482.018349,206.171362 C482.153127,206.074996 482.340507,206.106135 482.436873,206.240913 L482.436873,206.240913 L482.949282,206.957571 C482.955664,206.966496 482.961551,206.975764 482.966917,206.985334 C483.04795,207.129852 482.996485,207.312697 482.851967,207.39373 L482.851967,207.39373 L482.155173,207.78443 C482.021642,207.859303 481.853155,207.821622 481.764238,207.697001 L481.764238,207.697001 L481.353993,207.122019 C481.265196,206.997566 481.284192,206.826244 481.398095,206.724266 L481.398095,206.724266 L481.992727,206.19189 L481.992727,206.19189 Z M479.595997,204.489786 C479.68747,204.325796 479.894564,204.267008 480.058554,204.358481 L480.058554,204.358481 L480.791552,204.767342 C480.801282,204.772769 480.810702,204.778734 480.819768,204.78521 C480.954598,204.881504 480.985837,205.068867 480.889542,205.203697 L480.889542,205.203697 L480.426138,205.852544 C480.337343,205.976872 480.169297,206.01461 480.035869,205.940186 L480.035869,205.940186 L479.418927,205.596068 C479.285545,205.52167 479.229347,205.358941 479.288392,205.218088 L479.288392,205.218088 L479.579365,204.523967 L479.579365,204.523967 Z M476.356103,206.627789 C476.782325,206.627789 477.127845,206.97331 477.127845,207.399531 L477.126955,210.436789 L480.180787,210.437252 C480.60701,210.437252 480.952532,210.782774 480.952532,211.208997 C480.952532,211.635219 480.60701,211.980741 480.180787,211.980741 L476.598014,211.981704 C476.521924,212.0068 476.440599,212.020379 476.356103,212.020379 C476.06557,212.020379 475.812534,211.859835 475.68087,211.622621 C475.60417,211.50361 475.559955,211.361467 475.559955,211.208997 C475.559955,211.143287 475.568167,211.079496 475.583621,211.018593 L475.58436,207.399531 C475.58436,206.97331 475.929881,206.627789 476.356103,206.627789 Z" id="status-pendent-icon"></path>
            </g>
        </g>
    </g>
</svg>