<?xml version="1.0" encoding="UTF-8"?>
<svg width="19px" height="18px" viewBox="0 0 19 18" version="1.1" xmlns="http://www.w3.org/2000/svg">
    <path d="M9.53743509,-7.33362594e-06 C9.80728212,-7.33362594e-06 10.1825045,0.0275702466 10.6631009,0.082376656 C10.6705196,0.0832216584 10.6779109,0.0842891615 10.6852659,0.0855766653 C10.8601089,0.116180504 10.9853118,0.263308432 10.9950556,0.433181426 L10.9900018,0.519579177 L10.8178001,1.50337829 C10.7834212,1.69978511 10.6013682,1.8349555 10.4034189,1.81101168 C10.1391643,1.77910034 9.92942248,1.76063154 9.77419328,1.75560402 C9.03542363,1.7316777 8.29540273,1.82489422 7.5820169,2.03370608 C3.87319861,3.11929799 1.74669368,7.00594679 2.83228309,10.7147738 C3.91787249,14.4236021 7.80451005,16.550112 11.5133296,15.4645201 C14.930232,14.4643735 17.0041006,11.0867524 16.4604965,7.66105495 C16.4395027,7.52875831 16.4024876,7.35167155 16.3494486,7.12979465 C16.3095998,6.96308917 16.3878888,6.79472243 16.5319667,6.71477469 L16.6092457,6.6825871 L17.5728997,6.40181253 C17.578421,6.40020378 17.5839772,6.39872252 17.589566,6.39737002 C17.7907978,6.34865738 17.9934184,6.47229899 18.0422423,6.67350457 C18.111535,6.95975416 18.1598739,7.18783732 18.1872615,7.35775406 C18.2607692,7.81382539 18.2981418,8.27556423 18.2987929,8.73865558 C18.3049831,13.5711809 14.392558,17.4937435 9.56010015,17.5000372 C4.7275886,17.5062261 0.805035942,13.5938459 0.798742324,8.7613219 C0.792553406,3.92879784 4.70497728,0.00623393452 9.53743509,-7.33362594e-06 Z M9.57115488,11.8483776 C10.1234764,11.8483776 10.5711549,12.2960951 10.5711549,12.8484021 C10.5711549,13.4006592 10.1234257,13.8483776 9.57115488,13.8483776 C9.01883423,13.8483776 8.57115488,13.4006592 8.57115488,12.8484021 C8.57115488,12.2960951 9.01888405,11.8483776 9.57115488,11.8483776 Z M10.5260977,4.65185861 L10.524676,9.68263401 C10.5245201,10.2344158 10.0771688,10.6816406 9.52538702,10.6816406 C8.97365088,10.6816406 8.52638036,10.2343701 8.52638036,9.68263397 L8.52638036,4.69249783 C8.52638036,4.13684233 8.97083954,3.68326018 9.52638036,3.67197182 C10.067404,3.66097844 10.5149022,4.09065284 10.5258955,4.63167645 C10.5260322,4.63840296 10.5260996,4.64513071 10.5260977,4.65185861 Z M16.2504296,3.19931822 L16.308496,3.26350341 L16.9490091,4.15932726 C16.9569854,4.17048354 16.9643442,4.18206983 16.9710517,4.19403236 C17.0578732,4.34887281 17.0230131,4.53891212 16.8975202,4.6538362 L16.827365,4.7045276 L15.9563688,5.19290527 C15.8172733,5.27089674 15.6478354,5.25118669 15.5308988,5.1523014 L15.4676998,5.08361745 L14.9548908,4.36488786 C14.8623943,4.23524873 14.8634681,4.06492574 14.9487908,3.93798287 L15.0100198,3.86769641 L15.7533107,3.20222448 L15.7853395,3.17656315 C15.9297449,3.0733141 16.122458,3.08716039 16.2504296,3.19931822 Z M13.2450159,0.872787705 L13.3355886,0.910455314 L14.2518388,1.42153305 C14.2640013,1.42831807 14.2757764,1.43577434 14.2871089,1.44386812 C14.4315693,1.54704092 14.4808957,1.73384896 14.4162393,1.89125192 L14.3743254,1.96697839 L13.7950687,2.7780395 C13.7025747,2.90754862 13.5412855,2.96189253 13.3935713,2.92257242 L13.3072323,2.88759356 L12.5360526,2.45744481 C12.3931434,2.37773208 12.3211157,2.21689911 12.349932,2.06169741 L12.3728821,1.98496844 L12.7365994,1.11731467 L12.7573907,1.07458704 C12.8553972,0.89888278 13.0595866,0.8197938 13.2450159,0.872787705 Z" id="status-error-icon" fill="#D65B53" fill-rule="nonzero"></path>
</svg>