<?xml version="1.0" encoding="UTF-8"?>
<svg width="68px" height="86px" viewBox="0 0 68 86" version="1.1" xmlns="http://www.w3.org/2000/svg" xmlns:xlink="http://www.w3.org/1999/xlink">
    <g id="sync-icon" transform="translate(0.490165, 0.151840)" fill="#8BB04D" fill-rule="nonzero">
        <path d="M50.5588379,17.2275 C49.5378414,18.3304038 49.6042405,20.0521651 50.7071443,21.0731615 C50.75757,21.1198423 50.8097457,21.1645964 50.8635522,21.2073364 C51.1079387,21.4013941 51.3212414,21.5778633 51.5034603,21.736744 C58.4320275,27.7779141 62.2099886,37.1369164 60.6798379,46.866 C59.5338379,54.154 55.6168379,60.56 49.6528379,64.903 C44.4468379,68.694 38.2228379,70.518 31.8758379,70.155 L32.9658379,69.011 C32.9448379,69.01 32.9218379,69.013 32.9008379,69.012 L35.2115634,66.5876689 C36.2159576,65.5338942 36.1764669,63.8655712 35.1233379,62.8605 C34.0714161,61.856581 32.404828,61.8954949 31.400909,62.9474166 C31.4003279,62.9480254 31.3997472,62.9486345 31.3991668,62.9492438 L25.0288379,69.637 L25.0288379,69.637 L25.0268379,69.634 C23.0750803,71.6835388 23.152816,74.9267984 25.2005242,76.8804764 L25.3048379,76.98 L25.3048379,76.98 L32.0444183,83.4004403 C33.0692095,84.3767044 34.6913306,84.3375594 35.6678379,83.313 C36.6440934,82.2887047 36.6051495,80.6669379 35.5808542,79.6906823 C35.5807378,79.6905714 35.5806214,79.6904604 35.5805049,79.6903494 L31.8708379,76.156 L31.8708379,76.156 C39.4868379,76.516 46.9368379,74.303 53.1858379,69.753 C60.4468379,64.467 65.2138379,56.669 66.6098379,47.797 C68.4328343,36.1845922 64.0502114,25.0033811 55.9288508,17.6390644 C55.6960261,17.4279428 55.4174838,17.1887835 55.0932241,16.9215866 C53.7394472,15.8060456 51.7505086,15.9402299 50.5588379,17.2275 Z" id="Path"></path>
        <path d="M6.34083786,38.302 C7.48683786,31.014 11.4038379,24.608 17.3678379,20.265 C22.5738379,16.474 28.7978379,14.65 35.1448379,15.013 L34.0548379,16.157 C34.0758379,16.158 34.0988379,16.155 34.1198379,16.156 L31.8091123,18.5803311 C30.8047181,19.6341058 30.8442089,21.3024288 31.8973379,22.3075 C32.9492596,23.311419 34.6158478,23.2725051 35.6197668,22.2205834 C35.6203478,22.2199746 35.6209285,22.2193655 35.6215089,22.2187562 L41.9918379,15.531 L41.9918379,15.531 C43.9443079,13.4835301 43.8677048,10.2410538 41.8207246,8.28807036 L41.7158379,8.188 L41.7158379,8.188 L41.7138379,8.189 L34.9759442,1.76788846 C33.9513792,0.791493429 32.3292945,0.830493747 31.3528379,1.855 C30.3765823,2.87929526 30.4155262,4.50106212 31.4398215,5.47731766 C31.4399379,5.47742864 31.4400544,5.47753961 31.4401708,5.47765057 L35.1498379,9.012 L35.1498379,9.012 C27.5338379,8.652 20.0838379,10.865 13.8348379,15.415 C6.57383786,20.701 1.80683786,28.499 0.410837863,37.371 C-1.44448547,49.1730179 3.1123851,60.5288997 11.487954,67.8859216 C11.6121384,67.995004 11.7506824,68.1130394 11.903586,68.2400278 C13.2601442,69.3666245 15.260924,69.2355141 16.4588379,67.9415 C17.4770314,66.841624 17.4108146,65.1245893 16.3109386,64.1063958 C16.2666254,64.0653735 16.2209553,64.0258417 16.1739993,63.987873 C16.1294693,63.9518555 16.0867569,63.9168952 16.0458622,63.8829921 C8.78282645,57.8616823 4.77204949,48.2767516 6.34083786,38.302 Z" id="Path"></path>
    </g>

</svg>